%TF.GenerationSoftware,KiCad,Pcbnew,7.0.1-0*%
%TF.CreationDate,2023-08-23T15:05:40+02:00*%
%TF.ProjectId,ESP32SomfyPOE_bottom,45535033-3253-46f6-9d66-79504f455f62,rev?*%
%TF.SameCoordinates,Original*%
%TF.FileFunction,Copper,L1,Top*%
%TF.FilePolarity,Positive*%
%FSLAX46Y46*%
G04 Gerber Fmt 4.6, Leading zero omitted, Abs format (unit mm)*
G04 Created by KiCad (PCBNEW 7.0.1-0) date 2023-08-23 15:05:40*
%MOMM*%
%LPD*%
G01*
G04 APERTURE LIST*
G04 Aperture macros list*
%AMRoundRect*
0 Rectangle with rounded corners*
0 $1 Rounding radius*
0 $2 $3 $4 $5 $6 $7 $8 $9 X,Y pos of 4 corners*
0 Add a 4 corners polygon primitive as box body*
4,1,4,$2,$3,$4,$5,$6,$7,$8,$9,$2,$3,0*
0 Add four circle primitives for the rounded corners*
1,1,$1+$1,$2,$3*
1,1,$1+$1,$4,$5*
1,1,$1+$1,$6,$7*
1,1,$1+$1,$8,$9*
0 Add four rect primitives between the rounded corners*
20,1,$1+$1,$2,$3,$4,$5,0*
20,1,$1+$1,$4,$5,$6,$7,0*
20,1,$1+$1,$6,$7,$8,$9,0*
20,1,$1+$1,$8,$9,$2,$3,0*%
G04 Aperture macros list end*
%TA.AperFunction,ComponentPad*%
%ADD10C,4.500000*%
%TD*%
%TA.AperFunction,ComponentPad*%
%ADD11C,1.700000*%
%TD*%
%TA.AperFunction,ComponentPad*%
%ADD12RoundRect,0.425000X-0.425000X0.425000X-0.425000X-0.425000X0.425000X-0.425000X0.425000X0.425000X0*%
%TD*%
%TA.AperFunction,ViaPad*%
%ADD13C,0.800000*%
%TD*%
%TA.AperFunction,Conductor*%
%ADD14C,0.250000*%
%TD*%
G04 APERTURE END LIST*
D10*
%TO.P,H1,1,1*%
%TO.N,GND*%
X119500000Y-65850000D03*
%TD*%
D11*
%TO.P,UEXT,1,3V3*%
%TO.N,+3V3*%
X101600000Y-67056000D03*
D12*
%TO.P,UEXT,2,GND*%
%TO.N,GND*%
X101600000Y-69596000D03*
D11*
%TO.P,UEXT,3,TXD*%
%TO.N,GPIO4*%
X99060000Y-67056000D03*
%TO.P,UEXT,4,RXD*%
%TO.N,GPI36*%
X99060000Y-69596000D03*
%TO.P,UEXT,5,SCL*%
%TO.N,GPIO16*%
X96520000Y-67056000D03*
%TO.P,UEXT,6,SDA*%
%TO.N,GPIO13*%
X96520000Y-69596000D03*
%TO.P,UEXT,7,MISO*%
%TO.N,GPIO15*%
X93980000Y-67056000D03*
%TO.P,UEXT,8,MOSI*%
%TO.N,GPIO2*%
X93980000Y-69596000D03*
%TO.P,UEXT,9,SCK*%
%TO.N,GPIO14*%
X91440000Y-67056000D03*
%TO.P,UEXT,10,~{SSEL}*%
%TO.N,GPIO5*%
X91440000Y-69596000D03*
%TD*%
D13*
%TO.N,GND*%
X92583000Y-81788000D03*
X96774000Y-77724000D03*
X117475000Y-71501000D03*
X89662000Y-87503000D03*
X113538000Y-88773000D03*
X92329000Y-74295000D03*
X118745000Y-71501000D03*
X95250000Y-87376000D03*
X112268000Y-88773000D03*
X86398500Y-73914000D03*
X112268000Y-87503000D03*
X118745000Y-72771000D03*
X96520000Y-87376000D03*
X95250000Y-88646000D03*
X113538000Y-87503000D03*
X117475000Y-72771000D03*
X96520000Y-88646000D03*
%TO.N,GPIO15*%
X90934208Y-85854208D03*
%TO.N,GPIO16*%
X98933000Y-74930000D03*
%TO.N,GPIO13*%
X97920604Y-75060604D03*
%TD*%
D14*
%TO.N,GND*%
X102775000Y-66453000D02*
X102775000Y-68421000D01*
X102203000Y-65881000D02*
X102775000Y-66453000D01*
X86398500Y-73914000D02*
X86398500Y-70435799D01*
X90953299Y-65881000D02*
X102203000Y-65881000D01*
X86398500Y-70435799D02*
X90953299Y-65881000D01*
X102775000Y-68421000D02*
X101600000Y-69596000D01*
%TO.N,GPIO15*%
X92615000Y-84173416D02*
X92615000Y-84169000D01*
X90934208Y-85854208D02*
X92615000Y-84173416D01*
X95155000Y-81629000D02*
X95155000Y-68231000D01*
X92615000Y-84169000D02*
X95155000Y-81629000D01*
X95155000Y-68231000D02*
X93980000Y-67056000D01*
%TO.N,GPIO16*%
X97695000Y-70009000D02*
X97695000Y-68231000D01*
X98933000Y-71247000D02*
X97695000Y-70009000D01*
X97695000Y-68231000D02*
X96520000Y-67056000D01*
X98933000Y-74930000D02*
X98933000Y-71247000D01*
%TO.N,GPIO13*%
X97920604Y-70996604D02*
X96520000Y-69596000D01*
X97920604Y-75060604D02*
X97920604Y-70996604D01*
%TD*%
%TA.AperFunction,Conductor*%
%TO.N,GND*%
G36*
X117930595Y-63369986D02*
G01*
X117975912Y-63414759D01*
X117993019Y-63476123D01*
X117977401Y-63537883D01*
X117939889Y-63576779D01*
X117940871Y-63578032D01*
X117739416Y-63735861D01*
X117739416Y-63735862D01*
X119500000Y-65496447D01*
X121614136Y-67610582D01*
X121614137Y-67610582D01*
X121767343Y-67415030D01*
X121769384Y-67411655D01*
X121771854Y-67409272D01*
X121771967Y-67409129D01*
X121771987Y-67409144D01*
X121815239Y-67367434D01*
X121876999Y-67351815D01*
X121938363Y-67368922D01*
X121983136Y-67414239D01*
X121999500Y-67475806D01*
X121999500Y-93741894D01*
X121996378Y-93757589D01*
X121996378Y-93793399D01*
X121996183Y-93800351D01*
X121982391Y-94045960D01*
X121982278Y-94047743D01*
X121979897Y-94081458D01*
X121978453Y-94093493D01*
X121955617Y-94227902D01*
X121955338Y-94229483D01*
X121928601Y-94375389D01*
X121925786Y-94387366D01*
X121887463Y-94520388D01*
X121886695Y-94522950D01*
X121843853Y-94660438D01*
X121840028Y-94671000D01*
X121786400Y-94800471D01*
X121784915Y-94803910D01*
X121726517Y-94933665D01*
X121721969Y-94942755D01*
X121653765Y-95066160D01*
X121651355Y-95070328D01*
X121578182Y-95191374D01*
X121573194Y-95198980D01*
X121491345Y-95314337D01*
X121487825Y-95319055D01*
X121400845Y-95430076D01*
X121395695Y-95436230D01*
X121301307Y-95541850D01*
X121296528Y-95546904D01*
X121196904Y-95646528D01*
X121191850Y-95651307D01*
X121086230Y-95745695D01*
X121080076Y-95750845D01*
X120969055Y-95837825D01*
X120964337Y-95841345D01*
X120848980Y-95923194D01*
X120841374Y-95928182D01*
X120720328Y-96001355D01*
X120716160Y-96003765D01*
X120592755Y-96071969D01*
X120583665Y-96076517D01*
X120453910Y-96134915D01*
X120450471Y-96136400D01*
X120321000Y-96190028D01*
X120310438Y-96193853D01*
X120172950Y-96236695D01*
X120170388Y-96237463D01*
X120037366Y-96275786D01*
X120025389Y-96278601D01*
X119879483Y-96305338D01*
X119877902Y-96305617D01*
X119745666Y-96328084D01*
X119732382Y-96329610D01*
X119562534Y-96339882D01*
X119562001Y-96339913D01*
X119457268Y-96345794D01*
X119450349Y-96346183D01*
X119443399Y-96346378D01*
X87553482Y-96346378D01*
X87546528Y-96346183D01*
X87434742Y-96339904D01*
X87434210Y-96339873D01*
X87264507Y-96329609D01*
X87251222Y-96328083D01*
X87118953Y-96305609D01*
X87117372Y-96305330D01*
X86971487Y-96278595D01*
X86959511Y-96275780D01*
X86826512Y-96237463D01*
X86823949Y-96236694D01*
X86686438Y-96193843D01*
X86675877Y-96190019D01*
X86546441Y-96136406D01*
X86543001Y-96134920D01*
X86413215Y-96076507D01*
X86404126Y-96071960D01*
X86280731Y-96003762D01*
X86276562Y-96001351D01*
X86155501Y-95928167D01*
X86147895Y-95923179D01*
X86032550Y-95841336D01*
X86027832Y-95837817D01*
X85916815Y-95750839D01*
X85910662Y-95745689D01*
X85805049Y-95651308D01*
X85799995Y-95646529D01*
X85700352Y-95546886D01*
X85695583Y-95541842D01*
X85647604Y-95488153D01*
X85601203Y-95436229D01*
X85596052Y-95430076D01*
X85509051Y-95319026D01*
X85505544Y-95314323D01*
X85423705Y-95198980D01*
X85418734Y-95191401D01*
X85345529Y-95070304D01*
X85343128Y-95066151D01*
X85274933Y-94942761D01*
X85270385Y-94933671D01*
X85270382Y-94933665D01*
X85211955Y-94803844D01*
X85210499Y-94800471D01*
X85156860Y-94670973D01*
X85153053Y-94660460D01*
X85110190Y-94522904D01*
X85109450Y-94520434D01*
X85071106Y-94387337D01*
X85068298Y-94375389D01*
X85041539Y-94229365D01*
X85041316Y-94228101D01*
X85018808Y-94095623D01*
X85017288Y-94082394D01*
X85007174Y-93915359D01*
X85000694Y-93799958D01*
X85000500Y-93793009D01*
X85000500Y-85854208D01*
X90028748Y-85854208D01*
X90048534Y-86042465D01*
X90107028Y-86222492D01*
X90201674Y-86386424D01*
X90328337Y-86527097D01*
X90481477Y-86638359D01*
X90654405Y-86715352D01*
X90839560Y-86754708D01*
X90839562Y-86754708D01*
X91028854Y-86754708D01*
X91028856Y-86754708D01*
X91152292Y-86728470D01*
X91214011Y-86715352D01*
X91386938Y-86638359D01*
X91540079Y-86527096D01*
X91666741Y-86386424D01*
X91761387Y-86222492D01*
X91819882Y-86042464D01*
X91837530Y-85874549D01*
X91848928Y-85834135D01*
X91873165Y-85799840D01*
X92998789Y-84674216D01*
X93014885Y-84661322D01*
X93016873Y-84659203D01*
X93016877Y-84659202D01*
X93062948Y-84610139D01*
X93065566Y-84607439D01*
X93085120Y-84587887D01*
X93087581Y-84584714D01*
X93095155Y-84575844D01*
X93125062Y-84543998D01*
X93125063Y-84543994D01*
X93130991Y-84537683D01*
X93133669Y-84534919D01*
X95538789Y-82129800D01*
X95554885Y-82116906D01*
X95556873Y-82114787D01*
X95556877Y-82114786D01*
X95602948Y-82065723D01*
X95605566Y-82063023D01*
X95625120Y-82043471D01*
X95627581Y-82040298D01*
X95635156Y-82031427D01*
X95665062Y-81999582D01*
X95674717Y-81982018D01*
X95685394Y-81965764D01*
X95697673Y-81949936D01*
X95715018Y-81909852D01*
X95720160Y-81899356D01*
X95741197Y-81861092D01*
X95746179Y-81841684D01*
X95752481Y-81823280D01*
X95760437Y-81804896D01*
X95767269Y-81761752D01*
X95769633Y-81750338D01*
X95780500Y-81708019D01*
X95780500Y-81687984D01*
X95782027Y-81668585D01*
X95782068Y-81668321D01*
X95785160Y-81648804D01*
X95781050Y-81605325D01*
X95780500Y-81593656D01*
X95780500Y-70935919D01*
X95795786Y-70876276D01*
X95837875Y-70831338D01*
X95896390Y-70812184D01*
X95956905Y-70823537D01*
X96056337Y-70869903D01*
X96284592Y-70931063D01*
X96520000Y-70951659D01*
X96755408Y-70931063D01*
X96855874Y-70904143D01*
X96920059Y-70904143D01*
X96975647Y-70936237D01*
X97258785Y-71219376D01*
X97285665Y-71259604D01*
X97295104Y-71307057D01*
X97295104Y-74361917D01*
X97286868Y-74406355D01*
X97263256Y-74444886D01*
X97230149Y-74481655D01*
X97188068Y-74528390D01*
X97093424Y-74692319D01*
X97034930Y-74872346D01*
X97015144Y-75060603D01*
X97034930Y-75248861D01*
X97093424Y-75428888D01*
X97188070Y-75592820D01*
X97314733Y-75733493D01*
X97467873Y-75844755D01*
X97640801Y-75921748D01*
X97825956Y-75961104D01*
X97825958Y-75961104D01*
X98015250Y-75961104D01*
X98015252Y-75961104D01*
X98138687Y-75934866D01*
X98200407Y-75921748D01*
X98373334Y-75844755D01*
X98467508Y-75776333D01*
X98527429Y-75753332D01*
X98590824Y-75763373D01*
X98644746Y-75787381D01*
X98653199Y-75791145D01*
X98838352Y-75830500D01*
X98838354Y-75830500D01*
X99027646Y-75830500D01*
X99027648Y-75830500D01*
X99151084Y-75804262D01*
X99212803Y-75791144D01*
X99385730Y-75714151D01*
X99538871Y-75602888D01*
X99665533Y-75462216D01*
X99760179Y-75298284D01*
X99818674Y-75118256D01*
X99838460Y-74930000D01*
X99818674Y-74741744D01*
X99760179Y-74561716D01*
X99760179Y-74561715D01*
X99665535Y-74397786D01*
X99633238Y-74361917D01*
X99590347Y-74314282D01*
X99566736Y-74275751D01*
X99558500Y-74231313D01*
X99558500Y-71329740D01*
X99560763Y-71309236D01*
X99558561Y-71239144D01*
X99558500Y-71235250D01*
X99558500Y-71207657D01*
X99558500Y-71207650D01*
X99557995Y-71203653D01*
X99557080Y-71192023D01*
X99555709Y-71148372D01*
X99550119Y-71129134D01*
X99546174Y-71110082D01*
X99543664Y-71090208D01*
X99527578Y-71049581D01*
X99523799Y-71038540D01*
X99510286Y-70992028D01*
X99507585Y-70934056D01*
X99531560Y-70881205D01*
X99576955Y-70845052D01*
X99737830Y-70770035D01*
X99931401Y-70634495D01*
X100098495Y-70467401D01*
X100133979Y-70416723D01*
X100182168Y-70375929D01*
X100244201Y-70364151D01*
X100303992Y-70384447D01*
X100346037Y-70431554D01*
X100394957Y-70527566D01*
X100517324Y-70678675D01*
X100668433Y-70801042D01*
X100841684Y-70889318D01*
X101029501Y-70939643D01*
X101110265Y-70946000D01*
X101350000Y-70946000D01*
X101350000Y-69846000D01*
X101850000Y-69846000D01*
X101850000Y-70946000D01*
X102089735Y-70946000D01*
X102170498Y-70939643D01*
X102358315Y-70889318D01*
X102531566Y-70801042D01*
X102682675Y-70678675D01*
X102805042Y-70527566D01*
X102893318Y-70354315D01*
X102943643Y-70166498D01*
X102950000Y-70085735D01*
X102950000Y-69846000D01*
X101850000Y-69846000D01*
X101350000Y-69846000D01*
X101350000Y-69470000D01*
X101366613Y-69408000D01*
X101412000Y-69362613D01*
X101474000Y-69346000D01*
X102950000Y-69346000D01*
X102950000Y-69106265D01*
X102943643Y-69025501D01*
X102893318Y-68837684D01*
X102805042Y-68664433D01*
X102682675Y-68513324D01*
X102531566Y-68390957D01*
X102435554Y-68342037D01*
X102388447Y-68299992D01*
X102368151Y-68240201D01*
X102379929Y-68178168D01*
X102420723Y-68129979D01*
X102471401Y-68094495D01*
X102601758Y-67964138D01*
X117739416Y-67964138D01*
X117934960Y-68117338D01*
X118219681Y-68289456D01*
X118523053Y-68425994D01*
X118840673Y-68524968D01*
X119167917Y-68584938D01*
X119500000Y-68605026D01*
X119832082Y-68584938D01*
X120159326Y-68524968D01*
X120476946Y-68425994D01*
X120780318Y-68289456D01*
X121065033Y-68117341D01*
X121260582Y-67964137D01*
X121260582Y-67964136D01*
X119500001Y-66203553D01*
X119500000Y-66203553D01*
X117739416Y-67964136D01*
X117739416Y-67964138D01*
X102601758Y-67964138D01*
X102638495Y-67927401D01*
X102774035Y-67733830D01*
X102873903Y-67519663D01*
X102935063Y-67291408D01*
X102955659Y-67056000D01*
X102935063Y-66820592D01*
X102873903Y-66592337D01*
X102774035Y-66378171D01*
X102638495Y-66184599D01*
X102471401Y-66017505D01*
X102277830Y-65881965D01*
X102209281Y-65850000D01*
X116744973Y-65850000D01*
X116765061Y-66182082D01*
X116825031Y-66509326D01*
X116924005Y-66826946D01*
X117060543Y-67130318D01*
X117232657Y-67415033D01*
X117385862Y-67610582D01*
X119146446Y-65850000D01*
X119146446Y-65849998D01*
X117385862Y-64089416D01*
X117385861Y-64089416D01*
X117232657Y-64284966D01*
X117060543Y-64569681D01*
X116924005Y-64873053D01*
X116825031Y-65190673D01*
X116765061Y-65517917D01*
X116744973Y-65850000D01*
X102209281Y-65850000D01*
X102063663Y-65782097D01*
X101980777Y-65759888D01*
X101835407Y-65720936D01*
X101600000Y-65700340D01*
X101364592Y-65720936D01*
X101136336Y-65782097D01*
X100922170Y-65881965D01*
X100728598Y-66017505D01*
X100561505Y-66184598D01*
X100431575Y-66370159D01*
X100387257Y-66409025D01*
X100330000Y-66423036D01*
X100272743Y-66409025D01*
X100228425Y-66370159D01*
X100213449Y-66348771D01*
X100098495Y-66184599D01*
X99931401Y-66017505D01*
X99737830Y-65881965D01*
X99523663Y-65782097D01*
X99440777Y-65759888D01*
X99295407Y-65720936D01*
X99060000Y-65700340D01*
X98824592Y-65720936D01*
X98596336Y-65782097D01*
X98382170Y-65881965D01*
X98188598Y-66017505D01*
X98021505Y-66184598D01*
X97891575Y-66370159D01*
X97847257Y-66409025D01*
X97790000Y-66423036D01*
X97732743Y-66409025D01*
X97688425Y-66370159D01*
X97673449Y-66348771D01*
X97558495Y-66184599D01*
X97391401Y-66017505D01*
X97197830Y-65881965D01*
X96983663Y-65782097D01*
X96900777Y-65759888D01*
X96755407Y-65720936D01*
X96520000Y-65700340D01*
X96284592Y-65720936D01*
X96056336Y-65782097D01*
X95842170Y-65881965D01*
X95648598Y-66017505D01*
X95481505Y-66184598D01*
X95351575Y-66370159D01*
X95307257Y-66409025D01*
X95250000Y-66423036D01*
X95192743Y-66409025D01*
X95148425Y-66370159D01*
X95133449Y-66348771D01*
X95018495Y-66184599D01*
X94851401Y-66017505D01*
X94657830Y-65881965D01*
X94443663Y-65782097D01*
X94360777Y-65759888D01*
X94215407Y-65720936D01*
X93980000Y-65700340D01*
X93744592Y-65720936D01*
X93516336Y-65782097D01*
X93302170Y-65881965D01*
X93108598Y-66017505D01*
X92941505Y-66184598D01*
X92811575Y-66370159D01*
X92767257Y-66409025D01*
X92710000Y-66423036D01*
X92652743Y-66409025D01*
X92608425Y-66370159D01*
X92593449Y-66348771D01*
X92478495Y-66184599D01*
X92311401Y-66017505D01*
X92117830Y-65881965D01*
X91903663Y-65782097D01*
X91820777Y-65759888D01*
X91675407Y-65720936D01*
X91440000Y-65700340D01*
X91204592Y-65720936D01*
X90976336Y-65782097D01*
X90762170Y-65881965D01*
X90568598Y-66017505D01*
X90401505Y-66184598D01*
X90265965Y-66378170D01*
X90166097Y-66592336D01*
X90104936Y-66820592D01*
X90084340Y-67056000D01*
X90104936Y-67291407D01*
X90137849Y-67414239D01*
X90166097Y-67519663D01*
X90265965Y-67733830D01*
X90401505Y-67927401D01*
X90568599Y-68094495D01*
X90754160Y-68224426D01*
X90793024Y-68268743D01*
X90807035Y-68326000D01*
X90793024Y-68383257D01*
X90754159Y-68427575D01*
X90568595Y-68557508D01*
X90401505Y-68724598D01*
X90265965Y-68918170D01*
X90166097Y-69132336D01*
X90104936Y-69360592D01*
X90084340Y-69596000D01*
X90104936Y-69831407D01*
X90149709Y-69998501D01*
X90166097Y-70059663D01*
X90265965Y-70273830D01*
X90401505Y-70467401D01*
X90568599Y-70634495D01*
X90762170Y-70770035D01*
X90976337Y-70869903D01*
X91204592Y-70931063D01*
X91440000Y-70951659D01*
X91675408Y-70931063D01*
X91903663Y-70869903D01*
X92117830Y-70770035D01*
X92311401Y-70634495D01*
X92478495Y-70467401D01*
X92608426Y-70281839D01*
X92652743Y-70242975D01*
X92710000Y-70228964D01*
X92767257Y-70242975D01*
X92811573Y-70281839D01*
X92941505Y-70467401D01*
X93108599Y-70634495D01*
X93302170Y-70770035D01*
X93516337Y-70869903D01*
X93744592Y-70931063D01*
X93980000Y-70951659D01*
X94215408Y-70931063D01*
X94315876Y-70904143D01*
X94373407Y-70888728D01*
X94429691Y-70886886D01*
X94480986Y-70910127D01*
X94516712Y-70953659D01*
X94529500Y-71008503D01*
X94529500Y-81318547D01*
X94520061Y-81366000D01*
X94493181Y-81406228D01*
X92231208Y-83668199D01*
X92215110Y-83681096D01*
X92167096Y-83732225D01*
X92164391Y-83735017D01*
X92144875Y-83754534D01*
X92142411Y-83757710D01*
X92134841Y-83766572D01*
X92099040Y-83804698D01*
X92096327Y-83807497D01*
X90986436Y-84917389D01*
X90946208Y-84944269D01*
X90898755Y-84953708D01*
X90839560Y-84953708D01*
X90654405Y-84993063D01*
X90481477Y-85070056D01*
X90328337Y-85181318D01*
X90201674Y-85321991D01*
X90107028Y-85485923D01*
X90048534Y-85665950D01*
X90028748Y-85854208D01*
X85000500Y-85854208D01*
X85000500Y-65906600D01*
X85000695Y-65899650D01*
X85001688Y-65881964D01*
X85006982Y-65787675D01*
X85017269Y-65617583D01*
X85018788Y-65604363D01*
X85041296Y-65471881D01*
X85041503Y-65470711D01*
X85068279Y-65324594D01*
X85071089Y-65312640D01*
X85109442Y-65179511D01*
X85110144Y-65177170D01*
X85153028Y-65039548D01*
X85156841Y-65029015D01*
X85210535Y-64899382D01*
X85211891Y-64896244D01*
X85270381Y-64766281D01*
X85274887Y-64757276D01*
X85343137Y-64633784D01*
X85345505Y-64629692D01*
X85418709Y-64508595D01*
X85423660Y-64501043D01*
X85505560Y-64385615D01*
X85509029Y-64380965D01*
X85596060Y-64269876D01*
X85601160Y-64263785D01*
X85695571Y-64158138D01*
X85700297Y-64153137D01*
X85800024Y-64053410D01*
X85805022Y-64048686D01*
X85910662Y-63954279D01*
X85916759Y-63949175D01*
X86027869Y-63862125D01*
X86032512Y-63858663D01*
X86147906Y-63776787D01*
X86155474Y-63771823D01*
X86276584Y-63698609D01*
X86280648Y-63696258D01*
X86404146Y-63628003D01*
X86413204Y-63623472D01*
X86542999Y-63565055D01*
X86546296Y-63563630D01*
X86675918Y-63509938D01*
X86686405Y-63506142D01*
X86824116Y-63463229D01*
X86826326Y-63462566D01*
X86959519Y-63424194D01*
X86971476Y-63421383D01*
X87117532Y-63394617D01*
X87118780Y-63394397D01*
X87251223Y-63371894D01*
X87264475Y-63370373D01*
X87437806Y-63359900D01*
X87534007Y-63354497D01*
X87546127Y-63353817D01*
X87553079Y-63353622D01*
X117869028Y-63353622D01*
X117930595Y-63369986D01*
G37*
%TD.AperFunction*%
%TD*%
M02*
