%TF.GenerationSoftware,KiCad,Pcbnew,7.0.1-0*%
%TF.CreationDate,2023-08-23T15:05:40+02:00*%
%TF.ProjectId,ESP32SomfyPOE_bottom,45535033-3253-46f6-9d66-79504f455f62,rev?*%
%TF.SameCoordinates,Original*%
%TF.FileFunction,Legend,Bot*%
%TF.FilePolarity,Positive*%
%FSLAX46Y46*%
G04 Gerber Fmt 4.6, Leading zero omitted, Abs format (unit mm)*
G04 Created by KiCad (PCBNEW 7.0.1-0) date 2023-08-23 15:05:40*
%MOMM*%
%LPD*%
G01*
G04 APERTURE LIST*
%ADD10C,0.100000*%
%ADD11C,0.150000*%
%ADD12C,0.120000*%
G04 APERTURE END LIST*
D10*
%TO.C,E07-433M20S*%
X102903809Y-79250714D02*
X102903809Y-79584047D01*
X103427619Y-79726904D02*
X103427619Y-79250714D01*
X103427619Y-79250714D02*
X102427619Y-79250714D01*
X102427619Y-79250714D02*
X102427619Y-79726904D01*
X102427619Y-80345952D02*
X102427619Y-80441190D01*
X102427619Y-80441190D02*
X102475238Y-80536428D01*
X102475238Y-80536428D02*
X102522857Y-80584047D01*
X102522857Y-80584047D02*
X102618095Y-80631666D01*
X102618095Y-80631666D02*
X102808571Y-80679285D01*
X102808571Y-80679285D02*
X103046666Y-80679285D01*
X103046666Y-80679285D02*
X103237142Y-80631666D01*
X103237142Y-80631666D02*
X103332380Y-80584047D01*
X103332380Y-80584047D02*
X103380000Y-80536428D01*
X103380000Y-80536428D02*
X103427619Y-80441190D01*
X103427619Y-80441190D02*
X103427619Y-80345952D01*
X103427619Y-80345952D02*
X103380000Y-80250714D01*
X103380000Y-80250714D02*
X103332380Y-80203095D01*
X103332380Y-80203095D02*
X103237142Y-80155476D01*
X103237142Y-80155476D02*
X103046666Y-80107857D01*
X103046666Y-80107857D02*
X102808571Y-80107857D01*
X102808571Y-80107857D02*
X102618095Y-80155476D01*
X102618095Y-80155476D02*
X102522857Y-80203095D01*
X102522857Y-80203095D02*
X102475238Y-80250714D01*
X102475238Y-80250714D02*
X102427619Y-80345952D01*
X102427619Y-81012619D02*
X102427619Y-81679285D01*
X102427619Y-81679285D02*
X103427619Y-81250714D01*
X103046666Y-82060238D02*
X103046666Y-82822143D01*
X102760952Y-83726904D02*
X103427619Y-83726904D01*
X102380000Y-83488809D02*
X103094285Y-83250714D01*
X103094285Y-83250714D02*
X103094285Y-83869761D01*
X102427619Y-84155476D02*
X102427619Y-84774523D01*
X102427619Y-84774523D02*
X102808571Y-84441190D01*
X102808571Y-84441190D02*
X102808571Y-84584047D01*
X102808571Y-84584047D02*
X102856190Y-84679285D01*
X102856190Y-84679285D02*
X102903809Y-84726904D01*
X102903809Y-84726904D02*
X102999047Y-84774523D01*
X102999047Y-84774523D02*
X103237142Y-84774523D01*
X103237142Y-84774523D02*
X103332380Y-84726904D01*
X103332380Y-84726904D02*
X103380000Y-84679285D01*
X103380000Y-84679285D02*
X103427619Y-84584047D01*
X103427619Y-84584047D02*
X103427619Y-84298333D01*
X103427619Y-84298333D02*
X103380000Y-84203095D01*
X103380000Y-84203095D02*
X103332380Y-84155476D01*
X102427619Y-85107857D02*
X102427619Y-85726904D01*
X102427619Y-85726904D02*
X102808571Y-85393571D01*
X102808571Y-85393571D02*
X102808571Y-85536428D01*
X102808571Y-85536428D02*
X102856190Y-85631666D01*
X102856190Y-85631666D02*
X102903809Y-85679285D01*
X102903809Y-85679285D02*
X102999047Y-85726904D01*
X102999047Y-85726904D02*
X103237142Y-85726904D01*
X103237142Y-85726904D02*
X103332380Y-85679285D01*
X103332380Y-85679285D02*
X103380000Y-85631666D01*
X103380000Y-85631666D02*
X103427619Y-85536428D01*
X103427619Y-85536428D02*
X103427619Y-85250714D01*
X103427619Y-85250714D02*
X103380000Y-85155476D01*
X103380000Y-85155476D02*
X103332380Y-85107857D01*
X103427619Y-86155476D02*
X102427619Y-86155476D01*
X102427619Y-86155476D02*
X103141904Y-86488809D01*
X103141904Y-86488809D02*
X102427619Y-86822142D01*
X102427619Y-86822142D02*
X103427619Y-86822142D01*
X102522857Y-87250714D02*
X102475238Y-87298333D01*
X102475238Y-87298333D02*
X102427619Y-87393571D01*
X102427619Y-87393571D02*
X102427619Y-87631666D01*
X102427619Y-87631666D02*
X102475238Y-87726904D01*
X102475238Y-87726904D02*
X102522857Y-87774523D01*
X102522857Y-87774523D02*
X102618095Y-87822142D01*
X102618095Y-87822142D02*
X102713333Y-87822142D01*
X102713333Y-87822142D02*
X102856190Y-87774523D01*
X102856190Y-87774523D02*
X103427619Y-87203095D01*
X103427619Y-87203095D02*
X103427619Y-87822142D01*
X102427619Y-88441190D02*
X102427619Y-88536428D01*
X102427619Y-88536428D02*
X102475238Y-88631666D01*
X102475238Y-88631666D02*
X102522857Y-88679285D01*
X102522857Y-88679285D02*
X102618095Y-88726904D01*
X102618095Y-88726904D02*
X102808571Y-88774523D01*
X102808571Y-88774523D02*
X103046666Y-88774523D01*
X103046666Y-88774523D02*
X103237142Y-88726904D01*
X103237142Y-88726904D02*
X103332380Y-88679285D01*
X103332380Y-88679285D02*
X103380000Y-88631666D01*
X103380000Y-88631666D02*
X103427619Y-88536428D01*
X103427619Y-88536428D02*
X103427619Y-88441190D01*
X103427619Y-88441190D02*
X103380000Y-88345952D01*
X103380000Y-88345952D02*
X103332380Y-88298333D01*
X103332380Y-88298333D02*
X103237142Y-88250714D01*
X103237142Y-88250714D02*
X103046666Y-88203095D01*
X103046666Y-88203095D02*
X102808571Y-88203095D01*
X102808571Y-88203095D02*
X102618095Y-88250714D01*
X102618095Y-88250714D02*
X102522857Y-88298333D01*
X102522857Y-88298333D02*
X102475238Y-88345952D01*
X102475238Y-88345952D02*
X102427619Y-88441190D01*
X103380000Y-89155476D02*
X103427619Y-89298333D01*
X103427619Y-89298333D02*
X103427619Y-89536428D01*
X103427619Y-89536428D02*
X103380000Y-89631666D01*
X103380000Y-89631666D02*
X103332380Y-89679285D01*
X103332380Y-89679285D02*
X103237142Y-89726904D01*
X103237142Y-89726904D02*
X103141904Y-89726904D01*
X103141904Y-89726904D02*
X103046666Y-89679285D01*
X103046666Y-89679285D02*
X102999047Y-89631666D01*
X102999047Y-89631666D02*
X102951428Y-89536428D01*
X102951428Y-89536428D02*
X102903809Y-89345952D01*
X102903809Y-89345952D02*
X102856190Y-89250714D01*
X102856190Y-89250714D02*
X102808571Y-89203095D01*
X102808571Y-89203095D02*
X102713333Y-89155476D01*
X102713333Y-89155476D02*
X102618095Y-89155476D01*
X102618095Y-89155476D02*
X102522857Y-89203095D01*
X102522857Y-89203095D02*
X102475238Y-89250714D01*
X102475238Y-89250714D02*
X102427619Y-89345952D01*
X102427619Y-89345952D02*
X102427619Y-89584047D01*
X102427619Y-89584047D02*
X102475238Y-89726904D01*
D11*
%TO.C,UEXT*%
X107662619Y-66854762D02*
X108472142Y-66854762D01*
X108472142Y-66854762D02*
X108567380Y-66902381D01*
X108567380Y-66902381D02*
X108615000Y-66950000D01*
X108615000Y-66950000D02*
X108662619Y-67045238D01*
X108662619Y-67045238D02*
X108662619Y-67235714D01*
X108662619Y-67235714D02*
X108615000Y-67330952D01*
X108615000Y-67330952D02*
X108567380Y-67378571D01*
X108567380Y-67378571D02*
X108472142Y-67426190D01*
X108472142Y-67426190D02*
X107662619Y-67426190D01*
X108138809Y-67902381D02*
X108138809Y-68235714D01*
X108662619Y-68378571D02*
X108662619Y-67902381D01*
X108662619Y-67902381D02*
X107662619Y-67902381D01*
X107662619Y-67902381D02*
X107662619Y-68378571D01*
X107662619Y-68711905D02*
X108662619Y-69378571D01*
X107662619Y-69378571D02*
X108662619Y-68711905D01*
X107662619Y-69616667D02*
X107662619Y-70188095D01*
X108662619Y-69902381D02*
X107662619Y-69902381D01*
D10*
%TO.C,E07-433M20S*%
X87249000Y-75577000D02*
X119249000Y-75577000D01*
X119249000Y-75577000D02*
X119249000Y-93577000D01*
X119249000Y-93577000D02*
X87249000Y-93577000D01*
X87249000Y-93577000D02*
X87249000Y-75577000D01*
D12*
%TO.C,UEXT*%
X91940000Y-62376000D02*
X91440000Y-63376000D01*
X90940000Y-62376000D02*
X91940000Y-62376000D01*
X91440000Y-63376000D02*
X90940000Y-62376000D01*
X106810000Y-63766000D02*
X86230000Y-63766000D01*
X94470000Y-63766000D02*
X94470000Y-65076000D01*
X86230000Y-63766000D02*
X86230000Y-72886000D01*
X105510000Y-65076000D02*
X98570000Y-65076000D01*
X98570000Y-65076000D02*
X98570000Y-63766000D01*
X98570000Y-65076000D02*
X98570000Y-65076000D01*
X94470000Y-65076000D02*
X87530000Y-65076000D01*
X87530000Y-65076000D02*
X87530000Y-71576000D01*
X105510000Y-71576000D02*
X105510000Y-65076000D01*
X87530000Y-71576000D02*
X105510000Y-71576000D01*
X106810000Y-72886000D02*
X106810000Y-63766000D01*
X86230000Y-72886000D02*
X106810000Y-72886000D01*
%TD*%
M02*
