%TF.GenerationSoftware,KiCad,Pcbnew,7.0.1-0*%
%TF.CreationDate,2023-08-23T15:05:40+02:00*%
%TF.ProjectId,ESP32SomfyPOE_bottom,45535033-3253-46f6-9d66-79504f455f62,rev?*%
%TF.SameCoordinates,Original*%
%TF.FileFunction,Legend,Top*%
%TF.FilePolarity,Positive*%
%FSLAX46Y46*%
G04 Gerber Fmt 4.6, Leading zero omitted, Abs format (unit mm)*
G04 Created by KiCad (PCBNEW 7.0.1-0) date 2023-08-23 15:05:40*
%MOMM*%
%LPD*%
G01*
G04 APERTURE LIST*
%ADD10C,1.200000*%
%ADD11C,0.200000*%
%ADD12C,0.150000*%
%ADD13C,0.500000*%
%ADD14C,0.010000*%
G04 APERTURE END LIST*
D10*
X108204000Y-85693250D02*
X108204000Y-75342750D01*
X86741000Y-85693250D02*
X86741000Y-75342750D01*
D11*
X88749142Y-76429178D02*
X88749142Y-74929178D01*
X88749142Y-74929178D02*
X89606285Y-76429178D01*
X89606285Y-76429178D02*
X89606285Y-74929178D01*
X90892000Y-76357750D02*
X90749143Y-76429178D01*
X90749143Y-76429178D02*
X90463429Y-76429178D01*
X90463429Y-76429178D02*
X90320571Y-76357750D01*
X90320571Y-76357750D02*
X90249143Y-76214892D01*
X90249143Y-76214892D02*
X90249143Y-75643464D01*
X90249143Y-75643464D02*
X90320571Y-75500607D01*
X90320571Y-75500607D02*
X90463429Y-75429178D01*
X90463429Y-75429178D02*
X90749143Y-75429178D01*
X90749143Y-75429178D02*
X90892000Y-75500607D01*
X90892000Y-75500607D02*
X90963429Y-75643464D01*
X90963429Y-75643464D02*
X90963429Y-75786321D01*
X90963429Y-75786321D02*
X90249143Y-75929178D01*
X91392000Y-75429178D02*
X91963428Y-75429178D01*
X91606285Y-74929178D02*
X91606285Y-76214892D01*
X91606285Y-76214892D02*
X91677714Y-76357750D01*
X91677714Y-76357750D02*
X91820571Y-76429178D01*
X91820571Y-76429178D02*
X91963428Y-76429178D01*
X92320571Y-75429178D02*
X92606286Y-76429178D01*
X92606286Y-76429178D02*
X92892000Y-75714892D01*
X92892000Y-75714892D02*
X93177714Y-76429178D01*
X93177714Y-76429178D02*
X93463428Y-75429178D01*
X94249143Y-76429178D02*
X94106286Y-76357750D01*
X94106286Y-76357750D02*
X94034857Y-76286321D01*
X94034857Y-76286321D02*
X93963429Y-76143464D01*
X93963429Y-76143464D02*
X93963429Y-75714892D01*
X93963429Y-75714892D02*
X94034857Y-75572035D01*
X94034857Y-75572035D02*
X94106286Y-75500607D01*
X94106286Y-75500607D02*
X94249143Y-75429178D01*
X94249143Y-75429178D02*
X94463429Y-75429178D01*
X94463429Y-75429178D02*
X94606286Y-75500607D01*
X94606286Y-75500607D02*
X94677715Y-75572035D01*
X94677715Y-75572035D02*
X94749143Y-75714892D01*
X94749143Y-75714892D02*
X94749143Y-76143464D01*
X94749143Y-76143464D02*
X94677715Y-76286321D01*
X94677715Y-76286321D02*
X94606286Y-76357750D01*
X94606286Y-76357750D02*
X94463429Y-76429178D01*
X94463429Y-76429178D02*
X94249143Y-76429178D01*
X95392000Y-76429178D02*
X95392000Y-75429178D01*
X95392000Y-75714892D02*
X95463429Y-75572035D01*
X95463429Y-75572035D02*
X95534858Y-75500607D01*
X95534858Y-75500607D02*
X95677715Y-75429178D01*
X95677715Y-75429178D02*
X95820572Y-75429178D01*
X96320571Y-76429178D02*
X96320571Y-74929178D01*
X96463429Y-75857750D02*
X96892000Y-76429178D01*
X96892000Y-75429178D02*
X96320571Y-76000607D01*
D12*
X89979476Y-93714857D02*
X90027095Y-93667238D01*
X90027095Y-93667238D02*
X90122333Y-93619619D01*
X90122333Y-93619619D02*
X90360428Y-93619619D01*
X90360428Y-93619619D02*
X90455666Y-93667238D01*
X90455666Y-93667238D02*
X90503285Y-93714857D01*
X90503285Y-93714857D02*
X90550904Y-93810095D01*
X90550904Y-93810095D02*
X90550904Y-93905333D01*
X90550904Y-93905333D02*
X90503285Y-94048190D01*
X90503285Y-94048190D02*
X89931857Y-94619619D01*
X89931857Y-94619619D02*
X90550904Y-94619619D01*
X91169952Y-93619619D02*
X91265190Y-93619619D01*
X91265190Y-93619619D02*
X91360428Y-93667238D01*
X91360428Y-93667238D02*
X91408047Y-93714857D01*
X91408047Y-93714857D02*
X91455666Y-93810095D01*
X91455666Y-93810095D02*
X91503285Y-94000571D01*
X91503285Y-94000571D02*
X91503285Y-94238666D01*
X91503285Y-94238666D02*
X91455666Y-94429142D01*
X91455666Y-94429142D02*
X91408047Y-94524380D01*
X91408047Y-94524380D02*
X91360428Y-94572000D01*
X91360428Y-94572000D02*
X91265190Y-94619619D01*
X91265190Y-94619619D02*
X91169952Y-94619619D01*
X91169952Y-94619619D02*
X91074714Y-94572000D01*
X91074714Y-94572000D02*
X91027095Y-94524380D01*
X91027095Y-94524380D02*
X90979476Y-94429142D01*
X90979476Y-94429142D02*
X90931857Y-94238666D01*
X90931857Y-94238666D02*
X90931857Y-94000571D01*
X90931857Y-94000571D02*
X90979476Y-93810095D01*
X90979476Y-93810095D02*
X91027095Y-93714857D01*
X91027095Y-93714857D02*
X91074714Y-93667238D01*
X91074714Y-93667238D02*
X91169952Y-93619619D01*
X91884238Y-93714857D02*
X91931857Y-93667238D01*
X91931857Y-93667238D02*
X92027095Y-93619619D01*
X92027095Y-93619619D02*
X92265190Y-93619619D01*
X92265190Y-93619619D02*
X92360428Y-93667238D01*
X92360428Y-93667238D02*
X92408047Y-93714857D01*
X92408047Y-93714857D02*
X92455666Y-93810095D01*
X92455666Y-93810095D02*
X92455666Y-93905333D01*
X92455666Y-93905333D02*
X92408047Y-94048190D01*
X92408047Y-94048190D02*
X91836619Y-94619619D01*
X91836619Y-94619619D02*
X92455666Y-94619619D01*
X92789000Y-93619619D02*
X93408047Y-93619619D01*
X93408047Y-93619619D02*
X93074714Y-94000571D01*
X93074714Y-94000571D02*
X93217571Y-94000571D01*
X93217571Y-94000571D02*
X93312809Y-94048190D01*
X93312809Y-94048190D02*
X93360428Y-94095809D01*
X93360428Y-94095809D02*
X93408047Y-94191047D01*
X93408047Y-94191047D02*
X93408047Y-94429142D01*
X93408047Y-94429142D02*
X93360428Y-94524380D01*
X93360428Y-94524380D02*
X93312809Y-94572000D01*
X93312809Y-94572000D02*
X93217571Y-94619619D01*
X93217571Y-94619619D02*
X92931857Y-94619619D01*
X92931857Y-94619619D02*
X92836619Y-94572000D01*
X92836619Y-94572000D02*
X92789000Y-94524380D01*
X93836619Y-94238666D02*
X94598524Y-94238666D01*
X95265190Y-93619619D02*
X95360428Y-93619619D01*
X95360428Y-93619619D02*
X95455666Y-93667238D01*
X95455666Y-93667238D02*
X95503285Y-93714857D01*
X95503285Y-93714857D02*
X95550904Y-93810095D01*
X95550904Y-93810095D02*
X95598523Y-94000571D01*
X95598523Y-94000571D02*
X95598523Y-94238666D01*
X95598523Y-94238666D02*
X95550904Y-94429142D01*
X95550904Y-94429142D02*
X95503285Y-94524380D01*
X95503285Y-94524380D02*
X95455666Y-94572000D01*
X95455666Y-94572000D02*
X95360428Y-94619619D01*
X95360428Y-94619619D02*
X95265190Y-94619619D01*
X95265190Y-94619619D02*
X95169952Y-94572000D01*
X95169952Y-94572000D02*
X95122333Y-94524380D01*
X95122333Y-94524380D02*
X95074714Y-94429142D01*
X95074714Y-94429142D02*
X95027095Y-94238666D01*
X95027095Y-94238666D02*
X95027095Y-94000571D01*
X95027095Y-94000571D02*
X95074714Y-93810095D01*
X95074714Y-93810095D02*
X95122333Y-93714857D01*
X95122333Y-93714857D02*
X95169952Y-93667238D01*
X95169952Y-93667238D02*
X95265190Y-93619619D01*
X96169952Y-94048190D02*
X96074714Y-94000571D01*
X96074714Y-94000571D02*
X96027095Y-93952952D01*
X96027095Y-93952952D02*
X95979476Y-93857714D01*
X95979476Y-93857714D02*
X95979476Y-93810095D01*
X95979476Y-93810095D02*
X96027095Y-93714857D01*
X96027095Y-93714857D02*
X96074714Y-93667238D01*
X96074714Y-93667238D02*
X96169952Y-93619619D01*
X96169952Y-93619619D02*
X96360428Y-93619619D01*
X96360428Y-93619619D02*
X96455666Y-93667238D01*
X96455666Y-93667238D02*
X96503285Y-93714857D01*
X96503285Y-93714857D02*
X96550904Y-93810095D01*
X96550904Y-93810095D02*
X96550904Y-93857714D01*
X96550904Y-93857714D02*
X96503285Y-93952952D01*
X96503285Y-93952952D02*
X96455666Y-94000571D01*
X96455666Y-94000571D02*
X96360428Y-94048190D01*
X96360428Y-94048190D02*
X96169952Y-94048190D01*
X96169952Y-94048190D02*
X96074714Y-94095809D01*
X96074714Y-94095809D02*
X96027095Y-94143428D01*
X96027095Y-94143428D02*
X95979476Y-94238666D01*
X95979476Y-94238666D02*
X95979476Y-94429142D01*
X95979476Y-94429142D02*
X96027095Y-94524380D01*
X96027095Y-94524380D02*
X96074714Y-94572000D01*
X96074714Y-94572000D02*
X96169952Y-94619619D01*
X96169952Y-94619619D02*
X96360428Y-94619619D01*
X96360428Y-94619619D02*
X96455666Y-94572000D01*
X96455666Y-94572000D02*
X96503285Y-94524380D01*
X96503285Y-94524380D02*
X96550904Y-94429142D01*
X96550904Y-94429142D02*
X96550904Y-94238666D01*
X96550904Y-94238666D02*
X96503285Y-94143428D01*
X96503285Y-94143428D02*
X96455666Y-94095809D01*
X96455666Y-94095809D02*
X96360428Y-94048190D01*
X96979476Y-94238666D02*
X97741381Y-94238666D01*
X98169952Y-93714857D02*
X98217571Y-93667238D01*
X98217571Y-93667238D02*
X98312809Y-93619619D01*
X98312809Y-93619619D02*
X98550904Y-93619619D01*
X98550904Y-93619619D02*
X98646142Y-93667238D01*
X98646142Y-93667238D02*
X98693761Y-93714857D01*
X98693761Y-93714857D02*
X98741380Y-93810095D01*
X98741380Y-93810095D02*
X98741380Y-93905333D01*
X98741380Y-93905333D02*
X98693761Y-94048190D01*
X98693761Y-94048190D02*
X98122333Y-94619619D01*
X98122333Y-94619619D02*
X98741380Y-94619619D01*
X99074714Y-93619619D02*
X99693761Y-93619619D01*
X99693761Y-93619619D02*
X99360428Y-94000571D01*
X99360428Y-94000571D02*
X99503285Y-94000571D01*
X99503285Y-94000571D02*
X99598523Y-94048190D01*
X99598523Y-94048190D02*
X99646142Y-94095809D01*
X99646142Y-94095809D02*
X99693761Y-94191047D01*
X99693761Y-94191047D02*
X99693761Y-94429142D01*
X99693761Y-94429142D02*
X99646142Y-94524380D01*
X99646142Y-94524380D02*
X99598523Y-94572000D01*
X99598523Y-94572000D02*
X99503285Y-94619619D01*
X99503285Y-94619619D02*
X99217571Y-94619619D01*
X99217571Y-94619619D02*
X99122333Y-94572000D01*
X99122333Y-94572000D02*
X99074714Y-94524380D01*
D11*
X98305857Y-78705857D02*
X97877285Y-78705857D01*
X97877285Y-78705857D02*
X97877285Y-77805857D01*
X98562999Y-78448714D02*
X98991571Y-78448714D01*
X98477285Y-78705857D02*
X98777285Y-77805857D01*
X98777285Y-77805857D02*
X99077285Y-78705857D01*
X99377285Y-78705857D02*
X99377285Y-77805857D01*
X99377285Y-77805857D02*
X99891571Y-78705857D01*
X99891571Y-78705857D02*
X99891571Y-77805857D01*
X100448714Y-78191571D02*
X100362999Y-78148714D01*
X100362999Y-78148714D02*
X100320142Y-78105857D01*
X100320142Y-78105857D02*
X100277285Y-78020142D01*
X100277285Y-78020142D02*
X100277285Y-77977285D01*
X100277285Y-77977285D02*
X100320142Y-77891571D01*
X100320142Y-77891571D02*
X100362999Y-77848714D01*
X100362999Y-77848714D02*
X100448714Y-77805857D01*
X100448714Y-77805857D02*
X100620142Y-77805857D01*
X100620142Y-77805857D02*
X100705857Y-77848714D01*
X100705857Y-77848714D02*
X100748714Y-77891571D01*
X100748714Y-77891571D02*
X100791571Y-77977285D01*
X100791571Y-77977285D02*
X100791571Y-78020142D01*
X100791571Y-78020142D02*
X100748714Y-78105857D01*
X100748714Y-78105857D02*
X100705857Y-78148714D01*
X100705857Y-78148714D02*
X100620142Y-78191571D01*
X100620142Y-78191571D02*
X100448714Y-78191571D01*
X100448714Y-78191571D02*
X100362999Y-78234428D01*
X100362999Y-78234428D02*
X100320142Y-78277285D01*
X100320142Y-78277285D02*
X100277285Y-78363000D01*
X100277285Y-78363000D02*
X100277285Y-78534428D01*
X100277285Y-78534428D02*
X100320142Y-78620142D01*
X100320142Y-78620142D02*
X100362999Y-78663000D01*
X100362999Y-78663000D02*
X100448714Y-78705857D01*
X100448714Y-78705857D02*
X100620142Y-78705857D01*
X100620142Y-78705857D02*
X100705857Y-78663000D01*
X100705857Y-78663000D02*
X100748714Y-78620142D01*
X100748714Y-78620142D02*
X100791571Y-78534428D01*
X100791571Y-78534428D02*
X100791571Y-78363000D01*
X100791571Y-78363000D02*
X100748714Y-78277285D01*
X100748714Y-78277285D02*
X100705857Y-78234428D01*
X100705857Y-78234428D02*
X100620142Y-78191571D01*
X101091571Y-77805857D02*
X101691571Y-77805857D01*
X101691571Y-77805857D02*
X101305857Y-78705857D01*
X101991571Y-77891571D02*
X102034428Y-77848714D01*
X102034428Y-77848714D02*
X102120143Y-77805857D01*
X102120143Y-77805857D02*
X102334428Y-77805857D01*
X102334428Y-77805857D02*
X102420143Y-77848714D01*
X102420143Y-77848714D02*
X102463000Y-77891571D01*
X102463000Y-77891571D02*
X102505857Y-77977285D01*
X102505857Y-77977285D02*
X102505857Y-78063000D01*
X102505857Y-78063000D02*
X102463000Y-78191571D01*
X102463000Y-78191571D02*
X101948714Y-78705857D01*
X101948714Y-78705857D02*
X102505857Y-78705857D01*
X103063000Y-77805857D02*
X103148714Y-77805857D01*
X103148714Y-77805857D02*
X103234428Y-77848714D01*
X103234428Y-77848714D02*
X103277286Y-77891571D01*
X103277286Y-77891571D02*
X103320143Y-77977285D01*
X103320143Y-77977285D02*
X103363000Y-78148714D01*
X103363000Y-78148714D02*
X103363000Y-78363000D01*
X103363000Y-78363000D02*
X103320143Y-78534428D01*
X103320143Y-78534428D02*
X103277286Y-78620142D01*
X103277286Y-78620142D02*
X103234428Y-78663000D01*
X103234428Y-78663000D02*
X103148714Y-78705857D01*
X103148714Y-78705857D02*
X103063000Y-78705857D01*
X103063000Y-78705857D02*
X102977286Y-78663000D01*
X102977286Y-78663000D02*
X102934428Y-78620142D01*
X102934428Y-78620142D02*
X102891571Y-78534428D01*
X102891571Y-78534428D02*
X102848714Y-78363000D01*
X102848714Y-78363000D02*
X102848714Y-78148714D01*
X102848714Y-78148714D02*
X102891571Y-77977285D01*
X102891571Y-77977285D02*
X102934428Y-77891571D01*
X102934428Y-77891571D02*
X102977286Y-77848714D01*
X102977286Y-77848714D02*
X103063000Y-77805857D01*
X97877285Y-80163857D02*
X97877285Y-79263857D01*
X97877285Y-79263857D02*
X98220142Y-79263857D01*
X98220142Y-79263857D02*
X98305857Y-79306714D01*
X98305857Y-79306714D02*
X98348714Y-79349571D01*
X98348714Y-79349571D02*
X98391571Y-79435285D01*
X98391571Y-79435285D02*
X98391571Y-79563857D01*
X98391571Y-79563857D02*
X98348714Y-79649571D01*
X98348714Y-79649571D02*
X98305857Y-79692428D01*
X98305857Y-79692428D02*
X98220142Y-79735285D01*
X98220142Y-79735285D02*
X97877285Y-79735285D01*
X98777285Y-80163857D02*
X98777285Y-79263857D01*
X98777285Y-79692428D02*
X99291571Y-79692428D01*
X99291571Y-80163857D02*
X99291571Y-79263857D01*
X99891571Y-79735285D02*
X99891571Y-80163857D01*
X99591571Y-79263857D02*
X99891571Y-79735285D01*
X99891571Y-79735285D02*
X100191571Y-79263857D01*
X101348714Y-79263857D02*
X101434428Y-79263857D01*
X101434428Y-79263857D02*
X101520142Y-79306714D01*
X101520142Y-79306714D02*
X101563000Y-79349571D01*
X101563000Y-79349571D02*
X101605857Y-79435285D01*
X101605857Y-79435285D02*
X101648714Y-79606714D01*
X101648714Y-79606714D02*
X101648714Y-79821000D01*
X101648714Y-79821000D02*
X101605857Y-79992428D01*
X101605857Y-79992428D02*
X101563000Y-80078142D01*
X101563000Y-80078142D02*
X101520142Y-80121000D01*
X101520142Y-80121000D02*
X101434428Y-80163857D01*
X101434428Y-80163857D02*
X101348714Y-80163857D01*
X101348714Y-80163857D02*
X101263000Y-80121000D01*
X101263000Y-80121000D02*
X101220142Y-80078142D01*
X101220142Y-80078142D02*
X101177285Y-79992428D01*
X101177285Y-79992428D02*
X101134428Y-79821000D01*
X101134428Y-79821000D02*
X101134428Y-79606714D01*
X101134428Y-79606714D02*
X101177285Y-79435285D01*
X101177285Y-79435285D02*
X101220142Y-79349571D01*
X101220142Y-79349571D02*
X101263000Y-79306714D01*
X101263000Y-79306714D02*
X101348714Y-79263857D01*
X98348714Y-80764714D02*
X98263000Y-80721857D01*
X98263000Y-80721857D02*
X98134428Y-80721857D01*
X98134428Y-80721857D02*
X98005857Y-80764714D01*
X98005857Y-80764714D02*
X97920142Y-80850428D01*
X97920142Y-80850428D02*
X97877285Y-80936142D01*
X97877285Y-80936142D02*
X97834428Y-81107571D01*
X97834428Y-81107571D02*
X97834428Y-81236142D01*
X97834428Y-81236142D02*
X97877285Y-81407571D01*
X97877285Y-81407571D02*
X97920142Y-81493285D01*
X97920142Y-81493285D02*
X98005857Y-81579000D01*
X98005857Y-81579000D02*
X98134428Y-81621857D01*
X98134428Y-81621857D02*
X98220142Y-81621857D01*
X98220142Y-81621857D02*
X98348714Y-81579000D01*
X98348714Y-81579000D02*
X98391571Y-81536142D01*
X98391571Y-81536142D02*
X98391571Y-81236142D01*
X98391571Y-81236142D02*
X98220142Y-81236142D01*
X98777285Y-81621857D02*
X98777285Y-80721857D01*
X98777285Y-80721857D02*
X99120142Y-80721857D01*
X99120142Y-80721857D02*
X99205857Y-80764714D01*
X99205857Y-80764714D02*
X99248714Y-80807571D01*
X99248714Y-80807571D02*
X99291571Y-80893285D01*
X99291571Y-80893285D02*
X99291571Y-81021857D01*
X99291571Y-81021857D02*
X99248714Y-81107571D01*
X99248714Y-81107571D02*
X99205857Y-81150428D01*
X99205857Y-81150428D02*
X99120142Y-81193285D01*
X99120142Y-81193285D02*
X98777285Y-81193285D01*
X99677285Y-81621857D02*
X99677285Y-80721857D01*
X100277285Y-80721857D02*
X100448713Y-80721857D01*
X100448713Y-80721857D02*
X100534428Y-80764714D01*
X100534428Y-80764714D02*
X100620142Y-80850428D01*
X100620142Y-80850428D02*
X100662999Y-81021857D01*
X100662999Y-81021857D02*
X100662999Y-81321857D01*
X100662999Y-81321857D02*
X100620142Y-81493285D01*
X100620142Y-81493285D02*
X100534428Y-81579000D01*
X100534428Y-81579000D02*
X100448713Y-81621857D01*
X100448713Y-81621857D02*
X100277285Y-81621857D01*
X100277285Y-81621857D02*
X100191571Y-81579000D01*
X100191571Y-81579000D02*
X100105856Y-81493285D01*
X100105856Y-81493285D02*
X100062999Y-81321857D01*
X100062999Y-81321857D02*
X100062999Y-81021857D01*
X100062999Y-81021857D02*
X100105856Y-80850428D01*
X100105856Y-80850428D02*
X100191571Y-80764714D01*
X100191571Y-80764714D02*
X100277285Y-80721857D01*
X100834428Y-81707571D02*
X101520142Y-81707571D01*
X102205856Y-81621857D02*
X101691570Y-81621857D01*
X101948713Y-81621857D02*
X101948713Y-80721857D01*
X101948713Y-80721857D02*
X101862999Y-80850428D01*
X101862999Y-80850428D02*
X101777284Y-80936142D01*
X101777284Y-80936142D02*
X101691570Y-80979000D01*
X102505856Y-80721857D02*
X103105856Y-80721857D01*
X103105856Y-80721857D02*
X102720142Y-81621857D01*
X104305856Y-80721857D02*
X104477284Y-80721857D01*
X104477284Y-80721857D02*
X104562999Y-80764714D01*
X104562999Y-80764714D02*
X104648713Y-80850428D01*
X104648713Y-80850428D02*
X104691570Y-81021857D01*
X104691570Y-81021857D02*
X104691570Y-81321857D01*
X104691570Y-81321857D02*
X104648713Y-81493285D01*
X104648713Y-81493285D02*
X104562999Y-81579000D01*
X104562999Y-81579000D02*
X104477284Y-81621857D01*
X104477284Y-81621857D02*
X104305856Y-81621857D01*
X104305856Y-81621857D02*
X104220142Y-81579000D01*
X104220142Y-81579000D02*
X104134427Y-81493285D01*
X104134427Y-81493285D02*
X104091570Y-81321857D01*
X104091570Y-81321857D02*
X104091570Y-81021857D01*
X104091570Y-81021857D02*
X104134427Y-80850428D01*
X104134427Y-80850428D02*
X104220142Y-80764714D01*
X104220142Y-80764714D02*
X104305856Y-80721857D01*
X105077284Y-80721857D02*
X105077284Y-81450428D01*
X105077284Y-81450428D02*
X105120141Y-81536142D01*
X105120141Y-81536142D02*
X105162999Y-81579000D01*
X105162999Y-81579000D02*
X105248713Y-81621857D01*
X105248713Y-81621857D02*
X105420141Y-81621857D01*
X105420141Y-81621857D02*
X105505856Y-81579000D01*
X105505856Y-81579000D02*
X105548713Y-81536142D01*
X105548713Y-81536142D02*
X105591570Y-81450428D01*
X105591570Y-81450428D02*
X105591570Y-80721857D01*
X105891570Y-80721857D02*
X106405856Y-80721857D01*
X106148713Y-81621857D02*
X106148713Y-80721857D01*
X98348714Y-82222714D02*
X98263000Y-82179857D01*
X98263000Y-82179857D02*
X98134428Y-82179857D01*
X98134428Y-82179857D02*
X98005857Y-82222714D01*
X98005857Y-82222714D02*
X97920142Y-82308428D01*
X97920142Y-82308428D02*
X97877285Y-82394142D01*
X97877285Y-82394142D02*
X97834428Y-82565571D01*
X97834428Y-82565571D02*
X97834428Y-82694142D01*
X97834428Y-82694142D02*
X97877285Y-82865571D01*
X97877285Y-82865571D02*
X97920142Y-82951285D01*
X97920142Y-82951285D02*
X98005857Y-83037000D01*
X98005857Y-83037000D02*
X98134428Y-83079857D01*
X98134428Y-83079857D02*
X98220142Y-83079857D01*
X98220142Y-83079857D02*
X98348714Y-83037000D01*
X98348714Y-83037000D02*
X98391571Y-82994142D01*
X98391571Y-82994142D02*
X98391571Y-82694142D01*
X98391571Y-82694142D02*
X98220142Y-82694142D01*
X98777285Y-83079857D02*
X98777285Y-82179857D01*
X98777285Y-82179857D02*
X99120142Y-82179857D01*
X99120142Y-82179857D02*
X99205857Y-82222714D01*
X99205857Y-82222714D02*
X99248714Y-82265571D01*
X99248714Y-82265571D02*
X99291571Y-82351285D01*
X99291571Y-82351285D02*
X99291571Y-82479857D01*
X99291571Y-82479857D02*
X99248714Y-82565571D01*
X99248714Y-82565571D02*
X99205857Y-82608428D01*
X99205857Y-82608428D02*
X99120142Y-82651285D01*
X99120142Y-82651285D02*
X98777285Y-82651285D01*
X99677285Y-83079857D02*
X99677285Y-82179857D01*
X100277285Y-82179857D02*
X100448713Y-82179857D01*
X100448713Y-82179857D02*
X100534428Y-82222714D01*
X100534428Y-82222714D02*
X100620142Y-82308428D01*
X100620142Y-82308428D02*
X100662999Y-82479857D01*
X100662999Y-82479857D02*
X100662999Y-82779857D01*
X100662999Y-82779857D02*
X100620142Y-82951285D01*
X100620142Y-82951285D02*
X100534428Y-83037000D01*
X100534428Y-83037000D02*
X100448713Y-83079857D01*
X100448713Y-83079857D02*
X100277285Y-83079857D01*
X100277285Y-83079857D02*
X100191571Y-83037000D01*
X100191571Y-83037000D02*
X100105856Y-82951285D01*
X100105856Y-82951285D02*
X100062999Y-82779857D01*
X100062999Y-82779857D02*
X100062999Y-82479857D01*
X100062999Y-82479857D02*
X100105856Y-82308428D01*
X100105856Y-82308428D02*
X100191571Y-82222714D01*
X100191571Y-82222714D02*
X100277285Y-82179857D01*
X100834428Y-83165571D02*
X101520142Y-83165571D01*
X102205856Y-83079857D02*
X101691570Y-83079857D01*
X101948713Y-83079857D02*
X101948713Y-82179857D01*
X101948713Y-82179857D02*
X101862999Y-82308428D01*
X101862999Y-82308428D02*
X101777284Y-82394142D01*
X101777284Y-82394142D02*
X101691570Y-82437000D01*
X102548713Y-82265571D02*
X102591570Y-82222714D01*
X102591570Y-82222714D02*
X102677285Y-82179857D01*
X102677285Y-82179857D02*
X102891570Y-82179857D01*
X102891570Y-82179857D02*
X102977285Y-82222714D01*
X102977285Y-82222714D02*
X103020142Y-82265571D01*
X103020142Y-82265571D02*
X103062999Y-82351285D01*
X103062999Y-82351285D02*
X103062999Y-82437000D01*
X103062999Y-82437000D02*
X103020142Y-82565571D01*
X103020142Y-82565571D02*
X102505856Y-83079857D01*
X102505856Y-83079857D02*
X103062999Y-83079857D01*
X98348714Y-83680714D02*
X98263000Y-83637857D01*
X98263000Y-83637857D02*
X98134428Y-83637857D01*
X98134428Y-83637857D02*
X98005857Y-83680714D01*
X98005857Y-83680714D02*
X97920142Y-83766428D01*
X97920142Y-83766428D02*
X97877285Y-83852142D01*
X97877285Y-83852142D02*
X97834428Y-84023571D01*
X97834428Y-84023571D02*
X97834428Y-84152142D01*
X97834428Y-84152142D02*
X97877285Y-84323571D01*
X97877285Y-84323571D02*
X97920142Y-84409285D01*
X97920142Y-84409285D02*
X98005857Y-84495000D01*
X98005857Y-84495000D02*
X98134428Y-84537857D01*
X98134428Y-84537857D02*
X98220142Y-84537857D01*
X98220142Y-84537857D02*
X98348714Y-84495000D01*
X98348714Y-84495000D02*
X98391571Y-84452142D01*
X98391571Y-84452142D02*
X98391571Y-84152142D01*
X98391571Y-84152142D02*
X98220142Y-84152142D01*
X98777285Y-84537857D02*
X98777285Y-83637857D01*
X98777285Y-83637857D02*
X99120142Y-83637857D01*
X99120142Y-83637857D02*
X99205857Y-83680714D01*
X99205857Y-83680714D02*
X99248714Y-83723571D01*
X99248714Y-83723571D02*
X99291571Y-83809285D01*
X99291571Y-83809285D02*
X99291571Y-83937857D01*
X99291571Y-83937857D02*
X99248714Y-84023571D01*
X99248714Y-84023571D02*
X99205857Y-84066428D01*
X99205857Y-84066428D02*
X99120142Y-84109285D01*
X99120142Y-84109285D02*
X98777285Y-84109285D01*
X99677285Y-84537857D02*
X99677285Y-83637857D01*
X100277285Y-83637857D02*
X100448713Y-83637857D01*
X100448713Y-83637857D02*
X100534428Y-83680714D01*
X100534428Y-83680714D02*
X100620142Y-83766428D01*
X100620142Y-83766428D02*
X100662999Y-83937857D01*
X100662999Y-83937857D02*
X100662999Y-84237857D01*
X100662999Y-84237857D02*
X100620142Y-84409285D01*
X100620142Y-84409285D02*
X100534428Y-84495000D01*
X100534428Y-84495000D02*
X100448713Y-84537857D01*
X100448713Y-84537857D02*
X100277285Y-84537857D01*
X100277285Y-84537857D02*
X100191571Y-84495000D01*
X100191571Y-84495000D02*
X100105856Y-84409285D01*
X100105856Y-84409285D02*
X100062999Y-84237857D01*
X100062999Y-84237857D02*
X100062999Y-83937857D01*
X100062999Y-83937857D02*
X100105856Y-83766428D01*
X100105856Y-83766428D02*
X100191571Y-83680714D01*
X100191571Y-83680714D02*
X100277285Y-83637857D01*
X100834428Y-84623571D02*
X101520142Y-84623571D01*
X101691570Y-83723571D02*
X101734427Y-83680714D01*
X101734427Y-83680714D02*
X101820142Y-83637857D01*
X101820142Y-83637857D02*
X102034427Y-83637857D01*
X102034427Y-83637857D02*
X102120142Y-83680714D01*
X102120142Y-83680714D02*
X102162999Y-83723571D01*
X102162999Y-83723571D02*
X102205856Y-83809285D01*
X102205856Y-83809285D02*
X102205856Y-83895000D01*
X102205856Y-83895000D02*
X102162999Y-84023571D01*
X102162999Y-84023571D02*
X101648713Y-84537857D01*
X101648713Y-84537857D02*
X102205856Y-84537857D01*
X102505856Y-83637857D02*
X103062999Y-83637857D01*
X103062999Y-83637857D02*
X102762999Y-83980714D01*
X102762999Y-83980714D02*
X102891570Y-83980714D01*
X102891570Y-83980714D02*
X102977285Y-84023571D01*
X102977285Y-84023571D02*
X103020142Y-84066428D01*
X103020142Y-84066428D02*
X103062999Y-84152142D01*
X103062999Y-84152142D02*
X103062999Y-84366428D01*
X103062999Y-84366428D02*
X103020142Y-84452142D01*
X103020142Y-84452142D02*
X102977285Y-84495000D01*
X102977285Y-84495000D02*
X102891570Y-84537857D01*
X102891570Y-84537857D02*
X102634427Y-84537857D01*
X102634427Y-84537857D02*
X102548713Y-84495000D01*
X102548713Y-84495000D02*
X102505856Y-84452142D01*
X98348714Y-85138714D02*
X98263000Y-85095857D01*
X98263000Y-85095857D02*
X98134428Y-85095857D01*
X98134428Y-85095857D02*
X98005857Y-85138714D01*
X98005857Y-85138714D02*
X97920142Y-85224428D01*
X97920142Y-85224428D02*
X97877285Y-85310142D01*
X97877285Y-85310142D02*
X97834428Y-85481571D01*
X97834428Y-85481571D02*
X97834428Y-85610142D01*
X97834428Y-85610142D02*
X97877285Y-85781571D01*
X97877285Y-85781571D02*
X97920142Y-85867285D01*
X97920142Y-85867285D02*
X98005857Y-85953000D01*
X98005857Y-85953000D02*
X98134428Y-85995857D01*
X98134428Y-85995857D02*
X98220142Y-85995857D01*
X98220142Y-85995857D02*
X98348714Y-85953000D01*
X98348714Y-85953000D02*
X98391571Y-85910142D01*
X98391571Y-85910142D02*
X98391571Y-85610142D01*
X98391571Y-85610142D02*
X98220142Y-85610142D01*
X98777285Y-85995857D02*
X98777285Y-85095857D01*
X98777285Y-85095857D02*
X99120142Y-85095857D01*
X99120142Y-85095857D02*
X99205857Y-85138714D01*
X99205857Y-85138714D02*
X99248714Y-85181571D01*
X99248714Y-85181571D02*
X99291571Y-85267285D01*
X99291571Y-85267285D02*
X99291571Y-85395857D01*
X99291571Y-85395857D02*
X99248714Y-85481571D01*
X99248714Y-85481571D02*
X99205857Y-85524428D01*
X99205857Y-85524428D02*
X99120142Y-85567285D01*
X99120142Y-85567285D02*
X98777285Y-85567285D01*
X99677285Y-85995857D02*
X99677285Y-85095857D01*
X100277285Y-85095857D02*
X100448713Y-85095857D01*
X100448713Y-85095857D02*
X100534428Y-85138714D01*
X100534428Y-85138714D02*
X100620142Y-85224428D01*
X100620142Y-85224428D02*
X100662999Y-85395857D01*
X100662999Y-85395857D02*
X100662999Y-85695857D01*
X100662999Y-85695857D02*
X100620142Y-85867285D01*
X100620142Y-85867285D02*
X100534428Y-85953000D01*
X100534428Y-85953000D02*
X100448713Y-85995857D01*
X100448713Y-85995857D02*
X100277285Y-85995857D01*
X100277285Y-85995857D02*
X100191571Y-85953000D01*
X100191571Y-85953000D02*
X100105856Y-85867285D01*
X100105856Y-85867285D02*
X100062999Y-85695857D01*
X100062999Y-85695857D02*
X100062999Y-85395857D01*
X100062999Y-85395857D02*
X100105856Y-85224428D01*
X100105856Y-85224428D02*
X100191571Y-85138714D01*
X100191571Y-85138714D02*
X100277285Y-85095857D01*
X100834428Y-86081571D02*
X101520142Y-86081571D01*
X102205856Y-85995857D02*
X101691570Y-85995857D01*
X101948713Y-85995857D02*
X101948713Y-85095857D01*
X101948713Y-85095857D02*
X101862999Y-85224428D01*
X101862999Y-85224428D02*
X101777284Y-85310142D01*
X101777284Y-85310142D02*
X101691570Y-85353000D01*
X102720142Y-85481571D02*
X102634427Y-85438714D01*
X102634427Y-85438714D02*
X102591570Y-85395857D01*
X102591570Y-85395857D02*
X102548713Y-85310142D01*
X102548713Y-85310142D02*
X102548713Y-85267285D01*
X102548713Y-85267285D02*
X102591570Y-85181571D01*
X102591570Y-85181571D02*
X102634427Y-85138714D01*
X102634427Y-85138714D02*
X102720142Y-85095857D01*
X102720142Y-85095857D02*
X102891570Y-85095857D01*
X102891570Y-85095857D02*
X102977285Y-85138714D01*
X102977285Y-85138714D02*
X103020142Y-85181571D01*
X103020142Y-85181571D02*
X103062999Y-85267285D01*
X103062999Y-85267285D02*
X103062999Y-85310142D01*
X103062999Y-85310142D02*
X103020142Y-85395857D01*
X103020142Y-85395857D02*
X102977285Y-85438714D01*
X102977285Y-85438714D02*
X102891570Y-85481571D01*
X102891570Y-85481571D02*
X102720142Y-85481571D01*
X102720142Y-85481571D02*
X102634427Y-85524428D01*
X102634427Y-85524428D02*
X102591570Y-85567285D01*
X102591570Y-85567285D02*
X102548713Y-85653000D01*
X102548713Y-85653000D02*
X102548713Y-85824428D01*
X102548713Y-85824428D02*
X102591570Y-85910142D01*
X102591570Y-85910142D02*
X102634427Y-85953000D01*
X102634427Y-85953000D02*
X102720142Y-85995857D01*
X102720142Y-85995857D02*
X102891570Y-85995857D01*
X102891570Y-85995857D02*
X102977285Y-85953000D01*
X102977285Y-85953000D02*
X103020142Y-85910142D01*
X103020142Y-85910142D02*
X103062999Y-85824428D01*
X103062999Y-85824428D02*
X103062999Y-85653000D01*
X103062999Y-85653000D02*
X103020142Y-85567285D01*
X103020142Y-85567285D02*
X102977285Y-85524428D01*
X102977285Y-85524428D02*
X102891570Y-85481571D01*
X111069285Y-76524428D02*
X110569285Y-75810142D01*
X110212142Y-76524428D02*
X110212142Y-75024428D01*
X110212142Y-75024428D02*
X110783571Y-75024428D01*
X110783571Y-75024428D02*
X110926428Y-75095857D01*
X110926428Y-75095857D02*
X110997857Y-75167285D01*
X110997857Y-75167285D02*
X111069285Y-75310142D01*
X111069285Y-75310142D02*
X111069285Y-75524428D01*
X111069285Y-75524428D02*
X110997857Y-75667285D01*
X110997857Y-75667285D02*
X110926428Y-75738714D01*
X110926428Y-75738714D02*
X110783571Y-75810142D01*
X110783571Y-75810142D02*
X110212142Y-75810142D01*
X112355000Y-76524428D02*
X112355000Y-75738714D01*
X112355000Y-75738714D02*
X112283571Y-75595857D01*
X112283571Y-75595857D02*
X112140714Y-75524428D01*
X112140714Y-75524428D02*
X111855000Y-75524428D01*
X111855000Y-75524428D02*
X111712142Y-75595857D01*
X112355000Y-76453000D02*
X112212142Y-76524428D01*
X112212142Y-76524428D02*
X111855000Y-76524428D01*
X111855000Y-76524428D02*
X111712142Y-76453000D01*
X111712142Y-76453000D02*
X111640714Y-76310142D01*
X111640714Y-76310142D02*
X111640714Y-76167285D01*
X111640714Y-76167285D02*
X111712142Y-76024428D01*
X111712142Y-76024428D02*
X111855000Y-75953000D01*
X111855000Y-75953000D02*
X112212142Y-75953000D01*
X112212142Y-75953000D02*
X112355000Y-75881571D01*
X113712143Y-76524428D02*
X113712143Y-75024428D01*
X113712143Y-76453000D02*
X113569285Y-76524428D01*
X113569285Y-76524428D02*
X113283571Y-76524428D01*
X113283571Y-76524428D02*
X113140714Y-76453000D01*
X113140714Y-76453000D02*
X113069285Y-76381571D01*
X113069285Y-76381571D02*
X112997857Y-76238714D01*
X112997857Y-76238714D02*
X112997857Y-75810142D01*
X112997857Y-75810142D02*
X113069285Y-75667285D01*
X113069285Y-75667285D02*
X113140714Y-75595857D01*
X113140714Y-75595857D02*
X113283571Y-75524428D01*
X113283571Y-75524428D02*
X113569285Y-75524428D01*
X113569285Y-75524428D02*
X113712143Y-75595857D01*
X114426428Y-76524428D02*
X114426428Y-75524428D01*
X114426428Y-75024428D02*
X114355000Y-75095857D01*
X114355000Y-75095857D02*
X114426428Y-75167285D01*
X114426428Y-75167285D02*
X114497857Y-75095857D01*
X114497857Y-75095857D02*
X114426428Y-75024428D01*
X114426428Y-75024428D02*
X114426428Y-75167285D01*
X115355000Y-76524428D02*
X115212143Y-76453000D01*
X115212143Y-76453000D02*
X115140714Y-76381571D01*
X115140714Y-76381571D02*
X115069286Y-76238714D01*
X115069286Y-76238714D02*
X115069286Y-75810142D01*
X115069286Y-75810142D02*
X115140714Y-75667285D01*
X115140714Y-75667285D02*
X115212143Y-75595857D01*
X115212143Y-75595857D02*
X115355000Y-75524428D01*
X115355000Y-75524428D02*
X115569286Y-75524428D01*
X115569286Y-75524428D02*
X115712143Y-75595857D01*
X115712143Y-75595857D02*
X115783572Y-75667285D01*
X115783572Y-75667285D02*
X115855000Y-75810142D01*
X115855000Y-75810142D02*
X115855000Y-76238714D01*
X115855000Y-76238714D02*
X115783572Y-76381571D01*
X115783572Y-76381571D02*
X115712143Y-76453000D01*
X115712143Y-76453000D02*
X115569286Y-76524428D01*
X115569286Y-76524428D02*
X115355000Y-76524428D01*
X115239714Y-77721714D02*
X115154000Y-77678857D01*
X115154000Y-77678857D02*
X115025428Y-77678857D01*
X115025428Y-77678857D02*
X114896857Y-77721714D01*
X114896857Y-77721714D02*
X114811142Y-77807428D01*
X114811142Y-77807428D02*
X114768285Y-77893142D01*
X114768285Y-77893142D02*
X114725428Y-78064571D01*
X114725428Y-78064571D02*
X114725428Y-78193142D01*
X114725428Y-78193142D02*
X114768285Y-78364571D01*
X114768285Y-78364571D02*
X114811142Y-78450285D01*
X114811142Y-78450285D02*
X114896857Y-78536000D01*
X114896857Y-78536000D02*
X115025428Y-78578857D01*
X115025428Y-78578857D02*
X115111142Y-78578857D01*
X115111142Y-78578857D02*
X115239714Y-78536000D01*
X115239714Y-78536000D02*
X115282571Y-78493142D01*
X115282571Y-78493142D02*
X115282571Y-78193142D01*
X115282571Y-78193142D02*
X115111142Y-78193142D01*
X115668285Y-78578857D02*
X115668285Y-77678857D01*
X115668285Y-77678857D02*
X116011142Y-77678857D01*
X116011142Y-77678857D02*
X116096857Y-77721714D01*
X116096857Y-77721714D02*
X116139714Y-77764571D01*
X116139714Y-77764571D02*
X116182571Y-77850285D01*
X116182571Y-77850285D02*
X116182571Y-77978857D01*
X116182571Y-77978857D02*
X116139714Y-78064571D01*
X116139714Y-78064571D02*
X116096857Y-78107428D01*
X116096857Y-78107428D02*
X116011142Y-78150285D01*
X116011142Y-78150285D02*
X115668285Y-78150285D01*
X116568285Y-78578857D02*
X116568285Y-77678857D01*
X117168285Y-77678857D02*
X117339713Y-77678857D01*
X117339713Y-77678857D02*
X117425428Y-77721714D01*
X117425428Y-77721714D02*
X117511142Y-77807428D01*
X117511142Y-77807428D02*
X117553999Y-77978857D01*
X117553999Y-77978857D02*
X117553999Y-78278857D01*
X117553999Y-78278857D02*
X117511142Y-78450285D01*
X117511142Y-78450285D02*
X117425428Y-78536000D01*
X117425428Y-78536000D02*
X117339713Y-78578857D01*
X117339713Y-78578857D02*
X117168285Y-78578857D01*
X117168285Y-78578857D02*
X117082571Y-78536000D01*
X117082571Y-78536000D02*
X116996856Y-78450285D01*
X116996856Y-78450285D02*
X116953999Y-78278857D01*
X116953999Y-78278857D02*
X116953999Y-77978857D01*
X116953999Y-77978857D02*
X116996856Y-77807428D01*
X116996856Y-77807428D02*
X117082571Y-77721714D01*
X117082571Y-77721714D02*
X117168285Y-77678857D01*
X117725428Y-78664571D02*
X118411142Y-78664571D01*
X119096856Y-78578857D02*
X118582570Y-78578857D01*
X118839713Y-78578857D02*
X118839713Y-77678857D01*
X118839713Y-77678857D02*
X118753999Y-77807428D01*
X118753999Y-77807428D02*
X118668284Y-77893142D01*
X118668284Y-77893142D02*
X118582570Y-77936000D01*
X119868285Y-77978857D02*
X119868285Y-78578857D01*
X119653999Y-77636000D02*
X119439713Y-78278857D01*
X119439713Y-78278857D02*
X119996856Y-78278857D01*
X115239714Y-79179714D02*
X115154000Y-79136857D01*
X115154000Y-79136857D02*
X115025428Y-79136857D01*
X115025428Y-79136857D02*
X114896857Y-79179714D01*
X114896857Y-79179714D02*
X114811142Y-79265428D01*
X114811142Y-79265428D02*
X114768285Y-79351142D01*
X114768285Y-79351142D02*
X114725428Y-79522571D01*
X114725428Y-79522571D02*
X114725428Y-79651142D01*
X114725428Y-79651142D02*
X114768285Y-79822571D01*
X114768285Y-79822571D02*
X114811142Y-79908285D01*
X114811142Y-79908285D02*
X114896857Y-79994000D01*
X114896857Y-79994000D02*
X115025428Y-80036857D01*
X115025428Y-80036857D02*
X115111142Y-80036857D01*
X115111142Y-80036857D02*
X115239714Y-79994000D01*
X115239714Y-79994000D02*
X115282571Y-79951142D01*
X115282571Y-79951142D02*
X115282571Y-79651142D01*
X115282571Y-79651142D02*
X115111142Y-79651142D01*
X115668285Y-80036857D02*
X115668285Y-79136857D01*
X115668285Y-79136857D02*
X116011142Y-79136857D01*
X116011142Y-79136857D02*
X116096857Y-79179714D01*
X116096857Y-79179714D02*
X116139714Y-79222571D01*
X116139714Y-79222571D02*
X116182571Y-79308285D01*
X116182571Y-79308285D02*
X116182571Y-79436857D01*
X116182571Y-79436857D02*
X116139714Y-79522571D01*
X116139714Y-79522571D02*
X116096857Y-79565428D01*
X116096857Y-79565428D02*
X116011142Y-79608285D01*
X116011142Y-79608285D02*
X115668285Y-79608285D01*
X116568285Y-80036857D02*
X116568285Y-79136857D01*
X117168285Y-79136857D02*
X117339713Y-79136857D01*
X117339713Y-79136857D02*
X117425428Y-79179714D01*
X117425428Y-79179714D02*
X117511142Y-79265428D01*
X117511142Y-79265428D02*
X117553999Y-79436857D01*
X117553999Y-79436857D02*
X117553999Y-79736857D01*
X117553999Y-79736857D02*
X117511142Y-79908285D01*
X117511142Y-79908285D02*
X117425428Y-79994000D01*
X117425428Y-79994000D02*
X117339713Y-80036857D01*
X117339713Y-80036857D02*
X117168285Y-80036857D01*
X117168285Y-80036857D02*
X117082571Y-79994000D01*
X117082571Y-79994000D02*
X116996856Y-79908285D01*
X116996856Y-79908285D02*
X116953999Y-79736857D01*
X116953999Y-79736857D02*
X116953999Y-79436857D01*
X116953999Y-79436857D02*
X116996856Y-79265428D01*
X116996856Y-79265428D02*
X117082571Y-79179714D01*
X117082571Y-79179714D02*
X117168285Y-79136857D01*
X117725428Y-80122571D02*
X118411142Y-80122571D01*
X119096856Y-80036857D02*
X118582570Y-80036857D01*
X118839713Y-80036857D02*
X118839713Y-79136857D01*
X118839713Y-79136857D02*
X118753999Y-79265428D01*
X118753999Y-79265428D02*
X118668284Y-79351142D01*
X118668284Y-79351142D02*
X118582570Y-79394000D01*
X119396856Y-79136857D02*
X119953999Y-79136857D01*
X119953999Y-79136857D02*
X119653999Y-79479714D01*
X119653999Y-79479714D02*
X119782570Y-79479714D01*
X119782570Y-79479714D02*
X119868285Y-79522571D01*
X119868285Y-79522571D02*
X119911142Y-79565428D01*
X119911142Y-79565428D02*
X119953999Y-79651142D01*
X119953999Y-79651142D02*
X119953999Y-79865428D01*
X119953999Y-79865428D02*
X119911142Y-79951142D01*
X119911142Y-79951142D02*
X119868285Y-79994000D01*
X119868285Y-79994000D02*
X119782570Y-80036857D01*
X119782570Y-80036857D02*
X119525427Y-80036857D01*
X119525427Y-80036857D02*
X119439713Y-79994000D01*
X119439713Y-79994000D02*
X119396856Y-79951142D01*
X115239714Y-80637714D02*
X115154000Y-80594857D01*
X115154000Y-80594857D02*
X115025428Y-80594857D01*
X115025428Y-80594857D02*
X114896857Y-80637714D01*
X114896857Y-80637714D02*
X114811142Y-80723428D01*
X114811142Y-80723428D02*
X114768285Y-80809142D01*
X114768285Y-80809142D02*
X114725428Y-80980571D01*
X114725428Y-80980571D02*
X114725428Y-81109142D01*
X114725428Y-81109142D02*
X114768285Y-81280571D01*
X114768285Y-81280571D02*
X114811142Y-81366285D01*
X114811142Y-81366285D02*
X114896857Y-81452000D01*
X114896857Y-81452000D02*
X115025428Y-81494857D01*
X115025428Y-81494857D02*
X115111142Y-81494857D01*
X115111142Y-81494857D02*
X115239714Y-81452000D01*
X115239714Y-81452000D02*
X115282571Y-81409142D01*
X115282571Y-81409142D02*
X115282571Y-81109142D01*
X115282571Y-81109142D02*
X115111142Y-81109142D01*
X115668285Y-81494857D02*
X115668285Y-80594857D01*
X115668285Y-80594857D02*
X116011142Y-80594857D01*
X116011142Y-80594857D02*
X116096857Y-80637714D01*
X116096857Y-80637714D02*
X116139714Y-80680571D01*
X116139714Y-80680571D02*
X116182571Y-80766285D01*
X116182571Y-80766285D02*
X116182571Y-80894857D01*
X116182571Y-80894857D02*
X116139714Y-80980571D01*
X116139714Y-80980571D02*
X116096857Y-81023428D01*
X116096857Y-81023428D02*
X116011142Y-81066285D01*
X116011142Y-81066285D02*
X115668285Y-81066285D01*
X116568285Y-81494857D02*
X116568285Y-80594857D01*
X117168285Y-80594857D02*
X117339713Y-80594857D01*
X117339713Y-80594857D02*
X117425428Y-80637714D01*
X117425428Y-80637714D02*
X117511142Y-80723428D01*
X117511142Y-80723428D02*
X117553999Y-80894857D01*
X117553999Y-80894857D02*
X117553999Y-81194857D01*
X117553999Y-81194857D02*
X117511142Y-81366285D01*
X117511142Y-81366285D02*
X117425428Y-81452000D01*
X117425428Y-81452000D02*
X117339713Y-81494857D01*
X117339713Y-81494857D02*
X117168285Y-81494857D01*
X117168285Y-81494857D02*
X117082571Y-81452000D01*
X117082571Y-81452000D02*
X116996856Y-81366285D01*
X116996856Y-81366285D02*
X116953999Y-81194857D01*
X116953999Y-81194857D02*
X116953999Y-80894857D01*
X116953999Y-80894857D02*
X116996856Y-80723428D01*
X116996856Y-80723428D02*
X117082571Y-80637714D01*
X117082571Y-80637714D02*
X117168285Y-80594857D01*
X117725428Y-81580571D02*
X118411142Y-81580571D01*
X119096856Y-81494857D02*
X118582570Y-81494857D01*
X118839713Y-81494857D02*
X118839713Y-80594857D01*
X118839713Y-80594857D02*
X118753999Y-80723428D01*
X118753999Y-80723428D02*
X118668284Y-80809142D01*
X118668284Y-80809142D02*
X118582570Y-80852000D01*
X119911142Y-80594857D02*
X119482570Y-80594857D01*
X119482570Y-80594857D02*
X119439713Y-81023428D01*
X119439713Y-81023428D02*
X119482570Y-80980571D01*
X119482570Y-80980571D02*
X119568285Y-80937714D01*
X119568285Y-80937714D02*
X119782570Y-80937714D01*
X119782570Y-80937714D02*
X119868285Y-80980571D01*
X119868285Y-80980571D02*
X119911142Y-81023428D01*
X119911142Y-81023428D02*
X119953999Y-81109142D01*
X119953999Y-81109142D02*
X119953999Y-81323428D01*
X119953999Y-81323428D02*
X119911142Y-81409142D01*
X119911142Y-81409142D02*
X119868285Y-81452000D01*
X119868285Y-81452000D02*
X119782570Y-81494857D01*
X119782570Y-81494857D02*
X119568285Y-81494857D01*
X119568285Y-81494857D02*
X119482570Y-81452000D01*
X119482570Y-81452000D02*
X119439713Y-81409142D01*
X115239714Y-82095714D02*
X115154000Y-82052857D01*
X115154000Y-82052857D02*
X115025428Y-82052857D01*
X115025428Y-82052857D02*
X114896857Y-82095714D01*
X114896857Y-82095714D02*
X114811142Y-82181428D01*
X114811142Y-82181428D02*
X114768285Y-82267142D01*
X114768285Y-82267142D02*
X114725428Y-82438571D01*
X114725428Y-82438571D02*
X114725428Y-82567142D01*
X114725428Y-82567142D02*
X114768285Y-82738571D01*
X114768285Y-82738571D02*
X114811142Y-82824285D01*
X114811142Y-82824285D02*
X114896857Y-82910000D01*
X114896857Y-82910000D02*
X115025428Y-82952857D01*
X115025428Y-82952857D02*
X115111142Y-82952857D01*
X115111142Y-82952857D02*
X115239714Y-82910000D01*
X115239714Y-82910000D02*
X115282571Y-82867142D01*
X115282571Y-82867142D02*
X115282571Y-82567142D01*
X115282571Y-82567142D02*
X115111142Y-82567142D01*
X115668285Y-82952857D02*
X115668285Y-82052857D01*
X115668285Y-82052857D02*
X116011142Y-82052857D01*
X116011142Y-82052857D02*
X116096857Y-82095714D01*
X116096857Y-82095714D02*
X116139714Y-82138571D01*
X116139714Y-82138571D02*
X116182571Y-82224285D01*
X116182571Y-82224285D02*
X116182571Y-82352857D01*
X116182571Y-82352857D02*
X116139714Y-82438571D01*
X116139714Y-82438571D02*
X116096857Y-82481428D01*
X116096857Y-82481428D02*
X116011142Y-82524285D01*
X116011142Y-82524285D02*
X115668285Y-82524285D01*
X116568285Y-82952857D02*
X116568285Y-82052857D01*
X117168285Y-82052857D02*
X117339713Y-82052857D01*
X117339713Y-82052857D02*
X117425428Y-82095714D01*
X117425428Y-82095714D02*
X117511142Y-82181428D01*
X117511142Y-82181428D02*
X117553999Y-82352857D01*
X117553999Y-82352857D02*
X117553999Y-82652857D01*
X117553999Y-82652857D02*
X117511142Y-82824285D01*
X117511142Y-82824285D02*
X117425428Y-82910000D01*
X117425428Y-82910000D02*
X117339713Y-82952857D01*
X117339713Y-82952857D02*
X117168285Y-82952857D01*
X117168285Y-82952857D02*
X117082571Y-82910000D01*
X117082571Y-82910000D02*
X116996856Y-82824285D01*
X116996856Y-82824285D02*
X116953999Y-82652857D01*
X116953999Y-82652857D02*
X116953999Y-82352857D01*
X116953999Y-82352857D02*
X116996856Y-82181428D01*
X116996856Y-82181428D02*
X117082571Y-82095714D01*
X117082571Y-82095714D02*
X117168285Y-82052857D01*
X117725428Y-83038571D02*
X118411142Y-83038571D01*
X119096856Y-82952857D02*
X118582570Y-82952857D01*
X118839713Y-82952857D02*
X118839713Y-82052857D01*
X118839713Y-82052857D02*
X118753999Y-82181428D01*
X118753999Y-82181428D02*
X118668284Y-82267142D01*
X118668284Y-82267142D02*
X118582570Y-82310000D01*
X119868285Y-82052857D02*
X119696856Y-82052857D01*
X119696856Y-82052857D02*
X119611142Y-82095714D01*
X119611142Y-82095714D02*
X119568285Y-82138571D01*
X119568285Y-82138571D02*
X119482570Y-82267142D01*
X119482570Y-82267142D02*
X119439713Y-82438571D01*
X119439713Y-82438571D02*
X119439713Y-82781428D01*
X119439713Y-82781428D02*
X119482570Y-82867142D01*
X119482570Y-82867142D02*
X119525427Y-82910000D01*
X119525427Y-82910000D02*
X119611142Y-82952857D01*
X119611142Y-82952857D02*
X119782570Y-82952857D01*
X119782570Y-82952857D02*
X119868285Y-82910000D01*
X119868285Y-82910000D02*
X119911142Y-82867142D01*
X119911142Y-82867142D02*
X119953999Y-82781428D01*
X119953999Y-82781428D02*
X119953999Y-82567142D01*
X119953999Y-82567142D02*
X119911142Y-82481428D01*
X119911142Y-82481428D02*
X119868285Y-82438571D01*
X119868285Y-82438571D02*
X119782570Y-82395714D01*
X119782570Y-82395714D02*
X119611142Y-82395714D01*
X119611142Y-82395714D02*
X119525427Y-82438571D01*
X119525427Y-82438571D02*
X119482570Y-82481428D01*
X119482570Y-82481428D02*
X119439713Y-82567142D01*
X115239714Y-83553714D02*
X115154000Y-83510857D01*
X115154000Y-83510857D02*
X115025428Y-83510857D01*
X115025428Y-83510857D02*
X114896857Y-83553714D01*
X114896857Y-83553714D02*
X114811142Y-83639428D01*
X114811142Y-83639428D02*
X114768285Y-83725142D01*
X114768285Y-83725142D02*
X114725428Y-83896571D01*
X114725428Y-83896571D02*
X114725428Y-84025142D01*
X114725428Y-84025142D02*
X114768285Y-84196571D01*
X114768285Y-84196571D02*
X114811142Y-84282285D01*
X114811142Y-84282285D02*
X114896857Y-84368000D01*
X114896857Y-84368000D02*
X115025428Y-84410857D01*
X115025428Y-84410857D02*
X115111142Y-84410857D01*
X115111142Y-84410857D02*
X115239714Y-84368000D01*
X115239714Y-84368000D02*
X115282571Y-84325142D01*
X115282571Y-84325142D02*
X115282571Y-84025142D01*
X115282571Y-84025142D02*
X115111142Y-84025142D01*
X115668285Y-84410857D02*
X115668285Y-83510857D01*
X115668285Y-83510857D02*
X116011142Y-83510857D01*
X116011142Y-83510857D02*
X116096857Y-83553714D01*
X116096857Y-83553714D02*
X116139714Y-83596571D01*
X116139714Y-83596571D02*
X116182571Y-83682285D01*
X116182571Y-83682285D02*
X116182571Y-83810857D01*
X116182571Y-83810857D02*
X116139714Y-83896571D01*
X116139714Y-83896571D02*
X116096857Y-83939428D01*
X116096857Y-83939428D02*
X116011142Y-83982285D01*
X116011142Y-83982285D02*
X115668285Y-83982285D01*
X116568285Y-84410857D02*
X116568285Y-83510857D01*
X117168285Y-83510857D02*
X117339713Y-83510857D01*
X117339713Y-83510857D02*
X117425428Y-83553714D01*
X117425428Y-83553714D02*
X117511142Y-83639428D01*
X117511142Y-83639428D02*
X117553999Y-83810857D01*
X117553999Y-83810857D02*
X117553999Y-84110857D01*
X117553999Y-84110857D02*
X117511142Y-84282285D01*
X117511142Y-84282285D02*
X117425428Y-84368000D01*
X117425428Y-84368000D02*
X117339713Y-84410857D01*
X117339713Y-84410857D02*
X117168285Y-84410857D01*
X117168285Y-84410857D02*
X117082571Y-84368000D01*
X117082571Y-84368000D02*
X116996856Y-84282285D01*
X116996856Y-84282285D02*
X116953999Y-84110857D01*
X116953999Y-84110857D02*
X116953999Y-83810857D01*
X116953999Y-83810857D02*
X116996856Y-83639428D01*
X116996856Y-83639428D02*
X117082571Y-83553714D01*
X117082571Y-83553714D02*
X117168285Y-83510857D01*
X117725428Y-84496571D02*
X118411142Y-84496571D01*
X118796856Y-83510857D02*
X118882570Y-83510857D01*
X118882570Y-83510857D02*
X118968284Y-83553714D01*
X118968284Y-83553714D02*
X119011142Y-83596571D01*
X119011142Y-83596571D02*
X119053999Y-83682285D01*
X119053999Y-83682285D02*
X119096856Y-83853714D01*
X119096856Y-83853714D02*
X119096856Y-84068000D01*
X119096856Y-84068000D02*
X119053999Y-84239428D01*
X119053999Y-84239428D02*
X119011142Y-84325142D01*
X119011142Y-84325142D02*
X118968284Y-84368000D01*
X118968284Y-84368000D02*
X118882570Y-84410857D01*
X118882570Y-84410857D02*
X118796856Y-84410857D01*
X118796856Y-84410857D02*
X118711142Y-84368000D01*
X118711142Y-84368000D02*
X118668284Y-84325142D01*
X118668284Y-84325142D02*
X118625427Y-84239428D01*
X118625427Y-84239428D02*
X118582570Y-84068000D01*
X118582570Y-84068000D02*
X118582570Y-83853714D01*
X118582570Y-83853714D02*
X118625427Y-83682285D01*
X118625427Y-83682285D02*
X118668284Y-83596571D01*
X118668284Y-83596571D02*
X118711142Y-83553714D01*
X118711142Y-83553714D02*
X118796856Y-83510857D01*
X119868285Y-83810857D02*
X119868285Y-84410857D01*
X119653999Y-83468000D02*
X119439713Y-84110857D01*
X119439713Y-84110857D02*
X119996856Y-84110857D01*
X115239714Y-85011714D02*
X115154000Y-84968857D01*
X115154000Y-84968857D02*
X115025428Y-84968857D01*
X115025428Y-84968857D02*
X114896857Y-85011714D01*
X114896857Y-85011714D02*
X114811142Y-85097428D01*
X114811142Y-85097428D02*
X114768285Y-85183142D01*
X114768285Y-85183142D02*
X114725428Y-85354571D01*
X114725428Y-85354571D02*
X114725428Y-85483142D01*
X114725428Y-85483142D02*
X114768285Y-85654571D01*
X114768285Y-85654571D02*
X114811142Y-85740285D01*
X114811142Y-85740285D02*
X114896857Y-85826000D01*
X114896857Y-85826000D02*
X115025428Y-85868857D01*
X115025428Y-85868857D02*
X115111142Y-85868857D01*
X115111142Y-85868857D02*
X115239714Y-85826000D01*
X115239714Y-85826000D02*
X115282571Y-85783142D01*
X115282571Y-85783142D02*
X115282571Y-85483142D01*
X115282571Y-85483142D02*
X115111142Y-85483142D01*
X115668285Y-85868857D02*
X115668285Y-84968857D01*
X115668285Y-84968857D02*
X116011142Y-84968857D01*
X116011142Y-84968857D02*
X116096857Y-85011714D01*
X116096857Y-85011714D02*
X116139714Y-85054571D01*
X116139714Y-85054571D02*
X116182571Y-85140285D01*
X116182571Y-85140285D02*
X116182571Y-85268857D01*
X116182571Y-85268857D02*
X116139714Y-85354571D01*
X116139714Y-85354571D02*
X116096857Y-85397428D01*
X116096857Y-85397428D02*
X116011142Y-85440285D01*
X116011142Y-85440285D02*
X115668285Y-85440285D01*
X116568285Y-85868857D02*
X116568285Y-84968857D01*
X117168285Y-84968857D02*
X117339713Y-84968857D01*
X117339713Y-84968857D02*
X117425428Y-85011714D01*
X117425428Y-85011714D02*
X117511142Y-85097428D01*
X117511142Y-85097428D02*
X117553999Y-85268857D01*
X117553999Y-85268857D02*
X117553999Y-85568857D01*
X117553999Y-85568857D02*
X117511142Y-85740285D01*
X117511142Y-85740285D02*
X117425428Y-85826000D01*
X117425428Y-85826000D02*
X117339713Y-85868857D01*
X117339713Y-85868857D02*
X117168285Y-85868857D01*
X117168285Y-85868857D02*
X117082571Y-85826000D01*
X117082571Y-85826000D02*
X116996856Y-85740285D01*
X116996856Y-85740285D02*
X116953999Y-85568857D01*
X116953999Y-85568857D02*
X116953999Y-85268857D01*
X116953999Y-85268857D02*
X116996856Y-85097428D01*
X116996856Y-85097428D02*
X117082571Y-85011714D01*
X117082571Y-85011714D02*
X117168285Y-84968857D01*
X117725428Y-85954571D02*
X118411142Y-85954571D01*
X118539713Y-84968857D02*
X119096856Y-84968857D01*
X119096856Y-84968857D02*
X118796856Y-85311714D01*
X118796856Y-85311714D02*
X118925427Y-85311714D01*
X118925427Y-85311714D02*
X119011142Y-85354571D01*
X119011142Y-85354571D02*
X119053999Y-85397428D01*
X119053999Y-85397428D02*
X119096856Y-85483142D01*
X119096856Y-85483142D02*
X119096856Y-85697428D01*
X119096856Y-85697428D02*
X119053999Y-85783142D01*
X119053999Y-85783142D02*
X119011142Y-85826000D01*
X119011142Y-85826000D02*
X118925427Y-85868857D01*
X118925427Y-85868857D02*
X118668284Y-85868857D01*
X118668284Y-85868857D02*
X118582570Y-85826000D01*
X118582570Y-85826000D02*
X118539713Y-85783142D01*
X119868285Y-84968857D02*
X119696856Y-84968857D01*
X119696856Y-84968857D02*
X119611142Y-85011714D01*
X119611142Y-85011714D02*
X119568285Y-85054571D01*
X119568285Y-85054571D02*
X119482570Y-85183142D01*
X119482570Y-85183142D02*
X119439713Y-85354571D01*
X119439713Y-85354571D02*
X119439713Y-85697428D01*
X119439713Y-85697428D02*
X119482570Y-85783142D01*
X119482570Y-85783142D02*
X119525427Y-85826000D01*
X119525427Y-85826000D02*
X119611142Y-85868857D01*
X119611142Y-85868857D02*
X119782570Y-85868857D01*
X119782570Y-85868857D02*
X119868285Y-85826000D01*
X119868285Y-85826000D02*
X119911142Y-85783142D01*
X119911142Y-85783142D02*
X119953999Y-85697428D01*
X119953999Y-85697428D02*
X119953999Y-85483142D01*
X119953999Y-85483142D02*
X119911142Y-85397428D01*
X119911142Y-85397428D02*
X119868285Y-85354571D01*
X119868285Y-85354571D02*
X119782570Y-85311714D01*
X119782570Y-85311714D02*
X119611142Y-85311714D01*
X119611142Y-85311714D02*
X119525427Y-85354571D01*
X119525427Y-85354571D02*
X119482570Y-85397428D01*
X119482570Y-85397428D02*
X119439713Y-85483142D01*
D13*
X90011190Y-91163619D02*
X90677857Y-91163619D01*
X90963571Y-92211238D02*
X90011190Y-92211238D01*
X90011190Y-92211238D02*
X90011190Y-90211238D01*
X90011190Y-90211238D02*
X90963571Y-90211238D01*
X91725476Y-92116000D02*
X92011190Y-92211238D01*
X92011190Y-92211238D02*
X92487381Y-92211238D01*
X92487381Y-92211238D02*
X92677857Y-92116000D01*
X92677857Y-92116000D02*
X92773095Y-92020761D01*
X92773095Y-92020761D02*
X92868333Y-91830285D01*
X92868333Y-91830285D02*
X92868333Y-91639809D01*
X92868333Y-91639809D02*
X92773095Y-91449333D01*
X92773095Y-91449333D02*
X92677857Y-91354095D01*
X92677857Y-91354095D02*
X92487381Y-91258857D01*
X92487381Y-91258857D02*
X92106428Y-91163619D01*
X92106428Y-91163619D02*
X91915952Y-91068380D01*
X91915952Y-91068380D02*
X91820714Y-90973142D01*
X91820714Y-90973142D02*
X91725476Y-90782666D01*
X91725476Y-90782666D02*
X91725476Y-90592190D01*
X91725476Y-90592190D02*
X91820714Y-90401714D01*
X91820714Y-90401714D02*
X91915952Y-90306476D01*
X91915952Y-90306476D02*
X92106428Y-90211238D01*
X92106428Y-90211238D02*
X92582619Y-90211238D01*
X92582619Y-90211238D02*
X92868333Y-90306476D01*
X93725476Y-92211238D02*
X93725476Y-90211238D01*
X93725476Y-90211238D02*
X94487381Y-90211238D01*
X94487381Y-90211238D02*
X94677857Y-90306476D01*
X94677857Y-90306476D02*
X94773095Y-90401714D01*
X94773095Y-90401714D02*
X94868333Y-90592190D01*
X94868333Y-90592190D02*
X94868333Y-90877904D01*
X94868333Y-90877904D02*
X94773095Y-91068380D01*
X94773095Y-91068380D02*
X94677857Y-91163619D01*
X94677857Y-91163619D02*
X94487381Y-91258857D01*
X94487381Y-91258857D02*
X93725476Y-91258857D01*
X95630238Y-92116000D02*
X95915952Y-92211238D01*
X95915952Y-92211238D02*
X96392143Y-92211238D01*
X96392143Y-92211238D02*
X96582619Y-92116000D01*
X96582619Y-92116000D02*
X96677857Y-92020761D01*
X96677857Y-92020761D02*
X96773095Y-91830285D01*
X96773095Y-91830285D02*
X96773095Y-91639809D01*
X96773095Y-91639809D02*
X96677857Y-91449333D01*
X96677857Y-91449333D02*
X96582619Y-91354095D01*
X96582619Y-91354095D02*
X96392143Y-91258857D01*
X96392143Y-91258857D02*
X96011190Y-91163619D01*
X96011190Y-91163619D02*
X95820714Y-91068380D01*
X95820714Y-91068380D02*
X95725476Y-90973142D01*
X95725476Y-90973142D02*
X95630238Y-90782666D01*
X95630238Y-90782666D02*
X95630238Y-90592190D01*
X95630238Y-90592190D02*
X95725476Y-90401714D01*
X95725476Y-90401714D02*
X95820714Y-90306476D01*
X95820714Y-90306476D02*
X96011190Y-90211238D01*
X96011190Y-90211238D02*
X96487381Y-90211238D01*
X96487381Y-90211238D02*
X96773095Y-90306476D01*
X97915952Y-92211238D02*
X97725476Y-92116000D01*
X97725476Y-92116000D02*
X97630238Y-92020761D01*
X97630238Y-92020761D02*
X97535000Y-91830285D01*
X97535000Y-91830285D02*
X97535000Y-91258857D01*
X97535000Y-91258857D02*
X97630238Y-91068380D01*
X97630238Y-91068380D02*
X97725476Y-90973142D01*
X97725476Y-90973142D02*
X97915952Y-90877904D01*
X97915952Y-90877904D02*
X98201667Y-90877904D01*
X98201667Y-90877904D02*
X98392143Y-90973142D01*
X98392143Y-90973142D02*
X98487381Y-91068380D01*
X98487381Y-91068380D02*
X98582619Y-91258857D01*
X98582619Y-91258857D02*
X98582619Y-91830285D01*
X98582619Y-91830285D02*
X98487381Y-92020761D01*
X98487381Y-92020761D02*
X98392143Y-92116000D01*
X98392143Y-92116000D02*
X98201667Y-92211238D01*
X98201667Y-92211238D02*
X97915952Y-92211238D01*
X99439762Y-92211238D02*
X99439762Y-90877904D01*
X99439762Y-91068380D02*
X99535000Y-90973142D01*
X99535000Y-90973142D02*
X99725476Y-90877904D01*
X99725476Y-90877904D02*
X100011191Y-90877904D01*
X100011191Y-90877904D02*
X100201667Y-90973142D01*
X100201667Y-90973142D02*
X100296905Y-91163619D01*
X100296905Y-91163619D02*
X100296905Y-92211238D01*
X100296905Y-91163619D02*
X100392143Y-90973142D01*
X100392143Y-90973142D02*
X100582619Y-90877904D01*
X100582619Y-90877904D02*
X100868333Y-90877904D01*
X100868333Y-90877904D02*
X101058810Y-90973142D01*
X101058810Y-90973142D02*
X101154048Y-91163619D01*
X101154048Y-91163619D02*
X101154048Y-92211238D01*
X101820715Y-90877904D02*
X102582619Y-90877904D01*
X102106429Y-92211238D02*
X102106429Y-90496952D01*
X102106429Y-90496952D02*
X102201667Y-90306476D01*
X102201667Y-90306476D02*
X102392143Y-90211238D01*
X102392143Y-90211238D02*
X102582619Y-90211238D01*
X103058810Y-90877904D02*
X103535000Y-92211238D01*
X104011191Y-90877904D02*
X103535000Y-92211238D01*
X103535000Y-92211238D02*
X103344524Y-92687428D01*
X103344524Y-92687428D02*
X103249286Y-92782666D01*
X103249286Y-92782666D02*
X103058810Y-92877904D01*
X105915953Y-92211238D02*
X105249286Y-91258857D01*
X104773096Y-92211238D02*
X104773096Y-90211238D01*
X104773096Y-90211238D02*
X105535001Y-90211238D01*
X105535001Y-90211238D02*
X105725477Y-90306476D01*
X105725477Y-90306476D02*
X105820715Y-90401714D01*
X105820715Y-90401714D02*
X105915953Y-90592190D01*
X105915953Y-90592190D02*
X105915953Y-90877904D01*
X105915953Y-90877904D02*
X105820715Y-91068380D01*
X105820715Y-91068380D02*
X105725477Y-91163619D01*
X105725477Y-91163619D02*
X105535001Y-91258857D01*
X105535001Y-91258857D02*
X104773096Y-91258857D01*
X106487382Y-90211238D02*
X107630239Y-90211238D01*
X107058810Y-92211238D02*
X107058810Y-90211238D01*
X108201668Y-92116000D02*
X108487382Y-92211238D01*
X108487382Y-92211238D02*
X108963573Y-92211238D01*
X108963573Y-92211238D02*
X109154049Y-92116000D01*
X109154049Y-92116000D02*
X109249287Y-92020761D01*
X109249287Y-92020761D02*
X109344525Y-91830285D01*
X109344525Y-91830285D02*
X109344525Y-91639809D01*
X109344525Y-91639809D02*
X109249287Y-91449333D01*
X109249287Y-91449333D02*
X109154049Y-91354095D01*
X109154049Y-91354095D02*
X108963573Y-91258857D01*
X108963573Y-91258857D02*
X108582620Y-91163619D01*
X108582620Y-91163619D02*
X108392144Y-91068380D01*
X108392144Y-91068380D02*
X108296906Y-90973142D01*
X108296906Y-90973142D02*
X108201668Y-90782666D01*
X108201668Y-90782666D02*
X108201668Y-90592190D01*
X108201668Y-90592190D02*
X108296906Y-90401714D01*
X108296906Y-90401714D02*
X108392144Y-90306476D01*
X108392144Y-90306476D02*
X108582620Y-90211238D01*
X108582620Y-90211238D02*
X109058811Y-90211238D01*
X109058811Y-90211238D02*
X109344525Y-90306476D01*
X111725478Y-92211238D02*
X111725478Y-90211238D01*
X111725478Y-90211238D02*
X112487383Y-90211238D01*
X112487383Y-90211238D02*
X112677859Y-90306476D01*
X112677859Y-90306476D02*
X112773097Y-90401714D01*
X112773097Y-90401714D02*
X112868335Y-90592190D01*
X112868335Y-90592190D02*
X112868335Y-90877904D01*
X112868335Y-90877904D02*
X112773097Y-91068380D01*
X112773097Y-91068380D02*
X112677859Y-91163619D01*
X112677859Y-91163619D02*
X112487383Y-91258857D01*
X112487383Y-91258857D02*
X111725478Y-91258857D01*
X114106430Y-90211238D02*
X114487383Y-90211238D01*
X114487383Y-90211238D02*
X114677859Y-90306476D01*
X114677859Y-90306476D02*
X114868335Y-90496952D01*
X114868335Y-90496952D02*
X114963573Y-90877904D01*
X114963573Y-90877904D02*
X114963573Y-91544571D01*
X114963573Y-91544571D02*
X114868335Y-91925523D01*
X114868335Y-91925523D02*
X114677859Y-92116000D01*
X114677859Y-92116000D02*
X114487383Y-92211238D01*
X114487383Y-92211238D02*
X114106430Y-92211238D01*
X114106430Y-92211238D02*
X113915954Y-92116000D01*
X113915954Y-92116000D02*
X113725478Y-91925523D01*
X113725478Y-91925523D02*
X113630240Y-91544571D01*
X113630240Y-91544571D02*
X113630240Y-90877904D01*
X113630240Y-90877904D02*
X113725478Y-90496952D01*
X113725478Y-90496952D02*
X113915954Y-90306476D01*
X113915954Y-90306476D02*
X114106430Y-90211238D01*
X115820716Y-91163619D02*
X116487383Y-91163619D01*
X116773097Y-92211238D02*
X115820716Y-92211238D01*
X115820716Y-92211238D02*
X115820716Y-90211238D01*
X115820716Y-90211238D02*
X116773097Y-90211238D01*
D11*
X88733285Y-78578857D02*
X88733285Y-77678857D01*
X88733285Y-77678857D02*
X89076142Y-77678857D01*
X89076142Y-77678857D02*
X89161857Y-77721714D01*
X89161857Y-77721714D02*
X89204714Y-77764571D01*
X89204714Y-77764571D02*
X89247571Y-77850285D01*
X89247571Y-77850285D02*
X89247571Y-77978857D01*
X89247571Y-77978857D02*
X89204714Y-78064571D01*
X89204714Y-78064571D02*
X89161857Y-78107428D01*
X89161857Y-78107428D02*
X89076142Y-78150285D01*
X89076142Y-78150285D02*
X88733285Y-78150285D01*
X89633285Y-78578857D02*
X89633285Y-77678857D01*
X89633285Y-78107428D02*
X90147571Y-78107428D01*
X90147571Y-78578857D02*
X90147571Y-77678857D01*
X90747571Y-78150285D02*
X90747571Y-78578857D01*
X90447571Y-77678857D02*
X90747571Y-78150285D01*
X90747571Y-78150285D02*
X91047571Y-77678857D01*
X92547571Y-78493142D02*
X92504714Y-78536000D01*
X92504714Y-78536000D02*
X92376142Y-78578857D01*
X92376142Y-78578857D02*
X92290428Y-78578857D01*
X92290428Y-78578857D02*
X92161857Y-78536000D01*
X92161857Y-78536000D02*
X92076142Y-78450285D01*
X92076142Y-78450285D02*
X92033285Y-78364571D01*
X92033285Y-78364571D02*
X91990428Y-78193142D01*
X91990428Y-78193142D02*
X91990428Y-78064571D01*
X91990428Y-78064571D02*
X92033285Y-77893142D01*
X92033285Y-77893142D02*
X92076142Y-77807428D01*
X92076142Y-77807428D02*
X92161857Y-77721714D01*
X92161857Y-77721714D02*
X92290428Y-77678857D01*
X92290428Y-77678857D02*
X92376142Y-77678857D01*
X92376142Y-77678857D02*
X92504714Y-77721714D01*
X92504714Y-77721714D02*
X92547571Y-77764571D01*
X92933285Y-78578857D02*
X92933285Y-77678857D01*
X93319000Y-78578857D02*
X93319000Y-78107428D01*
X93319000Y-78107428D02*
X93276142Y-78021714D01*
X93276142Y-78021714D02*
X93190428Y-77978857D01*
X93190428Y-77978857D02*
X93061857Y-77978857D01*
X93061857Y-77978857D02*
X92976142Y-78021714D01*
X92976142Y-78021714D02*
X92933285Y-78064571D01*
X93747571Y-78578857D02*
X93747571Y-77978857D01*
X93747571Y-77678857D02*
X93704714Y-77721714D01*
X93704714Y-77721714D02*
X93747571Y-77764571D01*
X93747571Y-77764571D02*
X93790428Y-77721714D01*
X93790428Y-77721714D02*
X93747571Y-77678857D01*
X93747571Y-77678857D02*
X93747571Y-77764571D01*
X94176142Y-77978857D02*
X94176142Y-78878857D01*
X94176142Y-78021714D02*
X94261857Y-77978857D01*
X94261857Y-77978857D02*
X94433285Y-77978857D01*
X94433285Y-77978857D02*
X94518999Y-78021714D01*
X94518999Y-78021714D02*
X94561857Y-78064571D01*
X94561857Y-78064571D02*
X94604714Y-78150285D01*
X94604714Y-78150285D02*
X94604714Y-78407428D01*
X94604714Y-78407428D02*
X94561857Y-78493142D01*
X94561857Y-78493142D02*
X94518999Y-78536000D01*
X94518999Y-78536000D02*
X94433285Y-78578857D01*
X94433285Y-78578857D02*
X94261857Y-78578857D01*
X94261857Y-78578857D02*
X94176142Y-78536000D01*
X94990428Y-78493142D02*
X95033285Y-78536000D01*
X95033285Y-78536000D02*
X94990428Y-78578857D01*
X94990428Y-78578857D02*
X94947571Y-78536000D01*
X94947571Y-78536000D02*
X94990428Y-78493142D01*
X94990428Y-78493142D02*
X94990428Y-78578857D01*
X94990428Y-78021714D02*
X95033285Y-78064571D01*
X95033285Y-78064571D02*
X94990428Y-78107428D01*
X94990428Y-78107428D02*
X94947571Y-78064571D01*
X94947571Y-78064571D02*
X94990428Y-78021714D01*
X94990428Y-78021714D02*
X94990428Y-78107428D01*
X88690428Y-79779714D02*
X89119000Y-79779714D01*
X88604714Y-80036857D02*
X88904714Y-79136857D01*
X88904714Y-79136857D02*
X89204714Y-80036857D01*
X89890429Y-80036857D02*
X89890429Y-79136857D01*
X89890429Y-79994000D02*
X89804714Y-80036857D01*
X89804714Y-80036857D02*
X89633286Y-80036857D01*
X89633286Y-80036857D02*
X89547571Y-79994000D01*
X89547571Y-79994000D02*
X89504714Y-79951142D01*
X89504714Y-79951142D02*
X89461857Y-79865428D01*
X89461857Y-79865428D02*
X89461857Y-79608285D01*
X89461857Y-79608285D02*
X89504714Y-79522571D01*
X89504714Y-79522571D02*
X89547571Y-79479714D01*
X89547571Y-79479714D02*
X89633286Y-79436857D01*
X89633286Y-79436857D02*
X89804714Y-79436857D01*
X89804714Y-79436857D02*
X89890429Y-79479714D01*
X90704715Y-80036857D02*
X90704715Y-79136857D01*
X90704715Y-79994000D02*
X90619000Y-80036857D01*
X90619000Y-80036857D02*
X90447572Y-80036857D01*
X90447572Y-80036857D02*
X90361857Y-79994000D01*
X90361857Y-79994000D02*
X90319000Y-79951142D01*
X90319000Y-79951142D02*
X90276143Y-79865428D01*
X90276143Y-79865428D02*
X90276143Y-79608285D01*
X90276143Y-79608285D02*
X90319000Y-79522571D01*
X90319000Y-79522571D02*
X90361857Y-79479714D01*
X90361857Y-79479714D02*
X90447572Y-79436857D01*
X90447572Y-79436857D02*
X90619000Y-79436857D01*
X90619000Y-79436857D02*
X90704715Y-79479714D01*
X91133286Y-80036857D02*
X91133286Y-79436857D01*
X91133286Y-79608285D02*
X91176143Y-79522571D01*
X91176143Y-79522571D02*
X91219001Y-79479714D01*
X91219001Y-79479714D02*
X91304715Y-79436857D01*
X91304715Y-79436857D02*
X91390429Y-79436857D01*
X92033286Y-79994000D02*
X91947572Y-80036857D01*
X91947572Y-80036857D02*
X91776144Y-80036857D01*
X91776144Y-80036857D02*
X91690429Y-79994000D01*
X91690429Y-79994000D02*
X91647572Y-79908285D01*
X91647572Y-79908285D02*
X91647572Y-79565428D01*
X91647572Y-79565428D02*
X91690429Y-79479714D01*
X91690429Y-79479714D02*
X91776144Y-79436857D01*
X91776144Y-79436857D02*
X91947572Y-79436857D01*
X91947572Y-79436857D02*
X92033286Y-79479714D01*
X92033286Y-79479714D02*
X92076144Y-79565428D01*
X92076144Y-79565428D02*
X92076144Y-79651142D01*
X92076144Y-79651142D02*
X91647572Y-79736857D01*
X92419001Y-79994000D02*
X92504715Y-80036857D01*
X92504715Y-80036857D02*
X92676144Y-80036857D01*
X92676144Y-80036857D02*
X92761858Y-79994000D01*
X92761858Y-79994000D02*
X92804715Y-79908285D01*
X92804715Y-79908285D02*
X92804715Y-79865428D01*
X92804715Y-79865428D02*
X92761858Y-79779714D01*
X92761858Y-79779714D02*
X92676144Y-79736857D01*
X92676144Y-79736857D02*
X92547573Y-79736857D01*
X92547573Y-79736857D02*
X92461858Y-79694000D01*
X92461858Y-79694000D02*
X92419001Y-79608285D01*
X92419001Y-79608285D02*
X92419001Y-79565428D01*
X92419001Y-79565428D02*
X92461858Y-79479714D01*
X92461858Y-79479714D02*
X92547573Y-79436857D01*
X92547573Y-79436857D02*
X92676144Y-79436857D01*
X92676144Y-79436857D02*
X92761858Y-79479714D01*
X93147572Y-79994000D02*
X93233286Y-80036857D01*
X93233286Y-80036857D02*
X93404715Y-80036857D01*
X93404715Y-80036857D02*
X93490429Y-79994000D01*
X93490429Y-79994000D02*
X93533286Y-79908285D01*
X93533286Y-79908285D02*
X93533286Y-79865428D01*
X93533286Y-79865428D02*
X93490429Y-79779714D01*
X93490429Y-79779714D02*
X93404715Y-79736857D01*
X93404715Y-79736857D02*
X93276144Y-79736857D01*
X93276144Y-79736857D02*
X93190429Y-79694000D01*
X93190429Y-79694000D02*
X93147572Y-79608285D01*
X93147572Y-79608285D02*
X93147572Y-79565428D01*
X93147572Y-79565428D02*
X93190429Y-79479714D01*
X93190429Y-79479714D02*
X93276144Y-79436857D01*
X93276144Y-79436857D02*
X93404715Y-79436857D01*
X93404715Y-79436857D02*
X93490429Y-79479714D01*
X93919000Y-79951142D02*
X93961857Y-79994000D01*
X93961857Y-79994000D02*
X93919000Y-80036857D01*
X93919000Y-80036857D02*
X93876143Y-79994000D01*
X93876143Y-79994000D02*
X93919000Y-79951142D01*
X93919000Y-79951142D02*
X93919000Y-80036857D01*
X93919000Y-79479714D02*
X93961857Y-79522571D01*
X93961857Y-79522571D02*
X93919000Y-79565428D01*
X93919000Y-79565428D02*
X93876143Y-79522571D01*
X93876143Y-79522571D02*
X93919000Y-79479714D01*
X93919000Y-79479714D02*
X93919000Y-79565428D01*
X89247571Y-81409142D02*
X89204714Y-81452000D01*
X89204714Y-81452000D02*
X89076142Y-81494857D01*
X89076142Y-81494857D02*
X88990428Y-81494857D01*
X88990428Y-81494857D02*
X88861857Y-81452000D01*
X88861857Y-81452000D02*
X88776142Y-81366285D01*
X88776142Y-81366285D02*
X88733285Y-81280571D01*
X88733285Y-81280571D02*
X88690428Y-81109142D01*
X88690428Y-81109142D02*
X88690428Y-80980571D01*
X88690428Y-80980571D02*
X88733285Y-80809142D01*
X88733285Y-80809142D02*
X88776142Y-80723428D01*
X88776142Y-80723428D02*
X88861857Y-80637714D01*
X88861857Y-80637714D02*
X88990428Y-80594857D01*
X88990428Y-80594857D02*
X89076142Y-80594857D01*
X89076142Y-80594857D02*
X89204714Y-80637714D01*
X89204714Y-80637714D02*
X89247571Y-80680571D01*
X89761857Y-81494857D02*
X89676142Y-81452000D01*
X89676142Y-81452000D02*
X89633285Y-81366285D01*
X89633285Y-81366285D02*
X89633285Y-80594857D01*
X90233286Y-81494857D02*
X90147571Y-81452000D01*
X90147571Y-81452000D02*
X90104714Y-81409142D01*
X90104714Y-81409142D02*
X90061857Y-81323428D01*
X90061857Y-81323428D02*
X90061857Y-81066285D01*
X90061857Y-81066285D02*
X90104714Y-80980571D01*
X90104714Y-80980571D02*
X90147571Y-80937714D01*
X90147571Y-80937714D02*
X90233286Y-80894857D01*
X90233286Y-80894857D02*
X90361857Y-80894857D01*
X90361857Y-80894857D02*
X90447571Y-80937714D01*
X90447571Y-80937714D02*
X90490429Y-80980571D01*
X90490429Y-80980571D02*
X90533286Y-81066285D01*
X90533286Y-81066285D02*
X90533286Y-81323428D01*
X90533286Y-81323428D02*
X90490429Y-81409142D01*
X90490429Y-81409142D02*
X90447571Y-81452000D01*
X90447571Y-81452000D02*
X90361857Y-81494857D01*
X90361857Y-81494857D02*
X90233286Y-81494857D01*
X91304715Y-81452000D02*
X91219000Y-81494857D01*
X91219000Y-81494857D02*
X91047572Y-81494857D01*
X91047572Y-81494857D02*
X90961857Y-81452000D01*
X90961857Y-81452000D02*
X90919000Y-81409142D01*
X90919000Y-81409142D02*
X90876143Y-81323428D01*
X90876143Y-81323428D02*
X90876143Y-81066285D01*
X90876143Y-81066285D02*
X90919000Y-80980571D01*
X90919000Y-80980571D02*
X90961857Y-80937714D01*
X90961857Y-80937714D02*
X91047572Y-80894857D01*
X91047572Y-80894857D02*
X91219000Y-80894857D01*
X91219000Y-80894857D02*
X91304715Y-80937714D01*
X91690429Y-81494857D02*
X91690429Y-80594857D01*
X91776144Y-81152000D02*
X92033286Y-81494857D01*
X92033286Y-80894857D02*
X91690429Y-81237714D01*
X93104714Y-81494857D02*
X93104714Y-80594857D01*
X93104714Y-80594857D02*
X93404714Y-81237714D01*
X93404714Y-81237714D02*
X93704714Y-80594857D01*
X93704714Y-80594857D02*
X93704714Y-81494857D01*
X94261857Y-81494857D02*
X94176142Y-81452000D01*
X94176142Y-81452000D02*
X94133285Y-81409142D01*
X94133285Y-81409142D02*
X94090428Y-81323428D01*
X94090428Y-81323428D02*
X94090428Y-81066285D01*
X94090428Y-81066285D02*
X94133285Y-80980571D01*
X94133285Y-80980571D02*
X94176142Y-80937714D01*
X94176142Y-80937714D02*
X94261857Y-80894857D01*
X94261857Y-80894857D02*
X94390428Y-80894857D01*
X94390428Y-80894857D02*
X94476142Y-80937714D01*
X94476142Y-80937714D02*
X94519000Y-80980571D01*
X94519000Y-80980571D02*
X94561857Y-81066285D01*
X94561857Y-81066285D02*
X94561857Y-81323428D01*
X94561857Y-81323428D02*
X94519000Y-81409142D01*
X94519000Y-81409142D02*
X94476142Y-81452000D01*
X94476142Y-81452000D02*
X94390428Y-81494857D01*
X94390428Y-81494857D02*
X94261857Y-81494857D01*
X95333286Y-81494857D02*
X95333286Y-80594857D01*
X95333286Y-81452000D02*
X95247571Y-81494857D01*
X95247571Y-81494857D02*
X95076143Y-81494857D01*
X95076143Y-81494857D02*
X94990428Y-81452000D01*
X94990428Y-81452000D02*
X94947571Y-81409142D01*
X94947571Y-81409142D02*
X94904714Y-81323428D01*
X94904714Y-81323428D02*
X94904714Y-81066285D01*
X94904714Y-81066285D02*
X94947571Y-80980571D01*
X94947571Y-80980571D02*
X94990428Y-80937714D01*
X94990428Y-80937714D02*
X95076143Y-80894857D01*
X95076143Y-80894857D02*
X95247571Y-80894857D01*
X95247571Y-80894857D02*
X95333286Y-80937714D01*
X96104714Y-81452000D02*
X96019000Y-81494857D01*
X96019000Y-81494857D02*
X95847572Y-81494857D01*
X95847572Y-81494857D02*
X95761857Y-81452000D01*
X95761857Y-81452000D02*
X95719000Y-81366285D01*
X95719000Y-81366285D02*
X95719000Y-81023428D01*
X95719000Y-81023428D02*
X95761857Y-80937714D01*
X95761857Y-80937714D02*
X95847572Y-80894857D01*
X95847572Y-80894857D02*
X96019000Y-80894857D01*
X96019000Y-80894857D02*
X96104714Y-80937714D01*
X96104714Y-80937714D02*
X96147572Y-81023428D01*
X96147572Y-81023428D02*
X96147572Y-81109142D01*
X96147572Y-81109142D02*
X95719000Y-81194857D01*
X96533286Y-81409142D02*
X96576143Y-81452000D01*
X96576143Y-81452000D02*
X96533286Y-81494857D01*
X96533286Y-81494857D02*
X96490429Y-81452000D01*
X96490429Y-81452000D02*
X96533286Y-81409142D01*
X96533286Y-81409142D02*
X96533286Y-81494857D01*
X96533286Y-80937714D02*
X96576143Y-80980571D01*
X96576143Y-80980571D02*
X96533286Y-81023428D01*
X96533286Y-81023428D02*
X96490429Y-80980571D01*
X96490429Y-80980571D02*
X96533286Y-80937714D01*
X96533286Y-80937714D02*
X96533286Y-81023428D01*
X88733285Y-82952857D02*
X88733285Y-82052857D01*
X88733285Y-82052857D02*
X89076142Y-82052857D01*
X89076142Y-82052857D02*
X89161857Y-82095714D01*
X89161857Y-82095714D02*
X89204714Y-82138571D01*
X89204714Y-82138571D02*
X89247571Y-82224285D01*
X89247571Y-82224285D02*
X89247571Y-82352857D01*
X89247571Y-82352857D02*
X89204714Y-82438571D01*
X89204714Y-82438571D02*
X89161857Y-82481428D01*
X89161857Y-82481428D02*
X89076142Y-82524285D01*
X89076142Y-82524285D02*
X88733285Y-82524285D01*
X89761857Y-82952857D02*
X89676142Y-82910000D01*
X89676142Y-82910000D02*
X89633285Y-82867142D01*
X89633285Y-82867142D02*
X89590428Y-82781428D01*
X89590428Y-82781428D02*
X89590428Y-82524285D01*
X89590428Y-82524285D02*
X89633285Y-82438571D01*
X89633285Y-82438571D02*
X89676142Y-82395714D01*
X89676142Y-82395714D02*
X89761857Y-82352857D01*
X89761857Y-82352857D02*
X89890428Y-82352857D01*
X89890428Y-82352857D02*
X89976142Y-82395714D01*
X89976142Y-82395714D02*
X90019000Y-82438571D01*
X90019000Y-82438571D02*
X90061857Y-82524285D01*
X90061857Y-82524285D02*
X90061857Y-82781428D01*
X90061857Y-82781428D02*
X90019000Y-82867142D01*
X90019000Y-82867142D02*
X89976142Y-82910000D01*
X89976142Y-82910000D02*
X89890428Y-82952857D01*
X89890428Y-82952857D02*
X89761857Y-82952857D01*
X90361857Y-82352857D02*
X90533286Y-82952857D01*
X90533286Y-82952857D02*
X90704714Y-82524285D01*
X90704714Y-82524285D02*
X90876143Y-82952857D01*
X90876143Y-82952857D02*
X91047571Y-82352857D01*
X91733285Y-82910000D02*
X91647571Y-82952857D01*
X91647571Y-82952857D02*
X91476143Y-82952857D01*
X91476143Y-82952857D02*
X91390428Y-82910000D01*
X91390428Y-82910000D02*
X91347571Y-82824285D01*
X91347571Y-82824285D02*
X91347571Y-82481428D01*
X91347571Y-82481428D02*
X91390428Y-82395714D01*
X91390428Y-82395714D02*
X91476143Y-82352857D01*
X91476143Y-82352857D02*
X91647571Y-82352857D01*
X91647571Y-82352857D02*
X91733285Y-82395714D01*
X91733285Y-82395714D02*
X91776143Y-82481428D01*
X91776143Y-82481428D02*
X91776143Y-82567142D01*
X91776143Y-82567142D02*
X91347571Y-82652857D01*
X92161857Y-82952857D02*
X92161857Y-82352857D01*
X92161857Y-82524285D02*
X92204714Y-82438571D01*
X92204714Y-82438571D02*
X92247572Y-82395714D01*
X92247572Y-82395714D02*
X92333286Y-82352857D01*
X92333286Y-82352857D02*
X92419000Y-82352857D01*
X93404714Y-82952857D02*
X93404714Y-82052857D01*
X93404714Y-82052857D02*
X93747571Y-82052857D01*
X93747571Y-82052857D02*
X93833286Y-82095714D01*
X93833286Y-82095714D02*
X93876143Y-82138571D01*
X93876143Y-82138571D02*
X93919000Y-82224285D01*
X93919000Y-82224285D02*
X93919000Y-82352857D01*
X93919000Y-82352857D02*
X93876143Y-82438571D01*
X93876143Y-82438571D02*
X93833286Y-82481428D01*
X93833286Y-82481428D02*
X93747571Y-82524285D01*
X93747571Y-82524285D02*
X93404714Y-82524285D01*
X94304714Y-82952857D02*
X94304714Y-82352857D01*
X94304714Y-82052857D02*
X94261857Y-82095714D01*
X94261857Y-82095714D02*
X94304714Y-82138571D01*
X94304714Y-82138571D02*
X94347571Y-82095714D01*
X94347571Y-82095714D02*
X94304714Y-82052857D01*
X94304714Y-82052857D02*
X94304714Y-82138571D01*
X94733285Y-82352857D02*
X94733285Y-82952857D01*
X94733285Y-82438571D02*
X94776142Y-82395714D01*
X94776142Y-82395714D02*
X94861857Y-82352857D01*
X94861857Y-82352857D02*
X94990428Y-82352857D01*
X94990428Y-82352857D02*
X95076142Y-82395714D01*
X95076142Y-82395714D02*
X95119000Y-82481428D01*
X95119000Y-82481428D02*
X95119000Y-82952857D01*
X95547571Y-82867142D02*
X95590428Y-82910000D01*
X95590428Y-82910000D02*
X95547571Y-82952857D01*
X95547571Y-82952857D02*
X95504714Y-82910000D01*
X95504714Y-82910000D02*
X95547571Y-82867142D01*
X95547571Y-82867142D02*
X95547571Y-82952857D01*
X95547571Y-82395714D02*
X95590428Y-82438571D01*
X95590428Y-82438571D02*
X95547571Y-82481428D01*
X95547571Y-82481428D02*
X95504714Y-82438571D01*
X95504714Y-82438571D02*
X95547571Y-82395714D01*
X95547571Y-82395714D02*
X95547571Y-82481428D01*
X88733285Y-84410857D02*
X88733285Y-83510857D01*
X88733285Y-83510857D02*
X89033285Y-84153714D01*
X89033285Y-84153714D02*
X89333285Y-83510857D01*
X89333285Y-83510857D02*
X89333285Y-84410857D01*
X89761856Y-84410857D02*
X89761856Y-83510857D01*
X89761856Y-83510857D02*
X89976142Y-83510857D01*
X89976142Y-83510857D02*
X90104713Y-83553714D01*
X90104713Y-83553714D02*
X90190428Y-83639428D01*
X90190428Y-83639428D02*
X90233285Y-83725142D01*
X90233285Y-83725142D02*
X90276142Y-83896571D01*
X90276142Y-83896571D02*
X90276142Y-84025142D01*
X90276142Y-84025142D02*
X90233285Y-84196571D01*
X90233285Y-84196571D02*
X90190428Y-84282285D01*
X90190428Y-84282285D02*
X90104713Y-84368000D01*
X90104713Y-84368000D02*
X89976142Y-84410857D01*
X89976142Y-84410857D02*
X89761856Y-84410857D01*
X91176142Y-84325142D02*
X91133285Y-84368000D01*
X91133285Y-84368000D02*
X91004713Y-84410857D01*
X91004713Y-84410857D02*
X90918999Y-84410857D01*
X90918999Y-84410857D02*
X90790428Y-84368000D01*
X90790428Y-84368000D02*
X90704713Y-84282285D01*
X90704713Y-84282285D02*
X90661856Y-84196571D01*
X90661856Y-84196571D02*
X90618999Y-84025142D01*
X90618999Y-84025142D02*
X90618999Y-83896571D01*
X90618999Y-83896571D02*
X90661856Y-83725142D01*
X90661856Y-83725142D02*
X90704713Y-83639428D01*
X90704713Y-83639428D02*
X90790428Y-83553714D01*
X90790428Y-83553714D02*
X90918999Y-83510857D01*
X90918999Y-83510857D02*
X91004713Y-83510857D01*
X91004713Y-83510857D02*
X91133285Y-83553714D01*
X91133285Y-83553714D02*
X91176142Y-83596571D01*
X92247570Y-84410857D02*
X92247570Y-83510857D01*
X92247570Y-83510857D02*
X92590427Y-83510857D01*
X92590427Y-83510857D02*
X92676142Y-83553714D01*
X92676142Y-83553714D02*
X92718999Y-83596571D01*
X92718999Y-83596571D02*
X92761856Y-83682285D01*
X92761856Y-83682285D02*
X92761856Y-83810857D01*
X92761856Y-83810857D02*
X92718999Y-83896571D01*
X92718999Y-83896571D02*
X92676142Y-83939428D01*
X92676142Y-83939428D02*
X92590427Y-83982285D01*
X92590427Y-83982285D02*
X92247570Y-83982285D01*
X93147570Y-84410857D02*
X93147570Y-83810857D01*
X93147570Y-83510857D02*
X93104713Y-83553714D01*
X93104713Y-83553714D02*
X93147570Y-83596571D01*
X93147570Y-83596571D02*
X93190427Y-83553714D01*
X93190427Y-83553714D02*
X93147570Y-83510857D01*
X93147570Y-83510857D02*
X93147570Y-83596571D01*
X93576141Y-83810857D02*
X93576141Y-84410857D01*
X93576141Y-83896571D02*
X93618998Y-83853714D01*
X93618998Y-83853714D02*
X93704713Y-83810857D01*
X93704713Y-83810857D02*
X93833284Y-83810857D01*
X93833284Y-83810857D02*
X93918998Y-83853714D01*
X93918998Y-83853714D02*
X93961856Y-83939428D01*
X93961856Y-83939428D02*
X93961856Y-84410857D01*
X94390427Y-84325142D02*
X94433284Y-84368000D01*
X94433284Y-84368000D02*
X94390427Y-84410857D01*
X94390427Y-84410857D02*
X94347570Y-84368000D01*
X94347570Y-84368000D02*
X94390427Y-84325142D01*
X94390427Y-84325142D02*
X94390427Y-84410857D01*
X94390427Y-83853714D02*
X94433284Y-83896571D01*
X94433284Y-83896571D02*
X94390427Y-83939428D01*
X94390427Y-83939428D02*
X94347570Y-83896571D01*
X94347570Y-83896571D02*
X94390427Y-83853714D01*
X94390427Y-83853714D02*
X94390427Y-83939428D01*
X88733285Y-85868857D02*
X88733285Y-84968857D01*
X88733285Y-84968857D02*
X89033285Y-85611714D01*
X89033285Y-85611714D02*
X89333285Y-84968857D01*
X89333285Y-84968857D02*
X89333285Y-85868857D01*
X89761856Y-85868857D02*
X89761856Y-84968857D01*
X89761856Y-84968857D02*
X89976142Y-84968857D01*
X89976142Y-84968857D02*
X90104713Y-85011714D01*
X90104713Y-85011714D02*
X90190428Y-85097428D01*
X90190428Y-85097428D02*
X90233285Y-85183142D01*
X90233285Y-85183142D02*
X90276142Y-85354571D01*
X90276142Y-85354571D02*
X90276142Y-85483142D01*
X90276142Y-85483142D02*
X90233285Y-85654571D01*
X90233285Y-85654571D02*
X90190428Y-85740285D01*
X90190428Y-85740285D02*
X90104713Y-85826000D01*
X90104713Y-85826000D02*
X89976142Y-85868857D01*
X89976142Y-85868857D02*
X89761856Y-85868857D01*
X90661856Y-85868857D02*
X90661856Y-84968857D01*
X91261856Y-84968857D02*
X91433284Y-84968857D01*
X91433284Y-84968857D02*
X91518999Y-85011714D01*
X91518999Y-85011714D02*
X91604713Y-85097428D01*
X91604713Y-85097428D02*
X91647570Y-85268857D01*
X91647570Y-85268857D02*
X91647570Y-85568857D01*
X91647570Y-85568857D02*
X91604713Y-85740285D01*
X91604713Y-85740285D02*
X91518999Y-85826000D01*
X91518999Y-85826000D02*
X91433284Y-85868857D01*
X91433284Y-85868857D02*
X91261856Y-85868857D01*
X91261856Y-85868857D02*
X91176142Y-85826000D01*
X91176142Y-85826000D02*
X91090427Y-85740285D01*
X91090427Y-85740285D02*
X91047570Y-85568857D01*
X91047570Y-85568857D02*
X91047570Y-85268857D01*
X91047570Y-85268857D02*
X91090427Y-85097428D01*
X91090427Y-85097428D02*
X91176142Y-85011714D01*
X91176142Y-85011714D02*
X91261856Y-84968857D01*
X92718998Y-85868857D02*
X92718998Y-84968857D01*
X92718998Y-84968857D02*
X93061855Y-84968857D01*
X93061855Y-84968857D02*
X93147570Y-85011714D01*
X93147570Y-85011714D02*
X93190427Y-85054571D01*
X93190427Y-85054571D02*
X93233284Y-85140285D01*
X93233284Y-85140285D02*
X93233284Y-85268857D01*
X93233284Y-85268857D02*
X93190427Y-85354571D01*
X93190427Y-85354571D02*
X93147570Y-85397428D01*
X93147570Y-85397428D02*
X93061855Y-85440285D01*
X93061855Y-85440285D02*
X92718998Y-85440285D01*
X93618998Y-85868857D02*
X93618998Y-85268857D01*
X93618998Y-84968857D02*
X93576141Y-85011714D01*
X93576141Y-85011714D02*
X93618998Y-85054571D01*
X93618998Y-85054571D02*
X93661855Y-85011714D01*
X93661855Y-85011714D02*
X93618998Y-84968857D01*
X93618998Y-84968857D02*
X93618998Y-85054571D01*
X94047569Y-85268857D02*
X94047569Y-85868857D01*
X94047569Y-85354571D02*
X94090426Y-85311714D01*
X94090426Y-85311714D02*
X94176141Y-85268857D01*
X94176141Y-85268857D02*
X94304712Y-85268857D01*
X94304712Y-85268857D02*
X94390426Y-85311714D01*
X94390426Y-85311714D02*
X94433284Y-85397428D01*
X94433284Y-85397428D02*
X94433284Y-85868857D01*
X94861855Y-85783142D02*
X94904712Y-85826000D01*
X94904712Y-85826000D02*
X94861855Y-85868857D01*
X94861855Y-85868857D02*
X94818998Y-85826000D01*
X94818998Y-85826000D02*
X94861855Y-85783142D01*
X94861855Y-85783142D02*
X94861855Y-85868857D01*
X94861855Y-85311714D02*
X94904712Y-85354571D01*
X94904712Y-85354571D02*
X94861855Y-85397428D01*
X94861855Y-85397428D02*
X94818998Y-85354571D01*
X94818998Y-85354571D02*
X94861855Y-85311714D01*
X94861855Y-85311714D02*
X94861855Y-85397428D01*
X110153428Y-78536000D02*
X110282000Y-78578857D01*
X110282000Y-78578857D02*
X110496285Y-78578857D01*
X110496285Y-78578857D02*
X110582000Y-78536000D01*
X110582000Y-78536000D02*
X110624857Y-78493142D01*
X110624857Y-78493142D02*
X110667714Y-78407428D01*
X110667714Y-78407428D02*
X110667714Y-78321714D01*
X110667714Y-78321714D02*
X110624857Y-78236000D01*
X110624857Y-78236000D02*
X110582000Y-78193142D01*
X110582000Y-78193142D02*
X110496285Y-78150285D01*
X110496285Y-78150285D02*
X110324857Y-78107428D01*
X110324857Y-78107428D02*
X110239142Y-78064571D01*
X110239142Y-78064571D02*
X110196285Y-78021714D01*
X110196285Y-78021714D02*
X110153428Y-77936000D01*
X110153428Y-77936000D02*
X110153428Y-77850285D01*
X110153428Y-77850285D02*
X110196285Y-77764571D01*
X110196285Y-77764571D02*
X110239142Y-77721714D01*
X110239142Y-77721714D02*
X110324857Y-77678857D01*
X110324857Y-77678857D02*
X110539142Y-77678857D01*
X110539142Y-77678857D02*
X110667714Y-77721714D01*
X111567714Y-78493142D02*
X111524857Y-78536000D01*
X111524857Y-78536000D02*
X111396285Y-78578857D01*
X111396285Y-78578857D02*
X111310571Y-78578857D01*
X111310571Y-78578857D02*
X111182000Y-78536000D01*
X111182000Y-78536000D02*
X111096285Y-78450285D01*
X111096285Y-78450285D02*
X111053428Y-78364571D01*
X111053428Y-78364571D02*
X111010571Y-78193142D01*
X111010571Y-78193142D02*
X111010571Y-78064571D01*
X111010571Y-78064571D02*
X111053428Y-77893142D01*
X111053428Y-77893142D02*
X111096285Y-77807428D01*
X111096285Y-77807428D02*
X111182000Y-77721714D01*
X111182000Y-77721714D02*
X111310571Y-77678857D01*
X111310571Y-77678857D02*
X111396285Y-77678857D01*
X111396285Y-77678857D02*
X111524857Y-77721714D01*
X111524857Y-77721714D02*
X111567714Y-77764571D01*
X112382000Y-78578857D02*
X111953428Y-78578857D01*
X111953428Y-78578857D02*
X111953428Y-77678857D01*
X112681999Y-78578857D02*
X112681999Y-77678857D01*
X113196285Y-78578857D02*
X112810571Y-78064571D01*
X113196285Y-77678857D02*
X112681999Y-78193142D01*
X113581999Y-78493142D02*
X113624856Y-78536000D01*
X113624856Y-78536000D02*
X113581999Y-78578857D01*
X113581999Y-78578857D02*
X113539142Y-78536000D01*
X113539142Y-78536000D02*
X113581999Y-78493142D01*
X113581999Y-78493142D02*
X113581999Y-78578857D01*
X113581999Y-78021714D02*
X113624856Y-78064571D01*
X113624856Y-78064571D02*
X113581999Y-78107428D01*
X113581999Y-78107428D02*
X113539142Y-78064571D01*
X113539142Y-78064571D02*
X113581999Y-78021714D01*
X113581999Y-78021714D02*
X113581999Y-78107428D01*
X110710571Y-79951142D02*
X110667714Y-79994000D01*
X110667714Y-79994000D02*
X110539142Y-80036857D01*
X110539142Y-80036857D02*
X110453428Y-80036857D01*
X110453428Y-80036857D02*
X110324857Y-79994000D01*
X110324857Y-79994000D02*
X110239142Y-79908285D01*
X110239142Y-79908285D02*
X110196285Y-79822571D01*
X110196285Y-79822571D02*
X110153428Y-79651142D01*
X110153428Y-79651142D02*
X110153428Y-79522571D01*
X110153428Y-79522571D02*
X110196285Y-79351142D01*
X110196285Y-79351142D02*
X110239142Y-79265428D01*
X110239142Y-79265428D02*
X110324857Y-79179714D01*
X110324857Y-79179714D02*
X110453428Y-79136857D01*
X110453428Y-79136857D02*
X110539142Y-79136857D01*
X110539142Y-79136857D02*
X110667714Y-79179714D01*
X110667714Y-79179714D02*
X110710571Y-79222571D01*
X111053428Y-79994000D02*
X111182000Y-80036857D01*
X111182000Y-80036857D02*
X111396285Y-80036857D01*
X111396285Y-80036857D02*
X111482000Y-79994000D01*
X111482000Y-79994000D02*
X111524857Y-79951142D01*
X111524857Y-79951142D02*
X111567714Y-79865428D01*
X111567714Y-79865428D02*
X111567714Y-79779714D01*
X111567714Y-79779714D02*
X111524857Y-79694000D01*
X111524857Y-79694000D02*
X111482000Y-79651142D01*
X111482000Y-79651142D02*
X111396285Y-79608285D01*
X111396285Y-79608285D02*
X111224857Y-79565428D01*
X111224857Y-79565428D02*
X111139142Y-79522571D01*
X111139142Y-79522571D02*
X111096285Y-79479714D01*
X111096285Y-79479714D02*
X111053428Y-79394000D01*
X111053428Y-79394000D02*
X111053428Y-79308285D01*
X111053428Y-79308285D02*
X111096285Y-79222571D01*
X111096285Y-79222571D02*
X111139142Y-79179714D01*
X111139142Y-79179714D02*
X111224857Y-79136857D01*
X111224857Y-79136857D02*
X111439142Y-79136857D01*
X111439142Y-79136857D02*
X111567714Y-79179714D01*
X111953428Y-80036857D02*
X111953428Y-79136857D01*
X111953428Y-79136857D02*
X112467714Y-80036857D01*
X112467714Y-80036857D02*
X112467714Y-79136857D01*
X112896285Y-79951142D02*
X112939142Y-79994000D01*
X112939142Y-79994000D02*
X112896285Y-80036857D01*
X112896285Y-80036857D02*
X112853428Y-79994000D01*
X112853428Y-79994000D02*
X112896285Y-79951142D01*
X112896285Y-79951142D02*
X112896285Y-80036857D01*
X112896285Y-79479714D02*
X112939142Y-79522571D01*
X112939142Y-79522571D02*
X112896285Y-79565428D01*
X112896285Y-79565428D02*
X112853428Y-79522571D01*
X112853428Y-79522571D02*
X112896285Y-79479714D01*
X112896285Y-79479714D02*
X112896285Y-79565428D01*
X110196285Y-81494857D02*
X110196285Y-80594857D01*
X110196285Y-80594857D02*
X110496285Y-81237714D01*
X110496285Y-81237714D02*
X110796285Y-80594857D01*
X110796285Y-80594857D02*
X110796285Y-81494857D01*
X111396285Y-80594857D02*
X111567713Y-80594857D01*
X111567713Y-80594857D02*
X111653428Y-80637714D01*
X111653428Y-80637714D02*
X111739142Y-80723428D01*
X111739142Y-80723428D02*
X111781999Y-80894857D01*
X111781999Y-80894857D02*
X111781999Y-81194857D01*
X111781999Y-81194857D02*
X111739142Y-81366285D01*
X111739142Y-81366285D02*
X111653428Y-81452000D01*
X111653428Y-81452000D02*
X111567713Y-81494857D01*
X111567713Y-81494857D02*
X111396285Y-81494857D01*
X111396285Y-81494857D02*
X111310571Y-81452000D01*
X111310571Y-81452000D02*
X111224856Y-81366285D01*
X111224856Y-81366285D02*
X111181999Y-81194857D01*
X111181999Y-81194857D02*
X111181999Y-80894857D01*
X111181999Y-80894857D02*
X111224856Y-80723428D01*
X111224856Y-80723428D02*
X111310571Y-80637714D01*
X111310571Y-80637714D02*
X111396285Y-80594857D01*
X112124856Y-81452000D02*
X112253428Y-81494857D01*
X112253428Y-81494857D02*
X112467713Y-81494857D01*
X112467713Y-81494857D02*
X112553428Y-81452000D01*
X112553428Y-81452000D02*
X112596285Y-81409142D01*
X112596285Y-81409142D02*
X112639142Y-81323428D01*
X112639142Y-81323428D02*
X112639142Y-81237714D01*
X112639142Y-81237714D02*
X112596285Y-81152000D01*
X112596285Y-81152000D02*
X112553428Y-81109142D01*
X112553428Y-81109142D02*
X112467713Y-81066285D01*
X112467713Y-81066285D02*
X112296285Y-81023428D01*
X112296285Y-81023428D02*
X112210570Y-80980571D01*
X112210570Y-80980571D02*
X112167713Y-80937714D01*
X112167713Y-80937714D02*
X112124856Y-80852000D01*
X112124856Y-80852000D02*
X112124856Y-80766285D01*
X112124856Y-80766285D02*
X112167713Y-80680571D01*
X112167713Y-80680571D02*
X112210570Y-80637714D01*
X112210570Y-80637714D02*
X112296285Y-80594857D01*
X112296285Y-80594857D02*
X112510570Y-80594857D01*
X112510570Y-80594857D02*
X112639142Y-80637714D01*
X113024856Y-81494857D02*
X113024856Y-80594857D01*
X113453427Y-81409142D02*
X113496284Y-81452000D01*
X113496284Y-81452000D02*
X113453427Y-81494857D01*
X113453427Y-81494857D02*
X113410570Y-81452000D01*
X113410570Y-81452000D02*
X113453427Y-81409142D01*
X113453427Y-81409142D02*
X113453427Y-81494857D01*
X113453427Y-80937714D02*
X113496284Y-80980571D01*
X113496284Y-80980571D02*
X113453427Y-81023428D01*
X113453427Y-81023428D02*
X113410570Y-80980571D01*
X113410570Y-80980571D02*
X113453427Y-80937714D01*
X113453427Y-80937714D02*
X113453427Y-81023428D01*
X110196285Y-82952857D02*
X110196285Y-82052857D01*
X110196285Y-82052857D02*
X110496285Y-82695714D01*
X110496285Y-82695714D02*
X110796285Y-82052857D01*
X110796285Y-82052857D02*
X110796285Y-82952857D01*
X111224856Y-82952857D02*
X111224856Y-82052857D01*
X111610570Y-82910000D02*
X111739142Y-82952857D01*
X111739142Y-82952857D02*
X111953427Y-82952857D01*
X111953427Y-82952857D02*
X112039142Y-82910000D01*
X112039142Y-82910000D02*
X112081999Y-82867142D01*
X112081999Y-82867142D02*
X112124856Y-82781428D01*
X112124856Y-82781428D02*
X112124856Y-82695714D01*
X112124856Y-82695714D02*
X112081999Y-82610000D01*
X112081999Y-82610000D02*
X112039142Y-82567142D01*
X112039142Y-82567142D02*
X111953427Y-82524285D01*
X111953427Y-82524285D02*
X111781999Y-82481428D01*
X111781999Y-82481428D02*
X111696284Y-82438571D01*
X111696284Y-82438571D02*
X111653427Y-82395714D01*
X111653427Y-82395714D02*
X111610570Y-82310000D01*
X111610570Y-82310000D02*
X111610570Y-82224285D01*
X111610570Y-82224285D02*
X111653427Y-82138571D01*
X111653427Y-82138571D02*
X111696284Y-82095714D01*
X111696284Y-82095714D02*
X111781999Y-82052857D01*
X111781999Y-82052857D02*
X111996284Y-82052857D01*
X111996284Y-82052857D02*
X112124856Y-82095714D01*
X112681999Y-82052857D02*
X112853427Y-82052857D01*
X112853427Y-82052857D02*
X112939142Y-82095714D01*
X112939142Y-82095714D02*
X113024856Y-82181428D01*
X113024856Y-82181428D02*
X113067713Y-82352857D01*
X113067713Y-82352857D02*
X113067713Y-82652857D01*
X113067713Y-82652857D02*
X113024856Y-82824285D01*
X113024856Y-82824285D02*
X112939142Y-82910000D01*
X112939142Y-82910000D02*
X112853427Y-82952857D01*
X112853427Y-82952857D02*
X112681999Y-82952857D01*
X112681999Y-82952857D02*
X112596285Y-82910000D01*
X112596285Y-82910000D02*
X112510570Y-82824285D01*
X112510570Y-82824285D02*
X112467713Y-82652857D01*
X112467713Y-82652857D02*
X112467713Y-82352857D01*
X112467713Y-82352857D02*
X112510570Y-82181428D01*
X112510570Y-82181428D02*
X112596285Y-82095714D01*
X112596285Y-82095714D02*
X112681999Y-82052857D01*
X113453427Y-82867142D02*
X113496284Y-82910000D01*
X113496284Y-82910000D02*
X113453427Y-82952857D01*
X113453427Y-82952857D02*
X113410570Y-82910000D01*
X113410570Y-82910000D02*
X113453427Y-82867142D01*
X113453427Y-82867142D02*
X113453427Y-82952857D01*
X113453427Y-82395714D02*
X113496284Y-82438571D01*
X113496284Y-82438571D02*
X113453427Y-82481428D01*
X113453427Y-82481428D02*
X113410570Y-82438571D01*
X113410570Y-82438571D02*
X113453427Y-82395714D01*
X113453427Y-82395714D02*
X113453427Y-82481428D01*
X110067714Y-83510857D02*
X110582000Y-83510857D01*
X110324857Y-84410857D02*
X110324857Y-83510857D01*
X110796285Y-83510857D02*
X111396285Y-84410857D01*
X111396285Y-83510857D02*
X110796285Y-84410857D01*
X111739142Y-84325142D02*
X111781999Y-84368000D01*
X111781999Y-84368000D02*
X111739142Y-84410857D01*
X111739142Y-84410857D02*
X111696285Y-84368000D01*
X111696285Y-84368000D02*
X111739142Y-84325142D01*
X111739142Y-84325142D02*
X111739142Y-84410857D01*
X111739142Y-83853714D02*
X111781999Y-83896571D01*
X111781999Y-83896571D02*
X111739142Y-83939428D01*
X111739142Y-83939428D02*
X111696285Y-83896571D01*
X111696285Y-83896571D02*
X111739142Y-83853714D01*
X111739142Y-83853714D02*
X111739142Y-83939428D01*
X110710571Y-85868857D02*
X110410571Y-85440285D01*
X110196285Y-85868857D02*
X110196285Y-84968857D01*
X110196285Y-84968857D02*
X110539142Y-84968857D01*
X110539142Y-84968857D02*
X110624857Y-85011714D01*
X110624857Y-85011714D02*
X110667714Y-85054571D01*
X110667714Y-85054571D02*
X110710571Y-85140285D01*
X110710571Y-85140285D02*
X110710571Y-85268857D01*
X110710571Y-85268857D02*
X110667714Y-85354571D01*
X110667714Y-85354571D02*
X110624857Y-85397428D01*
X110624857Y-85397428D02*
X110539142Y-85440285D01*
X110539142Y-85440285D02*
X110196285Y-85440285D01*
X111010571Y-84968857D02*
X111610571Y-85868857D01*
X111610571Y-84968857D02*
X111010571Y-85868857D01*
X111953428Y-85783142D02*
X111996285Y-85826000D01*
X111996285Y-85826000D02*
X111953428Y-85868857D01*
X111953428Y-85868857D02*
X111910571Y-85826000D01*
X111910571Y-85826000D02*
X111953428Y-85783142D01*
X111953428Y-85783142D02*
X111953428Y-85868857D01*
X111953428Y-85311714D02*
X111996285Y-85354571D01*
X111996285Y-85354571D02*
X111953428Y-85397428D01*
X111953428Y-85397428D02*
X111910571Y-85354571D01*
X111910571Y-85354571D02*
X111953428Y-85311714D01*
X111953428Y-85311714D02*
X111953428Y-85397428D01*
D12*
%TO.C,H1*%
X118738095Y-63062619D02*
X118738095Y-62062619D01*
X118738095Y-62538809D02*
X119309523Y-62538809D01*
X119309523Y-63062619D02*
X119309523Y-62062619D01*
X120309523Y-63062619D02*
X119738095Y-63062619D01*
X120023809Y-63062619D02*
X120023809Y-62062619D01*
X120023809Y-62062619D02*
X119928571Y-62205476D01*
X119928571Y-62205476D02*
X119833333Y-62300714D01*
X119833333Y-62300714D02*
X119738095Y-62348333D01*
%TO.C,N1*%
D14*
X110664814Y-65921931D02*
X110748635Y-66366555D01*
X111057920Y-66494053D01*
X111367206Y-66621551D01*
X111738246Y-66369246D01*
X111842157Y-66298996D01*
X111936087Y-66236272D01*
X112015652Y-66183938D01*
X112076470Y-66144857D01*
X112114157Y-66121893D01*
X112124421Y-66116942D01*
X112142910Y-66129676D01*
X112182420Y-66164882D01*
X112238522Y-66218062D01*
X112306787Y-66284718D01*
X112382786Y-66360354D01*
X112462092Y-66440472D01*
X112540275Y-66520574D01*
X112612907Y-66596164D01*
X112675559Y-66662745D01*
X112723803Y-66715818D01*
X112753210Y-66750887D01*
X112760241Y-66762623D01*
X112750123Y-66784260D01*
X112721759Y-66831662D01*
X112678129Y-66900193D01*
X112622218Y-66985215D01*
X112557006Y-67082093D01*
X112519219Y-67137350D01*
X112450343Y-67238248D01*
X112389140Y-67329299D01*
X112338578Y-67405970D01*
X112301628Y-67463728D01*
X112281258Y-67498043D01*
X112278197Y-67505254D01*
X112285136Y-67525748D01*
X112304051Y-67573513D01*
X112332087Y-67641832D01*
X112366391Y-67723989D01*
X112404109Y-67813270D01*
X112442387Y-67902958D01*
X112478370Y-67986338D01*
X112509206Y-68056694D01*
X112532039Y-68107310D01*
X112544017Y-68131471D01*
X112544724Y-68132422D01*
X112563531Y-68137036D01*
X112613618Y-68147328D01*
X112689793Y-68162287D01*
X112786865Y-68180901D01*
X112899643Y-68202159D01*
X112965442Y-68214418D01*
X113085950Y-68237362D01*
X113194797Y-68259195D01*
X113286476Y-68278722D01*
X113355481Y-68294748D01*
X113396304Y-68306079D01*
X113404511Y-68309674D01*
X113412548Y-68334006D01*
X113419033Y-68388959D01*
X113423970Y-68468108D01*
X113427364Y-68565026D01*
X113429218Y-68673287D01*
X113429538Y-68786465D01*
X113428327Y-68898135D01*
X113425590Y-69001868D01*
X113421331Y-69091241D01*
X113415555Y-69159826D01*
X113408267Y-69201197D01*
X113403895Y-69209810D01*
X113377764Y-69220133D01*
X113322393Y-69234892D01*
X113245107Y-69252352D01*
X113153230Y-69270780D01*
X113121158Y-69276741D01*
X112966524Y-69305066D01*
X112844375Y-69327876D01*
X112750673Y-69346080D01*
X112681384Y-69360583D01*
X112632471Y-69372292D01*
X112599897Y-69382115D01*
X112579628Y-69390956D01*
X112567626Y-69399724D01*
X112565947Y-69401457D01*
X112549184Y-69429371D01*
X112523614Y-69483695D01*
X112491788Y-69557777D01*
X112456260Y-69644965D01*
X112419583Y-69738608D01*
X112384311Y-69832052D01*
X112352996Y-69918647D01*
X112328193Y-69991740D01*
X112312454Y-70044678D01*
X112308332Y-70070811D01*
X112308676Y-70071726D01*
X112322641Y-70093086D01*
X112354322Y-70140084D01*
X112400391Y-70207827D01*
X112457518Y-70291423D01*
X112522373Y-70385982D01*
X112540843Y-70412854D01*
X112606699Y-70510275D01*
X112664650Y-70599163D01*
X112711538Y-70674412D01*
X112744207Y-70730920D01*
X112759500Y-70763581D01*
X112760241Y-70767593D01*
X112747392Y-70788684D01*
X112711888Y-70830464D01*
X112658293Y-70888445D01*
X112591171Y-70958135D01*
X112515087Y-71035045D01*
X112434604Y-71114683D01*
X112354287Y-71192561D01*
X112278699Y-71264186D01*
X112212405Y-71325070D01*
X112159969Y-71370721D01*
X112125955Y-71396650D01*
X112116545Y-71400883D01*
X112094643Y-71390912D01*
X112049800Y-71364020D01*
X111989321Y-71324736D01*
X111942789Y-71293117D01*
X111858475Y-71235098D01*
X111758626Y-71166784D01*
X111658473Y-71098579D01*
X111604627Y-71062075D01*
X111422371Y-70938800D01*
X111269381Y-71021520D01*
X111199682Y-71057759D01*
X111140414Y-71085926D01*
X111100311Y-71101991D01*
X111090103Y-71104226D01*
X111077829Y-71087722D01*
X111053613Y-71041082D01*
X111019263Y-70968609D01*
X110976588Y-70874606D01*
X110927394Y-70763374D01*
X110873490Y-70639215D01*
X110816684Y-70506432D01*
X110758782Y-70369327D01*
X110701593Y-70232202D01*
X110646924Y-70099358D01*
X110596584Y-69975098D01*
X110552380Y-69863725D01*
X110516119Y-69769539D01*
X110489609Y-69696844D01*
X110474658Y-69649941D01*
X110472254Y-69633833D01*
X110491311Y-69613286D01*
X110533036Y-69579933D01*
X110588706Y-69540702D01*
X110593378Y-69537599D01*
X110737264Y-69422423D01*
X110853283Y-69288053D01*
X110940430Y-69138784D01*
X110997699Y-68978913D01*
X111024086Y-68812737D01*
X111018585Y-68644552D01*
X110980190Y-68478655D01*
X110907895Y-68319342D01*
X110886626Y-68284487D01*
X110775996Y-68143737D01*
X110645302Y-68030714D01*
X110499064Y-67946003D01*
X110341808Y-67890194D01*
X110178057Y-67863874D01*
X110012333Y-67867630D01*
X109849162Y-67902050D01*
X109693065Y-67967723D01*
X109548567Y-68065235D01*
X109503869Y-68104813D01*
X109390112Y-68228703D01*
X109307218Y-68359124D01*
X109250356Y-68505315D01*
X109218687Y-68650088D01*
X109210869Y-68812860D01*
X109236938Y-68976440D01*
X109294245Y-69135298D01*
X109380144Y-69283906D01*
X109491986Y-69416735D01*
X109627123Y-69528256D01*
X109644883Y-69540011D01*
X109701150Y-69578508D01*
X109743923Y-69611863D01*
X109764372Y-69633160D01*
X109764669Y-69633833D01*
X109760279Y-69656871D01*
X109742876Y-69709157D01*
X109714268Y-69786390D01*
X109676265Y-69884268D01*
X109630674Y-69998491D01*
X109579303Y-70124758D01*
X109523962Y-70258767D01*
X109466458Y-70396218D01*
X109408601Y-70532808D01*
X109352198Y-70664237D01*
X109299058Y-70786205D01*
X109250990Y-70894409D01*
X109209801Y-70984549D01*
X109177301Y-71052323D01*
X109155297Y-71093430D01*
X109146436Y-71104226D01*
X109119360Y-71095819D01*
X109068697Y-71073272D01*
X109003183Y-71040613D01*
X108967159Y-71021520D01*
X108814168Y-70938800D01*
X108631912Y-71062075D01*
X108538875Y-71125228D01*
X108437015Y-71194727D01*
X108341562Y-71260165D01*
X108293750Y-71293117D01*
X108226505Y-71338273D01*
X108169564Y-71374057D01*
X108130354Y-71395938D01*
X108117619Y-71400563D01*
X108099083Y-71388085D01*
X108058059Y-71353252D01*
X107998525Y-71299678D01*
X107924458Y-71230983D01*
X107839835Y-71150781D01*
X107786315Y-71099286D01*
X107692681Y-71007286D01*
X107611759Y-70924999D01*
X107546823Y-70855945D01*
X107501142Y-70803644D01*
X107477989Y-70771616D01*
X107475768Y-70765116D01*
X107486076Y-70740394D01*
X107514561Y-70690405D01*
X107558063Y-70620212D01*
X107613423Y-70534875D01*
X107677480Y-70439456D01*
X107695697Y-70412854D01*
X107762073Y-70316167D01*
X107821622Y-70229117D01*
X107871016Y-70156595D01*
X107906925Y-70103493D01*
X107926019Y-70074703D01*
X107927864Y-70071726D01*
X107925105Y-70048782D01*
X107910462Y-69998336D01*
X107886487Y-69927041D01*
X107855734Y-69841547D01*
X107820756Y-69748507D01*
X107784107Y-69654574D01*
X107748339Y-69566399D01*
X107716006Y-69490634D01*
X107689662Y-69433931D01*
X107671858Y-69402943D01*
X107670593Y-69401457D01*
X107659706Y-69392601D01*
X107641318Y-69383843D01*
X107611394Y-69374277D01*
X107565897Y-69362996D01*
X107500791Y-69349093D01*
X107412039Y-69331663D01*
X107295607Y-69309798D01*
X107147458Y-69282591D01*
X107115382Y-69276741D01*
X107020314Y-69258374D01*
X106937435Y-69240405D01*
X106874070Y-69224569D01*
X106837542Y-69212600D01*
X106832644Y-69209810D01*
X106824573Y-69185072D01*
X106818013Y-69129790D01*
X106812967Y-69050389D01*
X106809441Y-68953296D01*
X106807439Y-68844938D01*
X106806964Y-68731740D01*
X106808023Y-68620128D01*
X106810618Y-68516529D01*
X106814754Y-68427368D01*
X106820437Y-68359072D01*
X106827669Y-68318066D01*
X106832029Y-68309674D01*
X106856302Y-68301208D01*
X106911574Y-68287435D01*
X106992338Y-68269550D01*
X107093088Y-68248748D01*
X107208317Y-68226223D01*
X107271098Y-68214418D01*
X107390213Y-68192151D01*
X107496435Y-68171979D01*
X107584573Y-68154915D01*
X107649434Y-68141969D01*
X107685826Y-68134155D01*
X107691816Y-68132422D01*
X107701939Y-68112890D01*
X107723338Y-68065843D01*
X107753161Y-67998003D01*
X107788555Y-67916091D01*
X107826668Y-67826828D01*
X107864647Y-67736935D01*
X107899640Y-67653135D01*
X107928794Y-67582147D01*
X107949257Y-67530694D01*
X107958177Y-67505497D01*
X107958343Y-67504396D01*
X107948231Y-67484519D01*
X107919883Y-67438777D01*
X107876277Y-67371717D01*
X107820394Y-67287884D01*
X107755213Y-67191826D01*
X107717321Y-67136650D01*
X107648275Y-67035481D01*
X107586950Y-66943630D01*
X107536337Y-66865744D01*
X107499429Y-66806469D01*
X107479218Y-66770451D01*
X107476299Y-66762377D01*
X107488847Y-66743584D01*
X107523537Y-66703457D01*
X107575937Y-66646493D01*
X107641616Y-66577185D01*
X107716144Y-66500031D01*
X107795087Y-66419525D01*
X107874017Y-66340163D01*
X107948500Y-66266440D01*
X108014106Y-66202852D01*
X108066404Y-66153894D01*
X108100961Y-66124061D01*
X108112522Y-66116942D01*
X108131346Y-66126953D01*
X108176369Y-66155078D01*
X108243213Y-66198454D01*
X108327501Y-66254218D01*
X108424856Y-66319506D01*
X108498293Y-66369246D01*
X108869333Y-66621551D01*
X109487905Y-66366555D01*
X109571725Y-65921931D01*
X109655546Y-65477307D01*
X110580994Y-65477307D01*
X110664814Y-65921931D01*
G36*
X110664814Y-65921931D02*
G01*
X110748635Y-66366555D01*
X111057920Y-66494053D01*
X111367206Y-66621551D01*
X111738246Y-66369246D01*
X111842157Y-66298996D01*
X111936087Y-66236272D01*
X112015652Y-66183938D01*
X112076470Y-66144857D01*
X112114157Y-66121893D01*
X112124421Y-66116942D01*
X112142910Y-66129676D01*
X112182420Y-66164882D01*
X112238522Y-66218062D01*
X112306787Y-66284718D01*
X112382786Y-66360354D01*
X112462092Y-66440472D01*
X112540275Y-66520574D01*
X112612907Y-66596164D01*
X112675559Y-66662745D01*
X112723803Y-66715818D01*
X112753210Y-66750887D01*
X112760241Y-66762623D01*
X112750123Y-66784260D01*
X112721759Y-66831662D01*
X112678129Y-66900193D01*
X112622218Y-66985215D01*
X112557006Y-67082093D01*
X112519219Y-67137350D01*
X112450343Y-67238248D01*
X112389140Y-67329299D01*
X112338578Y-67405970D01*
X112301628Y-67463728D01*
X112281258Y-67498043D01*
X112278197Y-67505254D01*
X112285136Y-67525748D01*
X112304051Y-67573513D01*
X112332087Y-67641832D01*
X112366391Y-67723989D01*
X112404109Y-67813270D01*
X112442387Y-67902958D01*
X112478370Y-67986338D01*
X112509206Y-68056694D01*
X112532039Y-68107310D01*
X112544017Y-68131471D01*
X112544724Y-68132422D01*
X112563531Y-68137036D01*
X112613618Y-68147328D01*
X112689793Y-68162287D01*
X112786865Y-68180901D01*
X112899643Y-68202159D01*
X112965442Y-68214418D01*
X113085950Y-68237362D01*
X113194797Y-68259195D01*
X113286476Y-68278722D01*
X113355481Y-68294748D01*
X113396304Y-68306079D01*
X113404511Y-68309674D01*
X113412548Y-68334006D01*
X113419033Y-68388959D01*
X113423970Y-68468108D01*
X113427364Y-68565026D01*
X113429218Y-68673287D01*
X113429538Y-68786465D01*
X113428327Y-68898135D01*
X113425590Y-69001868D01*
X113421331Y-69091241D01*
X113415555Y-69159826D01*
X113408267Y-69201197D01*
X113403895Y-69209810D01*
X113377764Y-69220133D01*
X113322393Y-69234892D01*
X113245107Y-69252352D01*
X113153230Y-69270780D01*
X113121158Y-69276741D01*
X112966524Y-69305066D01*
X112844375Y-69327876D01*
X112750673Y-69346080D01*
X112681384Y-69360583D01*
X112632471Y-69372292D01*
X112599897Y-69382115D01*
X112579628Y-69390956D01*
X112567626Y-69399724D01*
X112565947Y-69401457D01*
X112549184Y-69429371D01*
X112523614Y-69483695D01*
X112491788Y-69557777D01*
X112456260Y-69644965D01*
X112419583Y-69738608D01*
X112384311Y-69832052D01*
X112352996Y-69918647D01*
X112328193Y-69991740D01*
X112312454Y-70044678D01*
X112308332Y-70070811D01*
X112308676Y-70071726D01*
X112322641Y-70093086D01*
X112354322Y-70140084D01*
X112400391Y-70207827D01*
X112457518Y-70291423D01*
X112522373Y-70385982D01*
X112540843Y-70412854D01*
X112606699Y-70510275D01*
X112664650Y-70599163D01*
X112711538Y-70674412D01*
X112744207Y-70730920D01*
X112759500Y-70763581D01*
X112760241Y-70767593D01*
X112747392Y-70788684D01*
X112711888Y-70830464D01*
X112658293Y-70888445D01*
X112591171Y-70958135D01*
X112515087Y-71035045D01*
X112434604Y-71114683D01*
X112354287Y-71192561D01*
X112278699Y-71264186D01*
X112212405Y-71325070D01*
X112159969Y-71370721D01*
X112125955Y-71396650D01*
X112116545Y-71400883D01*
X112094643Y-71390912D01*
X112049800Y-71364020D01*
X111989321Y-71324736D01*
X111942789Y-71293117D01*
X111858475Y-71235098D01*
X111758626Y-71166784D01*
X111658473Y-71098579D01*
X111604627Y-71062075D01*
X111422371Y-70938800D01*
X111269381Y-71021520D01*
X111199682Y-71057759D01*
X111140414Y-71085926D01*
X111100311Y-71101991D01*
X111090103Y-71104226D01*
X111077829Y-71087722D01*
X111053613Y-71041082D01*
X111019263Y-70968609D01*
X110976588Y-70874606D01*
X110927394Y-70763374D01*
X110873490Y-70639215D01*
X110816684Y-70506432D01*
X110758782Y-70369327D01*
X110701593Y-70232202D01*
X110646924Y-70099358D01*
X110596584Y-69975098D01*
X110552380Y-69863725D01*
X110516119Y-69769539D01*
X110489609Y-69696844D01*
X110474658Y-69649941D01*
X110472254Y-69633833D01*
X110491311Y-69613286D01*
X110533036Y-69579933D01*
X110588706Y-69540702D01*
X110593378Y-69537599D01*
X110737264Y-69422423D01*
X110853283Y-69288053D01*
X110940430Y-69138784D01*
X110997699Y-68978913D01*
X111024086Y-68812737D01*
X111018585Y-68644552D01*
X110980190Y-68478655D01*
X110907895Y-68319342D01*
X110886626Y-68284487D01*
X110775996Y-68143737D01*
X110645302Y-68030714D01*
X110499064Y-67946003D01*
X110341808Y-67890194D01*
X110178057Y-67863874D01*
X110012333Y-67867630D01*
X109849162Y-67902050D01*
X109693065Y-67967723D01*
X109548567Y-68065235D01*
X109503869Y-68104813D01*
X109390112Y-68228703D01*
X109307218Y-68359124D01*
X109250356Y-68505315D01*
X109218687Y-68650088D01*
X109210869Y-68812860D01*
X109236938Y-68976440D01*
X109294245Y-69135298D01*
X109380144Y-69283906D01*
X109491986Y-69416735D01*
X109627123Y-69528256D01*
X109644883Y-69540011D01*
X109701150Y-69578508D01*
X109743923Y-69611863D01*
X109764372Y-69633160D01*
X109764669Y-69633833D01*
X109760279Y-69656871D01*
X109742876Y-69709157D01*
X109714268Y-69786390D01*
X109676265Y-69884268D01*
X109630674Y-69998491D01*
X109579303Y-70124758D01*
X109523962Y-70258767D01*
X109466458Y-70396218D01*
X109408601Y-70532808D01*
X109352198Y-70664237D01*
X109299058Y-70786205D01*
X109250990Y-70894409D01*
X109209801Y-70984549D01*
X109177301Y-71052323D01*
X109155297Y-71093430D01*
X109146436Y-71104226D01*
X109119360Y-71095819D01*
X109068697Y-71073272D01*
X109003183Y-71040613D01*
X108967159Y-71021520D01*
X108814168Y-70938800D01*
X108631912Y-71062075D01*
X108538875Y-71125228D01*
X108437015Y-71194727D01*
X108341562Y-71260165D01*
X108293750Y-71293117D01*
X108226505Y-71338273D01*
X108169564Y-71374057D01*
X108130354Y-71395938D01*
X108117619Y-71400563D01*
X108099083Y-71388085D01*
X108058059Y-71353252D01*
X107998525Y-71299678D01*
X107924458Y-71230983D01*
X107839835Y-71150781D01*
X107786315Y-71099286D01*
X107692681Y-71007286D01*
X107611759Y-70924999D01*
X107546823Y-70855945D01*
X107501142Y-70803644D01*
X107477989Y-70771616D01*
X107475768Y-70765116D01*
X107486076Y-70740394D01*
X107514561Y-70690405D01*
X107558063Y-70620212D01*
X107613423Y-70534875D01*
X107677480Y-70439456D01*
X107695697Y-70412854D01*
X107762073Y-70316167D01*
X107821622Y-70229117D01*
X107871016Y-70156595D01*
X107906925Y-70103493D01*
X107926019Y-70074703D01*
X107927864Y-70071726D01*
X107925105Y-70048782D01*
X107910462Y-69998336D01*
X107886487Y-69927041D01*
X107855734Y-69841547D01*
X107820756Y-69748507D01*
X107784107Y-69654574D01*
X107748339Y-69566399D01*
X107716006Y-69490634D01*
X107689662Y-69433931D01*
X107671858Y-69402943D01*
X107670593Y-69401457D01*
X107659706Y-69392601D01*
X107641318Y-69383843D01*
X107611394Y-69374277D01*
X107565897Y-69362996D01*
X107500791Y-69349093D01*
X107412039Y-69331663D01*
X107295607Y-69309798D01*
X107147458Y-69282591D01*
X107115382Y-69276741D01*
X107020314Y-69258374D01*
X106937435Y-69240405D01*
X106874070Y-69224569D01*
X106837542Y-69212600D01*
X106832644Y-69209810D01*
X106824573Y-69185072D01*
X106818013Y-69129790D01*
X106812967Y-69050389D01*
X106809441Y-68953296D01*
X106807439Y-68844938D01*
X106806964Y-68731740D01*
X106808023Y-68620128D01*
X106810618Y-68516529D01*
X106814754Y-68427368D01*
X106820437Y-68359072D01*
X106827669Y-68318066D01*
X106832029Y-68309674D01*
X106856302Y-68301208D01*
X106911574Y-68287435D01*
X106992338Y-68269550D01*
X107093088Y-68248748D01*
X107208317Y-68226223D01*
X107271098Y-68214418D01*
X107390213Y-68192151D01*
X107496435Y-68171979D01*
X107584573Y-68154915D01*
X107649434Y-68141969D01*
X107685826Y-68134155D01*
X107691816Y-68132422D01*
X107701939Y-68112890D01*
X107723338Y-68065843D01*
X107753161Y-67998003D01*
X107788555Y-67916091D01*
X107826668Y-67826828D01*
X107864647Y-67736935D01*
X107899640Y-67653135D01*
X107928794Y-67582147D01*
X107949257Y-67530694D01*
X107958177Y-67505497D01*
X107958343Y-67504396D01*
X107948231Y-67484519D01*
X107919883Y-67438777D01*
X107876277Y-67371717D01*
X107820394Y-67287884D01*
X107755213Y-67191826D01*
X107717321Y-67136650D01*
X107648275Y-67035481D01*
X107586950Y-66943630D01*
X107536337Y-66865744D01*
X107499429Y-66806469D01*
X107479218Y-66770451D01*
X107476299Y-66762377D01*
X107488847Y-66743584D01*
X107523537Y-66703457D01*
X107575937Y-66646493D01*
X107641616Y-66577185D01*
X107716144Y-66500031D01*
X107795087Y-66419525D01*
X107874017Y-66340163D01*
X107948500Y-66266440D01*
X108014106Y-66202852D01*
X108066404Y-66153894D01*
X108100961Y-66124061D01*
X108112522Y-66116942D01*
X108131346Y-66126953D01*
X108176369Y-66155078D01*
X108243213Y-66198454D01*
X108327501Y-66254218D01*
X108424856Y-66319506D01*
X108498293Y-66369246D01*
X108869333Y-66621551D01*
X109487905Y-66366555D01*
X109571725Y-65921931D01*
X109655546Y-65477307D01*
X110580994Y-65477307D01*
X110664814Y-65921931D01*
G37*
%TD*%
M02*
