%TF.GenerationSoftware,KiCad,Pcbnew,7.0.1-0*%
%TF.CreationDate,2023-08-23T15:05:40+02:00*%
%TF.ProjectId,ESP32SomfyPOE_bottom,45535033-3253-46f6-9d66-79504f455f62,rev?*%
%TF.SameCoordinates,Original*%
%TF.FileFunction,Copper,L2,Bot*%
%TF.FilePolarity,Positive*%
%FSLAX46Y46*%
G04 Gerber Fmt 4.6, Leading zero omitted, Abs format (unit mm)*
G04 Created by KiCad (PCBNEW 7.0.1-0) date 2023-08-23 15:05:40*
%MOMM*%
%LPD*%
G01*
G04 APERTURE LIST*
G04 Aperture macros list*
%AMRoundRect*
0 Rectangle with rounded corners*
0 $1 Rounding radius*
0 $2 $3 $4 $5 $6 $7 $8 $9 X,Y pos of 4 corners*
0 Add a 4 corners polygon primitive as box body*
4,1,4,$2,$3,$4,$5,$6,$7,$8,$9,$2,$3,0*
0 Add four circle primitives for the rounded corners*
1,1,$1+$1,$2,$3*
1,1,$1+$1,$4,$5*
1,1,$1+$1,$6,$7*
1,1,$1+$1,$8,$9*
0 Add four rect primitives between the rounded corners*
20,1,$1+$1,$2,$3,$4,$5,0*
20,1,$1+$1,$4,$5,$6,$7,0*
20,1,$1+$1,$6,$7,$8,$9,0*
20,1,$1+$1,$8,$9,$2,$3,0*%
G04 Aperture macros list end*
%TA.AperFunction,ComponentPad*%
%ADD10C,4.500000*%
%TD*%
%TA.AperFunction,SMDPad,CuDef*%
%ADD11RoundRect,0.225000X1.025000X-0.225000X1.025000X0.225000X-1.025000X0.225000X-1.025000X-0.225000X0*%
%TD*%
%TA.AperFunction,SMDPad,CuDef*%
%ADD12RoundRect,0.425000X1.575000X-0.425000X1.575000X0.425000X-1.575000X0.425000X-1.575000X-0.425000X0*%
%TD*%
%TA.AperFunction,SMDPad,CuDef*%
%ADD13RoundRect,0.425000X0.825000X-0.425000X0.825000X0.425000X-0.825000X0.425000X-0.825000X-0.425000X0*%
%TD*%
%TA.AperFunction,ComponentPad*%
%ADD14C,1.700000*%
%TD*%
%TA.AperFunction,ComponentPad*%
%ADD15RoundRect,0.425000X-0.425000X0.425000X-0.425000X-0.425000X0.425000X-0.425000X0.425000X0.425000X0*%
%TD*%
%TA.AperFunction,ViaPad*%
%ADD16C,0.800000*%
%TD*%
%TA.AperFunction,Conductor*%
%ADD17C,0.250000*%
%TD*%
G04 APERTURE END LIST*
D10*
%TO.P,H1,1,1*%
%TO.N,GND*%
X119500000Y-65850000D03*
%TD*%
D11*
%TO.P,E07-433M20S,1,GND*%
%TO.N,GND*%
X87249000Y-91567000D03*
%TO.P,E07-433M20S,2,MOSI*%
%TO.N,GPIO15*%
X87249000Y-90297000D03*
%TO.P,E07-433M20S,3,SCK*%
%TO.N,GPIO14*%
X87249000Y-89027000D03*
%TO.P,E07-433M20S,4,MISO*%
%TO.N,GPIO16*%
X87249000Y-87757000D03*
%TO.P,E07-433M20S,5,GDO2*%
%TO.N,unconnected-(U1-GDO2-Pad5)*%
X87249000Y-86487000D03*
%TO.P,E07-433M20S,6,GDO0*%
%TO.N,unconnected-(U1-GDO0-Pad6)*%
X87249000Y-85217000D03*
%TO.P,E07-433M20S,7,CSN*%
%TO.N,GPIO13*%
X87249000Y-83947000D03*
%TO.P,E07-433M20S,8,TX_EN*%
%TO.N,GPIO4*%
X87249000Y-82677000D03*
%TO.P,E07-433M20S,9,RX_EN*%
%TO.N,GPI36*%
X87249000Y-81407000D03*
%TO.P,E07-433M20S,10,NC*%
%TO.N,unconnected-(U1-NC-Pad10)*%
X87249000Y-80137000D03*
%TO.P,E07-433M20S,11,VCC*%
%TO.N,+3V3*%
X87249000Y-78867000D03*
%TO.P,E07-433M20S,12,GND*%
%TO.N,GND*%
X87249000Y-77597000D03*
D12*
%TO.P,E07-433M20S,13,ANT*%
%TO.N,unconnected-(U1-ANT-Pad13)*%
X118499000Y-80577000D03*
D13*
%TO.P,E07-433M20S,14,GND*%
%TO.N,GND*%
X119249000Y-82577000D03*
%TO.P,E07-433M20S,15,GND*%
X119249000Y-86577000D03*
%TO.P,E07-433M20S,16,GND*%
X119249000Y-88577000D03*
%TD*%
D14*
%TO.P,UEXT,1,3V3*%
%TO.N,+3V3*%
X101600000Y-67056000D03*
D15*
%TO.P,UEXT,2,GND*%
%TO.N,GND*%
X101600000Y-69596000D03*
D14*
%TO.P,UEXT,3,TXD*%
%TO.N,GPIO4*%
X99060000Y-67056000D03*
%TO.P,UEXT,4,RXD*%
%TO.N,GPI36*%
X99060000Y-69596000D03*
%TO.P,UEXT,5,SCL*%
%TO.N,GPIO16*%
X96520000Y-67056000D03*
%TO.P,UEXT,6,SDA*%
%TO.N,GPIO13*%
X96520000Y-69596000D03*
%TO.P,UEXT,7,MISO*%
%TO.N,GPIO15*%
X93980000Y-67056000D03*
%TO.P,UEXT,8,MOSI*%
%TO.N,GPIO2*%
X93980000Y-69596000D03*
%TO.P,UEXT,9,SCK*%
%TO.N,GPIO14*%
X91440000Y-67056000D03*
%TO.P,UEXT,10,~{SSEL}*%
%TO.N,GPIO5*%
X91440000Y-69596000D03*
%TD*%
D16*
%TO.N,GND*%
X92583000Y-81788000D03*
X96774000Y-77724000D03*
X117475000Y-71501000D03*
X89662000Y-87503000D03*
X113538000Y-88773000D03*
X92329000Y-74295000D03*
X118745000Y-71501000D03*
X95250000Y-87376000D03*
X112268000Y-88773000D03*
X86398500Y-73914000D03*
X112268000Y-87503000D03*
X118745000Y-72771000D03*
X96520000Y-87376000D03*
X95250000Y-88646000D03*
X113538000Y-87503000D03*
X117475000Y-72771000D03*
X96520000Y-88646000D03*
%TO.N,GPIO15*%
X90934208Y-85854208D03*
%TO.N,GPIO16*%
X98933000Y-74930000D03*
%TO.N,GPIO13*%
X97920604Y-75060604D03*
%TD*%
D17*
%TO.N,GND*%
X120115000Y-82577000D02*
X119249000Y-82577000D01*
X119249000Y-82577000D02*
X119249000Y-86577000D01*
X121750000Y-80942000D02*
X120115000Y-82577000D01*
X115754000Y-69596000D02*
X119500000Y-65850000D01*
X88265000Y-75780500D02*
X86398500Y-73914000D01*
X119500000Y-65850000D02*
X121750000Y-68100000D01*
X88265000Y-76581000D02*
X88265000Y-75780500D01*
X119249000Y-86577000D02*
X119249000Y-88577000D01*
X101600000Y-69596000D02*
X115754000Y-69596000D01*
X87249000Y-77597000D02*
X88265000Y-76581000D01*
X121750000Y-68100000D02*
X121750000Y-80942000D01*
%TO.N,GPIO15*%
X87249000Y-90297000D02*
X88006817Y-90297000D01*
X88006817Y-90297000D02*
X90934208Y-87369609D01*
X90934208Y-87369609D02*
X90934208Y-85854208D01*
%TO.N,GPIO14*%
X87249000Y-89027000D02*
X86491183Y-89027000D01*
X86491183Y-89027000D02*
X85674000Y-88209817D01*
X85674000Y-72822000D02*
X91440000Y-67056000D01*
X85674000Y-88209817D02*
X85674000Y-72822000D01*
%TO.N,GPIO16*%
X98933000Y-76830817D02*
X98933000Y-74930000D01*
X87249000Y-87757000D02*
X88006817Y-87757000D01*
X88006817Y-87757000D02*
X98933000Y-76830817D01*
%TO.N,GPIO13*%
X89034208Y-83947000D02*
X97920604Y-75060604D01*
X87249000Y-83947000D02*
X89034208Y-83947000D01*
%TO.N,GPIO4*%
X100235000Y-71721609D02*
X100235000Y-68231000D01*
X89279609Y-82677000D02*
X100235000Y-71721609D01*
X87249000Y-82677000D02*
X89279609Y-82677000D01*
X100235000Y-68231000D02*
X99060000Y-67056000D01*
%TO.N,GPI36*%
X89913213Y-81407000D02*
X87249000Y-81407000D01*
X99060000Y-69596000D02*
X99060000Y-72260213D01*
X99060000Y-72260213D02*
X89913213Y-81407000D01*
%TO.N,+3V3*%
X92615000Y-67542701D02*
X91926701Y-68231000D01*
X100425000Y-65881000D02*
X93493299Y-65881000D01*
X87249000Y-78867000D02*
X88011000Y-78867000D01*
X92615000Y-66759299D02*
X92615000Y-67542701D01*
X89916000Y-76957817D02*
X88006817Y-78867000D01*
X89916000Y-69216396D02*
X89916000Y-76957817D01*
X88006817Y-78867000D02*
X87249000Y-78867000D01*
X101600000Y-67056000D02*
X100425000Y-65881000D01*
X91926701Y-68231000D02*
X90953299Y-68231000D01*
X90927347Y-68205049D02*
X89916000Y-69216396D01*
X90953299Y-68231000D02*
X90927347Y-68205049D01*
X93493299Y-65881000D02*
X92615000Y-66759299D01*
%TD*%
%TA.AperFunction,Conductor*%
%TO.N,GND*%
G36*
X117930595Y-63369986D02*
G01*
X117975912Y-63414759D01*
X117993019Y-63476123D01*
X117977401Y-63537883D01*
X117939889Y-63576779D01*
X117940871Y-63578032D01*
X117739416Y-63735861D01*
X117739416Y-63735862D01*
X119500000Y-65496447D01*
X121614136Y-67610582D01*
X121614137Y-67610582D01*
X121767343Y-67415030D01*
X121769384Y-67411655D01*
X121771854Y-67409272D01*
X121771967Y-67409129D01*
X121771987Y-67409144D01*
X121815239Y-67367434D01*
X121876999Y-67351815D01*
X121938363Y-67368922D01*
X121983136Y-67414239D01*
X121999500Y-67475806D01*
X121999500Y-93741894D01*
X121996378Y-93757589D01*
X121996378Y-93793399D01*
X121996183Y-93800351D01*
X121982391Y-94045960D01*
X121982278Y-94047743D01*
X121979897Y-94081458D01*
X121978453Y-94093493D01*
X121955617Y-94227902D01*
X121955338Y-94229483D01*
X121928601Y-94375389D01*
X121925786Y-94387366D01*
X121887463Y-94520388D01*
X121886695Y-94522950D01*
X121843853Y-94660438D01*
X121840028Y-94671000D01*
X121786400Y-94800471D01*
X121784915Y-94803910D01*
X121726517Y-94933665D01*
X121721969Y-94942755D01*
X121653765Y-95066160D01*
X121651355Y-95070328D01*
X121578182Y-95191374D01*
X121573194Y-95198980D01*
X121491345Y-95314337D01*
X121487825Y-95319055D01*
X121400845Y-95430076D01*
X121395695Y-95436230D01*
X121301307Y-95541850D01*
X121296528Y-95546904D01*
X121196904Y-95646528D01*
X121191850Y-95651307D01*
X121086230Y-95745695D01*
X121080076Y-95750845D01*
X120969055Y-95837825D01*
X120964337Y-95841345D01*
X120848980Y-95923194D01*
X120841374Y-95928182D01*
X120720328Y-96001355D01*
X120716160Y-96003765D01*
X120592755Y-96071969D01*
X120583665Y-96076517D01*
X120453910Y-96134915D01*
X120450471Y-96136400D01*
X120321000Y-96190028D01*
X120310438Y-96193853D01*
X120172950Y-96236695D01*
X120170388Y-96237463D01*
X120037366Y-96275786D01*
X120025389Y-96278601D01*
X119879483Y-96305338D01*
X119877902Y-96305617D01*
X119745666Y-96328084D01*
X119732382Y-96329610D01*
X119562534Y-96339882D01*
X119562001Y-96339913D01*
X119457268Y-96345794D01*
X119450349Y-96346183D01*
X119443399Y-96346378D01*
X87553482Y-96346378D01*
X87546528Y-96346183D01*
X87434742Y-96339904D01*
X87434210Y-96339873D01*
X87264507Y-96329609D01*
X87251222Y-96328083D01*
X87118953Y-96305609D01*
X87117372Y-96305330D01*
X86971487Y-96278595D01*
X86959511Y-96275780D01*
X86826512Y-96237463D01*
X86823949Y-96236694D01*
X86686438Y-96193843D01*
X86675877Y-96190019D01*
X86546441Y-96136406D01*
X86543001Y-96134920D01*
X86413215Y-96076507D01*
X86404126Y-96071960D01*
X86280731Y-96003762D01*
X86276562Y-96001351D01*
X86155501Y-95928167D01*
X86147895Y-95923179D01*
X86032550Y-95841336D01*
X86027832Y-95837817D01*
X85916815Y-95750839D01*
X85910662Y-95745689D01*
X85805049Y-95651308D01*
X85799995Y-95646529D01*
X85700352Y-95546886D01*
X85695583Y-95541842D01*
X85647604Y-95488153D01*
X85601203Y-95436229D01*
X85596052Y-95430076D01*
X85509051Y-95319026D01*
X85505544Y-95314323D01*
X85423705Y-95198980D01*
X85418734Y-95191401D01*
X85345529Y-95070304D01*
X85343128Y-95066151D01*
X85274933Y-94942761D01*
X85270385Y-94933671D01*
X85270382Y-94933665D01*
X85211955Y-94803844D01*
X85210499Y-94800471D01*
X85156860Y-94670973D01*
X85153053Y-94660460D01*
X85110190Y-94522904D01*
X85109450Y-94520434D01*
X85071106Y-94387337D01*
X85068298Y-94375389D01*
X85041539Y-94229365D01*
X85041316Y-94228101D01*
X85018808Y-94095623D01*
X85017288Y-94082394D01*
X85007174Y-93915359D01*
X85000694Y-93799958D01*
X85000500Y-93793009D01*
X85000500Y-92516998D01*
X86652553Y-92516998D01*
X86652554Y-92516999D01*
X87845445Y-92516999D01*
X87845445Y-92516998D01*
X87249001Y-91920553D01*
X87249000Y-91920553D01*
X86652553Y-92516998D01*
X85000500Y-92516998D01*
X85000500Y-88727959D01*
X85019803Y-88661517D01*
X85071703Y-88615761D01*
X85140041Y-88604937D01*
X85203540Y-88632415D01*
X85248058Y-88669243D01*
X85256699Y-88677106D01*
X85462181Y-88882588D01*
X85489061Y-88922816D01*
X85498500Y-88970269D01*
X85498500Y-89300344D01*
X85508650Y-89399707D01*
X85544319Y-89507350D01*
X85561997Y-89560697D01*
X85578757Y-89587870D01*
X85584330Y-89596905D01*
X85602790Y-89662000D01*
X85584330Y-89727095D01*
X85561997Y-89763303D01*
X85508650Y-89924292D01*
X85498500Y-90023655D01*
X85498500Y-90570344D01*
X85508650Y-90669707D01*
X85561997Y-90830697D01*
X85584623Y-90867380D01*
X85603084Y-90932476D01*
X85584623Y-90997572D01*
X85562453Y-91033515D01*
X85509143Y-91194393D01*
X85499000Y-91293684D01*
X85499000Y-91840314D01*
X85509143Y-91939605D01*
X85562453Y-92100486D01*
X85651426Y-92244732D01*
X85771265Y-92364571D01*
X85915518Y-92453547D01*
X85985657Y-92476788D01*
X85985658Y-92476788D01*
X87161318Y-91301127D01*
X87216905Y-91269033D01*
X87281093Y-91269033D01*
X87336680Y-91301127D01*
X88512341Y-92476788D01*
X88582481Y-92453547D01*
X88726734Y-92364571D01*
X88846573Y-92244732D01*
X88935546Y-92100486D01*
X88988856Y-91939606D01*
X88998999Y-91840315D01*
X88998999Y-91293685D01*
X88988856Y-91194394D01*
X88935546Y-91033516D01*
X88913377Y-90997574D01*
X88894915Y-90932476D01*
X88913376Y-90867380D01*
X88936003Y-90830697D01*
X88989349Y-90669708D01*
X88999500Y-90570345D01*
X88999499Y-90240267D01*
X89008938Y-90192815D01*
X89035815Y-90152590D01*
X89271902Y-89916503D01*
X118263048Y-89916503D01*
X118278498Y-89920643D01*
X118359264Y-89927000D01*
X120138736Y-89927000D01*
X120219500Y-89920644D01*
X120234949Y-89916503D01*
X120234949Y-89916502D01*
X119249000Y-88930553D01*
X118263048Y-89916502D01*
X118263048Y-89916503D01*
X89271902Y-89916503D01*
X90121670Y-89066735D01*
X117499000Y-89066735D01*
X117505356Y-89147498D01*
X117555681Y-89335315D01*
X117643957Y-89508566D01*
X117766323Y-89659675D01*
X117791988Y-89680458D01*
X117791989Y-89680458D01*
X119161319Y-88311128D01*
X119216906Y-88279034D01*
X119281094Y-88279034D01*
X119336681Y-88311128D01*
X120706010Y-89680457D01*
X120706011Y-89680457D01*
X120731674Y-89659677D01*
X120854042Y-89508566D01*
X120942318Y-89335315D01*
X120992643Y-89147498D01*
X120999000Y-89066735D01*
X120999000Y-88087265D01*
X120992643Y-88006501D01*
X120942318Y-87818684D01*
X120848126Y-87633821D01*
X120850806Y-87632455D01*
X120837364Y-87604896D01*
X120837364Y-87549104D01*
X120850806Y-87521544D01*
X120848126Y-87520179D01*
X120942318Y-87335315D01*
X120992643Y-87147498D01*
X120999000Y-87066735D01*
X120999000Y-86087265D01*
X120992643Y-86006501D01*
X120942318Y-85818684D01*
X120854042Y-85645433D01*
X120731675Y-85494324D01*
X120706010Y-85473540D01*
X120706010Y-85473541D01*
X119336680Y-86842871D01*
X119281093Y-86874965D01*
X119216905Y-86874965D01*
X119161318Y-86842871D01*
X117791988Y-85473541D01*
X117791987Y-85473541D01*
X117766324Y-85494323D01*
X117643957Y-85645433D01*
X117555681Y-85818684D01*
X117505356Y-86006501D01*
X117499000Y-86087265D01*
X117499000Y-87066735D01*
X117505356Y-87147498D01*
X117555681Y-87335315D01*
X117649874Y-87520178D01*
X117647202Y-87521539D01*
X117660645Y-87549141D01*
X117660645Y-87604859D01*
X117647202Y-87632460D01*
X117649874Y-87633822D01*
X117555681Y-87818684D01*
X117505356Y-88006501D01*
X117499000Y-88087265D01*
X117499000Y-89066735D01*
X90121670Y-89066735D01*
X91317997Y-87870409D01*
X91334093Y-87857515D01*
X91336081Y-87855396D01*
X91336085Y-87855395D01*
X91382156Y-87806332D01*
X91384774Y-87803632D01*
X91404328Y-87784080D01*
X91406789Y-87780907D01*
X91414364Y-87772036D01*
X91444270Y-87740191D01*
X91453920Y-87722636D01*
X91464608Y-87706366D01*
X91476881Y-87690545D01*
X91494234Y-87650441D01*
X91499365Y-87639971D01*
X91520405Y-87601701D01*
X91525383Y-87582308D01*
X91531689Y-87563891D01*
X91538088Y-87549104D01*
X91539646Y-87545505D01*
X91546480Y-87502354D01*
X91548843Y-87490940D01*
X91559708Y-87448628D01*
X91559708Y-87428593D01*
X91561235Y-87409194D01*
X91564368Y-87389413D01*
X91560258Y-87345934D01*
X91559708Y-87334265D01*
X91559708Y-86552895D01*
X91567944Y-86508457D01*
X91591555Y-86469925D01*
X91666741Y-86386424D01*
X91761387Y-86222492D01*
X91819882Y-86042464D01*
X91839668Y-85854208D01*
X91819882Y-85665952D01*
X91789540Y-85572571D01*
X91761387Y-85485923D01*
X91666741Y-85321991D01*
X91590660Y-85237496D01*
X118263048Y-85237496D01*
X119249000Y-86223447D01*
X119249001Y-86223447D01*
X120234949Y-85237496D01*
X120234949Y-85237495D01*
X120219499Y-85233356D01*
X120138735Y-85227000D01*
X118359265Y-85227000D01*
X118278499Y-85233356D01*
X118263048Y-85237496D01*
X91590660Y-85237496D01*
X91590659Y-85237495D01*
X91584232Y-85230357D01*
X91555560Y-85175279D01*
X91557185Y-85113206D01*
X91588699Y-85059706D01*
X92731902Y-83916503D01*
X118263048Y-83916503D01*
X118278498Y-83920643D01*
X118359264Y-83927000D01*
X120138736Y-83927000D01*
X120219500Y-83920644D01*
X120234949Y-83916503D01*
X120234949Y-83916502D01*
X119249000Y-82930553D01*
X118263048Y-83916502D01*
X118263048Y-83916503D01*
X92731902Y-83916503D01*
X95581631Y-81066775D01*
X115998500Y-81066775D01*
X116004859Y-81147577D01*
X116055211Y-81335495D01*
X116055212Y-81335496D01*
X116143535Y-81508840D01*
X116265968Y-81660032D01*
X116417160Y-81782465D01*
X116590504Y-81870788D01*
X116778422Y-81921141D01*
X116859222Y-81927500D01*
X116859225Y-81927500D01*
X117377431Y-81927500D01*
X117442221Y-81945773D01*
X117487916Y-81995205D01*
X117501049Y-82061229D01*
X117499000Y-82087265D01*
X117499000Y-83066735D01*
X117505356Y-83147498D01*
X117555681Y-83335315D01*
X117643957Y-83508566D01*
X117766323Y-83659675D01*
X117791988Y-83680458D01*
X117791989Y-83680458D01*
X119161319Y-82311128D01*
X119216906Y-82279034D01*
X119281094Y-82279034D01*
X119336681Y-82311128D01*
X120706010Y-83680457D01*
X120706011Y-83680457D01*
X120731674Y-83659677D01*
X120854042Y-83508566D01*
X120942318Y-83335315D01*
X120992643Y-83147498D01*
X120999000Y-83066735D01*
X120999000Y-82087265D01*
X120992643Y-82006501D01*
X120942318Y-81818684D01*
X120848126Y-81633822D01*
X120850924Y-81632396D01*
X120837725Y-81605470D01*
X120837672Y-81549557D01*
X120851208Y-81521808D01*
X120848548Y-81520453D01*
X120864906Y-81488348D01*
X120942788Y-81335496D01*
X120993141Y-81147578D01*
X120999500Y-81066778D01*
X120999500Y-80087222D01*
X120993141Y-80006422D01*
X120942788Y-79818504D01*
X120854465Y-79645160D01*
X120732032Y-79493968D01*
X120580840Y-79371535D01*
X120580839Y-79371534D01*
X120407495Y-79283211D01*
X120269930Y-79246350D01*
X120219578Y-79232859D01*
X120138778Y-79226500D01*
X116859222Y-79226500D01*
X116778421Y-79232859D01*
X116778422Y-79232859D01*
X116590504Y-79283211D01*
X116417159Y-79371535D01*
X116265968Y-79493968D01*
X116143535Y-79645159D01*
X116055211Y-79818504D01*
X116004859Y-80006422D01*
X115998500Y-80087225D01*
X115998500Y-81066775D01*
X95581631Y-81066775D01*
X99316789Y-77331617D01*
X99332885Y-77318723D01*
X99334873Y-77316604D01*
X99334877Y-77316603D01*
X99380948Y-77267540D01*
X99383566Y-77264840D01*
X99403120Y-77245288D01*
X99405581Y-77242115D01*
X99413156Y-77233244D01*
X99443062Y-77201399D01*
X99452717Y-77183835D01*
X99463394Y-77167581D01*
X99475673Y-77151753D01*
X99493018Y-77111669D01*
X99498160Y-77101173D01*
X99503979Y-77090589D01*
X99519197Y-77062909D01*
X99524179Y-77043501D01*
X99530481Y-77025097D01*
X99538437Y-77006713D01*
X99545269Y-76963569D01*
X99547633Y-76952155D01*
X99558500Y-76909836D01*
X99558500Y-76889801D01*
X99560027Y-76870402D01*
X99560068Y-76870138D01*
X99563160Y-76850621D01*
X99559050Y-76807142D01*
X99558500Y-76795473D01*
X99558500Y-75628687D01*
X99566736Y-75584249D01*
X99590347Y-75545717D01*
X99665533Y-75462216D01*
X99760179Y-75298284D01*
X99818674Y-75118256D01*
X99838460Y-74930000D01*
X99818674Y-74741744D01*
X99760179Y-74561716D01*
X99760179Y-74561715D01*
X99665533Y-74397783D01*
X99538870Y-74257110D01*
X99385730Y-74145848D01*
X99212802Y-74068855D01*
X99072941Y-74039127D01*
X99014551Y-74008893D01*
X98979828Y-73953055D01*
X98978537Y-73887314D01*
X99011039Y-73830158D01*
X100618786Y-72222411D01*
X100634887Y-72209513D01*
X100636874Y-72207396D01*
X100636877Y-72207395D01*
X100682932Y-72158350D01*
X100685613Y-72155585D01*
X100705120Y-72136079D01*
X100707581Y-72132904D01*
X100715152Y-72124040D01*
X100745062Y-72092191D01*
X100754713Y-72074635D01*
X100765393Y-72058376D01*
X100777674Y-72042545D01*
X100795018Y-72002460D01*
X100800160Y-71991965D01*
X100821197Y-71953701D01*
X100826178Y-71934297D01*
X100832480Y-71915892D01*
X100840438Y-71897504D01*
X100847270Y-71854357D01*
X100849639Y-71842925D01*
X100860500Y-71800629D01*
X100860500Y-71780593D01*
X100862027Y-71761194D01*
X100865160Y-71741413D01*
X100861050Y-71697934D01*
X100860500Y-71686265D01*
X100860500Y-71055960D01*
X100873288Y-71001116D01*
X100909015Y-70957583D01*
X100960311Y-70934342D01*
X101016596Y-70936186D01*
X101029499Y-70939643D01*
X101110265Y-70946000D01*
X101350000Y-70946000D01*
X101350000Y-69846000D01*
X101850000Y-69846000D01*
X101850000Y-70946000D01*
X102089735Y-70946000D01*
X102170498Y-70939643D01*
X102358315Y-70889318D01*
X102531566Y-70801042D01*
X102682675Y-70678675D01*
X102805042Y-70527566D01*
X102893318Y-70354315D01*
X102943643Y-70166498D01*
X102950000Y-70085735D01*
X102950000Y-69846000D01*
X101850000Y-69846000D01*
X101350000Y-69846000D01*
X101350000Y-69470000D01*
X101366613Y-69408000D01*
X101412000Y-69362613D01*
X101474000Y-69346000D01*
X102950000Y-69346000D01*
X102950000Y-69106265D01*
X102943643Y-69025501D01*
X102893318Y-68837684D01*
X102805042Y-68664433D01*
X102682675Y-68513324D01*
X102531566Y-68390957D01*
X102435554Y-68342037D01*
X102388447Y-68299992D01*
X102368151Y-68240201D01*
X102379929Y-68178168D01*
X102420723Y-68129979D01*
X102471401Y-68094495D01*
X102601758Y-67964138D01*
X117739416Y-67964138D01*
X117934960Y-68117338D01*
X118219681Y-68289456D01*
X118523053Y-68425994D01*
X118840673Y-68524968D01*
X119167917Y-68584938D01*
X119500000Y-68605026D01*
X119832082Y-68584938D01*
X120159326Y-68524968D01*
X120476946Y-68425994D01*
X120780318Y-68289456D01*
X121065033Y-68117341D01*
X121260582Y-67964137D01*
X121260582Y-67964136D01*
X119500001Y-66203553D01*
X119500000Y-66203553D01*
X117739416Y-67964136D01*
X117739416Y-67964138D01*
X102601758Y-67964138D01*
X102638495Y-67927401D01*
X102774035Y-67733830D01*
X102873903Y-67519663D01*
X102935063Y-67291408D01*
X102955659Y-67056000D01*
X102935063Y-66820592D01*
X102873903Y-66592337D01*
X102774035Y-66378171D01*
X102638495Y-66184599D01*
X102471401Y-66017505D01*
X102277830Y-65881965D01*
X102209281Y-65850000D01*
X116744973Y-65850000D01*
X116765061Y-66182082D01*
X116825031Y-66509326D01*
X116924005Y-66826946D01*
X117060543Y-67130318D01*
X117232657Y-67415033D01*
X117385862Y-67610582D01*
X119146446Y-65850000D01*
X119146446Y-65849998D01*
X117385862Y-64089416D01*
X117385861Y-64089416D01*
X117232657Y-64284966D01*
X117060543Y-64569681D01*
X116924005Y-64873053D01*
X116825031Y-65190673D01*
X116765061Y-65517917D01*
X116744973Y-65850000D01*
X102209281Y-65850000D01*
X102063663Y-65782097D01*
X101980777Y-65759888D01*
X101835407Y-65720936D01*
X101600000Y-65700340D01*
X101364591Y-65720936D01*
X101264125Y-65747855D01*
X101199939Y-65747855D01*
X101144352Y-65715761D01*
X100925802Y-65497211D01*
X100912906Y-65481113D01*
X100861775Y-65433098D01*
X100858978Y-65430387D01*
X100839470Y-65410879D01*
X100836290Y-65408412D01*
X100827424Y-65400839D01*
X100795582Y-65370938D01*
X100778024Y-65361285D01*
X100761764Y-65350604D01*
X100745936Y-65338327D01*
X100705851Y-65320980D01*
X100695361Y-65315841D01*
X100657091Y-65294802D01*
X100637691Y-65289821D01*
X100619284Y-65283519D01*
X100600897Y-65275562D01*
X100557758Y-65268729D01*
X100546324Y-65266361D01*
X100504019Y-65255500D01*
X100483984Y-65255500D01*
X100464586Y-65253973D01*
X100457162Y-65252797D01*
X100444805Y-65250840D01*
X100444804Y-65250840D01*
X100418484Y-65253328D01*
X100401325Y-65254950D01*
X100389656Y-65255500D01*
X93576039Y-65255500D01*
X93555535Y-65253236D01*
X93485443Y-65255439D01*
X93481549Y-65255500D01*
X93453947Y-65255500D01*
X93449952Y-65256004D01*
X93438328Y-65256918D01*
X93394667Y-65258290D01*
X93375428Y-65263880D01*
X93356379Y-65267825D01*
X93336507Y-65270335D01*
X93295892Y-65286415D01*
X93284848Y-65290196D01*
X93242910Y-65302382D01*
X93225663Y-65312581D01*
X93208199Y-65321136D01*
X93189566Y-65328514D01*
X93154225Y-65354189D01*
X93144467Y-65360599D01*
X93106878Y-65382829D01*
X93092709Y-65396998D01*
X93077921Y-65409628D01*
X93061712Y-65421405D01*
X93033871Y-65455058D01*
X93026010Y-65463696D01*
X92479482Y-66010224D01*
X92423895Y-66042318D01*
X92359707Y-66042318D01*
X92322366Y-66020758D01*
X92320287Y-66023728D01*
X92311404Y-66017508D01*
X92311401Y-66017505D01*
X92117830Y-65881965D01*
X91903663Y-65782097D01*
X91820777Y-65759888D01*
X91675407Y-65720936D01*
X91440000Y-65700340D01*
X91204592Y-65720936D01*
X90976336Y-65782097D01*
X90762170Y-65881965D01*
X90568598Y-66017505D01*
X90401505Y-66184598D01*
X90265965Y-66378170D01*
X90166097Y-66592336D01*
X90104936Y-66820592D01*
X90084340Y-67055999D01*
X90104936Y-67291408D01*
X90131855Y-67391873D01*
X90131855Y-67456059D01*
X90099761Y-67511646D01*
X85290208Y-72321199D01*
X85274110Y-72334096D01*
X85226096Y-72385225D01*
X85223391Y-72388016D01*
X85212185Y-72399223D01*
X85162822Y-72429476D01*
X85105105Y-72434020D01*
X85051616Y-72411865D01*
X85014016Y-72367842D01*
X85000500Y-72311546D01*
X85000500Y-65906600D01*
X85000695Y-65899650D01*
X85001688Y-65881964D01*
X85006982Y-65787675D01*
X85017269Y-65617583D01*
X85018788Y-65604363D01*
X85041296Y-65471881D01*
X85041503Y-65470711D01*
X85068279Y-65324594D01*
X85071089Y-65312640D01*
X85109442Y-65179511D01*
X85110144Y-65177170D01*
X85153028Y-65039548D01*
X85156841Y-65029015D01*
X85210535Y-64899382D01*
X85211891Y-64896244D01*
X85270381Y-64766281D01*
X85274887Y-64757276D01*
X85343137Y-64633784D01*
X85345505Y-64629692D01*
X85418709Y-64508595D01*
X85423660Y-64501043D01*
X85505560Y-64385615D01*
X85509029Y-64380965D01*
X85596060Y-64269876D01*
X85601160Y-64263785D01*
X85695571Y-64158138D01*
X85700297Y-64153137D01*
X85800024Y-64053410D01*
X85805022Y-64048686D01*
X85910662Y-63954279D01*
X85916759Y-63949175D01*
X86027869Y-63862125D01*
X86032512Y-63858663D01*
X86147906Y-63776787D01*
X86155474Y-63771823D01*
X86276584Y-63698609D01*
X86280648Y-63696258D01*
X86404146Y-63628003D01*
X86413204Y-63623472D01*
X86542999Y-63565055D01*
X86546296Y-63563630D01*
X86675918Y-63509938D01*
X86686405Y-63506142D01*
X86824116Y-63463229D01*
X86826326Y-63462566D01*
X86959519Y-63424194D01*
X86971476Y-63421383D01*
X87117532Y-63394617D01*
X87118780Y-63394397D01*
X87251223Y-63371894D01*
X87264475Y-63370373D01*
X87437806Y-63359900D01*
X87534007Y-63354497D01*
X87546127Y-63353817D01*
X87553079Y-63353622D01*
X117869028Y-63353622D01*
X117930595Y-63369986D01*
G37*
%TD.AperFunction*%
%TA.AperFunction,Conductor*%
G36*
X90257593Y-86538742D02*
G01*
X90295193Y-86582765D01*
X90308708Y-86639060D01*
X90308708Y-87059157D01*
X90299269Y-87106610D01*
X90272389Y-87146838D01*
X89201657Y-88217568D01*
X89149885Y-88248574D01*
X89089608Y-88251469D01*
X89035102Y-88225569D01*
X88999277Y-88177007D01*
X88990618Y-88117285D01*
X88993685Y-88087265D01*
X88999500Y-88030345D01*
X88999499Y-87700267D01*
X89008938Y-87652815D01*
X89035815Y-87612590D01*
X90097027Y-86551379D01*
X90146390Y-86521129D01*
X90204106Y-86516587D01*
X90257593Y-86538742D01*
G37*
%TD.AperFunction*%
%TA.AperFunction,Conductor*%
G36*
X98212447Y-75931538D02*
G01*
X98261536Y-75955746D01*
X98295421Y-75998729D01*
X98307500Y-76052112D01*
X98307500Y-76520364D01*
X98298061Y-76567817D01*
X98271181Y-76608045D01*
X89201657Y-85677567D01*
X89149885Y-85708573D01*
X89089608Y-85711468D01*
X89035102Y-85685568D01*
X88999277Y-85637005D01*
X88990618Y-85577283D01*
X88999500Y-85490345D01*
X88999499Y-84943656D01*
X88989349Y-84844292D01*
X88989349Y-84844290D01*
X88953301Y-84735503D01*
X88948450Y-84677636D01*
X88970477Y-84623907D01*
X89014552Y-84586097D01*
X89065840Y-84573744D01*
X89065807Y-84573480D01*
X89068188Y-84573178D01*
X89071007Y-84572500D01*
X89073557Y-84572500D01*
X89073558Y-84572500D01*
X89077527Y-84571998D01*
X89089173Y-84571080D01*
X89132835Y-84569709D01*
X89152067Y-84564120D01*
X89171126Y-84560174D01*
X89177404Y-84559381D01*
X89191000Y-84557664D01*
X89231615Y-84541582D01*
X89242652Y-84537803D01*
X89284598Y-84525618D01*
X89301837Y-84515422D01*
X89319310Y-84506862D01*
X89337940Y-84499486D01*
X89373272Y-84473814D01*
X89383038Y-84467400D01*
X89420626Y-84445171D01*
X89420625Y-84445171D01*
X89420628Y-84445170D01*
X89434793Y-84431004D01*
X89449581Y-84418373D01*
X89465795Y-84406594D01*
X89493646Y-84372926D01*
X89501487Y-84364309D01*
X97868374Y-75997423D01*
X97908603Y-75970543D01*
X97956056Y-75961104D01*
X98015252Y-75961104D01*
X98157719Y-75930822D01*
X98212447Y-75931538D01*
G37*
%TD.AperFunction*%
%TA.AperFunction,Conductor*%
G36*
X97847257Y-70242975D02*
G01*
X97891573Y-70281839D01*
X98021505Y-70467401D01*
X98188599Y-70634495D01*
X98381625Y-70769653D01*
X98420489Y-70813970D01*
X98434500Y-70871227D01*
X98434500Y-71949760D01*
X98425061Y-71997213D01*
X98398181Y-72037441D01*
X89690441Y-80745181D01*
X89650213Y-80772061D01*
X89602760Y-80781500D01*
X89071007Y-80781500D01*
X89014552Y-80767903D01*
X88970477Y-80730093D01*
X88948450Y-80676364D01*
X88953301Y-80618497D01*
X88989349Y-80509709D01*
X88990210Y-80501280D01*
X88999500Y-80410345D01*
X88999499Y-79863656D01*
X88989349Y-79764292D01*
X88936003Y-79603303D01*
X88913670Y-79567095D01*
X88895209Y-79501997D01*
X88913672Y-79436900D01*
X88936003Y-79400697D01*
X88989349Y-79239708D01*
X88999500Y-79140345D01*
X88999499Y-78810268D01*
X89008938Y-78762816D01*
X89035815Y-78722591D01*
X90299789Y-77458617D01*
X90315885Y-77445723D01*
X90317873Y-77443604D01*
X90317877Y-77443603D01*
X90363948Y-77394540D01*
X90366566Y-77391840D01*
X90386120Y-77372288D01*
X90388581Y-77369115D01*
X90396156Y-77360244D01*
X90426062Y-77328399D01*
X90435717Y-77310835D01*
X90446394Y-77294581D01*
X90458673Y-77278753D01*
X90476018Y-77238669D01*
X90481160Y-77228173D01*
X90502197Y-77189909D01*
X90507179Y-77170501D01*
X90513481Y-77152097D01*
X90521437Y-77133713D01*
X90528269Y-77090569D01*
X90530633Y-77079155D01*
X90541500Y-77036836D01*
X90541500Y-77016800D01*
X90543027Y-76997401D01*
X90546160Y-76977621D01*
X90542050Y-76934145D01*
X90541500Y-76922475D01*
X90541500Y-70853722D01*
X90559491Y-70789394D01*
X90608243Y-70743733D01*
X90673610Y-70729987D01*
X90736623Y-70752147D01*
X90762168Y-70770034D01*
X90762169Y-70770034D01*
X90762170Y-70770035D01*
X90976337Y-70869903D01*
X91204592Y-70931063D01*
X91440000Y-70951659D01*
X91675408Y-70931063D01*
X91903663Y-70869903D01*
X92117830Y-70770035D01*
X92311401Y-70634495D01*
X92478495Y-70467401D01*
X92608426Y-70281839D01*
X92652743Y-70242975D01*
X92710000Y-70228964D01*
X92767257Y-70242975D01*
X92811573Y-70281839D01*
X92941505Y-70467401D01*
X93108599Y-70634495D01*
X93302170Y-70770035D01*
X93516337Y-70869903D01*
X93744592Y-70931063D01*
X93980000Y-70951659D01*
X94215408Y-70931063D01*
X94443663Y-70869903D01*
X94657830Y-70770035D01*
X94851401Y-70634495D01*
X95018495Y-70467401D01*
X95148426Y-70281839D01*
X95192743Y-70242975D01*
X95250000Y-70228964D01*
X95307257Y-70242975D01*
X95351573Y-70281839D01*
X95481505Y-70467401D01*
X95648599Y-70634495D01*
X95842170Y-70770035D01*
X96056337Y-70869903D01*
X96284592Y-70931063D01*
X96520000Y-70951659D01*
X96755408Y-70931063D01*
X96983663Y-70869903D01*
X97197830Y-70770035D01*
X97391401Y-70634495D01*
X97558495Y-70467401D01*
X97688426Y-70281839D01*
X97732743Y-70242975D01*
X97790000Y-70228964D01*
X97847257Y-70242975D01*
G37*
%TD.AperFunction*%
%TA.AperFunction,Conductor*%
G36*
X89239385Y-70289135D02*
G01*
X89276985Y-70333158D01*
X89290500Y-70389453D01*
X89290500Y-76647364D01*
X89281061Y-76694817D01*
X89254183Y-76735042D01*
X89193753Y-76795473D01*
X89042684Y-76946541D01*
X88995713Y-76975986D01*
X88940606Y-76982020D01*
X88888376Y-76963438D01*
X88849463Y-76923954D01*
X88846570Y-76919264D01*
X88726732Y-76799426D01*
X88582487Y-76710454D01*
X88512342Y-76687209D01*
X88512340Y-76687210D01*
X87336680Y-77862871D01*
X87281093Y-77894965D01*
X87216905Y-77894965D01*
X87161318Y-77862871D01*
X86983127Y-77684680D01*
X86951033Y-77629093D01*
X86951033Y-77564905D01*
X86983127Y-77509318D01*
X87845444Y-76647000D01*
X86423500Y-76647001D01*
X86361500Y-76630388D01*
X86316113Y-76585001D01*
X86299500Y-76523001D01*
X86299500Y-73132452D01*
X86308939Y-73084999D01*
X86335819Y-73044771D01*
X89078819Y-70301772D01*
X89128182Y-70271522D01*
X89185898Y-70266980D01*
X89239385Y-70289135D01*
G37*
%TD.AperFunction*%
%TD*%
M02*
