%TF.GenerationSoftware,KiCad,Pcbnew,7.0.1-0*%
%TF.CreationDate,2023-08-23T15:06:01+02:00*%
%TF.ProjectId,ESP32SomfyPOE_rotated,45535033-3253-46f6-9d66-79504f455f72,rev?*%
%TF.SameCoordinates,Original*%
%TF.FileFunction,Legend,Bot*%
%TF.FilePolarity,Positive*%
%FSLAX46Y46*%
G04 Gerber Fmt 4.6, Leading zero omitted, Abs format (unit mm)*
G04 Created by KiCad (PCBNEW 7.0.1-0) date 2023-08-23 15:06:01*
%MOMM*%
%LPD*%
G01*
G04 APERTURE LIST*
%ADD10C,1.200000*%
%ADD11C,0.200000*%
%ADD12C,0.150000*%
%ADD13C,0.120000*%
G04 APERTURE END LIST*
D10*
X105791000Y-101854000D02*
X105791000Y-91503500D01*
X105918000Y-88042750D02*
X105918000Y-77692250D01*
D11*
X104544857Y-79032678D02*
X104544857Y-77532678D01*
X104544857Y-77532678D02*
X103687714Y-79032678D01*
X103687714Y-79032678D02*
X103687714Y-77532678D01*
X102401999Y-78961250D02*
X102544856Y-79032678D01*
X102544856Y-79032678D02*
X102830571Y-79032678D01*
X102830571Y-79032678D02*
X102973428Y-78961250D01*
X102973428Y-78961250D02*
X103044856Y-78818392D01*
X103044856Y-78818392D02*
X103044856Y-78246964D01*
X103044856Y-78246964D02*
X102973428Y-78104107D01*
X102973428Y-78104107D02*
X102830571Y-78032678D01*
X102830571Y-78032678D02*
X102544856Y-78032678D01*
X102544856Y-78032678D02*
X102401999Y-78104107D01*
X102401999Y-78104107D02*
X102330571Y-78246964D01*
X102330571Y-78246964D02*
X102330571Y-78389821D01*
X102330571Y-78389821D02*
X103044856Y-78532678D01*
X101901999Y-78032678D02*
X101330571Y-78032678D01*
X101687714Y-77532678D02*
X101687714Y-78818392D01*
X101687714Y-78818392D02*
X101616285Y-78961250D01*
X101616285Y-78961250D02*
X101473428Y-79032678D01*
X101473428Y-79032678D02*
X101330571Y-79032678D01*
X100973428Y-78032678D02*
X100687714Y-79032678D01*
X100687714Y-79032678D02*
X100401999Y-78318392D01*
X100401999Y-78318392D02*
X100116285Y-79032678D01*
X100116285Y-79032678D02*
X99830571Y-78032678D01*
X99044856Y-79032678D02*
X99187713Y-78961250D01*
X99187713Y-78961250D02*
X99259142Y-78889821D01*
X99259142Y-78889821D02*
X99330570Y-78746964D01*
X99330570Y-78746964D02*
X99330570Y-78318392D01*
X99330570Y-78318392D02*
X99259142Y-78175535D01*
X99259142Y-78175535D02*
X99187713Y-78104107D01*
X99187713Y-78104107D02*
X99044856Y-78032678D01*
X99044856Y-78032678D02*
X98830570Y-78032678D01*
X98830570Y-78032678D02*
X98687713Y-78104107D01*
X98687713Y-78104107D02*
X98616285Y-78175535D01*
X98616285Y-78175535D02*
X98544856Y-78318392D01*
X98544856Y-78318392D02*
X98544856Y-78746964D01*
X98544856Y-78746964D02*
X98616285Y-78889821D01*
X98616285Y-78889821D02*
X98687713Y-78961250D01*
X98687713Y-78961250D02*
X98830570Y-79032678D01*
X98830570Y-79032678D02*
X99044856Y-79032678D01*
X97901999Y-79032678D02*
X97901999Y-78032678D01*
X97901999Y-78318392D02*
X97830570Y-78175535D01*
X97830570Y-78175535D02*
X97759142Y-78104107D01*
X97759142Y-78104107D02*
X97616284Y-78032678D01*
X97616284Y-78032678D02*
X97473427Y-78032678D01*
X96973428Y-79032678D02*
X96973428Y-77532678D01*
X96830571Y-78461250D02*
X96401999Y-79032678D01*
X96401999Y-78032678D02*
X96973428Y-78604107D01*
X94734142Y-81277607D02*
X95162714Y-81277607D01*
X95162714Y-81277607D02*
X95162714Y-80377607D01*
X94477000Y-81020464D02*
X94048429Y-81020464D01*
X94562714Y-81277607D02*
X94262714Y-80377607D01*
X94262714Y-80377607D02*
X93962714Y-81277607D01*
X93662714Y-81277607D02*
X93662714Y-80377607D01*
X93662714Y-80377607D02*
X93148428Y-81277607D01*
X93148428Y-81277607D02*
X93148428Y-80377607D01*
X92591285Y-80763321D02*
X92677000Y-80720464D01*
X92677000Y-80720464D02*
X92719857Y-80677607D01*
X92719857Y-80677607D02*
X92762714Y-80591892D01*
X92762714Y-80591892D02*
X92762714Y-80549035D01*
X92762714Y-80549035D02*
X92719857Y-80463321D01*
X92719857Y-80463321D02*
X92677000Y-80420464D01*
X92677000Y-80420464D02*
X92591285Y-80377607D01*
X92591285Y-80377607D02*
X92419857Y-80377607D01*
X92419857Y-80377607D02*
X92334143Y-80420464D01*
X92334143Y-80420464D02*
X92291285Y-80463321D01*
X92291285Y-80463321D02*
X92248428Y-80549035D01*
X92248428Y-80549035D02*
X92248428Y-80591892D01*
X92248428Y-80591892D02*
X92291285Y-80677607D01*
X92291285Y-80677607D02*
X92334143Y-80720464D01*
X92334143Y-80720464D02*
X92419857Y-80763321D01*
X92419857Y-80763321D02*
X92591285Y-80763321D01*
X92591285Y-80763321D02*
X92677000Y-80806178D01*
X92677000Y-80806178D02*
X92719857Y-80849035D01*
X92719857Y-80849035D02*
X92762714Y-80934750D01*
X92762714Y-80934750D02*
X92762714Y-81106178D01*
X92762714Y-81106178D02*
X92719857Y-81191892D01*
X92719857Y-81191892D02*
X92677000Y-81234750D01*
X92677000Y-81234750D02*
X92591285Y-81277607D01*
X92591285Y-81277607D02*
X92419857Y-81277607D01*
X92419857Y-81277607D02*
X92334143Y-81234750D01*
X92334143Y-81234750D02*
X92291285Y-81191892D01*
X92291285Y-81191892D02*
X92248428Y-81106178D01*
X92248428Y-81106178D02*
X92248428Y-80934750D01*
X92248428Y-80934750D02*
X92291285Y-80849035D01*
X92291285Y-80849035D02*
X92334143Y-80806178D01*
X92334143Y-80806178D02*
X92419857Y-80763321D01*
X91948428Y-80377607D02*
X91348428Y-80377607D01*
X91348428Y-80377607D02*
X91734142Y-81277607D01*
X91048428Y-80463321D02*
X91005571Y-80420464D01*
X91005571Y-80420464D02*
X90919857Y-80377607D01*
X90919857Y-80377607D02*
X90705571Y-80377607D01*
X90705571Y-80377607D02*
X90619857Y-80420464D01*
X90619857Y-80420464D02*
X90576999Y-80463321D01*
X90576999Y-80463321D02*
X90534142Y-80549035D01*
X90534142Y-80549035D02*
X90534142Y-80634750D01*
X90534142Y-80634750D02*
X90576999Y-80763321D01*
X90576999Y-80763321D02*
X91091285Y-81277607D01*
X91091285Y-81277607D02*
X90534142Y-81277607D01*
X89976999Y-80377607D02*
X89891285Y-80377607D01*
X89891285Y-80377607D02*
X89805571Y-80420464D01*
X89805571Y-80420464D02*
X89762714Y-80463321D01*
X89762714Y-80463321D02*
X89719856Y-80549035D01*
X89719856Y-80549035D02*
X89676999Y-80720464D01*
X89676999Y-80720464D02*
X89676999Y-80934750D01*
X89676999Y-80934750D02*
X89719856Y-81106178D01*
X89719856Y-81106178D02*
X89762714Y-81191892D01*
X89762714Y-81191892D02*
X89805571Y-81234750D01*
X89805571Y-81234750D02*
X89891285Y-81277607D01*
X89891285Y-81277607D02*
X89976999Y-81277607D01*
X89976999Y-81277607D02*
X90062714Y-81234750D01*
X90062714Y-81234750D02*
X90105571Y-81191892D01*
X90105571Y-81191892D02*
X90148428Y-81106178D01*
X90148428Y-81106178D02*
X90191285Y-80934750D01*
X90191285Y-80934750D02*
X90191285Y-80720464D01*
X90191285Y-80720464D02*
X90148428Y-80549035D01*
X90148428Y-80549035D02*
X90105571Y-80463321D01*
X90105571Y-80463321D02*
X90062714Y-80420464D01*
X90062714Y-80420464D02*
X89976999Y-80377607D01*
X95162714Y-82735607D02*
X95162714Y-81835607D01*
X95162714Y-81835607D02*
X94819857Y-81835607D01*
X94819857Y-81835607D02*
X94734142Y-81878464D01*
X94734142Y-81878464D02*
X94691285Y-81921321D01*
X94691285Y-81921321D02*
X94648428Y-82007035D01*
X94648428Y-82007035D02*
X94648428Y-82135607D01*
X94648428Y-82135607D02*
X94691285Y-82221321D01*
X94691285Y-82221321D02*
X94734142Y-82264178D01*
X94734142Y-82264178D02*
X94819857Y-82307035D01*
X94819857Y-82307035D02*
X95162714Y-82307035D01*
X94262714Y-82735607D02*
X94262714Y-81835607D01*
X94262714Y-82264178D02*
X93748428Y-82264178D01*
X93748428Y-82735607D02*
X93748428Y-81835607D01*
X93148428Y-82307035D02*
X93148428Y-82735607D01*
X93448428Y-81835607D02*
X93148428Y-82307035D01*
X93148428Y-82307035D02*
X92848428Y-81835607D01*
X91691285Y-81835607D02*
X91605571Y-81835607D01*
X91605571Y-81835607D02*
X91519857Y-81878464D01*
X91519857Y-81878464D02*
X91477000Y-81921321D01*
X91477000Y-81921321D02*
X91434142Y-82007035D01*
X91434142Y-82007035D02*
X91391285Y-82178464D01*
X91391285Y-82178464D02*
X91391285Y-82392750D01*
X91391285Y-82392750D02*
X91434142Y-82564178D01*
X91434142Y-82564178D02*
X91477000Y-82649892D01*
X91477000Y-82649892D02*
X91519857Y-82692750D01*
X91519857Y-82692750D02*
X91605571Y-82735607D01*
X91605571Y-82735607D02*
X91691285Y-82735607D01*
X91691285Y-82735607D02*
X91777000Y-82692750D01*
X91777000Y-82692750D02*
X91819857Y-82649892D01*
X91819857Y-82649892D02*
X91862714Y-82564178D01*
X91862714Y-82564178D02*
X91905571Y-82392750D01*
X91905571Y-82392750D02*
X91905571Y-82178464D01*
X91905571Y-82178464D02*
X91862714Y-82007035D01*
X91862714Y-82007035D02*
X91819857Y-81921321D01*
X91819857Y-81921321D02*
X91777000Y-81878464D01*
X91777000Y-81878464D02*
X91691285Y-81835607D01*
X94691285Y-83336464D02*
X94777000Y-83293607D01*
X94777000Y-83293607D02*
X94905571Y-83293607D01*
X94905571Y-83293607D02*
X95034142Y-83336464D01*
X95034142Y-83336464D02*
X95119857Y-83422178D01*
X95119857Y-83422178D02*
X95162714Y-83507892D01*
X95162714Y-83507892D02*
X95205571Y-83679321D01*
X95205571Y-83679321D02*
X95205571Y-83807892D01*
X95205571Y-83807892D02*
X95162714Y-83979321D01*
X95162714Y-83979321D02*
X95119857Y-84065035D01*
X95119857Y-84065035D02*
X95034142Y-84150750D01*
X95034142Y-84150750D02*
X94905571Y-84193607D01*
X94905571Y-84193607D02*
X94819857Y-84193607D01*
X94819857Y-84193607D02*
X94691285Y-84150750D01*
X94691285Y-84150750D02*
X94648428Y-84107892D01*
X94648428Y-84107892D02*
X94648428Y-83807892D01*
X94648428Y-83807892D02*
X94819857Y-83807892D01*
X94262714Y-84193607D02*
X94262714Y-83293607D01*
X94262714Y-83293607D02*
X93919857Y-83293607D01*
X93919857Y-83293607D02*
X93834142Y-83336464D01*
X93834142Y-83336464D02*
X93791285Y-83379321D01*
X93791285Y-83379321D02*
X93748428Y-83465035D01*
X93748428Y-83465035D02*
X93748428Y-83593607D01*
X93748428Y-83593607D02*
X93791285Y-83679321D01*
X93791285Y-83679321D02*
X93834142Y-83722178D01*
X93834142Y-83722178D02*
X93919857Y-83765035D01*
X93919857Y-83765035D02*
X94262714Y-83765035D01*
X93362714Y-84193607D02*
X93362714Y-83293607D01*
X92762714Y-83293607D02*
X92591286Y-83293607D01*
X92591286Y-83293607D02*
X92505571Y-83336464D01*
X92505571Y-83336464D02*
X92419857Y-83422178D01*
X92419857Y-83422178D02*
X92377000Y-83593607D01*
X92377000Y-83593607D02*
X92377000Y-83893607D01*
X92377000Y-83893607D02*
X92419857Y-84065035D01*
X92419857Y-84065035D02*
X92505571Y-84150750D01*
X92505571Y-84150750D02*
X92591286Y-84193607D01*
X92591286Y-84193607D02*
X92762714Y-84193607D01*
X92762714Y-84193607D02*
X92848429Y-84150750D01*
X92848429Y-84150750D02*
X92934143Y-84065035D01*
X92934143Y-84065035D02*
X92977000Y-83893607D01*
X92977000Y-83893607D02*
X92977000Y-83593607D01*
X92977000Y-83593607D02*
X92934143Y-83422178D01*
X92934143Y-83422178D02*
X92848429Y-83336464D01*
X92848429Y-83336464D02*
X92762714Y-83293607D01*
X92205572Y-84279321D02*
X91519857Y-84279321D01*
X90834143Y-84193607D02*
X91348429Y-84193607D01*
X91091286Y-84193607D02*
X91091286Y-83293607D01*
X91091286Y-83293607D02*
X91177000Y-83422178D01*
X91177000Y-83422178D02*
X91262715Y-83507892D01*
X91262715Y-83507892D02*
X91348429Y-83550750D01*
X90534143Y-83293607D02*
X89934143Y-83293607D01*
X89934143Y-83293607D02*
X90319857Y-84193607D01*
X88734143Y-83293607D02*
X88562715Y-83293607D01*
X88562715Y-83293607D02*
X88477000Y-83336464D01*
X88477000Y-83336464D02*
X88391286Y-83422178D01*
X88391286Y-83422178D02*
X88348429Y-83593607D01*
X88348429Y-83593607D02*
X88348429Y-83893607D01*
X88348429Y-83893607D02*
X88391286Y-84065035D01*
X88391286Y-84065035D02*
X88477000Y-84150750D01*
X88477000Y-84150750D02*
X88562715Y-84193607D01*
X88562715Y-84193607D02*
X88734143Y-84193607D01*
X88734143Y-84193607D02*
X88819858Y-84150750D01*
X88819858Y-84150750D02*
X88905572Y-84065035D01*
X88905572Y-84065035D02*
X88948429Y-83893607D01*
X88948429Y-83893607D02*
X88948429Y-83593607D01*
X88948429Y-83593607D02*
X88905572Y-83422178D01*
X88905572Y-83422178D02*
X88819858Y-83336464D01*
X88819858Y-83336464D02*
X88734143Y-83293607D01*
X87962715Y-83293607D02*
X87962715Y-84022178D01*
X87962715Y-84022178D02*
X87919858Y-84107892D01*
X87919858Y-84107892D02*
X87877001Y-84150750D01*
X87877001Y-84150750D02*
X87791286Y-84193607D01*
X87791286Y-84193607D02*
X87619858Y-84193607D01*
X87619858Y-84193607D02*
X87534143Y-84150750D01*
X87534143Y-84150750D02*
X87491286Y-84107892D01*
X87491286Y-84107892D02*
X87448429Y-84022178D01*
X87448429Y-84022178D02*
X87448429Y-83293607D01*
X87148429Y-83293607D02*
X86634144Y-83293607D01*
X86891286Y-84193607D02*
X86891286Y-83293607D01*
X94691285Y-84794464D02*
X94777000Y-84751607D01*
X94777000Y-84751607D02*
X94905571Y-84751607D01*
X94905571Y-84751607D02*
X95034142Y-84794464D01*
X95034142Y-84794464D02*
X95119857Y-84880178D01*
X95119857Y-84880178D02*
X95162714Y-84965892D01*
X95162714Y-84965892D02*
X95205571Y-85137321D01*
X95205571Y-85137321D02*
X95205571Y-85265892D01*
X95205571Y-85265892D02*
X95162714Y-85437321D01*
X95162714Y-85437321D02*
X95119857Y-85523035D01*
X95119857Y-85523035D02*
X95034142Y-85608750D01*
X95034142Y-85608750D02*
X94905571Y-85651607D01*
X94905571Y-85651607D02*
X94819857Y-85651607D01*
X94819857Y-85651607D02*
X94691285Y-85608750D01*
X94691285Y-85608750D02*
X94648428Y-85565892D01*
X94648428Y-85565892D02*
X94648428Y-85265892D01*
X94648428Y-85265892D02*
X94819857Y-85265892D01*
X94262714Y-85651607D02*
X94262714Y-84751607D01*
X94262714Y-84751607D02*
X93919857Y-84751607D01*
X93919857Y-84751607D02*
X93834142Y-84794464D01*
X93834142Y-84794464D02*
X93791285Y-84837321D01*
X93791285Y-84837321D02*
X93748428Y-84923035D01*
X93748428Y-84923035D02*
X93748428Y-85051607D01*
X93748428Y-85051607D02*
X93791285Y-85137321D01*
X93791285Y-85137321D02*
X93834142Y-85180178D01*
X93834142Y-85180178D02*
X93919857Y-85223035D01*
X93919857Y-85223035D02*
X94262714Y-85223035D01*
X93362714Y-85651607D02*
X93362714Y-84751607D01*
X92762714Y-84751607D02*
X92591286Y-84751607D01*
X92591286Y-84751607D02*
X92505571Y-84794464D01*
X92505571Y-84794464D02*
X92419857Y-84880178D01*
X92419857Y-84880178D02*
X92377000Y-85051607D01*
X92377000Y-85051607D02*
X92377000Y-85351607D01*
X92377000Y-85351607D02*
X92419857Y-85523035D01*
X92419857Y-85523035D02*
X92505571Y-85608750D01*
X92505571Y-85608750D02*
X92591286Y-85651607D01*
X92591286Y-85651607D02*
X92762714Y-85651607D01*
X92762714Y-85651607D02*
X92848429Y-85608750D01*
X92848429Y-85608750D02*
X92934143Y-85523035D01*
X92934143Y-85523035D02*
X92977000Y-85351607D01*
X92977000Y-85351607D02*
X92977000Y-85051607D01*
X92977000Y-85051607D02*
X92934143Y-84880178D01*
X92934143Y-84880178D02*
X92848429Y-84794464D01*
X92848429Y-84794464D02*
X92762714Y-84751607D01*
X92205572Y-85737321D02*
X91519857Y-85737321D01*
X90834143Y-85651607D02*
X91348429Y-85651607D01*
X91091286Y-85651607D02*
X91091286Y-84751607D01*
X91091286Y-84751607D02*
X91177000Y-84880178D01*
X91177000Y-84880178D02*
X91262715Y-84965892D01*
X91262715Y-84965892D02*
X91348429Y-85008750D01*
X90491286Y-84837321D02*
X90448429Y-84794464D01*
X90448429Y-84794464D02*
X90362715Y-84751607D01*
X90362715Y-84751607D02*
X90148429Y-84751607D01*
X90148429Y-84751607D02*
X90062715Y-84794464D01*
X90062715Y-84794464D02*
X90019857Y-84837321D01*
X90019857Y-84837321D02*
X89977000Y-84923035D01*
X89977000Y-84923035D02*
X89977000Y-85008750D01*
X89977000Y-85008750D02*
X90019857Y-85137321D01*
X90019857Y-85137321D02*
X90534143Y-85651607D01*
X90534143Y-85651607D02*
X89977000Y-85651607D01*
X94691285Y-86252464D02*
X94777000Y-86209607D01*
X94777000Y-86209607D02*
X94905571Y-86209607D01*
X94905571Y-86209607D02*
X95034142Y-86252464D01*
X95034142Y-86252464D02*
X95119857Y-86338178D01*
X95119857Y-86338178D02*
X95162714Y-86423892D01*
X95162714Y-86423892D02*
X95205571Y-86595321D01*
X95205571Y-86595321D02*
X95205571Y-86723892D01*
X95205571Y-86723892D02*
X95162714Y-86895321D01*
X95162714Y-86895321D02*
X95119857Y-86981035D01*
X95119857Y-86981035D02*
X95034142Y-87066750D01*
X95034142Y-87066750D02*
X94905571Y-87109607D01*
X94905571Y-87109607D02*
X94819857Y-87109607D01*
X94819857Y-87109607D02*
X94691285Y-87066750D01*
X94691285Y-87066750D02*
X94648428Y-87023892D01*
X94648428Y-87023892D02*
X94648428Y-86723892D01*
X94648428Y-86723892D02*
X94819857Y-86723892D01*
X94262714Y-87109607D02*
X94262714Y-86209607D01*
X94262714Y-86209607D02*
X93919857Y-86209607D01*
X93919857Y-86209607D02*
X93834142Y-86252464D01*
X93834142Y-86252464D02*
X93791285Y-86295321D01*
X93791285Y-86295321D02*
X93748428Y-86381035D01*
X93748428Y-86381035D02*
X93748428Y-86509607D01*
X93748428Y-86509607D02*
X93791285Y-86595321D01*
X93791285Y-86595321D02*
X93834142Y-86638178D01*
X93834142Y-86638178D02*
X93919857Y-86681035D01*
X93919857Y-86681035D02*
X94262714Y-86681035D01*
X93362714Y-87109607D02*
X93362714Y-86209607D01*
X92762714Y-86209607D02*
X92591286Y-86209607D01*
X92591286Y-86209607D02*
X92505571Y-86252464D01*
X92505571Y-86252464D02*
X92419857Y-86338178D01*
X92419857Y-86338178D02*
X92377000Y-86509607D01*
X92377000Y-86509607D02*
X92377000Y-86809607D01*
X92377000Y-86809607D02*
X92419857Y-86981035D01*
X92419857Y-86981035D02*
X92505571Y-87066750D01*
X92505571Y-87066750D02*
X92591286Y-87109607D01*
X92591286Y-87109607D02*
X92762714Y-87109607D01*
X92762714Y-87109607D02*
X92848429Y-87066750D01*
X92848429Y-87066750D02*
X92934143Y-86981035D01*
X92934143Y-86981035D02*
X92977000Y-86809607D01*
X92977000Y-86809607D02*
X92977000Y-86509607D01*
X92977000Y-86509607D02*
X92934143Y-86338178D01*
X92934143Y-86338178D02*
X92848429Y-86252464D01*
X92848429Y-86252464D02*
X92762714Y-86209607D01*
X92205572Y-87195321D02*
X91519857Y-87195321D01*
X91348429Y-86295321D02*
X91305572Y-86252464D01*
X91305572Y-86252464D02*
X91219858Y-86209607D01*
X91219858Y-86209607D02*
X91005572Y-86209607D01*
X91005572Y-86209607D02*
X90919858Y-86252464D01*
X90919858Y-86252464D02*
X90877000Y-86295321D01*
X90877000Y-86295321D02*
X90834143Y-86381035D01*
X90834143Y-86381035D02*
X90834143Y-86466750D01*
X90834143Y-86466750D02*
X90877000Y-86595321D01*
X90877000Y-86595321D02*
X91391286Y-87109607D01*
X91391286Y-87109607D02*
X90834143Y-87109607D01*
X90534143Y-86209607D02*
X89977000Y-86209607D01*
X89977000Y-86209607D02*
X90277000Y-86552464D01*
X90277000Y-86552464D02*
X90148429Y-86552464D01*
X90148429Y-86552464D02*
X90062715Y-86595321D01*
X90062715Y-86595321D02*
X90019857Y-86638178D01*
X90019857Y-86638178D02*
X89977000Y-86723892D01*
X89977000Y-86723892D02*
X89977000Y-86938178D01*
X89977000Y-86938178D02*
X90019857Y-87023892D01*
X90019857Y-87023892D02*
X90062715Y-87066750D01*
X90062715Y-87066750D02*
X90148429Y-87109607D01*
X90148429Y-87109607D02*
X90405572Y-87109607D01*
X90405572Y-87109607D02*
X90491286Y-87066750D01*
X90491286Y-87066750D02*
X90534143Y-87023892D01*
X94691285Y-87710464D02*
X94777000Y-87667607D01*
X94777000Y-87667607D02*
X94905571Y-87667607D01*
X94905571Y-87667607D02*
X95034142Y-87710464D01*
X95034142Y-87710464D02*
X95119857Y-87796178D01*
X95119857Y-87796178D02*
X95162714Y-87881892D01*
X95162714Y-87881892D02*
X95205571Y-88053321D01*
X95205571Y-88053321D02*
X95205571Y-88181892D01*
X95205571Y-88181892D02*
X95162714Y-88353321D01*
X95162714Y-88353321D02*
X95119857Y-88439035D01*
X95119857Y-88439035D02*
X95034142Y-88524750D01*
X95034142Y-88524750D02*
X94905571Y-88567607D01*
X94905571Y-88567607D02*
X94819857Y-88567607D01*
X94819857Y-88567607D02*
X94691285Y-88524750D01*
X94691285Y-88524750D02*
X94648428Y-88481892D01*
X94648428Y-88481892D02*
X94648428Y-88181892D01*
X94648428Y-88181892D02*
X94819857Y-88181892D01*
X94262714Y-88567607D02*
X94262714Y-87667607D01*
X94262714Y-87667607D02*
X93919857Y-87667607D01*
X93919857Y-87667607D02*
X93834142Y-87710464D01*
X93834142Y-87710464D02*
X93791285Y-87753321D01*
X93791285Y-87753321D02*
X93748428Y-87839035D01*
X93748428Y-87839035D02*
X93748428Y-87967607D01*
X93748428Y-87967607D02*
X93791285Y-88053321D01*
X93791285Y-88053321D02*
X93834142Y-88096178D01*
X93834142Y-88096178D02*
X93919857Y-88139035D01*
X93919857Y-88139035D02*
X94262714Y-88139035D01*
X93362714Y-88567607D02*
X93362714Y-87667607D01*
X92762714Y-87667607D02*
X92591286Y-87667607D01*
X92591286Y-87667607D02*
X92505571Y-87710464D01*
X92505571Y-87710464D02*
X92419857Y-87796178D01*
X92419857Y-87796178D02*
X92377000Y-87967607D01*
X92377000Y-87967607D02*
X92377000Y-88267607D01*
X92377000Y-88267607D02*
X92419857Y-88439035D01*
X92419857Y-88439035D02*
X92505571Y-88524750D01*
X92505571Y-88524750D02*
X92591286Y-88567607D01*
X92591286Y-88567607D02*
X92762714Y-88567607D01*
X92762714Y-88567607D02*
X92848429Y-88524750D01*
X92848429Y-88524750D02*
X92934143Y-88439035D01*
X92934143Y-88439035D02*
X92977000Y-88267607D01*
X92977000Y-88267607D02*
X92977000Y-87967607D01*
X92977000Y-87967607D02*
X92934143Y-87796178D01*
X92934143Y-87796178D02*
X92848429Y-87710464D01*
X92848429Y-87710464D02*
X92762714Y-87667607D01*
X92205572Y-88653321D02*
X91519857Y-88653321D01*
X90834143Y-88567607D02*
X91348429Y-88567607D01*
X91091286Y-88567607D02*
X91091286Y-87667607D01*
X91091286Y-87667607D02*
X91177000Y-87796178D01*
X91177000Y-87796178D02*
X91262715Y-87881892D01*
X91262715Y-87881892D02*
X91348429Y-87924750D01*
X90319857Y-88053321D02*
X90405572Y-88010464D01*
X90405572Y-88010464D02*
X90448429Y-87967607D01*
X90448429Y-87967607D02*
X90491286Y-87881892D01*
X90491286Y-87881892D02*
X90491286Y-87839035D01*
X90491286Y-87839035D02*
X90448429Y-87753321D01*
X90448429Y-87753321D02*
X90405572Y-87710464D01*
X90405572Y-87710464D02*
X90319857Y-87667607D01*
X90319857Y-87667607D02*
X90148429Y-87667607D01*
X90148429Y-87667607D02*
X90062715Y-87710464D01*
X90062715Y-87710464D02*
X90019857Y-87753321D01*
X90019857Y-87753321D02*
X89977000Y-87839035D01*
X89977000Y-87839035D02*
X89977000Y-87881892D01*
X89977000Y-87881892D02*
X90019857Y-87967607D01*
X90019857Y-87967607D02*
X90062715Y-88010464D01*
X90062715Y-88010464D02*
X90148429Y-88053321D01*
X90148429Y-88053321D02*
X90319857Y-88053321D01*
X90319857Y-88053321D02*
X90405572Y-88096178D01*
X90405572Y-88096178D02*
X90448429Y-88139035D01*
X90448429Y-88139035D02*
X90491286Y-88224750D01*
X90491286Y-88224750D02*
X90491286Y-88396178D01*
X90491286Y-88396178D02*
X90448429Y-88481892D01*
X90448429Y-88481892D02*
X90405572Y-88524750D01*
X90405572Y-88524750D02*
X90319857Y-88567607D01*
X90319857Y-88567607D02*
X90148429Y-88567607D01*
X90148429Y-88567607D02*
X90062715Y-88524750D01*
X90062715Y-88524750D02*
X90019857Y-88481892D01*
X90019857Y-88481892D02*
X89977000Y-88396178D01*
X89977000Y-88396178D02*
X89977000Y-88224750D01*
X89977000Y-88224750D02*
X90019857Y-88139035D01*
X90019857Y-88139035D02*
X90062715Y-88096178D01*
X90062715Y-88096178D02*
X90148429Y-88053321D01*
X103560714Y-92843928D02*
X104060714Y-92129642D01*
X104417857Y-92843928D02*
X104417857Y-91343928D01*
X104417857Y-91343928D02*
X103846428Y-91343928D01*
X103846428Y-91343928D02*
X103703571Y-91415357D01*
X103703571Y-91415357D02*
X103632142Y-91486785D01*
X103632142Y-91486785D02*
X103560714Y-91629642D01*
X103560714Y-91629642D02*
X103560714Y-91843928D01*
X103560714Y-91843928D02*
X103632142Y-91986785D01*
X103632142Y-91986785D02*
X103703571Y-92058214D01*
X103703571Y-92058214D02*
X103846428Y-92129642D01*
X103846428Y-92129642D02*
X104417857Y-92129642D01*
X102275000Y-92843928D02*
X102275000Y-92058214D01*
X102275000Y-92058214D02*
X102346428Y-91915357D01*
X102346428Y-91915357D02*
X102489285Y-91843928D01*
X102489285Y-91843928D02*
X102775000Y-91843928D01*
X102775000Y-91843928D02*
X102917857Y-91915357D01*
X102275000Y-92772500D02*
X102417857Y-92843928D01*
X102417857Y-92843928D02*
X102775000Y-92843928D01*
X102775000Y-92843928D02*
X102917857Y-92772500D01*
X102917857Y-92772500D02*
X102989285Y-92629642D01*
X102989285Y-92629642D02*
X102989285Y-92486785D01*
X102989285Y-92486785D02*
X102917857Y-92343928D01*
X102917857Y-92343928D02*
X102775000Y-92272500D01*
X102775000Y-92272500D02*
X102417857Y-92272500D01*
X102417857Y-92272500D02*
X102275000Y-92201071D01*
X100917857Y-92843928D02*
X100917857Y-91343928D01*
X100917857Y-92772500D02*
X101060714Y-92843928D01*
X101060714Y-92843928D02*
X101346428Y-92843928D01*
X101346428Y-92843928D02*
X101489285Y-92772500D01*
X101489285Y-92772500D02*
X101560714Y-92701071D01*
X101560714Y-92701071D02*
X101632142Y-92558214D01*
X101632142Y-92558214D02*
X101632142Y-92129642D01*
X101632142Y-92129642D02*
X101560714Y-91986785D01*
X101560714Y-91986785D02*
X101489285Y-91915357D01*
X101489285Y-91915357D02*
X101346428Y-91843928D01*
X101346428Y-91843928D02*
X101060714Y-91843928D01*
X101060714Y-91843928D02*
X100917857Y-91915357D01*
X100203571Y-92843928D02*
X100203571Y-91843928D01*
X100203571Y-91343928D02*
X100274999Y-91415357D01*
X100274999Y-91415357D02*
X100203571Y-91486785D01*
X100203571Y-91486785D02*
X100132142Y-91415357D01*
X100132142Y-91415357D02*
X100203571Y-91343928D01*
X100203571Y-91343928D02*
X100203571Y-91486785D01*
X99274999Y-92843928D02*
X99417856Y-92772500D01*
X99417856Y-92772500D02*
X99489285Y-92701071D01*
X99489285Y-92701071D02*
X99560713Y-92558214D01*
X99560713Y-92558214D02*
X99560713Y-92129642D01*
X99560713Y-92129642D02*
X99489285Y-91986785D01*
X99489285Y-91986785D02*
X99417856Y-91915357D01*
X99417856Y-91915357D02*
X99274999Y-91843928D01*
X99274999Y-91843928D02*
X99060713Y-91843928D01*
X99060713Y-91843928D02*
X98917856Y-91915357D01*
X98917856Y-91915357D02*
X98846428Y-91986785D01*
X98846428Y-91986785D02*
X98774999Y-92129642D01*
X98774999Y-92129642D02*
X98774999Y-92558214D01*
X98774999Y-92558214D02*
X98846428Y-92701071D01*
X98846428Y-92701071D02*
X98917856Y-92772500D01*
X98917856Y-92772500D02*
X99060713Y-92843928D01*
X99060713Y-92843928D02*
X99274999Y-92843928D01*
X99390285Y-94231714D02*
X99476000Y-94188857D01*
X99476000Y-94188857D02*
X99604571Y-94188857D01*
X99604571Y-94188857D02*
X99733142Y-94231714D01*
X99733142Y-94231714D02*
X99818857Y-94317428D01*
X99818857Y-94317428D02*
X99861714Y-94403142D01*
X99861714Y-94403142D02*
X99904571Y-94574571D01*
X99904571Y-94574571D02*
X99904571Y-94703142D01*
X99904571Y-94703142D02*
X99861714Y-94874571D01*
X99861714Y-94874571D02*
X99818857Y-94960285D01*
X99818857Y-94960285D02*
X99733142Y-95046000D01*
X99733142Y-95046000D02*
X99604571Y-95088857D01*
X99604571Y-95088857D02*
X99518857Y-95088857D01*
X99518857Y-95088857D02*
X99390285Y-95046000D01*
X99390285Y-95046000D02*
X99347428Y-95003142D01*
X99347428Y-95003142D02*
X99347428Y-94703142D01*
X99347428Y-94703142D02*
X99518857Y-94703142D01*
X98961714Y-95088857D02*
X98961714Y-94188857D01*
X98961714Y-94188857D02*
X98618857Y-94188857D01*
X98618857Y-94188857D02*
X98533142Y-94231714D01*
X98533142Y-94231714D02*
X98490285Y-94274571D01*
X98490285Y-94274571D02*
X98447428Y-94360285D01*
X98447428Y-94360285D02*
X98447428Y-94488857D01*
X98447428Y-94488857D02*
X98490285Y-94574571D01*
X98490285Y-94574571D02*
X98533142Y-94617428D01*
X98533142Y-94617428D02*
X98618857Y-94660285D01*
X98618857Y-94660285D02*
X98961714Y-94660285D01*
X98061714Y-95088857D02*
X98061714Y-94188857D01*
X97461714Y-94188857D02*
X97290286Y-94188857D01*
X97290286Y-94188857D02*
X97204571Y-94231714D01*
X97204571Y-94231714D02*
X97118857Y-94317428D01*
X97118857Y-94317428D02*
X97076000Y-94488857D01*
X97076000Y-94488857D02*
X97076000Y-94788857D01*
X97076000Y-94788857D02*
X97118857Y-94960285D01*
X97118857Y-94960285D02*
X97204571Y-95046000D01*
X97204571Y-95046000D02*
X97290286Y-95088857D01*
X97290286Y-95088857D02*
X97461714Y-95088857D01*
X97461714Y-95088857D02*
X97547429Y-95046000D01*
X97547429Y-95046000D02*
X97633143Y-94960285D01*
X97633143Y-94960285D02*
X97676000Y-94788857D01*
X97676000Y-94788857D02*
X97676000Y-94488857D01*
X97676000Y-94488857D02*
X97633143Y-94317428D01*
X97633143Y-94317428D02*
X97547429Y-94231714D01*
X97547429Y-94231714D02*
X97461714Y-94188857D01*
X96904572Y-95174571D02*
X96218857Y-95174571D01*
X95533143Y-95088857D02*
X96047429Y-95088857D01*
X95790286Y-95088857D02*
X95790286Y-94188857D01*
X95790286Y-94188857D02*
X95876000Y-94317428D01*
X95876000Y-94317428D02*
X95961715Y-94403142D01*
X95961715Y-94403142D02*
X96047429Y-94446000D01*
X94761715Y-94488857D02*
X94761715Y-95088857D01*
X94976000Y-94146000D02*
X95190286Y-94788857D01*
X95190286Y-94788857D02*
X94633143Y-94788857D01*
X99390285Y-95689714D02*
X99476000Y-95646857D01*
X99476000Y-95646857D02*
X99604571Y-95646857D01*
X99604571Y-95646857D02*
X99733142Y-95689714D01*
X99733142Y-95689714D02*
X99818857Y-95775428D01*
X99818857Y-95775428D02*
X99861714Y-95861142D01*
X99861714Y-95861142D02*
X99904571Y-96032571D01*
X99904571Y-96032571D02*
X99904571Y-96161142D01*
X99904571Y-96161142D02*
X99861714Y-96332571D01*
X99861714Y-96332571D02*
X99818857Y-96418285D01*
X99818857Y-96418285D02*
X99733142Y-96504000D01*
X99733142Y-96504000D02*
X99604571Y-96546857D01*
X99604571Y-96546857D02*
X99518857Y-96546857D01*
X99518857Y-96546857D02*
X99390285Y-96504000D01*
X99390285Y-96504000D02*
X99347428Y-96461142D01*
X99347428Y-96461142D02*
X99347428Y-96161142D01*
X99347428Y-96161142D02*
X99518857Y-96161142D01*
X98961714Y-96546857D02*
X98961714Y-95646857D01*
X98961714Y-95646857D02*
X98618857Y-95646857D01*
X98618857Y-95646857D02*
X98533142Y-95689714D01*
X98533142Y-95689714D02*
X98490285Y-95732571D01*
X98490285Y-95732571D02*
X98447428Y-95818285D01*
X98447428Y-95818285D02*
X98447428Y-95946857D01*
X98447428Y-95946857D02*
X98490285Y-96032571D01*
X98490285Y-96032571D02*
X98533142Y-96075428D01*
X98533142Y-96075428D02*
X98618857Y-96118285D01*
X98618857Y-96118285D02*
X98961714Y-96118285D01*
X98061714Y-96546857D02*
X98061714Y-95646857D01*
X97461714Y-95646857D02*
X97290286Y-95646857D01*
X97290286Y-95646857D02*
X97204571Y-95689714D01*
X97204571Y-95689714D02*
X97118857Y-95775428D01*
X97118857Y-95775428D02*
X97076000Y-95946857D01*
X97076000Y-95946857D02*
X97076000Y-96246857D01*
X97076000Y-96246857D02*
X97118857Y-96418285D01*
X97118857Y-96418285D02*
X97204571Y-96504000D01*
X97204571Y-96504000D02*
X97290286Y-96546857D01*
X97290286Y-96546857D02*
X97461714Y-96546857D01*
X97461714Y-96546857D02*
X97547429Y-96504000D01*
X97547429Y-96504000D02*
X97633143Y-96418285D01*
X97633143Y-96418285D02*
X97676000Y-96246857D01*
X97676000Y-96246857D02*
X97676000Y-95946857D01*
X97676000Y-95946857D02*
X97633143Y-95775428D01*
X97633143Y-95775428D02*
X97547429Y-95689714D01*
X97547429Y-95689714D02*
X97461714Y-95646857D01*
X96904572Y-96632571D02*
X96218857Y-96632571D01*
X95533143Y-96546857D02*
X96047429Y-96546857D01*
X95790286Y-96546857D02*
X95790286Y-95646857D01*
X95790286Y-95646857D02*
X95876000Y-95775428D01*
X95876000Y-95775428D02*
X95961715Y-95861142D01*
X95961715Y-95861142D02*
X96047429Y-95904000D01*
X95233143Y-95646857D02*
X94676000Y-95646857D01*
X94676000Y-95646857D02*
X94976000Y-95989714D01*
X94976000Y-95989714D02*
X94847429Y-95989714D01*
X94847429Y-95989714D02*
X94761715Y-96032571D01*
X94761715Y-96032571D02*
X94718857Y-96075428D01*
X94718857Y-96075428D02*
X94676000Y-96161142D01*
X94676000Y-96161142D02*
X94676000Y-96375428D01*
X94676000Y-96375428D02*
X94718857Y-96461142D01*
X94718857Y-96461142D02*
X94761715Y-96504000D01*
X94761715Y-96504000D02*
X94847429Y-96546857D01*
X94847429Y-96546857D02*
X95104572Y-96546857D01*
X95104572Y-96546857D02*
X95190286Y-96504000D01*
X95190286Y-96504000D02*
X95233143Y-96461142D01*
X99390285Y-97147714D02*
X99476000Y-97104857D01*
X99476000Y-97104857D02*
X99604571Y-97104857D01*
X99604571Y-97104857D02*
X99733142Y-97147714D01*
X99733142Y-97147714D02*
X99818857Y-97233428D01*
X99818857Y-97233428D02*
X99861714Y-97319142D01*
X99861714Y-97319142D02*
X99904571Y-97490571D01*
X99904571Y-97490571D02*
X99904571Y-97619142D01*
X99904571Y-97619142D02*
X99861714Y-97790571D01*
X99861714Y-97790571D02*
X99818857Y-97876285D01*
X99818857Y-97876285D02*
X99733142Y-97962000D01*
X99733142Y-97962000D02*
X99604571Y-98004857D01*
X99604571Y-98004857D02*
X99518857Y-98004857D01*
X99518857Y-98004857D02*
X99390285Y-97962000D01*
X99390285Y-97962000D02*
X99347428Y-97919142D01*
X99347428Y-97919142D02*
X99347428Y-97619142D01*
X99347428Y-97619142D02*
X99518857Y-97619142D01*
X98961714Y-98004857D02*
X98961714Y-97104857D01*
X98961714Y-97104857D02*
X98618857Y-97104857D01*
X98618857Y-97104857D02*
X98533142Y-97147714D01*
X98533142Y-97147714D02*
X98490285Y-97190571D01*
X98490285Y-97190571D02*
X98447428Y-97276285D01*
X98447428Y-97276285D02*
X98447428Y-97404857D01*
X98447428Y-97404857D02*
X98490285Y-97490571D01*
X98490285Y-97490571D02*
X98533142Y-97533428D01*
X98533142Y-97533428D02*
X98618857Y-97576285D01*
X98618857Y-97576285D02*
X98961714Y-97576285D01*
X98061714Y-98004857D02*
X98061714Y-97104857D01*
X97461714Y-97104857D02*
X97290286Y-97104857D01*
X97290286Y-97104857D02*
X97204571Y-97147714D01*
X97204571Y-97147714D02*
X97118857Y-97233428D01*
X97118857Y-97233428D02*
X97076000Y-97404857D01*
X97076000Y-97404857D02*
X97076000Y-97704857D01*
X97076000Y-97704857D02*
X97118857Y-97876285D01*
X97118857Y-97876285D02*
X97204571Y-97962000D01*
X97204571Y-97962000D02*
X97290286Y-98004857D01*
X97290286Y-98004857D02*
X97461714Y-98004857D01*
X97461714Y-98004857D02*
X97547429Y-97962000D01*
X97547429Y-97962000D02*
X97633143Y-97876285D01*
X97633143Y-97876285D02*
X97676000Y-97704857D01*
X97676000Y-97704857D02*
X97676000Y-97404857D01*
X97676000Y-97404857D02*
X97633143Y-97233428D01*
X97633143Y-97233428D02*
X97547429Y-97147714D01*
X97547429Y-97147714D02*
X97461714Y-97104857D01*
X96904572Y-98090571D02*
X96218857Y-98090571D01*
X95533143Y-98004857D02*
X96047429Y-98004857D01*
X95790286Y-98004857D02*
X95790286Y-97104857D01*
X95790286Y-97104857D02*
X95876000Y-97233428D01*
X95876000Y-97233428D02*
X95961715Y-97319142D01*
X95961715Y-97319142D02*
X96047429Y-97362000D01*
X94718857Y-97104857D02*
X95147429Y-97104857D01*
X95147429Y-97104857D02*
X95190286Y-97533428D01*
X95190286Y-97533428D02*
X95147429Y-97490571D01*
X95147429Y-97490571D02*
X95061715Y-97447714D01*
X95061715Y-97447714D02*
X94847429Y-97447714D01*
X94847429Y-97447714D02*
X94761715Y-97490571D01*
X94761715Y-97490571D02*
X94718857Y-97533428D01*
X94718857Y-97533428D02*
X94676000Y-97619142D01*
X94676000Y-97619142D02*
X94676000Y-97833428D01*
X94676000Y-97833428D02*
X94718857Y-97919142D01*
X94718857Y-97919142D02*
X94761715Y-97962000D01*
X94761715Y-97962000D02*
X94847429Y-98004857D01*
X94847429Y-98004857D02*
X95061715Y-98004857D01*
X95061715Y-98004857D02*
X95147429Y-97962000D01*
X95147429Y-97962000D02*
X95190286Y-97919142D01*
X99390285Y-98605714D02*
X99476000Y-98562857D01*
X99476000Y-98562857D02*
X99604571Y-98562857D01*
X99604571Y-98562857D02*
X99733142Y-98605714D01*
X99733142Y-98605714D02*
X99818857Y-98691428D01*
X99818857Y-98691428D02*
X99861714Y-98777142D01*
X99861714Y-98777142D02*
X99904571Y-98948571D01*
X99904571Y-98948571D02*
X99904571Y-99077142D01*
X99904571Y-99077142D02*
X99861714Y-99248571D01*
X99861714Y-99248571D02*
X99818857Y-99334285D01*
X99818857Y-99334285D02*
X99733142Y-99420000D01*
X99733142Y-99420000D02*
X99604571Y-99462857D01*
X99604571Y-99462857D02*
X99518857Y-99462857D01*
X99518857Y-99462857D02*
X99390285Y-99420000D01*
X99390285Y-99420000D02*
X99347428Y-99377142D01*
X99347428Y-99377142D02*
X99347428Y-99077142D01*
X99347428Y-99077142D02*
X99518857Y-99077142D01*
X98961714Y-99462857D02*
X98961714Y-98562857D01*
X98961714Y-98562857D02*
X98618857Y-98562857D01*
X98618857Y-98562857D02*
X98533142Y-98605714D01*
X98533142Y-98605714D02*
X98490285Y-98648571D01*
X98490285Y-98648571D02*
X98447428Y-98734285D01*
X98447428Y-98734285D02*
X98447428Y-98862857D01*
X98447428Y-98862857D02*
X98490285Y-98948571D01*
X98490285Y-98948571D02*
X98533142Y-98991428D01*
X98533142Y-98991428D02*
X98618857Y-99034285D01*
X98618857Y-99034285D02*
X98961714Y-99034285D01*
X98061714Y-99462857D02*
X98061714Y-98562857D01*
X97461714Y-98562857D02*
X97290286Y-98562857D01*
X97290286Y-98562857D02*
X97204571Y-98605714D01*
X97204571Y-98605714D02*
X97118857Y-98691428D01*
X97118857Y-98691428D02*
X97076000Y-98862857D01*
X97076000Y-98862857D02*
X97076000Y-99162857D01*
X97076000Y-99162857D02*
X97118857Y-99334285D01*
X97118857Y-99334285D02*
X97204571Y-99420000D01*
X97204571Y-99420000D02*
X97290286Y-99462857D01*
X97290286Y-99462857D02*
X97461714Y-99462857D01*
X97461714Y-99462857D02*
X97547429Y-99420000D01*
X97547429Y-99420000D02*
X97633143Y-99334285D01*
X97633143Y-99334285D02*
X97676000Y-99162857D01*
X97676000Y-99162857D02*
X97676000Y-98862857D01*
X97676000Y-98862857D02*
X97633143Y-98691428D01*
X97633143Y-98691428D02*
X97547429Y-98605714D01*
X97547429Y-98605714D02*
X97461714Y-98562857D01*
X96904572Y-99548571D02*
X96218857Y-99548571D01*
X95533143Y-99462857D02*
X96047429Y-99462857D01*
X95790286Y-99462857D02*
X95790286Y-98562857D01*
X95790286Y-98562857D02*
X95876000Y-98691428D01*
X95876000Y-98691428D02*
X95961715Y-98777142D01*
X95961715Y-98777142D02*
X96047429Y-98820000D01*
X94761715Y-98562857D02*
X94933143Y-98562857D01*
X94933143Y-98562857D02*
X95018857Y-98605714D01*
X95018857Y-98605714D02*
X95061715Y-98648571D01*
X95061715Y-98648571D02*
X95147429Y-98777142D01*
X95147429Y-98777142D02*
X95190286Y-98948571D01*
X95190286Y-98948571D02*
X95190286Y-99291428D01*
X95190286Y-99291428D02*
X95147429Y-99377142D01*
X95147429Y-99377142D02*
X95104572Y-99420000D01*
X95104572Y-99420000D02*
X95018857Y-99462857D01*
X95018857Y-99462857D02*
X94847429Y-99462857D01*
X94847429Y-99462857D02*
X94761715Y-99420000D01*
X94761715Y-99420000D02*
X94718857Y-99377142D01*
X94718857Y-99377142D02*
X94676000Y-99291428D01*
X94676000Y-99291428D02*
X94676000Y-99077142D01*
X94676000Y-99077142D02*
X94718857Y-98991428D01*
X94718857Y-98991428D02*
X94761715Y-98948571D01*
X94761715Y-98948571D02*
X94847429Y-98905714D01*
X94847429Y-98905714D02*
X95018857Y-98905714D01*
X95018857Y-98905714D02*
X95104572Y-98948571D01*
X95104572Y-98948571D02*
X95147429Y-98991428D01*
X95147429Y-98991428D02*
X95190286Y-99077142D01*
X99390285Y-100063714D02*
X99476000Y-100020857D01*
X99476000Y-100020857D02*
X99604571Y-100020857D01*
X99604571Y-100020857D02*
X99733142Y-100063714D01*
X99733142Y-100063714D02*
X99818857Y-100149428D01*
X99818857Y-100149428D02*
X99861714Y-100235142D01*
X99861714Y-100235142D02*
X99904571Y-100406571D01*
X99904571Y-100406571D02*
X99904571Y-100535142D01*
X99904571Y-100535142D02*
X99861714Y-100706571D01*
X99861714Y-100706571D02*
X99818857Y-100792285D01*
X99818857Y-100792285D02*
X99733142Y-100878000D01*
X99733142Y-100878000D02*
X99604571Y-100920857D01*
X99604571Y-100920857D02*
X99518857Y-100920857D01*
X99518857Y-100920857D02*
X99390285Y-100878000D01*
X99390285Y-100878000D02*
X99347428Y-100835142D01*
X99347428Y-100835142D02*
X99347428Y-100535142D01*
X99347428Y-100535142D02*
X99518857Y-100535142D01*
X98961714Y-100920857D02*
X98961714Y-100020857D01*
X98961714Y-100020857D02*
X98618857Y-100020857D01*
X98618857Y-100020857D02*
X98533142Y-100063714D01*
X98533142Y-100063714D02*
X98490285Y-100106571D01*
X98490285Y-100106571D02*
X98447428Y-100192285D01*
X98447428Y-100192285D02*
X98447428Y-100320857D01*
X98447428Y-100320857D02*
X98490285Y-100406571D01*
X98490285Y-100406571D02*
X98533142Y-100449428D01*
X98533142Y-100449428D02*
X98618857Y-100492285D01*
X98618857Y-100492285D02*
X98961714Y-100492285D01*
X98061714Y-100920857D02*
X98061714Y-100020857D01*
X97461714Y-100020857D02*
X97290286Y-100020857D01*
X97290286Y-100020857D02*
X97204571Y-100063714D01*
X97204571Y-100063714D02*
X97118857Y-100149428D01*
X97118857Y-100149428D02*
X97076000Y-100320857D01*
X97076000Y-100320857D02*
X97076000Y-100620857D01*
X97076000Y-100620857D02*
X97118857Y-100792285D01*
X97118857Y-100792285D02*
X97204571Y-100878000D01*
X97204571Y-100878000D02*
X97290286Y-100920857D01*
X97290286Y-100920857D02*
X97461714Y-100920857D01*
X97461714Y-100920857D02*
X97547429Y-100878000D01*
X97547429Y-100878000D02*
X97633143Y-100792285D01*
X97633143Y-100792285D02*
X97676000Y-100620857D01*
X97676000Y-100620857D02*
X97676000Y-100320857D01*
X97676000Y-100320857D02*
X97633143Y-100149428D01*
X97633143Y-100149428D02*
X97547429Y-100063714D01*
X97547429Y-100063714D02*
X97461714Y-100020857D01*
X96904572Y-101006571D02*
X96218857Y-101006571D01*
X95833143Y-100020857D02*
X95747429Y-100020857D01*
X95747429Y-100020857D02*
X95661715Y-100063714D01*
X95661715Y-100063714D02*
X95618858Y-100106571D01*
X95618858Y-100106571D02*
X95576000Y-100192285D01*
X95576000Y-100192285D02*
X95533143Y-100363714D01*
X95533143Y-100363714D02*
X95533143Y-100578000D01*
X95533143Y-100578000D02*
X95576000Y-100749428D01*
X95576000Y-100749428D02*
X95618858Y-100835142D01*
X95618858Y-100835142D02*
X95661715Y-100878000D01*
X95661715Y-100878000D02*
X95747429Y-100920857D01*
X95747429Y-100920857D02*
X95833143Y-100920857D01*
X95833143Y-100920857D02*
X95918858Y-100878000D01*
X95918858Y-100878000D02*
X95961715Y-100835142D01*
X95961715Y-100835142D02*
X96004572Y-100749428D01*
X96004572Y-100749428D02*
X96047429Y-100578000D01*
X96047429Y-100578000D02*
X96047429Y-100363714D01*
X96047429Y-100363714D02*
X96004572Y-100192285D01*
X96004572Y-100192285D02*
X95961715Y-100106571D01*
X95961715Y-100106571D02*
X95918858Y-100063714D01*
X95918858Y-100063714D02*
X95833143Y-100020857D01*
X94761715Y-100320857D02*
X94761715Y-100920857D01*
X94976000Y-99978000D02*
X95190286Y-100620857D01*
X95190286Y-100620857D02*
X94633143Y-100620857D01*
X99390285Y-101521714D02*
X99476000Y-101478857D01*
X99476000Y-101478857D02*
X99604571Y-101478857D01*
X99604571Y-101478857D02*
X99733142Y-101521714D01*
X99733142Y-101521714D02*
X99818857Y-101607428D01*
X99818857Y-101607428D02*
X99861714Y-101693142D01*
X99861714Y-101693142D02*
X99904571Y-101864571D01*
X99904571Y-101864571D02*
X99904571Y-101993142D01*
X99904571Y-101993142D02*
X99861714Y-102164571D01*
X99861714Y-102164571D02*
X99818857Y-102250285D01*
X99818857Y-102250285D02*
X99733142Y-102336000D01*
X99733142Y-102336000D02*
X99604571Y-102378857D01*
X99604571Y-102378857D02*
X99518857Y-102378857D01*
X99518857Y-102378857D02*
X99390285Y-102336000D01*
X99390285Y-102336000D02*
X99347428Y-102293142D01*
X99347428Y-102293142D02*
X99347428Y-101993142D01*
X99347428Y-101993142D02*
X99518857Y-101993142D01*
X98961714Y-102378857D02*
X98961714Y-101478857D01*
X98961714Y-101478857D02*
X98618857Y-101478857D01*
X98618857Y-101478857D02*
X98533142Y-101521714D01*
X98533142Y-101521714D02*
X98490285Y-101564571D01*
X98490285Y-101564571D02*
X98447428Y-101650285D01*
X98447428Y-101650285D02*
X98447428Y-101778857D01*
X98447428Y-101778857D02*
X98490285Y-101864571D01*
X98490285Y-101864571D02*
X98533142Y-101907428D01*
X98533142Y-101907428D02*
X98618857Y-101950285D01*
X98618857Y-101950285D02*
X98961714Y-101950285D01*
X98061714Y-102378857D02*
X98061714Y-101478857D01*
X97461714Y-101478857D02*
X97290286Y-101478857D01*
X97290286Y-101478857D02*
X97204571Y-101521714D01*
X97204571Y-101521714D02*
X97118857Y-101607428D01*
X97118857Y-101607428D02*
X97076000Y-101778857D01*
X97076000Y-101778857D02*
X97076000Y-102078857D01*
X97076000Y-102078857D02*
X97118857Y-102250285D01*
X97118857Y-102250285D02*
X97204571Y-102336000D01*
X97204571Y-102336000D02*
X97290286Y-102378857D01*
X97290286Y-102378857D02*
X97461714Y-102378857D01*
X97461714Y-102378857D02*
X97547429Y-102336000D01*
X97547429Y-102336000D02*
X97633143Y-102250285D01*
X97633143Y-102250285D02*
X97676000Y-102078857D01*
X97676000Y-102078857D02*
X97676000Y-101778857D01*
X97676000Y-101778857D02*
X97633143Y-101607428D01*
X97633143Y-101607428D02*
X97547429Y-101521714D01*
X97547429Y-101521714D02*
X97461714Y-101478857D01*
X96904572Y-102464571D02*
X96218857Y-102464571D01*
X96090286Y-101478857D02*
X95533143Y-101478857D01*
X95533143Y-101478857D02*
X95833143Y-101821714D01*
X95833143Y-101821714D02*
X95704572Y-101821714D01*
X95704572Y-101821714D02*
X95618858Y-101864571D01*
X95618858Y-101864571D02*
X95576000Y-101907428D01*
X95576000Y-101907428D02*
X95533143Y-101993142D01*
X95533143Y-101993142D02*
X95533143Y-102207428D01*
X95533143Y-102207428D02*
X95576000Y-102293142D01*
X95576000Y-102293142D02*
X95618858Y-102336000D01*
X95618858Y-102336000D02*
X95704572Y-102378857D01*
X95704572Y-102378857D02*
X95961715Y-102378857D01*
X95961715Y-102378857D02*
X96047429Y-102336000D01*
X96047429Y-102336000D02*
X96090286Y-102293142D01*
X94761715Y-101478857D02*
X94933143Y-101478857D01*
X94933143Y-101478857D02*
X95018857Y-101521714D01*
X95018857Y-101521714D02*
X95061715Y-101564571D01*
X95061715Y-101564571D02*
X95147429Y-101693142D01*
X95147429Y-101693142D02*
X95190286Y-101864571D01*
X95190286Y-101864571D02*
X95190286Y-102207428D01*
X95190286Y-102207428D02*
X95147429Y-102293142D01*
X95147429Y-102293142D02*
X95104572Y-102336000D01*
X95104572Y-102336000D02*
X95018857Y-102378857D01*
X95018857Y-102378857D02*
X94847429Y-102378857D01*
X94847429Y-102378857D02*
X94761715Y-102336000D01*
X94761715Y-102336000D02*
X94718857Y-102293142D01*
X94718857Y-102293142D02*
X94676000Y-102207428D01*
X94676000Y-102207428D02*
X94676000Y-101993142D01*
X94676000Y-101993142D02*
X94718857Y-101907428D01*
X94718857Y-101907428D02*
X94761715Y-101864571D01*
X94761715Y-101864571D02*
X94847429Y-101821714D01*
X94847429Y-101821714D02*
X95018857Y-101821714D01*
X95018857Y-101821714D02*
X95104572Y-101864571D01*
X95104572Y-101864571D02*
X95147429Y-101907428D01*
X95147429Y-101907428D02*
X95190286Y-101993142D01*
D12*
X85618619Y-92598809D02*
X86332904Y-92598809D01*
X86332904Y-92598809D02*
X86475761Y-92551190D01*
X86475761Y-92551190D02*
X86571000Y-92455952D01*
X86571000Y-92455952D02*
X86618619Y-92313095D01*
X86618619Y-92313095D02*
X86618619Y-92217857D01*
X86618619Y-93551190D02*
X86618619Y-93075000D01*
X86618619Y-93075000D02*
X85618619Y-93075000D01*
X86523380Y-94455952D02*
X86571000Y-94408333D01*
X86571000Y-94408333D02*
X86618619Y-94265476D01*
X86618619Y-94265476D02*
X86618619Y-94170238D01*
X86618619Y-94170238D02*
X86571000Y-94027381D01*
X86571000Y-94027381D02*
X86475761Y-93932143D01*
X86475761Y-93932143D02*
X86380523Y-93884524D01*
X86380523Y-93884524D02*
X86190047Y-93836905D01*
X86190047Y-93836905D02*
X86047190Y-93836905D01*
X86047190Y-93836905D02*
X85856714Y-93884524D01*
X85856714Y-93884524D02*
X85761476Y-93932143D01*
X85761476Y-93932143D02*
X85666238Y-94027381D01*
X85666238Y-94027381D02*
X85618619Y-94170238D01*
X85618619Y-94170238D02*
X85618619Y-94265476D01*
X85618619Y-94265476D02*
X85666238Y-94408333D01*
X85666238Y-94408333D02*
X85713857Y-94455952D01*
X85618619Y-95170238D02*
X86332904Y-95170238D01*
X86332904Y-95170238D02*
X86475761Y-95122619D01*
X86475761Y-95122619D02*
X86571000Y-95027381D01*
X86571000Y-95027381D02*
X86618619Y-94884524D01*
X86618619Y-94884524D02*
X86618619Y-94789286D01*
X86618619Y-96122619D02*
X86618619Y-95646429D01*
X86618619Y-95646429D02*
X85618619Y-95646429D01*
X86523380Y-97027381D02*
X86571000Y-96979762D01*
X86571000Y-96979762D02*
X86618619Y-96836905D01*
X86618619Y-96836905D02*
X86618619Y-96741667D01*
X86618619Y-96741667D02*
X86571000Y-96598810D01*
X86571000Y-96598810D02*
X86475761Y-96503572D01*
X86475761Y-96503572D02*
X86380523Y-96455953D01*
X86380523Y-96455953D02*
X86190047Y-96408334D01*
X86190047Y-96408334D02*
X86047190Y-96408334D01*
X86047190Y-96408334D02*
X85856714Y-96455953D01*
X85856714Y-96455953D02*
X85761476Y-96503572D01*
X85761476Y-96503572D02*
X85666238Y-96598810D01*
X85666238Y-96598810D02*
X85618619Y-96741667D01*
X85618619Y-96741667D02*
X85618619Y-96836905D01*
X85618619Y-96836905D02*
X85666238Y-96979762D01*
X85666238Y-96979762D02*
X85713857Y-97027381D01*
X85618619Y-97741667D02*
X86332904Y-97741667D01*
X86332904Y-97741667D02*
X86475761Y-97694048D01*
X86475761Y-97694048D02*
X86571000Y-97598810D01*
X86571000Y-97598810D02*
X86618619Y-97455953D01*
X86618619Y-97455953D02*
X86618619Y-97360715D01*
X86618619Y-98694048D02*
X86618619Y-98217858D01*
X86618619Y-98217858D02*
X85618619Y-98217858D01*
X86523380Y-99598810D02*
X86571000Y-99551191D01*
X86571000Y-99551191D02*
X86618619Y-99408334D01*
X86618619Y-99408334D02*
X86618619Y-99313096D01*
X86618619Y-99313096D02*
X86571000Y-99170239D01*
X86571000Y-99170239D02*
X86475761Y-99075001D01*
X86475761Y-99075001D02*
X86380523Y-99027382D01*
X86380523Y-99027382D02*
X86190047Y-98979763D01*
X86190047Y-98979763D02*
X86047190Y-98979763D01*
X86047190Y-98979763D02*
X85856714Y-99027382D01*
X85856714Y-99027382D02*
X85761476Y-99075001D01*
X85761476Y-99075001D02*
X85666238Y-99170239D01*
X85666238Y-99170239D02*
X85618619Y-99313096D01*
X85618619Y-99313096D02*
X85618619Y-99408334D01*
X85618619Y-99408334D02*
X85666238Y-99551191D01*
X85666238Y-99551191D02*
X85713857Y-99598810D01*
X85618619Y-100313096D02*
X86332904Y-100313096D01*
X86332904Y-100313096D02*
X86475761Y-100265477D01*
X86475761Y-100265477D02*
X86571000Y-100170239D01*
X86571000Y-100170239D02*
X86618619Y-100027382D01*
X86618619Y-100027382D02*
X86618619Y-99932144D01*
X86618619Y-101265477D02*
X86618619Y-100789287D01*
X86618619Y-100789287D02*
X85618619Y-100789287D01*
X86523380Y-102170239D02*
X86571000Y-102122620D01*
X86571000Y-102122620D02*
X86618619Y-101979763D01*
X86618619Y-101979763D02*
X86618619Y-101884525D01*
X86618619Y-101884525D02*
X86571000Y-101741668D01*
X86571000Y-101741668D02*
X86475761Y-101646430D01*
X86475761Y-101646430D02*
X86380523Y-101598811D01*
X86380523Y-101598811D02*
X86190047Y-101551192D01*
X86190047Y-101551192D02*
X86047190Y-101551192D01*
X86047190Y-101551192D02*
X85856714Y-101598811D01*
X85856714Y-101598811D02*
X85761476Y-101646430D01*
X85761476Y-101646430D02*
X85666238Y-101741668D01*
X85666238Y-101741668D02*
X85618619Y-101884525D01*
X85618619Y-101884525D02*
X85618619Y-101979763D01*
X85618619Y-101979763D02*
X85666238Y-102122620D01*
X85666238Y-102122620D02*
X85713857Y-102170239D01*
D11*
X104687714Y-81214107D02*
X104687714Y-80314107D01*
X104687714Y-80314107D02*
X104344857Y-80314107D01*
X104344857Y-80314107D02*
X104259142Y-80356964D01*
X104259142Y-80356964D02*
X104216285Y-80399821D01*
X104216285Y-80399821D02*
X104173428Y-80485535D01*
X104173428Y-80485535D02*
X104173428Y-80614107D01*
X104173428Y-80614107D02*
X104216285Y-80699821D01*
X104216285Y-80699821D02*
X104259142Y-80742678D01*
X104259142Y-80742678D02*
X104344857Y-80785535D01*
X104344857Y-80785535D02*
X104687714Y-80785535D01*
X103787714Y-81214107D02*
X103787714Y-80314107D01*
X103787714Y-80742678D02*
X103273428Y-80742678D01*
X103273428Y-81214107D02*
X103273428Y-80314107D01*
X102673428Y-80785535D02*
X102673428Y-81214107D01*
X102973428Y-80314107D02*
X102673428Y-80785535D01*
X102673428Y-80785535D02*
X102373428Y-80314107D01*
X100873428Y-81128392D02*
X100916285Y-81171250D01*
X100916285Y-81171250D02*
X101044857Y-81214107D01*
X101044857Y-81214107D02*
X101130571Y-81214107D01*
X101130571Y-81214107D02*
X101259142Y-81171250D01*
X101259142Y-81171250D02*
X101344857Y-81085535D01*
X101344857Y-81085535D02*
X101387714Y-80999821D01*
X101387714Y-80999821D02*
X101430571Y-80828392D01*
X101430571Y-80828392D02*
X101430571Y-80699821D01*
X101430571Y-80699821D02*
X101387714Y-80528392D01*
X101387714Y-80528392D02*
X101344857Y-80442678D01*
X101344857Y-80442678D02*
X101259142Y-80356964D01*
X101259142Y-80356964D02*
X101130571Y-80314107D01*
X101130571Y-80314107D02*
X101044857Y-80314107D01*
X101044857Y-80314107D02*
X100916285Y-80356964D01*
X100916285Y-80356964D02*
X100873428Y-80399821D01*
X100487714Y-81214107D02*
X100487714Y-80314107D01*
X100102000Y-81214107D02*
X100102000Y-80742678D01*
X100102000Y-80742678D02*
X100144857Y-80656964D01*
X100144857Y-80656964D02*
X100230571Y-80614107D01*
X100230571Y-80614107D02*
X100359142Y-80614107D01*
X100359142Y-80614107D02*
X100444857Y-80656964D01*
X100444857Y-80656964D02*
X100487714Y-80699821D01*
X99673428Y-81214107D02*
X99673428Y-80614107D01*
X99673428Y-80314107D02*
X99716285Y-80356964D01*
X99716285Y-80356964D02*
X99673428Y-80399821D01*
X99673428Y-80399821D02*
X99630571Y-80356964D01*
X99630571Y-80356964D02*
X99673428Y-80314107D01*
X99673428Y-80314107D02*
X99673428Y-80399821D01*
X99244857Y-80614107D02*
X99244857Y-81514107D01*
X99244857Y-80656964D02*
X99159143Y-80614107D01*
X99159143Y-80614107D02*
X98987714Y-80614107D01*
X98987714Y-80614107D02*
X98902000Y-80656964D01*
X98902000Y-80656964D02*
X98859143Y-80699821D01*
X98859143Y-80699821D02*
X98816285Y-80785535D01*
X98816285Y-80785535D02*
X98816285Y-81042678D01*
X98816285Y-81042678D02*
X98859143Y-81128392D01*
X98859143Y-81128392D02*
X98902000Y-81171250D01*
X98902000Y-81171250D02*
X98987714Y-81214107D01*
X98987714Y-81214107D02*
X99159143Y-81214107D01*
X99159143Y-81214107D02*
X99244857Y-81171250D01*
X98430571Y-81128392D02*
X98387714Y-81171250D01*
X98387714Y-81171250D02*
X98430571Y-81214107D01*
X98430571Y-81214107D02*
X98473428Y-81171250D01*
X98473428Y-81171250D02*
X98430571Y-81128392D01*
X98430571Y-81128392D02*
X98430571Y-81214107D01*
X98430571Y-80656964D02*
X98387714Y-80699821D01*
X98387714Y-80699821D02*
X98430571Y-80742678D01*
X98430571Y-80742678D02*
X98473428Y-80699821D01*
X98473428Y-80699821D02*
X98430571Y-80656964D01*
X98430571Y-80656964D02*
X98430571Y-80742678D01*
X104730571Y-82414964D02*
X104302000Y-82414964D01*
X104816285Y-82672107D02*
X104516285Y-81772107D01*
X104516285Y-81772107D02*
X104216285Y-82672107D01*
X103530571Y-82672107D02*
X103530571Y-81772107D01*
X103530571Y-82629250D02*
X103616285Y-82672107D01*
X103616285Y-82672107D02*
X103787713Y-82672107D01*
X103787713Y-82672107D02*
X103873428Y-82629250D01*
X103873428Y-82629250D02*
X103916285Y-82586392D01*
X103916285Y-82586392D02*
X103959142Y-82500678D01*
X103959142Y-82500678D02*
X103959142Y-82243535D01*
X103959142Y-82243535D02*
X103916285Y-82157821D01*
X103916285Y-82157821D02*
X103873428Y-82114964D01*
X103873428Y-82114964D02*
X103787713Y-82072107D01*
X103787713Y-82072107D02*
X103616285Y-82072107D01*
X103616285Y-82072107D02*
X103530571Y-82114964D01*
X102716285Y-82672107D02*
X102716285Y-81772107D01*
X102716285Y-82629250D02*
X102801999Y-82672107D01*
X102801999Y-82672107D02*
X102973427Y-82672107D01*
X102973427Y-82672107D02*
X103059142Y-82629250D01*
X103059142Y-82629250D02*
X103101999Y-82586392D01*
X103101999Y-82586392D02*
X103144856Y-82500678D01*
X103144856Y-82500678D02*
X103144856Y-82243535D01*
X103144856Y-82243535D02*
X103101999Y-82157821D01*
X103101999Y-82157821D02*
X103059142Y-82114964D01*
X103059142Y-82114964D02*
X102973427Y-82072107D01*
X102973427Y-82072107D02*
X102801999Y-82072107D01*
X102801999Y-82072107D02*
X102716285Y-82114964D01*
X102287713Y-82672107D02*
X102287713Y-82072107D01*
X102287713Y-82243535D02*
X102244856Y-82157821D01*
X102244856Y-82157821D02*
X102201999Y-82114964D01*
X102201999Y-82114964D02*
X102116284Y-82072107D01*
X102116284Y-82072107D02*
X102030570Y-82072107D01*
X101387713Y-82629250D02*
X101473427Y-82672107D01*
X101473427Y-82672107D02*
X101644856Y-82672107D01*
X101644856Y-82672107D02*
X101730570Y-82629250D01*
X101730570Y-82629250D02*
X101773427Y-82543535D01*
X101773427Y-82543535D02*
X101773427Y-82200678D01*
X101773427Y-82200678D02*
X101730570Y-82114964D01*
X101730570Y-82114964D02*
X101644856Y-82072107D01*
X101644856Y-82072107D02*
X101473427Y-82072107D01*
X101473427Y-82072107D02*
X101387713Y-82114964D01*
X101387713Y-82114964D02*
X101344856Y-82200678D01*
X101344856Y-82200678D02*
X101344856Y-82286392D01*
X101344856Y-82286392D02*
X101773427Y-82372107D01*
X101001998Y-82629250D02*
X100916284Y-82672107D01*
X100916284Y-82672107D02*
X100744855Y-82672107D01*
X100744855Y-82672107D02*
X100659141Y-82629250D01*
X100659141Y-82629250D02*
X100616284Y-82543535D01*
X100616284Y-82543535D02*
X100616284Y-82500678D01*
X100616284Y-82500678D02*
X100659141Y-82414964D01*
X100659141Y-82414964D02*
X100744855Y-82372107D01*
X100744855Y-82372107D02*
X100873427Y-82372107D01*
X100873427Y-82372107D02*
X100959141Y-82329250D01*
X100959141Y-82329250D02*
X101001998Y-82243535D01*
X101001998Y-82243535D02*
X101001998Y-82200678D01*
X101001998Y-82200678D02*
X100959141Y-82114964D01*
X100959141Y-82114964D02*
X100873427Y-82072107D01*
X100873427Y-82072107D02*
X100744855Y-82072107D01*
X100744855Y-82072107D02*
X100659141Y-82114964D01*
X100273427Y-82629250D02*
X100187713Y-82672107D01*
X100187713Y-82672107D02*
X100016284Y-82672107D01*
X100016284Y-82672107D02*
X99930570Y-82629250D01*
X99930570Y-82629250D02*
X99887713Y-82543535D01*
X99887713Y-82543535D02*
X99887713Y-82500678D01*
X99887713Y-82500678D02*
X99930570Y-82414964D01*
X99930570Y-82414964D02*
X100016284Y-82372107D01*
X100016284Y-82372107D02*
X100144856Y-82372107D01*
X100144856Y-82372107D02*
X100230570Y-82329250D01*
X100230570Y-82329250D02*
X100273427Y-82243535D01*
X100273427Y-82243535D02*
X100273427Y-82200678D01*
X100273427Y-82200678D02*
X100230570Y-82114964D01*
X100230570Y-82114964D02*
X100144856Y-82072107D01*
X100144856Y-82072107D02*
X100016284Y-82072107D01*
X100016284Y-82072107D02*
X99930570Y-82114964D01*
X99501999Y-82586392D02*
X99459142Y-82629250D01*
X99459142Y-82629250D02*
X99501999Y-82672107D01*
X99501999Y-82672107D02*
X99544856Y-82629250D01*
X99544856Y-82629250D02*
X99501999Y-82586392D01*
X99501999Y-82586392D02*
X99501999Y-82672107D01*
X99501999Y-82114964D02*
X99459142Y-82157821D01*
X99459142Y-82157821D02*
X99501999Y-82200678D01*
X99501999Y-82200678D02*
X99544856Y-82157821D01*
X99544856Y-82157821D02*
X99501999Y-82114964D01*
X99501999Y-82114964D02*
X99501999Y-82200678D01*
X104173428Y-84044392D02*
X104216285Y-84087250D01*
X104216285Y-84087250D02*
X104344857Y-84130107D01*
X104344857Y-84130107D02*
X104430571Y-84130107D01*
X104430571Y-84130107D02*
X104559142Y-84087250D01*
X104559142Y-84087250D02*
X104644857Y-84001535D01*
X104644857Y-84001535D02*
X104687714Y-83915821D01*
X104687714Y-83915821D02*
X104730571Y-83744392D01*
X104730571Y-83744392D02*
X104730571Y-83615821D01*
X104730571Y-83615821D02*
X104687714Y-83444392D01*
X104687714Y-83444392D02*
X104644857Y-83358678D01*
X104644857Y-83358678D02*
X104559142Y-83272964D01*
X104559142Y-83272964D02*
X104430571Y-83230107D01*
X104430571Y-83230107D02*
X104344857Y-83230107D01*
X104344857Y-83230107D02*
X104216285Y-83272964D01*
X104216285Y-83272964D02*
X104173428Y-83315821D01*
X103659142Y-84130107D02*
X103744857Y-84087250D01*
X103744857Y-84087250D02*
X103787714Y-84001535D01*
X103787714Y-84001535D02*
X103787714Y-83230107D01*
X103187713Y-84130107D02*
X103273428Y-84087250D01*
X103273428Y-84087250D02*
X103316285Y-84044392D01*
X103316285Y-84044392D02*
X103359142Y-83958678D01*
X103359142Y-83958678D02*
X103359142Y-83701535D01*
X103359142Y-83701535D02*
X103316285Y-83615821D01*
X103316285Y-83615821D02*
X103273428Y-83572964D01*
X103273428Y-83572964D02*
X103187713Y-83530107D01*
X103187713Y-83530107D02*
X103059142Y-83530107D01*
X103059142Y-83530107D02*
X102973428Y-83572964D01*
X102973428Y-83572964D02*
X102930571Y-83615821D01*
X102930571Y-83615821D02*
X102887713Y-83701535D01*
X102887713Y-83701535D02*
X102887713Y-83958678D01*
X102887713Y-83958678D02*
X102930571Y-84044392D01*
X102930571Y-84044392D02*
X102973428Y-84087250D01*
X102973428Y-84087250D02*
X103059142Y-84130107D01*
X103059142Y-84130107D02*
X103187713Y-84130107D01*
X102116285Y-84087250D02*
X102201999Y-84130107D01*
X102201999Y-84130107D02*
X102373427Y-84130107D01*
X102373427Y-84130107D02*
X102459142Y-84087250D01*
X102459142Y-84087250D02*
X102501999Y-84044392D01*
X102501999Y-84044392D02*
X102544856Y-83958678D01*
X102544856Y-83958678D02*
X102544856Y-83701535D01*
X102544856Y-83701535D02*
X102501999Y-83615821D01*
X102501999Y-83615821D02*
X102459142Y-83572964D01*
X102459142Y-83572964D02*
X102373427Y-83530107D01*
X102373427Y-83530107D02*
X102201999Y-83530107D01*
X102201999Y-83530107D02*
X102116285Y-83572964D01*
X101730570Y-84130107D02*
X101730570Y-83230107D01*
X101644856Y-83787250D02*
X101387713Y-84130107D01*
X101387713Y-83530107D02*
X101730570Y-83872964D01*
X100316285Y-84130107D02*
X100316285Y-83230107D01*
X100316285Y-83230107D02*
X100016285Y-83872964D01*
X100016285Y-83872964D02*
X99716285Y-83230107D01*
X99716285Y-83230107D02*
X99716285Y-84130107D01*
X99159142Y-84130107D02*
X99244857Y-84087250D01*
X99244857Y-84087250D02*
X99287714Y-84044392D01*
X99287714Y-84044392D02*
X99330571Y-83958678D01*
X99330571Y-83958678D02*
X99330571Y-83701535D01*
X99330571Y-83701535D02*
X99287714Y-83615821D01*
X99287714Y-83615821D02*
X99244857Y-83572964D01*
X99244857Y-83572964D02*
X99159142Y-83530107D01*
X99159142Y-83530107D02*
X99030571Y-83530107D01*
X99030571Y-83530107D02*
X98944857Y-83572964D01*
X98944857Y-83572964D02*
X98902000Y-83615821D01*
X98902000Y-83615821D02*
X98859142Y-83701535D01*
X98859142Y-83701535D02*
X98859142Y-83958678D01*
X98859142Y-83958678D02*
X98902000Y-84044392D01*
X98902000Y-84044392D02*
X98944857Y-84087250D01*
X98944857Y-84087250D02*
X99030571Y-84130107D01*
X99030571Y-84130107D02*
X99159142Y-84130107D01*
X98087714Y-84130107D02*
X98087714Y-83230107D01*
X98087714Y-84087250D02*
X98173428Y-84130107D01*
X98173428Y-84130107D02*
X98344856Y-84130107D01*
X98344856Y-84130107D02*
X98430571Y-84087250D01*
X98430571Y-84087250D02*
X98473428Y-84044392D01*
X98473428Y-84044392D02*
X98516285Y-83958678D01*
X98516285Y-83958678D02*
X98516285Y-83701535D01*
X98516285Y-83701535D02*
X98473428Y-83615821D01*
X98473428Y-83615821D02*
X98430571Y-83572964D01*
X98430571Y-83572964D02*
X98344856Y-83530107D01*
X98344856Y-83530107D02*
X98173428Y-83530107D01*
X98173428Y-83530107D02*
X98087714Y-83572964D01*
X97316285Y-84087250D02*
X97401999Y-84130107D01*
X97401999Y-84130107D02*
X97573428Y-84130107D01*
X97573428Y-84130107D02*
X97659142Y-84087250D01*
X97659142Y-84087250D02*
X97701999Y-84001535D01*
X97701999Y-84001535D02*
X97701999Y-83658678D01*
X97701999Y-83658678D02*
X97659142Y-83572964D01*
X97659142Y-83572964D02*
X97573428Y-83530107D01*
X97573428Y-83530107D02*
X97401999Y-83530107D01*
X97401999Y-83530107D02*
X97316285Y-83572964D01*
X97316285Y-83572964D02*
X97273428Y-83658678D01*
X97273428Y-83658678D02*
X97273428Y-83744392D01*
X97273428Y-83744392D02*
X97701999Y-83830107D01*
X96887713Y-84044392D02*
X96844856Y-84087250D01*
X96844856Y-84087250D02*
X96887713Y-84130107D01*
X96887713Y-84130107D02*
X96930570Y-84087250D01*
X96930570Y-84087250D02*
X96887713Y-84044392D01*
X96887713Y-84044392D02*
X96887713Y-84130107D01*
X96887713Y-83572964D02*
X96844856Y-83615821D01*
X96844856Y-83615821D02*
X96887713Y-83658678D01*
X96887713Y-83658678D02*
X96930570Y-83615821D01*
X96930570Y-83615821D02*
X96887713Y-83572964D01*
X96887713Y-83572964D02*
X96887713Y-83658678D01*
X104687714Y-85588107D02*
X104687714Y-84688107D01*
X104687714Y-84688107D02*
X104344857Y-84688107D01*
X104344857Y-84688107D02*
X104259142Y-84730964D01*
X104259142Y-84730964D02*
X104216285Y-84773821D01*
X104216285Y-84773821D02*
X104173428Y-84859535D01*
X104173428Y-84859535D02*
X104173428Y-84988107D01*
X104173428Y-84988107D02*
X104216285Y-85073821D01*
X104216285Y-85073821D02*
X104259142Y-85116678D01*
X104259142Y-85116678D02*
X104344857Y-85159535D01*
X104344857Y-85159535D02*
X104687714Y-85159535D01*
X103659142Y-85588107D02*
X103744857Y-85545250D01*
X103744857Y-85545250D02*
X103787714Y-85502392D01*
X103787714Y-85502392D02*
X103830571Y-85416678D01*
X103830571Y-85416678D02*
X103830571Y-85159535D01*
X103830571Y-85159535D02*
X103787714Y-85073821D01*
X103787714Y-85073821D02*
X103744857Y-85030964D01*
X103744857Y-85030964D02*
X103659142Y-84988107D01*
X103659142Y-84988107D02*
X103530571Y-84988107D01*
X103530571Y-84988107D02*
X103444857Y-85030964D01*
X103444857Y-85030964D02*
X103402000Y-85073821D01*
X103402000Y-85073821D02*
X103359142Y-85159535D01*
X103359142Y-85159535D02*
X103359142Y-85416678D01*
X103359142Y-85416678D02*
X103402000Y-85502392D01*
X103402000Y-85502392D02*
X103444857Y-85545250D01*
X103444857Y-85545250D02*
X103530571Y-85588107D01*
X103530571Y-85588107D02*
X103659142Y-85588107D01*
X103059142Y-84988107D02*
X102887714Y-85588107D01*
X102887714Y-85588107D02*
X102716285Y-85159535D01*
X102716285Y-85159535D02*
X102544856Y-85588107D01*
X102544856Y-85588107D02*
X102373428Y-84988107D01*
X101687714Y-85545250D02*
X101773428Y-85588107D01*
X101773428Y-85588107D02*
X101944857Y-85588107D01*
X101944857Y-85588107D02*
X102030571Y-85545250D01*
X102030571Y-85545250D02*
X102073428Y-85459535D01*
X102073428Y-85459535D02*
X102073428Y-85116678D01*
X102073428Y-85116678D02*
X102030571Y-85030964D01*
X102030571Y-85030964D02*
X101944857Y-84988107D01*
X101944857Y-84988107D02*
X101773428Y-84988107D01*
X101773428Y-84988107D02*
X101687714Y-85030964D01*
X101687714Y-85030964D02*
X101644857Y-85116678D01*
X101644857Y-85116678D02*
X101644857Y-85202392D01*
X101644857Y-85202392D02*
X102073428Y-85288107D01*
X101259142Y-85588107D02*
X101259142Y-84988107D01*
X101259142Y-85159535D02*
X101216285Y-85073821D01*
X101216285Y-85073821D02*
X101173428Y-85030964D01*
X101173428Y-85030964D02*
X101087713Y-84988107D01*
X101087713Y-84988107D02*
X101001999Y-84988107D01*
X100016285Y-85588107D02*
X100016285Y-84688107D01*
X100016285Y-84688107D02*
X99673428Y-84688107D01*
X99673428Y-84688107D02*
X99587713Y-84730964D01*
X99587713Y-84730964D02*
X99544856Y-84773821D01*
X99544856Y-84773821D02*
X99501999Y-84859535D01*
X99501999Y-84859535D02*
X99501999Y-84988107D01*
X99501999Y-84988107D02*
X99544856Y-85073821D01*
X99544856Y-85073821D02*
X99587713Y-85116678D01*
X99587713Y-85116678D02*
X99673428Y-85159535D01*
X99673428Y-85159535D02*
X100016285Y-85159535D01*
X99116285Y-85588107D02*
X99116285Y-84988107D01*
X99116285Y-84688107D02*
X99159142Y-84730964D01*
X99159142Y-84730964D02*
X99116285Y-84773821D01*
X99116285Y-84773821D02*
X99073428Y-84730964D01*
X99073428Y-84730964D02*
X99116285Y-84688107D01*
X99116285Y-84688107D02*
X99116285Y-84773821D01*
X98687714Y-84988107D02*
X98687714Y-85588107D01*
X98687714Y-85073821D02*
X98644857Y-85030964D01*
X98644857Y-85030964D02*
X98559142Y-84988107D01*
X98559142Y-84988107D02*
X98430571Y-84988107D01*
X98430571Y-84988107D02*
X98344857Y-85030964D01*
X98344857Y-85030964D02*
X98302000Y-85116678D01*
X98302000Y-85116678D02*
X98302000Y-85588107D01*
X97873428Y-85502392D02*
X97830571Y-85545250D01*
X97830571Y-85545250D02*
X97873428Y-85588107D01*
X97873428Y-85588107D02*
X97916285Y-85545250D01*
X97916285Y-85545250D02*
X97873428Y-85502392D01*
X97873428Y-85502392D02*
X97873428Y-85588107D01*
X97873428Y-85030964D02*
X97830571Y-85073821D01*
X97830571Y-85073821D02*
X97873428Y-85116678D01*
X97873428Y-85116678D02*
X97916285Y-85073821D01*
X97916285Y-85073821D02*
X97873428Y-85030964D01*
X97873428Y-85030964D02*
X97873428Y-85116678D01*
X104687714Y-87046107D02*
X104687714Y-86146107D01*
X104687714Y-86146107D02*
X104387714Y-86788964D01*
X104387714Y-86788964D02*
X104087714Y-86146107D01*
X104087714Y-86146107D02*
X104087714Y-87046107D01*
X103659143Y-87046107D02*
X103659143Y-86146107D01*
X103659143Y-86146107D02*
X103444857Y-86146107D01*
X103444857Y-86146107D02*
X103316286Y-86188964D01*
X103316286Y-86188964D02*
X103230571Y-86274678D01*
X103230571Y-86274678D02*
X103187714Y-86360392D01*
X103187714Y-86360392D02*
X103144857Y-86531821D01*
X103144857Y-86531821D02*
X103144857Y-86660392D01*
X103144857Y-86660392D02*
X103187714Y-86831821D01*
X103187714Y-86831821D02*
X103230571Y-86917535D01*
X103230571Y-86917535D02*
X103316286Y-87003250D01*
X103316286Y-87003250D02*
X103444857Y-87046107D01*
X103444857Y-87046107D02*
X103659143Y-87046107D01*
X102244857Y-86960392D02*
X102287714Y-87003250D01*
X102287714Y-87003250D02*
X102416286Y-87046107D01*
X102416286Y-87046107D02*
X102502000Y-87046107D01*
X102502000Y-87046107D02*
X102630571Y-87003250D01*
X102630571Y-87003250D02*
X102716286Y-86917535D01*
X102716286Y-86917535D02*
X102759143Y-86831821D01*
X102759143Y-86831821D02*
X102802000Y-86660392D01*
X102802000Y-86660392D02*
X102802000Y-86531821D01*
X102802000Y-86531821D02*
X102759143Y-86360392D01*
X102759143Y-86360392D02*
X102716286Y-86274678D01*
X102716286Y-86274678D02*
X102630571Y-86188964D01*
X102630571Y-86188964D02*
X102502000Y-86146107D01*
X102502000Y-86146107D02*
X102416286Y-86146107D01*
X102416286Y-86146107D02*
X102287714Y-86188964D01*
X102287714Y-86188964D02*
X102244857Y-86231821D01*
X101173429Y-87046107D02*
X101173429Y-86146107D01*
X101173429Y-86146107D02*
X100830572Y-86146107D01*
X100830572Y-86146107D02*
X100744857Y-86188964D01*
X100744857Y-86188964D02*
X100702000Y-86231821D01*
X100702000Y-86231821D02*
X100659143Y-86317535D01*
X100659143Y-86317535D02*
X100659143Y-86446107D01*
X100659143Y-86446107D02*
X100702000Y-86531821D01*
X100702000Y-86531821D02*
X100744857Y-86574678D01*
X100744857Y-86574678D02*
X100830572Y-86617535D01*
X100830572Y-86617535D02*
X101173429Y-86617535D01*
X100273429Y-87046107D02*
X100273429Y-86446107D01*
X100273429Y-86146107D02*
X100316286Y-86188964D01*
X100316286Y-86188964D02*
X100273429Y-86231821D01*
X100273429Y-86231821D02*
X100230572Y-86188964D01*
X100230572Y-86188964D02*
X100273429Y-86146107D01*
X100273429Y-86146107D02*
X100273429Y-86231821D01*
X99844858Y-86446107D02*
X99844858Y-87046107D01*
X99844858Y-86531821D02*
X99802001Y-86488964D01*
X99802001Y-86488964D02*
X99716286Y-86446107D01*
X99716286Y-86446107D02*
X99587715Y-86446107D01*
X99587715Y-86446107D02*
X99502001Y-86488964D01*
X99502001Y-86488964D02*
X99459144Y-86574678D01*
X99459144Y-86574678D02*
X99459144Y-87046107D01*
X99030572Y-86960392D02*
X98987715Y-87003250D01*
X98987715Y-87003250D02*
X99030572Y-87046107D01*
X99030572Y-87046107D02*
X99073429Y-87003250D01*
X99073429Y-87003250D02*
X99030572Y-86960392D01*
X99030572Y-86960392D02*
X99030572Y-87046107D01*
X99030572Y-86488964D02*
X98987715Y-86531821D01*
X98987715Y-86531821D02*
X99030572Y-86574678D01*
X99030572Y-86574678D02*
X99073429Y-86531821D01*
X99073429Y-86531821D02*
X99030572Y-86488964D01*
X99030572Y-86488964D02*
X99030572Y-86574678D01*
X104687714Y-88504107D02*
X104687714Y-87604107D01*
X104687714Y-87604107D02*
X104387714Y-88246964D01*
X104387714Y-88246964D02*
X104087714Y-87604107D01*
X104087714Y-87604107D02*
X104087714Y-88504107D01*
X103659143Y-88504107D02*
X103659143Y-87604107D01*
X103659143Y-87604107D02*
X103444857Y-87604107D01*
X103444857Y-87604107D02*
X103316286Y-87646964D01*
X103316286Y-87646964D02*
X103230571Y-87732678D01*
X103230571Y-87732678D02*
X103187714Y-87818392D01*
X103187714Y-87818392D02*
X103144857Y-87989821D01*
X103144857Y-87989821D02*
X103144857Y-88118392D01*
X103144857Y-88118392D02*
X103187714Y-88289821D01*
X103187714Y-88289821D02*
X103230571Y-88375535D01*
X103230571Y-88375535D02*
X103316286Y-88461250D01*
X103316286Y-88461250D02*
X103444857Y-88504107D01*
X103444857Y-88504107D02*
X103659143Y-88504107D01*
X102759143Y-88504107D02*
X102759143Y-87604107D01*
X102159143Y-87604107D02*
X101987715Y-87604107D01*
X101987715Y-87604107D02*
X101902000Y-87646964D01*
X101902000Y-87646964D02*
X101816286Y-87732678D01*
X101816286Y-87732678D02*
X101773429Y-87904107D01*
X101773429Y-87904107D02*
X101773429Y-88204107D01*
X101773429Y-88204107D02*
X101816286Y-88375535D01*
X101816286Y-88375535D02*
X101902000Y-88461250D01*
X101902000Y-88461250D02*
X101987715Y-88504107D01*
X101987715Y-88504107D02*
X102159143Y-88504107D01*
X102159143Y-88504107D02*
X102244858Y-88461250D01*
X102244858Y-88461250D02*
X102330572Y-88375535D01*
X102330572Y-88375535D02*
X102373429Y-88204107D01*
X102373429Y-88204107D02*
X102373429Y-87904107D01*
X102373429Y-87904107D02*
X102330572Y-87732678D01*
X102330572Y-87732678D02*
X102244858Y-87646964D01*
X102244858Y-87646964D02*
X102159143Y-87604107D01*
X100702001Y-88504107D02*
X100702001Y-87604107D01*
X100702001Y-87604107D02*
X100359144Y-87604107D01*
X100359144Y-87604107D02*
X100273429Y-87646964D01*
X100273429Y-87646964D02*
X100230572Y-87689821D01*
X100230572Y-87689821D02*
X100187715Y-87775535D01*
X100187715Y-87775535D02*
X100187715Y-87904107D01*
X100187715Y-87904107D02*
X100230572Y-87989821D01*
X100230572Y-87989821D02*
X100273429Y-88032678D01*
X100273429Y-88032678D02*
X100359144Y-88075535D01*
X100359144Y-88075535D02*
X100702001Y-88075535D01*
X99802001Y-88504107D02*
X99802001Y-87904107D01*
X99802001Y-87604107D02*
X99844858Y-87646964D01*
X99844858Y-87646964D02*
X99802001Y-87689821D01*
X99802001Y-87689821D02*
X99759144Y-87646964D01*
X99759144Y-87646964D02*
X99802001Y-87604107D01*
X99802001Y-87604107D02*
X99802001Y-87689821D01*
X99373430Y-87904107D02*
X99373430Y-88504107D01*
X99373430Y-87989821D02*
X99330573Y-87946964D01*
X99330573Y-87946964D02*
X99244858Y-87904107D01*
X99244858Y-87904107D02*
X99116287Y-87904107D01*
X99116287Y-87904107D02*
X99030573Y-87946964D01*
X99030573Y-87946964D02*
X98987716Y-88032678D01*
X98987716Y-88032678D02*
X98987716Y-88504107D01*
X98559144Y-88418392D02*
X98516287Y-88461250D01*
X98516287Y-88461250D02*
X98559144Y-88504107D01*
X98559144Y-88504107D02*
X98602001Y-88461250D01*
X98602001Y-88461250D02*
X98559144Y-88418392D01*
X98559144Y-88418392D02*
X98559144Y-88504107D01*
X98559144Y-87946964D02*
X98516287Y-87989821D01*
X98516287Y-87989821D02*
X98559144Y-88032678D01*
X98559144Y-88032678D02*
X98602001Y-87989821D01*
X98602001Y-87989821D02*
X98559144Y-87946964D01*
X98559144Y-87946964D02*
X98559144Y-88032678D01*
X104603571Y-94982500D02*
X104475000Y-95025357D01*
X104475000Y-95025357D02*
X104260714Y-95025357D01*
X104260714Y-95025357D02*
X104175000Y-94982500D01*
X104175000Y-94982500D02*
X104132142Y-94939642D01*
X104132142Y-94939642D02*
X104089285Y-94853928D01*
X104089285Y-94853928D02*
X104089285Y-94768214D01*
X104089285Y-94768214D02*
X104132142Y-94682500D01*
X104132142Y-94682500D02*
X104175000Y-94639642D01*
X104175000Y-94639642D02*
X104260714Y-94596785D01*
X104260714Y-94596785D02*
X104432142Y-94553928D01*
X104432142Y-94553928D02*
X104517857Y-94511071D01*
X104517857Y-94511071D02*
X104560714Y-94468214D01*
X104560714Y-94468214D02*
X104603571Y-94382500D01*
X104603571Y-94382500D02*
X104603571Y-94296785D01*
X104603571Y-94296785D02*
X104560714Y-94211071D01*
X104560714Y-94211071D02*
X104517857Y-94168214D01*
X104517857Y-94168214D02*
X104432142Y-94125357D01*
X104432142Y-94125357D02*
X104217857Y-94125357D01*
X104217857Y-94125357D02*
X104089285Y-94168214D01*
X103189285Y-94939642D02*
X103232142Y-94982500D01*
X103232142Y-94982500D02*
X103360714Y-95025357D01*
X103360714Y-95025357D02*
X103446428Y-95025357D01*
X103446428Y-95025357D02*
X103574999Y-94982500D01*
X103574999Y-94982500D02*
X103660714Y-94896785D01*
X103660714Y-94896785D02*
X103703571Y-94811071D01*
X103703571Y-94811071D02*
X103746428Y-94639642D01*
X103746428Y-94639642D02*
X103746428Y-94511071D01*
X103746428Y-94511071D02*
X103703571Y-94339642D01*
X103703571Y-94339642D02*
X103660714Y-94253928D01*
X103660714Y-94253928D02*
X103574999Y-94168214D01*
X103574999Y-94168214D02*
X103446428Y-94125357D01*
X103446428Y-94125357D02*
X103360714Y-94125357D01*
X103360714Y-94125357D02*
X103232142Y-94168214D01*
X103232142Y-94168214D02*
X103189285Y-94211071D01*
X102374999Y-95025357D02*
X102803571Y-95025357D01*
X102803571Y-95025357D02*
X102803571Y-94125357D01*
X102075000Y-95025357D02*
X102075000Y-94125357D01*
X101560714Y-95025357D02*
X101946428Y-94511071D01*
X101560714Y-94125357D02*
X102075000Y-94639642D01*
X101175000Y-94939642D02*
X101132143Y-94982500D01*
X101132143Y-94982500D02*
X101175000Y-95025357D01*
X101175000Y-95025357D02*
X101217857Y-94982500D01*
X101217857Y-94982500D02*
X101175000Y-94939642D01*
X101175000Y-94939642D02*
X101175000Y-95025357D01*
X101175000Y-94468214D02*
X101132143Y-94511071D01*
X101132143Y-94511071D02*
X101175000Y-94553928D01*
X101175000Y-94553928D02*
X101217857Y-94511071D01*
X101217857Y-94511071D02*
X101175000Y-94468214D01*
X101175000Y-94468214D02*
X101175000Y-94553928D01*
X104046428Y-96397642D02*
X104089285Y-96440500D01*
X104089285Y-96440500D02*
X104217857Y-96483357D01*
X104217857Y-96483357D02*
X104303571Y-96483357D01*
X104303571Y-96483357D02*
X104432142Y-96440500D01*
X104432142Y-96440500D02*
X104517857Y-96354785D01*
X104517857Y-96354785D02*
X104560714Y-96269071D01*
X104560714Y-96269071D02*
X104603571Y-96097642D01*
X104603571Y-96097642D02*
X104603571Y-95969071D01*
X104603571Y-95969071D02*
X104560714Y-95797642D01*
X104560714Y-95797642D02*
X104517857Y-95711928D01*
X104517857Y-95711928D02*
X104432142Y-95626214D01*
X104432142Y-95626214D02*
X104303571Y-95583357D01*
X104303571Y-95583357D02*
X104217857Y-95583357D01*
X104217857Y-95583357D02*
X104089285Y-95626214D01*
X104089285Y-95626214D02*
X104046428Y-95669071D01*
X103703571Y-96440500D02*
X103575000Y-96483357D01*
X103575000Y-96483357D02*
X103360714Y-96483357D01*
X103360714Y-96483357D02*
X103275000Y-96440500D01*
X103275000Y-96440500D02*
X103232142Y-96397642D01*
X103232142Y-96397642D02*
X103189285Y-96311928D01*
X103189285Y-96311928D02*
X103189285Y-96226214D01*
X103189285Y-96226214D02*
X103232142Y-96140500D01*
X103232142Y-96140500D02*
X103275000Y-96097642D01*
X103275000Y-96097642D02*
X103360714Y-96054785D01*
X103360714Y-96054785D02*
X103532142Y-96011928D01*
X103532142Y-96011928D02*
X103617857Y-95969071D01*
X103617857Y-95969071D02*
X103660714Y-95926214D01*
X103660714Y-95926214D02*
X103703571Y-95840500D01*
X103703571Y-95840500D02*
X103703571Y-95754785D01*
X103703571Y-95754785D02*
X103660714Y-95669071D01*
X103660714Y-95669071D02*
X103617857Y-95626214D01*
X103617857Y-95626214D02*
X103532142Y-95583357D01*
X103532142Y-95583357D02*
X103317857Y-95583357D01*
X103317857Y-95583357D02*
X103189285Y-95626214D01*
X102803571Y-96483357D02*
X102803571Y-95583357D01*
X102803571Y-95583357D02*
X102289285Y-96483357D01*
X102289285Y-96483357D02*
X102289285Y-95583357D01*
X101860714Y-96397642D02*
X101817857Y-96440500D01*
X101817857Y-96440500D02*
X101860714Y-96483357D01*
X101860714Y-96483357D02*
X101903571Y-96440500D01*
X101903571Y-96440500D02*
X101860714Y-96397642D01*
X101860714Y-96397642D02*
X101860714Y-96483357D01*
X101860714Y-95926214D02*
X101817857Y-95969071D01*
X101817857Y-95969071D02*
X101860714Y-96011928D01*
X101860714Y-96011928D02*
X101903571Y-95969071D01*
X101903571Y-95969071D02*
X101860714Y-95926214D01*
X101860714Y-95926214D02*
X101860714Y-96011928D01*
X104560714Y-97941357D02*
X104560714Y-97041357D01*
X104560714Y-97041357D02*
X104260714Y-97684214D01*
X104260714Y-97684214D02*
X103960714Y-97041357D01*
X103960714Y-97041357D02*
X103960714Y-97941357D01*
X103360714Y-97041357D02*
X103189286Y-97041357D01*
X103189286Y-97041357D02*
X103103571Y-97084214D01*
X103103571Y-97084214D02*
X103017857Y-97169928D01*
X103017857Y-97169928D02*
X102975000Y-97341357D01*
X102975000Y-97341357D02*
X102975000Y-97641357D01*
X102975000Y-97641357D02*
X103017857Y-97812785D01*
X103017857Y-97812785D02*
X103103571Y-97898500D01*
X103103571Y-97898500D02*
X103189286Y-97941357D01*
X103189286Y-97941357D02*
X103360714Y-97941357D01*
X103360714Y-97941357D02*
X103446429Y-97898500D01*
X103446429Y-97898500D02*
X103532143Y-97812785D01*
X103532143Y-97812785D02*
X103575000Y-97641357D01*
X103575000Y-97641357D02*
X103575000Y-97341357D01*
X103575000Y-97341357D02*
X103532143Y-97169928D01*
X103532143Y-97169928D02*
X103446429Y-97084214D01*
X103446429Y-97084214D02*
X103360714Y-97041357D01*
X102632143Y-97898500D02*
X102503572Y-97941357D01*
X102503572Y-97941357D02*
X102289286Y-97941357D01*
X102289286Y-97941357D02*
X102203572Y-97898500D01*
X102203572Y-97898500D02*
X102160714Y-97855642D01*
X102160714Y-97855642D02*
X102117857Y-97769928D01*
X102117857Y-97769928D02*
X102117857Y-97684214D01*
X102117857Y-97684214D02*
X102160714Y-97598500D01*
X102160714Y-97598500D02*
X102203572Y-97555642D01*
X102203572Y-97555642D02*
X102289286Y-97512785D01*
X102289286Y-97512785D02*
X102460714Y-97469928D01*
X102460714Y-97469928D02*
X102546429Y-97427071D01*
X102546429Y-97427071D02*
X102589286Y-97384214D01*
X102589286Y-97384214D02*
X102632143Y-97298500D01*
X102632143Y-97298500D02*
X102632143Y-97212785D01*
X102632143Y-97212785D02*
X102589286Y-97127071D01*
X102589286Y-97127071D02*
X102546429Y-97084214D01*
X102546429Y-97084214D02*
X102460714Y-97041357D01*
X102460714Y-97041357D02*
X102246429Y-97041357D01*
X102246429Y-97041357D02*
X102117857Y-97084214D01*
X101732143Y-97941357D02*
X101732143Y-97041357D01*
X101303572Y-97855642D02*
X101260715Y-97898500D01*
X101260715Y-97898500D02*
X101303572Y-97941357D01*
X101303572Y-97941357D02*
X101346429Y-97898500D01*
X101346429Y-97898500D02*
X101303572Y-97855642D01*
X101303572Y-97855642D02*
X101303572Y-97941357D01*
X101303572Y-97384214D02*
X101260715Y-97427071D01*
X101260715Y-97427071D02*
X101303572Y-97469928D01*
X101303572Y-97469928D02*
X101346429Y-97427071D01*
X101346429Y-97427071D02*
X101303572Y-97384214D01*
X101303572Y-97384214D02*
X101303572Y-97469928D01*
X104560714Y-99399357D02*
X104560714Y-98499357D01*
X104560714Y-98499357D02*
X104260714Y-99142214D01*
X104260714Y-99142214D02*
X103960714Y-98499357D01*
X103960714Y-98499357D02*
X103960714Y-99399357D01*
X103532143Y-99399357D02*
X103532143Y-98499357D01*
X103146429Y-99356500D02*
X103017858Y-99399357D01*
X103017858Y-99399357D02*
X102803572Y-99399357D01*
X102803572Y-99399357D02*
X102717858Y-99356500D01*
X102717858Y-99356500D02*
X102675000Y-99313642D01*
X102675000Y-99313642D02*
X102632143Y-99227928D01*
X102632143Y-99227928D02*
X102632143Y-99142214D01*
X102632143Y-99142214D02*
X102675000Y-99056500D01*
X102675000Y-99056500D02*
X102717858Y-99013642D01*
X102717858Y-99013642D02*
X102803572Y-98970785D01*
X102803572Y-98970785D02*
X102975000Y-98927928D01*
X102975000Y-98927928D02*
X103060715Y-98885071D01*
X103060715Y-98885071D02*
X103103572Y-98842214D01*
X103103572Y-98842214D02*
X103146429Y-98756500D01*
X103146429Y-98756500D02*
X103146429Y-98670785D01*
X103146429Y-98670785D02*
X103103572Y-98585071D01*
X103103572Y-98585071D02*
X103060715Y-98542214D01*
X103060715Y-98542214D02*
X102975000Y-98499357D01*
X102975000Y-98499357D02*
X102760715Y-98499357D01*
X102760715Y-98499357D02*
X102632143Y-98542214D01*
X102075000Y-98499357D02*
X101903572Y-98499357D01*
X101903572Y-98499357D02*
X101817857Y-98542214D01*
X101817857Y-98542214D02*
X101732143Y-98627928D01*
X101732143Y-98627928D02*
X101689286Y-98799357D01*
X101689286Y-98799357D02*
X101689286Y-99099357D01*
X101689286Y-99099357D02*
X101732143Y-99270785D01*
X101732143Y-99270785D02*
X101817857Y-99356500D01*
X101817857Y-99356500D02*
X101903572Y-99399357D01*
X101903572Y-99399357D02*
X102075000Y-99399357D01*
X102075000Y-99399357D02*
X102160715Y-99356500D01*
X102160715Y-99356500D02*
X102246429Y-99270785D01*
X102246429Y-99270785D02*
X102289286Y-99099357D01*
X102289286Y-99099357D02*
X102289286Y-98799357D01*
X102289286Y-98799357D02*
X102246429Y-98627928D01*
X102246429Y-98627928D02*
X102160715Y-98542214D01*
X102160715Y-98542214D02*
X102075000Y-98499357D01*
X101303572Y-99313642D02*
X101260715Y-99356500D01*
X101260715Y-99356500D02*
X101303572Y-99399357D01*
X101303572Y-99399357D02*
X101346429Y-99356500D01*
X101346429Y-99356500D02*
X101303572Y-99313642D01*
X101303572Y-99313642D02*
X101303572Y-99399357D01*
X101303572Y-98842214D02*
X101260715Y-98885071D01*
X101260715Y-98885071D02*
X101303572Y-98927928D01*
X101303572Y-98927928D02*
X101346429Y-98885071D01*
X101346429Y-98885071D02*
X101303572Y-98842214D01*
X101303572Y-98842214D02*
X101303572Y-98927928D01*
X104689285Y-99957357D02*
X104175000Y-99957357D01*
X104432142Y-100857357D02*
X104432142Y-99957357D01*
X103960714Y-99957357D02*
X103360714Y-100857357D01*
X103360714Y-99957357D02*
X103960714Y-100857357D01*
X103017857Y-100771642D02*
X102975000Y-100814500D01*
X102975000Y-100814500D02*
X103017857Y-100857357D01*
X103017857Y-100857357D02*
X103060714Y-100814500D01*
X103060714Y-100814500D02*
X103017857Y-100771642D01*
X103017857Y-100771642D02*
X103017857Y-100857357D01*
X103017857Y-100300214D02*
X102975000Y-100343071D01*
X102975000Y-100343071D02*
X103017857Y-100385928D01*
X103017857Y-100385928D02*
X103060714Y-100343071D01*
X103060714Y-100343071D02*
X103017857Y-100300214D01*
X103017857Y-100300214D02*
X103017857Y-100385928D01*
X104046428Y-102315357D02*
X104346428Y-101886785D01*
X104560714Y-102315357D02*
X104560714Y-101415357D01*
X104560714Y-101415357D02*
X104217857Y-101415357D01*
X104217857Y-101415357D02*
X104132142Y-101458214D01*
X104132142Y-101458214D02*
X104089285Y-101501071D01*
X104089285Y-101501071D02*
X104046428Y-101586785D01*
X104046428Y-101586785D02*
X104046428Y-101715357D01*
X104046428Y-101715357D02*
X104089285Y-101801071D01*
X104089285Y-101801071D02*
X104132142Y-101843928D01*
X104132142Y-101843928D02*
X104217857Y-101886785D01*
X104217857Y-101886785D02*
X104560714Y-101886785D01*
X103746428Y-101415357D02*
X103146428Y-102315357D01*
X103146428Y-101415357D02*
X103746428Y-102315357D01*
X102803571Y-102229642D02*
X102760714Y-102272500D01*
X102760714Y-102272500D02*
X102803571Y-102315357D01*
X102803571Y-102315357D02*
X102846428Y-102272500D01*
X102846428Y-102272500D02*
X102803571Y-102229642D01*
X102803571Y-102229642D02*
X102803571Y-102315357D01*
X102803571Y-101758214D02*
X102760714Y-101801071D01*
X102760714Y-101801071D02*
X102803571Y-101843928D01*
X102803571Y-101843928D02*
X102846428Y-101801071D01*
X102846428Y-101801071D02*
X102803571Y-101758214D01*
X102803571Y-101758214D02*
X102803571Y-101843928D01*
D12*
%TO.C,UEXT*%
X103856619Y-66857762D02*
X104666142Y-66857762D01*
X104666142Y-66857762D02*
X104761380Y-66905381D01*
X104761380Y-66905381D02*
X104809000Y-66953000D01*
X104809000Y-66953000D02*
X104856619Y-67048238D01*
X104856619Y-67048238D02*
X104856619Y-67238714D01*
X104856619Y-67238714D02*
X104809000Y-67333952D01*
X104809000Y-67333952D02*
X104761380Y-67381571D01*
X104761380Y-67381571D02*
X104666142Y-67429190D01*
X104666142Y-67429190D02*
X103856619Y-67429190D01*
X104332809Y-67905381D02*
X104332809Y-68238714D01*
X104856619Y-68381571D02*
X104856619Y-67905381D01*
X104856619Y-67905381D02*
X103856619Y-67905381D01*
X103856619Y-67905381D02*
X103856619Y-68381571D01*
X103856619Y-68714905D02*
X104856619Y-69381571D01*
X103856619Y-69381571D02*
X104856619Y-68714905D01*
X103856619Y-69619667D02*
X103856619Y-70191095D01*
X104856619Y-69905381D02*
X103856619Y-69905381D01*
D13*
X91940000Y-62376000D02*
X91440000Y-63376000D01*
X90940000Y-62376000D02*
X91940000Y-62376000D01*
X91440000Y-63376000D02*
X90940000Y-62376000D01*
X106810000Y-63766000D02*
X86230000Y-63766000D01*
X94470000Y-63766000D02*
X94470000Y-65076000D01*
X86230000Y-63766000D02*
X86230000Y-72886000D01*
X105510000Y-65076000D02*
X98570000Y-65076000D01*
X98570000Y-65076000D02*
X98570000Y-63766000D01*
X98570000Y-65076000D02*
X98570000Y-65076000D01*
X94470000Y-65076000D02*
X87530000Y-65076000D01*
X87530000Y-65076000D02*
X87530000Y-71576000D01*
X105510000Y-71576000D02*
X105510000Y-65076000D01*
X87530000Y-71576000D02*
X105510000Y-71576000D01*
X106810000Y-72886000D02*
X106810000Y-63766000D01*
X86230000Y-72886000D02*
X106810000Y-72886000D01*
%TD*%
M02*
