%TF.GenerationSoftware,KiCad,Pcbnew,7.0.1-0*%
%TF.CreationDate,2023-08-23T15:06:01+02:00*%
%TF.ProjectId,ESP32SomfyPOE_rotated,45535033-3253-46f6-9d66-79504f455f72,rev?*%
%TF.SameCoordinates,Original*%
%TF.FileFunction,Copper,L2,Bot*%
%TF.FilePolarity,Positive*%
%FSLAX46Y46*%
G04 Gerber Fmt 4.6, Leading zero omitted, Abs format (unit mm)*
G04 Created by KiCad (PCBNEW 7.0.1-0) date 2023-08-23 15:06:01*
%MOMM*%
%LPD*%
G01*
G04 APERTURE LIST*
G04 Aperture macros list*
%AMRoundRect*
0 Rectangle with rounded corners*
0 $1 Rounding radius*
0 $2 $3 $4 $5 $6 $7 $8 $9 X,Y pos of 4 corners*
0 Add a 4 corners polygon primitive as box body*
4,1,4,$2,$3,$4,$5,$6,$7,$8,$9,$2,$3,0*
0 Add four circle primitives for the rounded corners*
1,1,$1+$1,$2,$3*
1,1,$1+$1,$4,$5*
1,1,$1+$1,$6,$7*
1,1,$1+$1,$8,$9*
0 Add four rect primitives between the rounded corners*
20,1,$1+$1,$2,$3,$4,$5,0*
20,1,$1+$1,$4,$5,$6,$7,0*
20,1,$1+$1,$6,$7,$8,$9,0*
20,1,$1+$1,$8,$9,$2,$3,0*%
G04 Aperture macros list end*
%TA.AperFunction,ComponentPad*%
%ADD10C,1.700000*%
%TD*%
%TA.AperFunction,ComponentPad*%
%ADD11RoundRect,0.425000X-0.425000X0.425000X-0.425000X-0.425000X0.425000X-0.425000X0.425000X0.425000X0*%
%TD*%
%TA.AperFunction,ViaPad*%
%ADD12C,0.800000*%
%TD*%
%TA.AperFunction,Conductor*%
%ADD13C,0.250000*%
%TD*%
G04 APERTURE END LIST*
D10*
%TO.P,UEXT,1,3V3*%
%TO.N,+3V3*%
X101600000Y-67056000D03*
D11*
%TO.P,UEXT,2,GND*%
%TO.N,GND*%
X101600000Y-69596000D03*
D10*
%TO.P,UEXT,3,TXD*%
%TO.N,GPIO4*%
X99060000Y-67056000D03*
%TO.P,UEXT,4,RXD*%
%TO.N,GPI36*%
X99060000Y-69596000D03*
%TO.P,UEXT,5,SCL*%
%TO.N,GPIO16*%
X96520000Y-67056000D03*
%TO.P,UEXT,6,SDA*%
%TO.N,GPIO13*%
X96520000Y-69596000D03*
%TO.P,UEXT,7,MISO*%
%TO.N,GPIO15*%
X93980000Y-67056000D03*
%TO.P,UEXT,8,MOSI*%
%TO.N,GPIO2*%
X93980000Y-69596000D03*
%TO.P,UEXT,9,SCK*%
%TO.N,GPIO14*%
X91440000Y-67056000D03*
%TO.P,UEXT,10,~{SSEL}*%
%TO.N,GPIO5*%
X91440000Y-69596000D03*
%TD*%
D12*
%TO.N,GND*%
X89662000Y-78613000D03*
X88646000Y-101219000D03*
X89662000Y-92583000D03*
X89662000Y-102235000D03*
X88646000Y-77597000D03*
X88646000Y-78613000D03*
X88646000Y-91567000D03*
X88646000Y-102235000D03*
X88646000Y-92583000D03*
X91948000Y-71628000D03*
X89662000Y-91567000D03*
X89662000Y-101219000D03*
X89662000Y-77597000D03*
%TO.N,GPIO14*%
X100457000Y-71501000D03*
%TO.N,GPI36*%
X93980000Y-71882000D03*
%TD*%
D13*
%TO.N,GPIO14*%
X99473000Y-68231000D02*
X92615000Y-68231000D01*
X100457000Y-71501000D02*
X100425000Y-71469000D01*
X100425000Y-71469000D02*
X100425000Y-69183000D01*
X100425000Y-69183000D02*
X99473000Y-68231000D01*
X92615000Y-68231000D02*
X91440000Y-67056000D01*
%TO.N,GPI36*%
X93980000Y-71882000D02*
X96774000Y-71882000D01*
X96774000Y-71882000D02*
X99060000Y-69596000D01*
%TD*%
%TA.AperFunction,Conductor*%
%TO.N,GND*%
G36*
X105642350Y-63353817D02*
G01*
X105646769Y-63354065D01*
X105754342Y-63360105D01*
X105924411Y-63370391D01*
X105937639Y-63371910D01*
X106070124Y-63394420D01*
X106071275Y-63394623D01*
X106217419Y-63421404D01*
X106229332Y-63424204D01*
X106362482Y-63462563D01*
X106364801Y-63463258D01*
X106502476Y-63506159D01*
X106512982Y-63509963D01*
X106642527Y-63563622D01*
X106645802Y-63565036D01*
X106775697Y-63623497D01*
X106784745Y-63628024D01*
X106840011Y-63658568D01*
X106908160Y-63696233D01*
X106912315Y-63698635D01*
X107033402Y-63771834D01*
X107040973Y-63776799D01*
X107156372Y-63858679D01*
X107161055Y-63862173D01*
X107272076Y-63949153D01*
X107278223Y-63954297D01*
X107327527Y-63998358D01*
X107383850Y-64048691D01*
X107388904Y-64053470D01*
X107488528Y-64153094D01*
X107493307Y-64158148D01*
X107587695Y-64263768D01*
X107592845Y-64269922D01*
X107679825Y-64380943D01*
X107683330Y-64385641D01*
X107711179Y-64424890D01*
X107765194Y-64501018D01*
X107770173Y-64508611D01*
X107813576Y-64580408D01*
X107843355Y-64629670D01*
X107845765Y-64633838D01*
X107913969Y-64757243D01*
X107918511Y-64766322D01*
X107976935Y-64896135D01*
X107978400Y-64899527D01*
X108032028Y-65028998D01*
X108035848Y-65039548D01*
X108078695Y-65177048D01*
X108079463Y-65179610D01*
X108084167Y-65195938D01*
X108117725Y-65312422D01*
X108117786Y-65312632D01*
X108120601Y-65324609D01*
X108147338Y-65470515D01*
X108147617Y-65472096D01*
X108170084Y-65604332D01*
X108171610Y-65617616D01*
X108181882Y-65787464D01*
X108181913Y-65787998D01*
X108188161Y-65899262D01*
X108188353Y-65907003D01*
X107934698Y-105751718D01*
X107934371Y-105753325D01*
X107934371Y-105799638D01*
X107934176Y-105806593D01*
X107927637Y-105922997D01*
X107927607Y-105923510D01*
X107917673Y-106088160D01*
X107916146Y-106101464D01*
X107892937Y-106238052D01*
X107892658Y-106239633D01*
X107866725Y-106381137D01*
X107863910Y-106393112D01*
X107824798Y-106528870D01*
X107824029Y-106531434D01*
X107782051Y-106666141D01*
X107778227Y-106676703D01*
X107723731Y-106808265D01*
X107722245Y-106811703D01*
X107664791Y-106939358D01*
X107660243Y-106948448D01*
X107591117Y-107073520D01*
X107588706Y-107077689D01*
X107516562Y-107197028D01*
X107511574Y-107204634D01*
X107428695Y-107321437D01*
X107425177Y-107326154D01*
X107339344Y-107435709D01*
X107334193Y-107441863D01*
X107238682Y-107548738D01*
X107233903Y-107553792D01*
X107135548Y-107652145D01*
X107130495Y-107656923D01*
X107023625Y-107752427D01*
X107017470Y-107757579D01*
X106907905Y-107843415D01*
X106903188Y-107846933D01*
X106786409Y-107929791D01*
X106778802Y-107934779D01*
X106659434Y-108006937D01*
X106655266Y-108009347D01*
X106530200Y-108078467D01*
X106521111Y-108083015D01*
X106393467Y-108140462D01*
X106390027Y-108141948D01*
X106258456Y-108196444D01*
X106247894Y-108200268D01*
X106113190Y-108242242D01*
X106110628Y-108243010D01*
X105974854Y-108282125D01*
X105962877Y-108284940D01*
X105821368Y-108310871D01*
X105819786Y-108311150D01*
X105683188Y-108334356D01*
X105669906Y-108335882D01*
X105512328Y-108345412D01*
X105511795Y-108345443D01*
X105387436Y-108352427D01*
X105380483Y-108352622D01*
X87553481Y-108352622D01*
X87546528Y-108352427D01*
X87436561Y-108346251D01*
X87436018Y-108346219D01*
X87264310Y-108335820D01*
X87251035Y-108334295D01*
X87120628Y-108312138D01*
X87119047Y-108311859D01*
X86971272Y-108284778D01*
X86959296Y-108281963D01*
X86827511Y-108243996D01*
X86824950Y-108243228D01*
X86686203Y-108199994D01*
X86675640Y-108196169D01*
X86547111Y-108142931D01*
X86543672Y-108141446D01*
X86412968Y-108082621D01*
X86403878Y-108078073D01*
X86281215Y-108010280D01*
X86277047Y-108007869D01*
X86155255Y-107934244D01*
X86147649Y-107929257D01*
X86120963Y-107910322D01*
X86032902Y-107847840D01*
X86028210Y-107844341D01*
X85959362Y-107790402D01*
X85916535Y-107756849D01*
X85910382Y-107751698D01*
X85805341Y-107657829D01*
X85800286Y-107653051D01*
X85700064Y-107552830D01*
X85695302Y-107547793D01*
X85601408Y-107442727D01*
X85596261Y-107436577D01*
X85553887Y-107382492D01*
X85508766Y-107324899D01*
X85505276Y-107320220D01*
X85423850Y-107205461D01*
X85418864Y-107197857D01*
X85346218Y-107077689D01*
X85345241Y-107076073D01*
X85342842Y-107071924D01*
X85275029Y-106949227D01*
X85270481Y-106940137D01*
X85270130Y-106939358D01*
X85211667Y-106809460D01*
X85210202Y-106806070D01*
X85156930Y-106677463D01*
X85153112Y-106666915D01*
X85109879Y-106528180D01*
X85109126Y-106525671D01*
X85071135Y-106393804D01*
X85068327Y-106381860D01*
X85041225Y-106233973D01*
X85040984Y-106232609D01*
X85018806Y-106102086D01*
X85017285Y-106088843D01*
X85006678Y-105913509D01*
X85006655Y-105913110D01*
X85000695Y-105806994D01*
X85000500Y-105800041D01*
X85000500Y-69596000D01*
X90084340Y-69596000D01*
X90104936Y-69831407D01*
X90149709Y-69998501D01*
X90166097Y-70059663D01*
X90265965Y-70273830D01*
X90401505Y-70467401D01*
X90568599Y-70634495D01*
X90762170Y-70770035D01*
X90976337Y-70869903D01*
X91204592Y-70931063D01*
X91440000Y-70951659D01*
X91675408Y-70931063D01*
X91903663Y-70869903D01*
X92117830Y-70770035D01*
X92311401Y-70634495D01*
X92478495Y-70467401D01*
X92608426Y-70281839D01*
X92652743Y-70242975D01*
X92710000Y-70228964D01*
X92767257Y-70242975D01*
X92811573Y-70281839D01*
X92941505Y-70467401D01*
X93108599Y-70634495D01*
X93302170Y-70770035D01*
X93516337Y-70869903D01*
X93516340Y-70869904D01*
X93525144Y-70874009D01*
X93569375Y-70908689D01*
X93593751Y-70959334D01*
X93593265Y-71015538D01*
X93568015Y-71065754D01*
X93537069Y-71089164D01*
X93537813Y-71090188D01*
X93374129Y-71209110D01*
X93247466Y-71349783D01*
X93152820Y-71513715D01*
X93094326Y-71693742D01*
X93074540Y-71881999D01*
X93094326Y-72070257D01*
X93152820Y-72250284D01*
X93247466Y-72414216D01*
X93374129Y-72554889D01*
X93527269Y-72666151D01*
X93700197Y-72743144D01*
X93885352Y-72782500D01*
X93885354Y-72782500D01*
X94074646Y-72782500D01*
X94074648Y-72782500D01*
X94198083Y-72756262D01*
X94259803Y-72743144D01*
X94432730Y-72666151D01*
X94585871Y-72554888D01*
X94591598Y-72548526D01*
X94633312Y-72518220D01*
X94683747Y-72507500D01*
X96691256Y-72507500D01*
X96711762Y-72509764D01*
X96714665Y-72509672D01*
X96714667Y-72509673D01*
X96781872Y-72507561D01*
X96785768Y-72507500D01*
X96813349Y-72507500D01*
X96813350Y-72507500D01*
X96817319Y-72506998D01*
X96828965Y-72506080D01*
X96872627Y-72504709D01*
X96891859Y-72499120D01*
X96910918Y-72495174D01*
X96917196Y-72494381D01*
X96930792Y-72492664D01*
X96971407Y-72476582D01*
X96982444Y-72472803D01*
X97024390Y-72460618D01*
X97041629Y-72450422D01*
X97059102Y-72441862D01*
X97077732Y-72434486D01*
X97113064Y-72408814D01*
X97122830Y-72402400D01*
X97160418Y-72380171D01*
X97160417Y-72380171D01*
X97160420Y-72380170D01*
X97174585Y-72366004D01*
X97189373Y-72353373D01*
X97205587Y-72341594D01*
X97233438Y-72307926D01*
X97241279Y-72299309D01*
X98604353Y-70936235D01*
X98659939Y-70904143D01*
X98724126Y-70904143D01*
X98824592Y-70931063D01*
X99060000Y-70951659D01*
X99295408Y-70931063D01*
X99523663Y-70869903D01*
X99523663Y-70869902D01*
X99534142Y-70867095D01*
X99534616Y-70868865D01*
X99581184Y-70860232D01*
X99640071Y-70879933D01*
X99682023Y-70925713D01*
X99696520Y-70986092D01*
X99679926Y-71045930D01*
X99629820Y-71132715D01*
X99571326Y-71312742D01*
X99551540Y-71501000D01*
X99571326Y-71689257D01*
X99629820Y-71869284D01*
X99724466Y-72033216D01*
X99851129Y-72173889D01*
X100004269Y-72285151D01*
X100177197Y-72362144D01*
X100362352Y-72401500D01*
X100362354Y-72401500D01*
X100551646Y-72401500D01*
X100551648Y-72401500D01*
X100718605Y-72366012D01*
X100736803Y-72362144D01*
X100909730Y-72285151D01*
X101062871Y-72173888D01*
X101189533Y-72033216D01*
X101284179Y-71869284D01*
X101342674Y-71689256D01*
X101362460Y-71501000D01*
X101342674Y-71312744D01*
X101284179Y-71132716D01*
X101284179Y-71132715D01*
X101283766Y-71132000D01*
X101282915Y-71128827D01*
X101280152Y-71120321D01*
X101280597Y-71120176D01*
X101267153Y-71070000D01*
X101283766Y-71008000D01*
X101329153Y-70962613D01*
X101334936Y-70961063D01*
X101350000Y-70946000D01*
X101350000Y-69846000D01*
X101850000Y-69846000D01*
X101850000Y-70946000D01*
X102089735Y-70946000D01*
X102170498Y-70939643D01*
X102358315Y-70889318D01*
X102531566Y-70801042D01*
X102682675Y-70678675D01*
X102805042Y-70527566D01*
X102893318Y-70354315D01*
X102943643Y-70166498D01*
X102950000Y-70085735D01*
X102950000Y-69846000D01*
X101850000Y-69846000D01*
X101350000Y-69846000D01*
X101350000Y-69470000D01*
X101366613Y-69408000D01*
X101412000Y-69362613D01*
X101474000Y-69346000D01*
X102950000Y-69346000D01*
X102950000Y-69106265D01*
X102943643Y-69025501D01*
X102893318Y-68837684D01*
X102805042Y-68664433D01*
X102682675Y-68513324D01*
X102531566Y-68390957D01*
X102435554Y-68342037D01*
X102388447Y-68299992D01*
X102368151Y-68240201D01*
X102379929Y-68178168D01*
X102420723Y-68129979D01*
X102471401Y-68094495D01*
X102638495Y-67927401D01*
X102774035Y-67733830D01*
X102873903Y-67519663D01*
X102935063Y-67291408D01*
X102955659Y-67056000D01*
X102935063Y-66820592D01*
X102873903Y-66592337D01*
X102774035Y-66378171D01*
X102638495Y-66184599D01*
X102471401Y-66017505D01*
X102277830Y-65881965D01*
X102063663Y-65782097D01*
X101980777Y-65759888D01*
X101835407Y-65720936D01*
X101600000Y-65700340D01*
X101364592Y-65720936D01*
X101136336Y-65782097D01*
X100922170Y-65881965D01*
X100728598Y-66017505D01*
X100561505Y-66184598D01*
X100431575Y-66370159D01*
X100387257Y-66409025D01*
X100330000Y-66423036D01*
X100272743Y-66409025D01*
X100228425Y-66370159D01*
X100098494Y-66184598D01*
X99931404Y-66017508D01*
X99931401Y-66017505D01*
X99737830Y-65881965D01*
X99523663Y-65782097D01*
X99440777Y-65759888D01*
X99295407Y-65720936D01*
X99060000Y-65700340D01*
X98824592Y-65720936D01*
X98596336Y-65782097D01*
X98382170Y-65881965D01*
X98188598Y-66017505D01*
X98021505Y-66184598D01*
X97891575Y-66370159D01*
X97847257Y-66409025D01*
X97790000Y-66423036D01*
X97732743Y-66409025D01*
X97688425Y-66370159D01*
X97558494Y-66184598D01*
X97391404Y-66017508D01*
X97391401Y-66017505D01*
X97197830Y-65881965D01*
X96983663Y-65782097D01*
X96900777Y-65759888D01*
X96755407Y-65720936D01*
X96520000Y-65700340D01*
X96284592Y-65720936D01*
X96056336Y-65782097D01*
X95842170Y-65881965D01*
X95648598Y-66017505D01*
X95481505Y-66184598D01*
X95351575Y-66370159D01*
X95307257Y-66409025D01*
X95250000Y-66423036D01*
X95192743Y-66409025D01*
X95148425Y-66370159D01*
X95018494Y-66184598D01*
X94851404Y-66017508D01*
X94851401Y-66017505D01*
X94657830Y-65881965D01*
X94443663Y-65782097D01*
X94360777Y-65759888D01*
X94215407Y-65720936D01*
X93980000Y-65700340D01*
X93744592Y-65720936D01*
X93516336Y-65782097D01*
X93302170Y-65881965D01*
X93108598Y-66017505D01*
X92941505Y-66184598D01*
X92811575Y-66370159D01*
X92767257Y-66409025D01*
X92710000Y-66423036D01*
X92652743Y-66409025D01*
X92608425Y-66370159D01*
X92478494Y-66184598D01*
X92311404Y-66017508D01*
X92311401Y-66017505D01*
X92117830Y-65881965D01*
X91903663Y-65782097D01*
X91820777Y-65759888D01*
X91675407Y-65720936D01*
X91440000Y-65700340D01*
X91204592Y-65720936D01*
X90976336Y-65782097D01*
X90762170Y-65881965D01*
X90568598Y-66017505D01*
X90401505Y-66184598D01*
X90265965Y-66378170D01*
X90166097Y-66592336D01*
X90104936Y-66820592D01*
X90084340Y-67056000D01*
X90104936Y-67291407D01*
X90149709Y-67458502D01*
X90166097Y-67519663D01*
X90265965Y-67733830D01*
X90401505Y-67927401D01*
X90568599Y-68094495D01*
X90754160Y-68224426D01*
X90793024Y-68268743D01*
X90807035Y-68326000D01*
X90793024Y-68383257D01*
X90754159Y-68427575D01*
X90568595Y-68557508D01*
X90401505Y-68724598D01*
X90265965Y-68918170D01*
X90166097Y-69132336D01*
X90104936Y-69360592D01*
X90084340Y-69596000D01*
X85000500Y-69596000D01*
X85000500Y-65906599D01*
X85000695Y-65899649D01*
X85001688Y-65881964D01*
X85006878Y-65789530D01*
X85017300Y-65617406D01*
X85018822Y-65604161D01*
X85041018Y-65473523D01*
X85041214Y-65472409D01*
X85068341Y-65324374D01*
X85071145Y-65312445D01*
X85109163Y-65180479D01*
X85109878Y-65178096D01*
X85153120Y-65039327D01*
X85156932Y-65028794D01*
X85210249Y-64900073D01*
X85211634Y-64896869D01*
X85270503Y-64766066D01*
X85275034Y-64757010D01*
X85342855Y-64634295D01*
X85345205Y-64630232D01*
X85418889Y-64508342D01*
X85423843Y-64500785D01*
X85505279Y-64386011D01*
X85508776Y-64381325D01*
X85596299Y-64269608D01*
X85601353Y-64263569D01*
X85695343Y-64158392D01*
X85700019Y-64153447D01*
X85800323Y-64053142D01*
X85805286Y-64048450D01*
X85910419Y-63954496D01*
X85916518Y-63949391D01*
X86028237Y-63861865D01*
X86032863Y-63858414D01*
X86147690Y-63776940D01*
X86155211Y-63772007D01*
X86277094Y-63698326D01*
X86281165Y-63695972D01*
X86403909Y-63628134D01*
X86412933Y-63623618D01*
X86543727Y-63564752D01*
X86547016Y-63563332D01*
X86675672Y-63510040D01*
X86686186Y-63506233D01*
X86825053Y-63462961D01*
X86827348Y-63462272D01*
X86959330Y-63424248D01*
X86971239Y-63421449D01*
X87119204Y-63394333D01*
X87120409Y-63394120D01*
X87251046Y-63371924D01*
X87264277Y-63370404D01*
X87439481Y-63359807D01*
X87439832Y-63359786D01*
X87546125Y-63353817D01*
X87553079Y-63353622D01*
X105635400Y-63353622D01*
X105642350Y-63353817D01*
G37*
%TD.AperFunction*%
%TD*%
M02*
