%TF.GenerationSoftware,KiCad,Pcbnew,7.0.1-0*%
%TF.CreationDate,2023-08-23T15:06:01+02:00*%
%TF.ProjectId,ESP32SomfyPOE_rotated,45535033-3253-46f6-9d66-79504f455f72,rev?*%
%TF.SameCoordinates,Original*%
%TF.FileFunction,Copper,L1,Top*%
%TF.FilePolarity,Positive*%
%FSLAX46Y46*%
G04 Gerber Fmt 4.6, Leading zero omitted, Abs format (unit mm)*
G04 Created by KiCad (PCBNEW 7.0.1-0) date 2023-08-23 15:06:01*
%MOMM*%
%LPD*%
G01*
G04 APERTURE LIST*
G04 Aperture macros list*
%AMRoundRect*
0 Rectangle with rounded corners*
0 $1 Rounding radius*
0 $2 $3 $4 $5 $6 $7 $8 $9 X,Y pos of 4 corners*
0 Add a 4 corners polygon primitive as box body*
4,1,4,$2,$3,$4,$5,$6,$7,$8,$9,$2,$3,0*
0 Add four circle primitives for the rounded corners*
1,1,$1+$1,$2,$3*
1,1,$1+$1,$4,$5*
1,1,$1+$1,$6,$7*
1,1,$1+$1,$8,$9*
0 Add four rect primitives between the rounded corners*
20,1,$1+$1,$2,$3,$4,$5,0*
20,1,$1+$1,$4,$5,$6,$7,0*
20,1,$1+$1,$6,$7,$8,$9,0*
20,1,$1+$1,$8,$9,$2,$3,0*%
G04 Aperture macros list end*
%TA.AperFunction,SMDPad,CuDef*%
%ADD10RoundRect,0.225000X0.225000X1.025000X-0.225000X1.025000X-0.225000X-1.025000X0.225000X-1.025000X0*%
%TD*%
%TA.AperFunction,SMDPad,CuDef*%
%ADD11RoundRect,0.425000X0.425000X1.575000X-0.425000X1.575000X-0.425000X-1.575000X0.425000X-1.575000X0*%
%TD*%
%TA.AperFunction,SMDPad,CuDef*%
%ADD12RoundRect,0.425000X0.425000X0.825000X-0.425000X0.825000X-0.425000X-0.825000X0.425000X-0.825000X0*%
%TD*%
%TA.AperFunction,ComponentPad*%
%ADD13C,1.700000*%
%TD*%
%TA.AperFunction,ComponentPad*%
%ADD14RoundRect,0.425000X-0.425000X0.425000X-0.425000X-0.425000X0.425000X-0.425000X0.425000X0.425000X0*%
%TD*%
%TA.AperFunction,ViaPad*%
%ADD15C,0.800000*%
%TD*%
%TA.AperFunction,Conductor*%
%ADD16C,0.250000*%
%TD*%
G04 APERTURE END LIST*
D10*
%TO.P,E07-433M20S,1,GND*%
%TO.N,GND*%
X103505000Y-74168000D03*
%TO.P,E07-433M20S,2,MOSI*%
%TO.N,GPIO15*%
X102235000Y-74168000D03*
%TO.P,E07-433M20S,3,SCK*%
%TO.N,GPIO14*%
X100965000Y-74168000D03*
%TO.P,E07-433M20S,4,MISO*%
%TO.N,GPIO16*%
X99695000Y-74168000D03*
%TO.P,E07-433M20S,5,GDO2*%
%TO.N,unconnected-(U1-GDO2-Pad5)*%
X98425000Y-74168000D03*
%TO.P,E07-433M20S,6,GDO0*%
%TO.N,unconnected-(U1-GDO0-Pad6)*%
X97155000Y-74168000D03*
%TO.P,E07-433M20S,7,CSN*%
%TO.N,GPIO13*%
X95885000Y-74168000D03*
%TO.P,E07-433M20S,8,TX_EN*%
%TO.N,GPIO4*%
X94615000Y-74168000D03*
%TO.P,E07-433M20S,9,RX_EN*%
%TO.N,GPI36*%
X93345000Y-74168000D03*
%TO.P,E07-433M20S,10,NC*%
%TO.N,unconnected-(U1-NC-Pad10)*%
X92075000Y-74168000D03*
%TO.P,E07-433M20S,11,VCC*%
%TO.N,+3V3*%
X90805000Y-74168000D03*
%TO.P,E07-433M20S,12,GND*%
%TO.N,GND*%
X89535000Y-74168000D03*
D11*
%TO.P,E07-433M20S,13,ANT*%
%TO.N,unconnected-(U1-ANT-Pad13)*%
X92515000Y-105418000D03*
D12*
%TO.P,E07-433M20S,14,GND*%
%TO.N,GND*%
X94515000Y-106168000D03*
%TO.P,E07-433M20S,15,GND*%
X98515000Y-106168000D03*
%TO.P,E07-433M20S,16,GND*%
X100515000Y-106168000D03*
%TD*%
D13*
%TO.P,UEXT,1,3V3*%
%TO.N,+3V3*%
X101600000Y-67056000D03*
D14*
%TO.P,UEXT,2,GND*%
%TO.N,GND*%
X101600000Y-69596000D03*
D13*
%TO.P,UEXT,3,TXD*%
%TO.N,GPIO4*%
X99060000Y-67056000D03*
%TO.P,UEXT,4,RXD*%
%TO.N,GPI36*%
X99060000Y-69596000D03*
%TO.P,UEXT,5,SCL*%
%TO.N,GPIO16*%
X96520000Y-67056000D03*
%TO.P,UEXT,6,SDA*%
%TO.N,GPIO13*%
X96520000Y-69596000D03*
%TO.P,UEXT,7,MISO*%
%TO.N,GPIO15*%
X93980000Y-67056000D03*
%TO.P,UEXT,8,MOSI*%
%TO.N,GPIO2*%
X93980000Y-69596000D03*
%TO.P,UEXT,9,SCK*%
%TO.N,GPIO14*%
X91440000Y-67056000D03*
%TO.P,UEXT,10,~{SSEL}*%
%TO.N,GPIO5*%
X91440000Y-69596000D03*
%TD*%
D15*
%TO.N,GND*%
X89662000Y-78613000D03*
X88646000Y-101219000D03*
X89662000Y-92583000D03*
X89662000Y-102235000D03*
X88646000Y-77597000D03*
X88646000Y-78613000D03*
X88646000Y-91567000D03*
X88646000Y-102235000D03*
X88646000Y-92583000D03*
X91948000Y-71628000D03*
X89662000Y-91567000D03*
X89662000Y-101219000D03*
X89662000Y-77597000D03*
%TO.N,GPIO14*%
X100457000Y-71501000D03*
%TO.N,GPI36*%
X93980000Y-71882000D03*
%TD*%
D16*
%TO.N,GND*%
X94515000Y-106168000D02*
X98515000Y-106168000D01*
X100515000Y-106168000D02*
X98515000Y-106168000D01*
X103505000Y-74168000D02*
X103505000Y-71501000D01*
X89535000Y-74168000D02*
X89535000Y-74925817D01*
X103505000Y-71501000D02*
X101600000Y-69596000D01*
X90352183Y-75743000D02*
X102692000Y-75743000D01*
X102692000Y-75743000D02*
X103505000Y-74930000D01*
X89535000Y-74925817D02*
X90352183Y-75743000D01*
X103505000Y-74930000D02*
X103505000Y-74168000D01*
X100515000Y-106168000D02*
X103505000Y-103178000D01*
X103505000Y-103178000D02*
X103505000Y-74168000D01*
%TO.N,GPIO15*%
X102235000Y-74168000D02*
X102235000Y-72141660D01*
X95605000Y-65431000D02*
X93980000Y-67056000D01*
X102235000Y-72141660D02*
X100235000Y-70141660D01*
X100235000Y-66569299D02*
X99096701Y-65431000D01*
X99096701Y-65431000D02*
X95605000Y-65431000D01*
X100235000Y-70141660D02*
X100235000Y-66569299D01*
%TO.N,GPIO14*%
X100965000Y-74168000D02*
X100965000Y-72009000D01*
X100965000Y-72009000D02*
X100457000Y-71501000D01*
%TO.N,GPIO16*%
X99695000Y-71892701D02*
X97790000Y-69987701D01*
X97790000Y-69987701D02*
X97790000Y-68326000D01*
X97790000Y-68326000D02*
X96520000Y-67056000D01*
X99695000Y-74168000D02*
X99695000Y-71892701D01*
%TO.N,GPIO13*%
X95885000Y-74168000D02*
X95885000Y-70231000D01*
X95885000Y-70231000D02*
X96520000Y-69596000D01*
%TO.N,GPIO4*%
X95155000Y-72231000D02*
X94615000Y-72771000D01*
X97885000Y-65881000D02*
X95917000Y-65881000D01*
X95917000Y-65881000D02*
X95155000Y-66643000D01*
X94615000Y-72771000D02*
X94615000Y-74168000D01*
X99060000Y-67056000D02*
X97885000Y-65881000D01*
X95155000Y-66643000D02*
X95155000Y-72231000D01*
%TO.N,GPI36*%
X93345000Y-72517000D02*
X93980000Y-71882000D01*
X93345000Y-74168000D02*
X93345000Y-72517000D01*
%TO.N,+3V3*%
X90265000Y-70082701D02*
X90265000Y-66453000D01*
X91737000Y-64981000D02*
X99525000Y-64981000D01*
X90805000Y-74168000D02*
X90805000Y-70622701D01*
X90265000Y-66453000D02*
X91737000Y-64981000D01*
X90805000Y-70622701D02*
X90265000Y-70082701D01*
X99525000Y-64981000D02*
X101600000Y-67056000D01*
%TD*%
%TA.AperFunction,Conductor*%
%TO.N,GND*%
G36*
X92767257Y-70242975D02*
G01*
X92811573Y-70281839D01*
X92941505Y-70467401D01*
X93108599Y-70634495D01*
X93302170Y-70770035D01*
X93516337Y-70869903D01*
X93516340Y-70869904D01*
X93525144Y-70874009D01*
X93569375Y-70908689D01*
X93593751Y-70959334D01*
X93593265Y-71015538D01*
X93568015Y-71065754D01*
X93537069Y-71089164D01*
X93537813Y-71090188D01*
X93374129Y-71209110D01*
X93247466Y-71349783D01*
X93152820Y-71513715D01*
X93094326Y-71693742D01*
X93094325Y-71693744D01*
X93094326Y-71693744D01*
X93077216Y-71856544D01*
X93076679Y-71861649D01*
X93065279Y-71902070D01*
X93041039Y-71936368D01*
X92961208Y-72016199D01*
X92945110Y-72029096D01*
X92897096Y-72080225D01*
X92894391Y-72083017D01*
X92874874Y-72102534D01*
X92872415Y-72105705D01*
X92864842Y-72114572D01*
X92834935Y-72146420D01*
X92825285Y-72163974D01*
X92814609Y-72180228D01*
X92802326Y-72196063D01*
X92784975Y-72236158D01*
X92779838Y-72246644D01*
X92758802Y-72284907D01*
X92753821Y-72304309D01*
X92747520Y-72322711D01*
X92739561Y-72341102D01*
X92734829Y-72370980D01*
X92715357Y-72420621D01*
X92676837Y-72457495D01*
X92626392Y-72474782D01*
X92573352Y-72469285D01*
X92572724Y-72469077D01*
X92537772Y-72457495D01*
X92447707Y-72427650D01*
X92353239Y-72418000D01*
X92348344Y-72417500D01*
X91801655Y-72417500D01*
X91702292Y-72427650D01*
X91643749Y-72447050D01*
X91593501Y-72463700D01*
X91535637Y-72468551D01*
X91481907Y-72446524D01*
X91444097Y-72402450D01*
X91430500Y-72345994D01*
X91430500Y-71066115D01*
X91445355Y-71007265D01*
X91486361Y-70962514D01*
X91543693Y-70942587D01*
X91651508Y-70933154D01*
X91675408Y-70931063D01*
X91903663Y-70869903D01*
X92117830Y-70770035D01*
X92311401Y-70634495D01*
X92478495Y-70467401D01*
X92608426Y-70281839D01*
X92652743Y-70242975D01*
X92710000Y-70228964D01*
X92767257Y-70242975D01*
G37*
%TD.AperFunction*%
%TA.AperFunction,Conductor*%
G36*
X105642350Y-63353817D02*
G01*
X105646769Y-63354065D01*
X105754342Y-63360105D01*
X105924411Y-63370391D01*
X105937639Y-63371910D01*
X106070124Y-63394420D01*
X106071275Y-63394623D01*
X106217419Y-63421404D01*
X106229332Y-63424204D01*
X106362482Y-63462563D01*
X106364801Y-63463258D01*
X106502476Y-63506159D01*
X106512982Y-63509963D01*
X106642527Y-63563622D01*
X106645802Y-63565036D01*
X106775697Y-63623497D01*
X106784745Y-63628024D01*
X106840011Y-63658568D01*
X106908160Y-63696233D01*
X106912315Y-63698635D01*
X107033402Y-63771834D01*
X107040973Y-63776799D01*
X107156372Y-63858679D01*
X107161055Y-63862173D01*
X107272076Y-63949153D01*
X107278223Y-63954297D01*
X107327527Y-63998358D01*
X107383850Y-64048691D01*
X107388904Y-64053470D01*
X107488528Y-64153094D01*
X107493307Y-64158148D01*
X107587695Y-64263768D01*
X107592845Y-64269922D01*
X107679825Y-64380943D01*
X107683330Y-64385641D01*
X107734403Y-64457621D01*
X107765194Y-64501018D01*
X107770173Y-64508611D01*
X107803473Y-64563696D01*
X107843355Y-64629670D01*
X107845765Y-64633838D01*
X107913969Y-64757243D01*
X107918511Y-64766322D01*
X107976935Y-64896135D01*
X107978400Y-64899527D01*
X108032028Y-65028998D01*
X108035848Y-65039548D01*
X108078695Y-65177048D01*
X108079463Y-65179610D01*
X108084167Y-65195938D01*
X108117725Y-65312422D01*
X108117786Y-65312632D01*
X108120601Y-65324609D01*
X108147338Y-65470515D01*
X108147617Y-65472096D01*
X108170084Y-65604332D01*
X108171610Y-65617616D01*
X108181882Y-65787464D01*
X108181913Y-65787998D01*
X108188161Y-65899262D01*
X108188353Y-65907003D01*
X107934698Y-105751718D01*
X107934371Y-105753325D01*
X107934371Y-105799638D01*
X107934176Y-105806593D01*
X107927637Y-105922997D01*
X107927607Y-105923510D01*
X107917673Y-106088160D01*
X107916146Y-106101464D01*
X107892937Y-106238052D01*
X107892658Y-106239633D01*
X107866725Y-106381137D01*
X107863910Y-106393112D01*
X107824798Y-106528870D01*
X107824029Y-106531434D01*
X107782051Y-106666141D01*
X107778227Y-106676703D01*
X107723731Y-106808265D01*
X107722245Y-106811703D01*
X107664791Y-106939358D01*
X107660243Y-106948448D01*
X107591117Y-107073520D01*
X107588706Y-107077689D01*
X107516562Y-107197028D01*
X107511574Y-107204634D01*
X107428695Y-107321437D01*
X107425177Y-107326154D01*
X107339344Y-107435709D01*
X107334193Y-107441863D01*
X107238682Y-107548738D01*
X107233903Y-107553792D01*
X107135548Y-107652145D01*
X107130495Y-107656923D01*
X107023625Y-107752427D01*
X107017470Y-107757579D01*
X106907905Y-107843415D01*
X106903188Y-107846933D01*
X106786409Y-107929791D01*
X106778802Y-107934779D01*
X106659434Y-108006937D01*
X106655266Y-108009347D01*
X106530200Y-108078467D01*
X106521111Y-108083015D01*
X106393467Y-108140462D01*
X106390027Y-108141948D01*
X106258456Y-108196444D01*
X106247894Y-108200268D01*
X106113190Y-108242242D01*
X106110628Y-108243010D01*
X105974854Y-108282125D01*
X105962877Y-108284940D01*
X105821368Y-108310871D01*
X105819786Y-108311150D01*
X105683188Y-108334356D01*
X105669906Y-108335882D01*
X105512328Y-108345412D01*
X105511795Y-108345443D01*
X105387436Y-108352427D01*
X105380483Y-108352622D01*
X87553481Y-108352622D01*
X87546528Y-108352427D01*
X87436561Y-108346251D01*
X87436018Y-108346219D01*
X87264310Y-108335820D01*
X87251035Y-108334295D01*
X87120628Y-108312138D01*
X87119047Y-108311859D01*
X86971272Y-108284778D01*
X86959296Y-108281963D01*
X86827511Y-108243996D01*
X86824950Y-108243228D01*
X86686203Y-108199994D01*
X86675640Y-108196169D01*
X86547111Y-108142931D01*
X86543672Y-108141446D01*
X86412968Y-108082621D01*
X86403878Y-108078073D01*
X86281215Y-108010280D01*
X86277047Y-108007869D01*
X86155255Y-107934244D01*
X86147649Y-107929257D01*
X86120963Y-107910322D01*
X86032902Y-107847840D01*
X86028210Y-107844341D01*
X85930191Y-107767548D01*
X85916535Y-107756849D01*
X85910382Y-107751698D01*
X85805341Y-107657829D01*
X85800286Y-107653051D01*
X85700064Y-107552830D01*
X85695302Y-107547793D01*
X85601408Y-107442727D01*
X85596261Y-107436577D01*
X85510016Y-107326495D01*
X85508766Y-107324899D01*
X85505276Y-107320220D01*
X85423850Y-107205461D01*
X85418864Y-107197857D01*
X85383027Y-107138577D01*
X85345241Y-107076073D01*
X85342842Y-107071924D01*
X85335023Y-107057778D01*
X91164500Y-107057778D01*
X91165739Y-107073520D01*
X91170859Y-107138577D01*
X91221211Y-107326495D01*
X91221212Y-107326496D01*
X91309535Y-107499840D01*
X91431968Y-107651032D01*
X91583160Y-107773465D01*
X91756504Y-107861788D01*
X91944422Y-107912141D01*
X92025222Y-107918500D01*
X93004775Y-107918500D01*
X93004778Y-107918500D01*
X93085578Y-107912141D01*
X93273496Y-107861788D01*
X93446840Y-107773465D01*
X93446839Y-107773465D01*
X93458453Y-107767548D01*
X93459808Y-107770208D01*
X93487557Y-107756672D01*
X93543470Y-107756725D01*
X93570396Y-107769924D01*
X93571822Y-107767126D01*
X93756684Y-107861318D01*
X93944501Y-107911643D01*
X94025265Y-107918000D01*
X95004735Y-107918000D01*
X95085498Y-107911643D01*
X95273315Y-107861318D01*
X95446566Y-107773042D01*
X95597677Y-107650674D01*
X95618457Y-107625011D01*
X95618457Y-107625010D01*
X97411540Y-107625010D01*
X97432324Y-107650675D01*
X97583433Y-107773042D01*
X97756684Y-107861318D01*
X97944501Y-107911643D01*
X98025265Y-107918000D01*
X99004735Y-107918000D01*
X99085498Y-107911643D01*
X99273315Y-107861318D01*
X99458179Y-107767126D01*
X99459545Y-107769808D01*
X99486990Y-107756390D01*
X99542783Y-107756338D01*
X99570456Y-107769804D01*
X99571821Y-107767126D01*
X99756684Y-107861318D01*
X99944501Y-107911643D01*
X100025265Y-107918000D01*
X101004735Y-107918000D01*
X101085498Y-107911643D01*
X101273315Y-107861318D01*
X101446566Y-107773042D01*
X101597677Y-107650674D01*
X101618457Y-107625011D01*
X101618457Y-107625010D01*
X100249128Y-106255681D01*
X100217034Y-106200094D01*
X100217034Y-106168001D01*
X100868553Y-106168001D01*
X101854502Y-107153949D01*
X101854503Y-107153949D01*
X101858644Y-107138500D01*
X101865000Y-107057736D01*
X101865000Y-105278264D01*
X101858643Y-105197498D01*
X101854503Y-105182048D01*
X101854502Y-105182048D01*
X100868553Y-106168000D01*
X100868553Y-106168001D01*
X100217034Y-106168001D01*
X100217034Y-106135906D01*
X100249128Y-106080319D01*
X101618458Y-104710989D01*
X101618458Y-104710988D01*
X101597675Y-104685323D01*
X101446566Y-104562957D01*
X101273315Y-104474681D01*
X101085498Y-104424356D01*
X101004735Y-104418000D01*
X100025265Y-104418000D01*
X99944501Y-104424356D01*
X99756684Y-104474681D01*
X99571822Y-104568874D01*
X99570461Y-104566204D01*
X99542746Y-104579671D01*
X99487028Y-104579619D01*
X99459540Y-104566200D01*
X99458178Y-104568874D01*
X99273315Y-104474681D01*
X99085498Y-104424356D01*
X99004735Y-104418000D01*
X98025265Y-104418000D01*
X97944501Y-104424356D01*
X97756684Y-104474681D01*
X97583433Y-104562957D01*
X97432323Y-104685324D01*
X97411541Y-104710987D01*
X97411541Y-104710988D01*
X98780871Y-106080318D01*
X98812965Y-106135905D01*
X98812965Y-106200093D01*
X98780871Y-106255680D01*
X97411541Y-107625010D01*
X97411540Y-107625010D01*
X95618457Y-107625010D01*
X94249128Y-106255681D01*
X94217034Y-106200094D01*
X94217034Y-106168001D01*
X94868553Y-106168001D01*
X95854502Y-107153949D01*
X95854503Y-107153949D01*
X95858644Y-107138500D01*
X95865000Y-107057736D01*
X95865000Y-107057735D01*
X97165000Y-107057735D01*
X97171356Y-107138499D01*
X97175495Y-107153949D01*
X97175496Y-107153949D01*
X98161447Y-106168001D01*
X98161447Y-106168000D01*
X97175496Y-105182048D01*
X97171356Y-105197499D01*
X97165000Y-105278265D01*
X97165000Y-107057735D01*
X95865000Y-107057735D01*
X95865000Y-105278264D01*
X95858643Y-105197498D01*
X95854503Y-105182048D01*
X95854502Y-105182048D01*
X94868553Y-106168000D01*
X94868553Y-106168001D01*
X94217034Y-106168001D01*
X94217034Y-106135906D01*
X94249128Y-106080319D01*
X95618458Y-104710989D01*
X95618458Y-104710988D01*
X95597675Y-104685323D01*
X95446566Y-104562957D01*
X95273315Y-104474681D01*
X95085498Y-104424356D01*
X95004735Y-104418000D01*
X94025265Y-104418000D01*
X93999229Y-104420049D01*
X93933205Y-104406916D01*
X93883773Y-104361221D01*
X93865500Y-104296431D01*
X93865500Y-103778225D01*
X93865500Y-103778222D01*
X93859141Y-103697422D01*
X93808788Y-103509504D01*
X93720465Y-103336160D01*
X93598032Y-103184968D01*
X93446840Y-103062535D01*
X93273495Y-102974211D01*
X93135929Y-102937350D01*
X93085578Y-102923859D01*
X93004778Y-102917500D01*
X92025222Y-102917500D01*
X91944422Y-102923858D01*
X91944422Y-102923859D01*
X91756504Y-102974211D01*
X91583159Y-103062535D01*
X91431968Y-103184968D01*
X91309535Y-103336159D01*
X91221211Y-103509504D01*
X91170859Y-103697421D01*
X91170859Y-103697422D01*
X91164500Y-103778222D01*
X91164500Y-107057778D01*
X85335023Y-107057778D01*
X85335000Y-107057736D01*
X85275029Y-106949227D01*
X85270481Y-106940137D01*
X85270130Y-106939358D01*
X85211667Y-106809460D01*
X85210202Y-106806070D01*
X85156930Y-106677463D01*
X85153112Y-106666915D01*
X85109879Y-106528180D01*
X85109126Y-106525671D01*
X85071135Y-106393804D01*
X85068327Y-106381860D01*
X85041225Y-106233973D01*
X85040984Y-106232609D01*
X85018806Y-106102086D01*
X85017285Y-106088843D01*
X85006678Y-105913509D01*
X85006655Y-105913110D01*
X85000695Y-105806994D01*
X85000500Y-105800041D01*
X85000500Y-75431342D01*
X88625209Y-75431342D01*
X88648454Y-75501487D01*
X88737426Y-75645732D01*
X88857267Y-75765573D01*
X89001513Y-75854546D01*
X89162393Y-75907856D01*
X89261684Y-75917999D01*
X89808314Y-75917999D01*
X89907605Y-75907856D01*
X90068484Y-75854546D01*
X90104424Y-75832378D01*
X90169522Y-75813915D01*
X90234620Y-75832377D01*
X90271300Y-75855002D01*
X90271302Y-75855002D01*
X90271303Y-75855003D01*
X90432292Y-75908349D01*
X90531655Y-75918500D01*
X91078344Y-75918499D01*
X91177708Y-75908349D01*
X91338697Y-75855003D01*
X91374900Y-75832671D01*
X91439997Y-75814209D01*
X91505095Y-75832670D01*
X91522170Y-75843202D01*
X91541303Y-75855003D01*
X91702292Y-75908349D01*
X91801655Y-75918500D01*
X92348344Y-75918499D01*
X92447708Y-75908349D01*
X92608697Y-75855003D01*
X92644900Y-75832671D01*
X92709997Y-75814209D01*
X92775095Y-75832670D01*
X92792170Y-75843202D01*
X92811303Y-75855003D01*
X92972292Y-75908349D01*
X93071655Y-75918500D01*
X93618344Y-75918499D01*
X93717708Y-75908349D01*
X93878697Y-75855003D01*
X93914900Y-75832671D01*
X93979997Y-75814209D01*
X94045095Y-75832670D01*
X94062170Y-75843202D01*
X94081303Y-75855003D01*
X94242292Y-75908349D01*
X94341655Y-75918500D01*
X94888344Y-75918499D01*
X94987708Y-75908349D01*
X95148697Y-75855003D01*
X95184900Y-75832671D01*
X95249997Y-75814209D01*
X95315095Y-75832670D01*
X95332170Y-75843202D01*
X95351303Y-75855003D01*
X95512292Y-75908349D01*
X95611655Y-75918500D01*
X96158344Y-75918499D01*
X96257708Y-75908349D01*
X96418697Y-75855003D01*
X96454900Y-75832671D01*
X96519997Y-75814209D01*
X96585095Y-75832670D01*
X96602170Y-75843202D01*
X96621303Y-75855003D01*
X96782292Y-75908349D01*
X96881655Y-75918500D01*
X97428344Y-75918499D01*
X97527708Y-75908349D01*
X97688697Y-75855003D01*
X97724900Y-75832671D01*
X97789997Y-75814209D01*
X97855095Y-75832670D01*
X97872170Y-75843202D01*
X97891303Y-75855003D01*
X98052292Y-75908349D01*
X98151655Y-75918500D01*
X98698344Y-75918499D01*
X98797708Y-75908349D01*
X98958697Y-75855003D01*
X98994900Y-75832671D01*
X99059997Y-75814209D01*
X99125095Y-75832670D01*
X99142170Y-75843202D01*
X99161303Y-75855003D01*
X99322292Y-75908349D01*
X99421655Y-75918500D01*
X99968344Y-75918499D01*
X100067708Y-75908349D01*
X100228697Y-75855003D01*
X100264900Y-75832671D01*
X100329997Y-75814209D01*
X100395095Y-75832670D01*
X100412170Y-75843202D01*
X100431303Y-75855003D01*
X100592292Y-75908349D01*
X100691655Y-75918500D01*
X101238344Y-75918499D01*
X101337708Y-75908349D01*
X101498697Y-75855003D01*
X101534900Y-75832671D01*
X101599997Y-75814209D01*
X101665095Y-75832670D01*
X101682170Y-75843202D01*
X101701303Y-75855003D01*
X101862292Y-75908349D01*
X101961655Y-75918500D01*
X102508344Y-75918499D01*
X102607708Y-75908349D01*
X102768697Y-75855003D01*
X102805380Y-75832376D01*
X102870476Y-75813915D01*
X102935574Y-75832377D01*
X102971516Y-75854546D01*
X103132393Y-75907856D01*
X103231684Y-75917999D01*
X103778314Y-75917999D01*
X103877605Y-75907856D01*
X104038486Y-75854546D01*
X104182732Y-75765573D01*
X104302571Y-75645734D01*
X104391547Y-75501481D01*
X104414788Y-75431341D01*
X103239127Y-74255680D01*
X103207033Y-74200092D01*
X103207033Y-74168000D01*
X103858553Y-74168000D01*
X104454998Y-74764446D01*
X104454999Y-74764446D01*
X104454999Y-73571553D01*
X104454998Y-73571552D01*
X103858553Y-74168000D01*
X103207033Y-74168000D01*
X103207033Y-74135905D01*
X103239127Y-74080317D01*
X103505000Y-73814446D01*
X103505000Y-73814447D01*
X104414788Y-72904658D01*
X104414788Y-72904657D01*
X104391547Y-72834518D01*
X104302571Y-72690265D01*
X104182732Y-72570426D01*
X104038486Y-72481453D01*
X103877606Y-72428143D01*
X103778315Y-72418000D01*
X103231685Y-72418000D01*
X103132393Y-72428143D01*
X103023503Y-72464226D01*
X102965637Y-72469077D01*
X102911907Y-72447050D01*
X102874097Y-72402975D01*
X102860500Y-72346520D01*
X102860500Y-72224401D01*
X102862763Y-72203897D01*
X102862019Y-72180228D01*
X102860561Y-72133805D01*
X102860500Y-72129911D01*
X102860500Y-72102317D01*
X102860500Y-72102310D01*
X102859995Y-72098313D01*
X102859080Y-72086683D01*
X102858965Y-72083017D01*
X102857709Y-72043033D01*
X102852120Y-72023800D01*
X102848174Y-72004742D01*
X102845664Y-71984868D01*
X102829588Y-71944266D01*
X102825804Y-71933212D01*
X102813619Y-71891273D01*
X102813618Y-71891272D01*
X102813618Y-71891270D01*
X102803417Y-71874021D01*
X102794860Y-71856555D01*
X102787486Y-71837928D01*
X102761813Y-71802592D01*
X102755402Y-71792832D01*
X102733169Y-71755238D01*
X102719006Y-71741075D01*
X102706369Y-71726280D01*
X102694595Y-71710074D01*
X102694594Y-71710073D01*
X102660935Y-71682228D01*
X102652305Y-71674374D01*
X102122892Y-71144961D01*
X102090798Y-71089374D01*
X102090798Y-71025186D01*
X102122892Y-70969599D01*
X102178480Y-70937505D01*
X102358314Y-70889318D01*
X102531566Y-70801042D01*
X102682675Y-70678675D01*
X102805042Y-70527566D01*
X102893318Y-70354315D01*
X102943643Y-70166498D01*
X102950000Y-70085735D01*
X102950000Y-69846000D01*
X101474000Y-69846000D01*
X101412000Y-69829387D01*
X101366613Y-69784000D01*
X101350000Y-69722000D01*
X101350000Y-69470000D01*
X101366613Y-69408000D01*
X101412000Y-69362613D01*
X101474000Y-69346000D01*
X102950000Y-69346000D01*
X102950000Y-69106265D01*
X102943643Y-69025501D01*
X102893318Y-68837684D01*
X102805042Y-68664433D01*
X102682675Y-68513324D01*
X102531566Y-68390957D01*
X102435554Y-68342037D01*
X102388447Y-68299992D01*
X102368151Y-68240201D01*
X102379929Y-68178168D01*
X102420723Y-68129979D01*
X102471401Y-68094495D01*
X102638495Y-67927401D01*
X102774035Y-67733830D01*
X102873903Y-67519663D01*
X102935063Y-67291408D01*
X102955659Y-67056000D01*
X102935063Y-66820592D01*
X102873903Y-66592337D01*
X102774035Y-66378171D01*
X102638495Y-66184599D01*
X102471401Y-66017505D01*
X102277830Y-65881965D01*
X102063663Y-65782097D01*
X101980777Y-65759888D01*
X101835407Y-65720936D01*
X101600000Y-65700340D01*
X101364591Y-65720936D01*
X101264125Y-65747855D01*
X101199939Y-65747855D01*
X101144352Y-65715761D01*
X100025802Y-64597211D01*
X100012906Y-64581113D01*
X99961775Y-64533098D01*
X99958978Y-64530387D01*
X99939470Y-64510879D01*
X99936290Y-64508412D01*
X99927424Y-64500839D01*
X99895582Y-64470938D01*
X99878024Y-64461285D01*
X99861764Y-64450604D01*
X99845936Y-64438327D01*
X99805851Y-64420980D01*
X99795361Y-64415841D01*
X99757091Y-64394802D01*
X99737691Y-64389821D01*
X99719284Y-64383519D01*
X99700897Y-64375562D01*
X99657758Y-64368729D01*
X99646324Y-64366361D01*
X99604019Y-64355500D01*
X99583984Y-64355500D01*
X99564586Y-64353973D01*
X99557162Y-64352797D01*
X99544805Y-64350840D01*
X99544804Y-64350840D01*
X99518484Y-64353328D01*
X99501325Y-64354950D01*
X99489656Y-64355500D01*
X91819740Y-64355500D01*
X91799236Y-64353236D01*
X91729144Y-64355439D01*
X91725250Y-64355500D01*
X91697648Y-64355500D01*
X91693653Y-64356004D01*
X91682029Y-64356918D01*
X91638368Y-64358290D01*
X91619129Y-64363880D01*
X91600080Y-64367825D01*
X91580208Y-64370335D01*
X91539593Y-64386415D01*
X91528549Y-64390196D01*
X91486611Y-64402382D01*
X91469364Y-64412581D01*
X91451900Y-64421136D01*
X91433267Y-64428514D01*
X91397926Y-64454189D01*
X91388168Y-64460599D01*
X91350579Y-64482829D01*
X91336410Y-64496998D01*
X91321622Y-64509628D01*
X91305413Y-64521405D01*
X91277572Y-64555058D01*
X91269711Y-64563696D01*
X89881208Y-65952199D01*
X89865110Y-65965096D01*
X89817096Y-66016225D01*
X89814391Y-66019017D01*
X89794874Y-66038534D01*
X89792415Y-66041705D01*
X89784842Y-66050572D01*
X89754935Y-66082420D01*
X89745285Y-66099974D01*
X89734609Y-66116228D01*
X89722326Y-66132063D01*
X89704975Y-66172158D01*
X89699838Y-66182644D01*
X89678802Y-66220907D01*
X89673821Y-66240309D01*
X89667520Y-66258711D01*
X89659561Y-66277102D01*
X89652728Y-66320242D01*
X89650360Y-66331674D01*
X89639500Y-66373978D01*
X89639500Y-66394016D01*
X89637973Y-66413415D01*
X89634840Y-66433194D01*
X89638950Y-66476675D01*
X89639500Y-66488344D01*
X89639500Y-69999957D01*
X89637235Y-70020463D01*
X89639439Y-70090574D01*
X89639500Y-70094469D01*
X89639500Y-70122050D01*
X89640003Y-70126035D01*
X89640918Y-70137668D01*
X89642290Y-70181327D01*
X89647879Y-70200561D01*
X89651825Y-70219617D01*
X89654335Y-70239493D01*
X89670414Y-70280105D01*
X89674197Y-70291152D01*
X89686382Y-70333092D01*
X89696580Y-70350336D01*
X89705136Y-70367801D01*
X89712514Y-70386433D01*
X89712515Y-70386434D01*
X89738180Y-70421760D01*
X89744593Y-70431523D01*
X89766826Y-70469117D01*
X89766829Y-70469120D01*
X89766830Y-70469121D01*
X89780995Y-70483286D01*
X89793627Y-70498076D01*
X89805406Y-70514288D01*
X89839058Y-70542127D01*
X89847699Y-70549990D01*
X90143181Y-70845473D01*
X90170061Y-70885701D01*
X90179500Y-70933154D01*
X90179500Y-72346520D01*
X90165903Y-72402975D01*
X90128093Y-72447050D01*
X90074363Y-72469077D01*
X90016496Y-72464226D01*
X89907606Y-72428143D01*
X89808315Y-72418000D01*
X89261685Y-72418000D01*
X89162394Y-72428143D01*
X89001513Y-72481453D01*
X88857267Y-72570426D01*
X88737426Y-72690267D01*
X88648454Y-72834512D01*
X88625210Y-72904657D01*
X88625210Y-72904658D01*
X89535000Y-73814447D01*
X89800871Y-74080318D01*
X89832965Y-74135905D01*
X89832965Y-74200093D01*
X89800871Y-74255680D01*
X88625210Y-75431340D01*
X88625209Y-75431342D01*
X85000500Y-75431342D01*
X85000500Y-73571552D01*
X88585000Y-73571552D01*
X88585000Y-74764446D01*
X89181447Y-74168001D01*
X89181447Y-74168000D01*
X88585000Y-73571552D01*
X85000500Y-73571552D01*
X85000500Y-65906599D01*
X85000695Y-65899649D01*
X85003882Y-65842882D01*
X85006878Y-65789530D01*
X85017300Y-65617406D01*
X85018822Y-65604161D01*
X85041018Y-65473523D01*
X85041214Y-65472409D01*
X85068341Y-65324374D01*
X85071145Y-65312445D01*
X85109163Y-65180479D01*
X85109878Y-65178096D01*
X85153120Y-65039327D01*
X85156932Y-65028794D01*
X85210249Y-64900073D01*
X85211634Y-64896869D01*
X85270503Y-64766066D01*
X85275034Y-64757010D01*
X85342855Y-64634295D01*
X85345205Y-64630232D01*
X85418889Y-64508342D01*
X85423843Y-64500785D01*
X85505279Y-64386011D01*
X85508776Y-64381325D01*
X85596299Y-64269608D01*
X85601353Y-64263569D01*
X85695343Y-64158392D01*
X85700019Y-64153447D01*
X85800323Y-64053142D01*
X85805286Y-64048450D01*
X85910419Y-63954496D01*
X85916518Y-63949391D01*
X86028237Y-63861865D01*
X86032863Y-63858414D01*
X86147690Y-63776940D01*
X86155211Y-63772007D01*
X86277094Y-63698326D01*
X86281165Y-63695972D01*
X86403909Y-63628134D01*
X86412933Y-63623618D01*
X86543727Y-63564752D01*
X86547016Y-63563332D01*
X86675672Y-63510040D01*
X86686186Y-63506233D01*
X86825053Y-63462961D01*
X86827348Y-63462272D01*
X86959330Y-63424248D01*
X86971239Y-63421449D01*
X87119204Y-63394333D01*
X87120409Y-63394120D01*
X87251046Y-63371924D01*
X87264277Y-63370404D01*
X87439481Y-63359807D01*
X87439832Y-63359786D01*
X87546125Y-63353817D01*
X87553079Y-63353622D01*
X105635400Y-63353622D01*
X105642350Y-63353817D01*
G37*
%TD.AperFunction*%
%TD*%
M02*
