M48
; DRILL file {KiCad 7.0.1-0} date 2023 August 23, Wednesday 15:06:03
; FORMAT={-:-/ absolute / inch / decimal}
; #@! TF.CreationDate,2023-08-23T15:06:03+02:00
; #@! TF.GenerationSoftware,Kicad,Pcbnew,7.0.1-0
; #@! TF.FileFunction,Plated,1,2,PTH
FMAT,2
INCH
; #@! TA.AperFunction,Plated,PTH,ViaDrill
T1C0.0157
; #@! TA.AperFunction,Plated,PTH,ComponentDrill
T2C0.0394
%
G90
G05
T1
X3.49Y-3.055
X3.49Y-3.095
X3.49Y-3.605
X3.49Y-3.645
X3.49Y-3.985
X3.49Y-4.025
X3.53Y-3.055
X3.53Y-3.095
X3.53Y-3.605
X3.53Y-3.645
X3.53Y-3.985
X3.53Y-4.025
X3.62Y-2.82
X3.7Y-2.83
X3.955Y-2.815
T2
X3.6Y-2.64
X3.6Y-2.74
X3.7Y-2.64
X3.7Y-2.74
X3.8Y-2.64
X3.8Y-2.74
X3.9Y-2.64
X3.9Y-2.74
X4.0Y-2.64
X4.0Y-2.74
T0
M30
