M48
; DRILL file {KiCad 7.0.1-0} date 2023 August 23, Wednesday 15:05:19
; FORMAT={-:-/ absolute / inch / decimal}
; #@! TF.CreationDate,2023-08-23T15:05:19+02:00
; #@! TF.GenerationSoftware,Kicad,Pcbnew,7.0.1-0
; #@! TF.FileFunction,Plated,1,2,PTH
FMAT,2
INCH
; #@! TA.AperFunction,Plated,PTH,ViaDrill
T1C0.0157
; #@! TA.AperFunction,Plated,PTH,ComponentDrill
T2C0.0394
; #@! TA.AperFunction,Plated,PTH,ComponentDrill
T3C0.1063
%
G90
G05
T1
X3.6Y-3.06
X3.67Y-3.135
X3.895Y-3.135
X4.195Y-3.645
X4.195Y-3.695
X4.24Y-3.085
X4.24Y-3.135
X4.24Y-3.645
X4.24Y-3.695
X4.285Y-3.085
X4.285Y-3.135
X4.415Y-3.085
X4.415Y-3.135
X4.46Y-3.085
X4.46Y-3.135
T2
X3.6Y-2.64
X3.6Y-2.74
X3.7Y-2.64
X3.7Y-2.74
X3.8Y-2.64
X3.8Y-2.74
X3.9Y-2.64
X3.9Y-2.74
X4.0Y-2.64
X4.0Y-2.74
T3
X4.7047Y-2.5925
T0
M30
