%TF.GenerationSoftware,KiCad,Pcbnew,7.0.1-0*%
%TF.CreationDate,2023-08-23T15:05:17+02:00*%
%TF.ProjectId,ESP32SomfyPOE,45535033-3253-46f6-9d66-79504f452e6b,rev?*%
%TF.SameCoordinates,Original*%
%TF.FileFunction,Copper,L2,Bot*%
%TF.FilePolarity,Positive*%
%FSLAX46Y46*%
G04 Gerber Fmt 4.6, Leading zero omitted, Abs format (unit mm)*
G04 Created by KiCad (PCBNEW 7.0.1-0) date 2023-08-23 15:05:17*
%MOMM*%
%LPD*%
G01*
G04 APERTURE LIST*
G04 Aperture macros list*
%AMRoundRect*
0 Rectangle with rounded corners*
0 $1 Rounding radius*
0 $2 $3 $4 $5 $6 $7 $8 $9 X,Y pos of 4 corners*
0 Add a 4 corners polygon primitive as box body*
4,1,4,$2,$3,$4,$5,$6,$7,$8,$9,$2,$3,0*
0 Add four circle primitives for the rounded corners*
1,1,$1+$1,$2,$3*
1,1,$1+$1,$4,$5*
1,1,$1+$1,$6,$7*
1,1,$1+$1,$8,$9*
0 Add four rect primitives between the rounded corners*
20,1,$1+$1,$2,$3,$4,$5,0*
20,1,$1+$1,$4,$5,$6,$7,0*
20,1,$1+$1,$6,$7,$8,$9,0*
20,1,$1+$1,$8,$9,$2,$3,0*%
G04 Aperture macros list end*
%TA.AperFunction,ComponentPad*%
%ADD10C,4.500000*%
%TD*%
%TA.AperFunction,ComponentPad*%
%ADD11C,1.700000*%
%TD*%
%TA.AperFunction,ComponentPad*%
%ADD12RoundRect,0.425000X-0.425000X0.425000X-0.425000X-0.425000X0.425000X-0.425000X0.425000X0.425000X0*%
%TD*%
%TA.AperFunction,ViaPad*%
%ADD13C,0.800000*%
%TD*%
G04 APERTURE END LIST*
D10*
%TO.P,H1,1,1*%
%TO.N,GND*%
X119500000Y-65850000D03*
%TD*%
D11*
%TO.P,UEXT,1,3V3*%
%TO.N,+3V3*%
X101600000Y-67056000D03*
D12*
%TO.P,UEXT,2,GND*%
%TO.N,GND*%
X101600000Y-69596000D03*
D11*
%TO.P,UEXT,3,TXD*%
%TO.N,GPIO4*%
X99060000Y-67056000D03*
%TO.P,UEXT,4,RXD*%
%TO.N,GPI36*%
X99060000Y-69596000D03*
%TO.P,UEXT,5,SCL*%
%TO.N,GPIO16*%
X96520000Y-67056000D03*
%TO.P,UEXT,6,SDA*%
%TO.N,GPIO13*%
X96520000Y-69596000D03*
%TO.P,UEXT,7,MISO*%
%TO.N,GPIO15*%
X93980000Y-67056000D03*
%TO.P,UEXT,8,MOSI*%
%TO.N,GPIO2*%
X93980000Y-69596000D03*
%TO.P,UEXT,9,SCK*%
%TO.N,GPIO14*%
X91440000Y-67056000D03*
%TO.P,UEXT,10,~{SSEL}*%
%TO.N,GPIO5*%
X91440000Y-69596000D03*
%TD*%
D13*
%TO.N,GND*%
X107696000Y-93853000D03*
X106553000Y-92583000D03*
X107696000Y-79629000D03*
X113284000Y-78359000D03*
X93218000Y-79629000D03*
X107696000Y-92583000D03*
X113284000Y-79629000D03*
X112141000Y-78359000D03*
X98933000Y-79629000D03*
X107696000Y-78359000D03*
X91440000Y-77724000D03*
X108839000Y-79629000D03*
X108839000Y-78359000D03*
X106553000Y-93853000D03*
X112141000Y-79629000D03*
%TD*%
%TA.AperFunction,Conductor*%
%TO.N,GND*%
G36*
X117930595Y-63369986D02*
G01*
X117975912Y-63414759D01*
X117993019Y-63476123D01*
X117977401Y-63537883D01*
X117939889Y-63576779D01*
X117940871Y-63578032D01*
X117739416Y-63735861D01*
X117739416Y-63735862D01*
X119500000Y-65496447D01*
X121614136Y-67610582D01*
X121614137Y-67610582D01*
X121767343Y-67415030D01*
X121769384Y-67411655D01*
X121771854Y-67409272D01*
X121771967Y-67409129D01*
X121771987Y-67409144D01*
X121815239Y-67367434D01*
X121876999Y-67351815D01*
X121938363Y-67368922D01*
X121983136Y-67414239D01*
X121999500Y-67475806D01*
X121999500Y-70365159D01*
X121996883Y-93744524D01*
X121996378Y-93747065D01*
X121996378Y-93793399D01*
X121996183Y-93800352D01*
X121989913Y-93912001D01*
X121989882Y-93912534D01*
X121979610Y-94082382D01*
X121978084Y-94095666D01*
X121955617Y-94227902D01*
X121955338Y-94229483D01*
X121928601Y-94375389D01*
X121925786Y-94387366D01*
X121887463Y-94520388D01*
X121886695Y-94522950D01*
X121843853Y-94660438D01*
X121840028Y-94671000D01*
X121786400Y-94800471D01*
X121784915Y-94803910D01*
X121726517Y-94933665D01*
X121721969Y-94942755D01*
X121653765Y-95066160D01*
X121651355Y-95070328D01*
X121578182Y-95191374D01*
X121573194Y-95198980D01*
X121491345Y-95314337D01*
X121487825Y-95319055D01*
X121400845Y-95430076D01*
X121395695Y-95436230D01*
X121301307Y-95541850D01*
X121296528Y-95546904D01*
X121196904Y-95646528D01*
X121191850Y-95651307D01*
X121086230Y-95745695D01*
X121080076Y-95750845D01*
X120969055Y-95837825D01*
X120964337Y-95841345D01*
X120848980Y-95923194D01*
X120841374Y-95928182D01*
X120720328Y-96001355D01*
X120716160Y-96003765D01*
X120592755Y-96071969D01*
X120583665Y-96076517D01*
X120453910Y-96134915D01*
X120450471Y-96136400D01*
X120321000Y-96190028D01*
X120310438Y-96193853D01*
X120172950Y-96236695D01*
X120170388Y-96237463D01*
X120037366Y-96275786D01*
X120025389Y-96278601D01*
X119879483Y-96305338D01*
X119877902Y-96305617D01*
X119745666Y-96328084D01*
X119732382Y-96329610D01*
X119562534Y-96339882D01*
X119562001Y-96339913D01*
X119457268Y-96345794D01*
X119450349Y-96346183D01*
X119443399Y-96346378D01*
X87553481Y-96346378D01*
X87546528Y-96346183D01*
X87538941Y-96345756D01*
X87432774Y-96339794D01*
X87432250Y-96339763D01*
X87264698Y-96329640D01*
X87251405Y-96328114D01*
X87117302Y-96305329D01*
X87115721Y-96305050D01*
X86971706Y-96278658D01*
X86959730Y-96275843D01*
X86825511Y-96237175D01*
X86822948Y-96236406D01*
X86686667Y-96193938D01*
X86676106Y-96190114D01*
X86545756Y-96136122D01*
X86542317Y-96134637D01*
X86413444Y-96076635D01*
X86404358Y-96072089D01*
X86280244Y-96003493D01*
X86276076Y-96001083D01*
X86155743Y-95928339D01*
X86148137Y-95923351D01*
X86032180Y-95841073D01*
X86027463Y-95837555D01*
X85917058Y-95751058D01*
X85910904Y-95745906D01*
X85804768Y-95651056D01*
X85799713Y-95646278D01*
X85700612Y-95547176D01*
X85695834Y-95542122D01*
X85600974Y-95435973D01*
X85595823Y-95429819D01*
X85509329Y-95319417D01*
X85505825Y-95314719D01*
X85423516Y-95198715D01*
X85418543Y-95191129D01*
X85345816Y-95070822D01*
X85343405Y-95066654D01*
X85343132Y-95066160D01*
X85274780Y-94942484D01*
X85270264Y-94933458D01*
X85212236Y-94804523D01*
X85210800Y-94801198D01*
X85164441Y-94689275D01*
X85156778Y-94670774D01*
X85152955Y-94660213D01*
X85110477Y-94523895D01*
X85109708Y-94521332D01*
X85071047Y-94387132D01*
X85068238Y-94375181D01*
X85041833Y-94231091D01*
X85041591Y-94229717D01*
X85018777Y-94095440D01*
X85017256Y-94082201D01*
X85007284Y-93917316D01*
X85000694Y-93799954D01*
X85000500Y-93793013D01*
X85000500Y-69596000D01*
X90084340Y-69596000D01*
X90104936Y-69831407D01*
X90149709Y-69998501D01*
X90166097Y-70059663D01*
X90265965Y-70273830D01*
X90401505Y-70467401D01*
X90568599Y-70634495D01*
X90762170Y-70770035D01*
X90976337Y-70869903D01*
X91204592Y-70931063D01*
X91440000Y-70951659D01*
X91675408Y-70931063D01*
X91903663Y-70869903D01*
X92117830Y-70770035D01*
X92311401Y-70634495D01*
X92478495Y-70467401D01*
X92608426Y-70281839D01*
X92652743Y-70242975D01*
X92710000Y-70228964D01*
X92767257Y-70242975D01*
X92811573Y-70281839D01*
X92941505Y-70467401D01*
X93108599Y-70634495D01*
X93302170Y-70770035D01*
X93516337Y-70869903D01*
X93744592Y-70931063D01*
X93980000Y-70951659D01*
X94215408Y-70931063D01*
X94443663Y-70869903D01*
X94657830Y-70770035D01*
X94851401Y-70634495D01*
X95018495Y-70467401D01*
X95148426Y-70281839D01*
X95192743Y-70242975D01*
X95250000Y-70228964D01*
X95307257Y-70242975D01*
X95351573Y-70281839D01*
X95481505Y-70467401D01*
X95648599Y-70634495D01*
X95842170Y-70770035D01*
X96056337Y-70869903D01*
X96284592Y-70931063D01*
X96520000Y-70951659D01*
X96755408Y-70931063D01*
X96983663Y-70869903D01*
X97197830Y-70770035D01*
X97391401Y-70634495D01*
X97558495Y-70467401D01*
X97688426Y-70281839D01*
X97732743Y-70242975D01*
X97790000Y-70228964D01*
X97847257Y-70242975D01*
X97891573Y-70281839D01*
X98021505Y-70467401D01*
X98188599Y-70634495D01*
X98382170Y-70770035D01*
X98596337Y-70869903D01*
X98824592Y-70931063D01*
X99060000Y-70951659D01*
X99295408Y-70931063D01*
X99523663Y-70869903D01*
X99737830Y-70770035D01*
X99931401Y-70634495D01*
X100098495Y-70467401D01*
X100133979Y-70416723D01*
X100182168Y-70375929D01*
X100244201Y-70364151D01*
X100303992Y-70384447D01*
X100346037Y-70431554D01*
X100394957Y-70527566D01*
X100517324Y-70678675D01*
X100668433Y-70801042D01*
X100841684Y-70889318D01*
X101029501Y-70939643D01*
X101110265Y-70946000D01*
X101350000Y-70946000D01*
X101350000Y-69846000D01*
X101850000Y-69846000D01*
X101850000Y-70946000D01*
X102089735Y-70946000D01*
X102170498Y-70939643D01*
X102358315Y-70889318D01*
X102531566Y-70801042D01*
X102682675Y-70678675D01*
X102805042Y-70527566D01*
X102893318Y-70354315D01*
X102943643Y-70166498D01*
X102950000Y-70085735D01*
X102950000Y-69846000D01*
X101850000Y-69846000D01*
X101350000Y-69846000D01*
X101350000Y-69470000D01*
X101366613Y-69408000D01*
X101412000Y-69362613D01*
X101474000Y-69346000D01*
X102950000Y-69346000D01*
X102950000Y-69106265D01*
X102943643Y-69025501D01*
X102893318Y-68837684D01*
X102805042Y-68664433D01*
X102682675Y-68513324D01*
X102531566Y-68390957D01*
X102435554Y-68342037D01*
X102388447Y-68299992D01*
X102368151Y-68240201D01*
X102379929Y-68178168D01*
X102420723Y-68129979D01*
X102471401Y-68094495D01*
X102601758Y-67964138D01*
X117739416Y-67964138D01*
X117934960Y-68117338D01*
X118219681Y-68289456D01*
X118523053Y-68425994D01*
X118840673Y-68524968D01*
X119167917Y-68584938D01*
X119500000Y-68605026D01*
X119832082Y-68584938D01*
X120159326Y-68524968D01*
X120476946Y-68425994D01*
X120780318Y-68289456D01*
X121065033Y-68117341D01*
X121260582Y-67964137D01*
X121260582Y-67964136D01*
X119500001Y-66203553D01*
X119500000Y-66203553D01*
X117739416Y-67964136D01*
X117739416Y-67964138D01*
X102601758Y-67964138D01*
X102638495Y-67927401D01*
X102774035Y-67733830D01*
X102873903Y-67519663D01*
X102935063Y-67291408D01*
X102955659Y-67056000D01*
X102935063Y-66820592D01*
X102873903Y-66592337D01*
X102774035Y-66378171D01*
X102638495Y-66184599D01*
X102471401Y-66017505D01*
X102277830Y-65881965D01*
X102209281Y-65850000D01*
X116744973Y-65850000D01*
X116765061Y-66182082D01*
X116825031Y-66509326D01*
X116924005Y-66826946D01*
X117060543Y-67130318D01*
X117232657Y-67415033D01*
X117385862Y-67610582D01*
X119146446Y-65850000D01*
X119146446Y-65849998D01*
X117385862Y-64089416D01*
X117385861Y-64089416D01*
X117232657Y-64284966D01*
X117060543Y-64569681D01*
X116924005Y-64873053D01*
X116825031Y-65190673D01*
X116765061Y-65517917D01*
X116744973Y-65850000D01*
X102209281Y-65850000D01*
X102063663Y-65782097D01*
X101980777Y-65759888D01*
X101835407Y-65720936D01*
X101600000Y-65700340D01*
X101364592Y-65720936D01*
X101136336Y-65782097D01*
X100922170Y-65881965D01*
X100728598Y-66017505D01*
X100561505Y-66184598D01*
X100431575Y-66370159D01*
X100387257Y-66409025D01*
X100330000Y-66423036D01*
X100272743Y-66409025D01*
X100228425Y-66370159D01*
X100213449Y-66348771D01*
X100098495Y-66184599D01*
X99931401Y-66017505D01*
X99737830Y-65881965D01*
X99523663Y-65782097D01*
X99440777Y-65759888D01*
X99295407Y-65720936D01*
X99060000Y-65700340D01*
X98824592Y-65720936D01*
X98596336Y-65782097D01*
X98382170Y-65881965D01*
X98188598Y-66017505D01*
X98021505Y-66184598D01*
X97891575Y-66370159D01*
X97847257Y-66409025D01*
X97790000Y-66423036D01*
X97732743Y-66409025D01*
X97688425Y-66370159D01*
X97673449Y-66348771D01*
X97558495Y-66184599D01*
X97391401Y-66017505D01*
X97197830Y-65881965D01*
X96983663Y-65782097D01*
X96900777Y-65759888D01*
X96755407Y-65720936D01*
X96520000Y-65700340D01*
X96284592Y-65720936D01*
X96056336Y-65782097D01*
X95842170Y-65881965D01*
X95648598Y-66017505D01*
X95481505Y-66184598D01*
X95351575Y-66370159D01*
X95307257Y-66409025D01*
X95250000Y-66423036D01*
X95192743Y-66409025D01*
X95148425Y-66370159D01*
X95133449Y-66348771D01*
X95018495Y-66184599D01*
X94851401Y-66017505D01*
X94657830Y-65881965D01*
X94443663Y-65782097D01*
X94360777Y-65759888D01*
X94215407Y-65720936D01*
X93980000Y-65700340D01*
X93744592Y-65720936D01*
X93516336Y-65782097D01*
X93302170Y-65881965D01*
X93108598Y-66017505D01*
X92941505Y-66184598D01*
X92811575Y-66370159D01*
X92767257Y-66409025D01*
X92710000Y-66423036D01*
X92652743Y-66409025D01*
X92608425Y-66370159D01*
X92593449Y-66348771D01*
X92478495Y-66184599D01*
X92311401Y-66017505D01*
X92117830Y-65881965D01*
X91903663Y-65782097D01*
X91820777Y-65759888D01*
X91675407Y-65720936D01*
X91440000Y-65700340D01*
X91204592Y-65720936D01*
X90976336Y-65782097D01*
X90762170Y-65881965D01*
X90568598Y-66017505D01*
X90401505Y-66184598D01*
X90265965Y-66378170D01*
X90166097Y-66592336D01*
X90104936Y-66820592D01*
X90084340Y-67056000D01*
X90104936Y-67291407D01*
X90137849Y-67414239D01*
X90166097Y-67519663D01*
X90265965Y-67733830D01*
X90401505Y-67927401D01*
X90568599Y-68094495D01*
X90754160Y-68224426D01*
X90793024Y-68268743D01*
X90807035Y-68326000D01*
X90793024Y-68383257D01*
X90754159Y-68427575D01*
X90568595Y-68557508D01*
X90401505Y-68724598D01*
X90265965Y-68918170D01*
X90166097Y-69132336D01*
X90104936Y-69360592D01*
X90084340Y-69596000D01*
X85000500Y-69596000D01*
X85000500Y-65906599D01*
X85000695Y-65899649D01*
X85001688Y-65881964D01*
X85006878Y-65789530D01*
X85017300Y-65617406D01*
X85018822Y-65604161D01*
X85041018Y-65473523D01*
X85041214Y-65472409D01*
X85068341Y-65324374D01*
X85071145Y-65312445D01*
X85109163Y-65180479D01*
X85109878Y-65178096D01*
X85153120Y-65039327D01*
X85156932Y-65028794D01*
X85210249Y-64900073D01*
X85211634Y-64896869D01*
X85270503Y-64766066D01*
X85275034Y-64757010D01*
X85342855Y-64634295D01*
X85345205Y-64630232D01*
X85418889Y-64508342D01*
X85423843Y-64500785D01*
X85505279Y-64386011D01*
X85508776Y-64381325D01*
X85596299Y-64269608D01*
X85601353Y-64263569D01*
X85695343Y-64158392D01*
X85700019Y-64153447D01*
X85800323Y-64053142D01*
X85805286Y-64048450D01*
X85910419Y-63954496D01*
X85916518Y-63949391D01*
X86028237Y-63861865D01*
X86032863Y-63858414D01*
X86147690Y-63776940D01*
X86155211Y-63772007D01*
X86277094Y-63698326D01*
X86281165Y-63695972D01*
X86403909Y-63628134D01*
X86412933Y-63623618D01*
X86543727Y-63564752D01*
X86547016Y-63563332D01*
X86675672Y-63510040D01*
X86686186Y-63506233D01*
X86825053Y-63462961D01*
X86827348Y-63462272D01*
X86959330Y-63424248D01*
X86971239Y-63421449D01*
X87119204Y-63394333D01*
X87120409Y-63394120D01*
X87251046Y-63371924D01*
X87264277Y-63370404D01*
X87439481Y-63359807D01*
X87439832Y-63359786D01*
X87546125Y-63353817D01*
X87553079Y-63353622D01*
X117869028Y-63353622D01*
X117930595Y-63369986D01*
G37*
%TD.AperFunction*%
%TD*%
M02*
