%TF.GenerationSoftware,KiCad,Pcbnew,7.0.1-0*%
%TF.CreationDate,2023-08-23T15:05:17+02:00*%
%TF.ProjectId,ESP32SomfyPOE,45535033-3253-46f6-9d66-79504f452e6b,rev?*%
%TF.SameCoordinates,Original*%
%TF.FileFunction,Legend,Bot*%
%TF.FilePolarity,Positive*%
%FSLAX46Y46*%
G04 Gerber Fmt 4.6, Leading zero omitted, Abs format (unit mm)*
G04 Created by KiCad (PCBNEW 7.0.1-0) date 2023-08-23 15:05:17*
%MOMM*%
%LPD*%
G01*
G04 APERTURE LIST*
%ADD10C,1.200000*%
%ADD11C,0.200000*%
%ADD12C,0.150000*%
%ADD13C,0.120000*%
G04 APERTURE END LIST*
D10*
X119380000Y-91408250D02*
X119380000Y-81057750D01*
X104775000Y-91535250D02*
X104775000Y-81184750D01*
D11*
X103401857Y-82525178D02*
X103401857Y-81025178D01*
X103401857Y-81025178D02*
X102544714Y-82525178D01*
X102544714Y-82525178D02*
X102544714Y-81025178D01*
X101258999Y-82453750D02*
X101401856Y-82525178D01*
X101401856Y-82525178D02*
X101687571Y-82525178D01*
X101687571Y-82525178D02*
X101830428Y-82453750D01*
X101830428Y-82453750D02*
X101901856Y-82310892D01*
X101901856Y-82310892D02*
X101901856Y-81739464D01*
X101901856Y-81739464D02*
X101830428Y-81596607D01*
X101830428Y-81596607D02*
X101687571Y-81525178D01*
X101687571Y-81525178D02*
X101401856Y-81525178D01*
X101401856Y-81525178D02*
X101258999Y-81596607D01*
X101258999Y-81596607D02*
X101187571Y-81739464D01*
X101187571Y-81739464D02*
X101187571Y-81882321D01*
X101187571Y-81882321D02*
X101901856Y-82025178D01*
X100758999Y-81525178D02*
X100187571Y-81525178D01*
X100544714Y-81025178D02*
X100544714Y-82310892D01*
X100544714Y-82310892D02*
X100473285Y-82453750D01*
X100473285Y-82453750D02*
X100330428Y-82525178D01*
X100330428Y-82525178D02*
X100187571Y-82525178D01*
X99830428Y-81525178D02*
X99544714Y-82525178D01*
X99544714Y-82525178D02*
X99258999Y-81810892D01*
X99258999Y-81810892D02*
X98973285Y-82525178D01*
X98973285Y-82525178D02*
X98687571Y-81525178D01*
X97901856Y-82525178D02*
X98044713Y-82453750D01*
X98044713Y-82453750D02*
X98116142Y-82382321D01*
X98116142Y-82382321D02*
X98187570Y-82239464D01*
X98187570Y-82239464D02*
X98187570Y-81810892D01*
X98187570Y-81810892D02*
X98116142Y-81668035D01*
X98116142Y-81668035D02*
X98044713Y-81596607D01*
X98044713Y-81596607D02*
X97901856Y-81525178D01*
X97901856Y-81525178D02*
X97687570Y-81525178D01*
X97687570Y-81525178D02*
X97544713Y-81596607D01*
X97544713Y-81596607D02*
X97473285Y-81668035D01*
X97473285Y-81668035D02*
X97401856Y-81810892D01*
X97401856Y-81810892D02*
X97401856Y-82239464D01*
X97401856Y-82239464D02*
X97473285Y-82382321D01*
X97473285Y-82382321D02*
X97544713Y-82453750D01*
X97544713Y-82453750D02*
X97687570Y-82525178D01*
X97687570Y-82525178D02*
X97901856Y-82525178D01*
X96758999Y-82525178D02*
X96758999Y-81525178D01*
X96758999Y-81810892D02*
X96687570Y-81668035D01*
X96687570Y-81668035D02*
X96616142Y-81596607D01*
X96616142Y-81596607D02*
X96473284Y-81525178D01*
X96473284Y-81525178D02*
X96330427Y-81525178D01*
X95830428Y-82525178D02*
X95830428Y-81025178D01*
X95687571Y-81953750D02*
X95258999Y-82525178D01*
X95258999Y-81525178D02*
X95830428Y-82096607D01*
X93591142Y-84770107D02*
X94019714Y-84770107D01*
X94019714Y-84770107D02*
X94019714Y-83870107D01*
X93334000Y-84512964D02*
X92905429Y-84512964D01*
X93419714Y-84770107D02*
X93119714Y-83870107D01*
X93119714Y-83870107D02*
X92819714Y-84770107D01*
X92519714Y-84770107D02*
X92519714Y-83870107D01*
X92519714Y-83870107D02*
X92005428Y-84770107D01*
X92005428Y-84770107D02*
X92005428Y-83870107D01*
X91448285Y-84255821D02*
X91534000Y-84212964D01*
X91534000Y-84212964D02*
X91576857Y-84170107D01*
X91576857Y-84170107D02*
X91619714Y-84084392D01*
X91619714Y-84084392D02*
X91619714Y-84041535D01*
X91619714Y-84041535D02*
X91576857Y-83955821D01*
X91576857Y-83955821D02*
X91534000Y-83912964D01*
X91534000Y-83912964D02*
X91448285Y-83870107D01*
X91448285Y-83870107D02*
X91276857Y-83870107D01*
X91276857Y-83870107D02*
X91191143Y-83912964D01*
X91191143Y-83912964D02*
X91148285Y-83955821D01*
X91148285Y-83955821D02*
X91105428Y-84041535D01*
X91105428Y-84041535D02*
X91105428Y-84084392D01*
X91105428Y-84084392D02*
X91148285Y-84170107D01*
X91148285Y-84170107D02*
X91191143Y-84212964D01*
X91191143Y-84212964D02*
X91276857Y-84255821D01*
X91276857Y-84255821D02*
X91448285Y-84255821D01*
X91448285Y-84255821D02*
X91534000Y-84298678D01*
X91534000Y-84298678D02*
X91576857Y-84341535D01*
X91576857Y-84341535D02*
X91619714Y-84427250D01*
X91619714Y-84427250D02*
X91619714Y-84598678D01*
X91619714Y-84598678D02*
X91576857Y-84684392D01*
X91576857Y-84684392D02*
X91534000Y-84727250D01*
X91534000Y-84727250D02*
X91448285Y-84770107D01*
X91448285Y-84770107D02*
X91276857Y-84770107D01*
X91276857Y-84770107D02*
X91191143Y-84727250D01*
X91191143Y-84727250D02*
X91148285Y-84684392D01*
X91148285Y-84684392D02*
X91105428Y-84598678D01*
X91105428Y-84598678D02*
X91105428Y-84427250D01*
X91105428Y-84427250D02*
X91148285Y-84341535D01*
X91148285Y-84341535D02*
X91191143Y-84298678D01*
X91191143Y-84298678D02*
X91276857Y-84255821D01*
X90805428Y-83870107D02*
X90205428Y-83870107D01*
X90205428Y-83870107D02*
X90591142Y-84770107D01*
X89905428Y-83955821D02*
X89862571Y-83912964D01*
X89862571Y-83912964D02*
X89776857Y-83870107D01*
X89776857Y-83870107D02*
X89562571Y-83870107D01*
X89562571Y-83870107D02*
X89476857Y-83912964D01*
X89476857Y-83912964D02*
X89433999Y-83955821D01*
X89433999Y-83955821D02*
X89391142Y-84041535D01*
X89391142Y-84041535D02*
X89391142Y-84127250D01*
X89391142Y-84127250D02*
X89433999Y-84255821D01*
X89433999Y-84255821D02*
X89948285Y-84770107D01*
X89948285Y-84770107D02*
X89391142Y-84770107D01*
X88833999Y-83870107D02*
X88748285Y-83870107D01*
X88748285Y-83870107D02*
X88662571Y-83912964D01*
X88662571Y-83912964D02*
X88619714Y-83955821D01*
X88619714Y-83955821D02*
X88576856Y-84041535D01*
X88576856Y-84041535D02*
X88533999Y-84212964D01*
X88533999Y-84212964D02*
X88533999Y-84427250D01*
X88533999Y-84427250D02*
X88576856Y-84598678D01*
X88576856Y-84598678D02*
X88619714Y-84684392D01*
X88619714Y-84684392D02*
X88662571Y-84727250D01*
X88662571Y-84727250D02*
X88748285Y-84770107D01*
X88748285Y-84770107D02*
X88833999Y-84770107D01*
X88833999Y-84770107D02*
X88919714Y-84727250D01*
X88919714Y-84727250D02*
X88962571Y-84684392D01*
X88962571Y-84684392D02*
X89005428Y-84598678D01*
X89005428Y-84598678D02*
X89048285Y-84427250D01*
X89048285Y-84427250D02*
X89048285Y-84212964D01*
X89048285Y-84212964D02*
X89005428Y-84041535D01*
X89005428Y-84041535D02*
X88962571Y-83955821D01*
X88962571Y-83955821D02*
X88919714Y-83912964D01*
X88919714Y-83912964D02*
X88833999Y-83870107D01*
X94019714Y-86228107D02*
X94019714Y-85328107D01*
X94019714Y-85328107D02*
X93676857Y-85328107D01*
X93676857Y-85328107D02*
X93591142Y-85370964D01*
X93591142Y-85370964D02*
X93548285Y-85413821D01*
X93548285Y-85413821D02*
X93505428Y-85499535D01*
X93505428Y-85499535D02*
X93505428Y-85628107D01*
X93505428Y-85628107D02*
X93548285Y-85713821D01*
X93548285Y-85713821D02*
X93591142Y-85756678D01*
X93591142Y-85756678D02*
X93676857Y-85799535D01*
X93676857Y-85799535D02*
X94019714Y-85799535D01*
X93119714Y-86228107D02*
X93119714Y-85328107D01*
X93119714Y-85756678D02*
X92605428Y-85756678D01*
X92605428Y-86228107D02*
X92605428Y-85328107D01*
X92005428Y-85799535D02*
X92005428Y-86228107D01*
X92305428Y-85328107D02*
X92005428Y-85799535D01*
X92005428Y-85799535D02*
X91705428Y-85328107D01*
X90548285Y-85328107D02*
X90462571Y-85328107D01*
X90462571Y-85328107D02*
X90376857Y-85370964D01*
X90376857Y-85370964D02*
X90334000Y-85413821D01*
X90334000Y-85413821D02*
X90291142Y-85499535D01*
X90291142Y-85499535D02*
X90248285Y-85670964D01*
X90248285Y-85670964D02*
X90248285Y-85885250D01*
X90248285Y-85885250D02*
X90291142Y-86056678D01*
X90291142Y-86056678D02*
X90334000Y-86142392D01*
X90334000Y-86142392D02*
X90376857Y-86185250D01*
X90376857Y-86185250D02*
X90462571Y-86228107D01*
X90462571Y-86228107D02*
X90548285Y-86228107D01*
X90548285Y-86228107D02*
X90634000Y-86185250D01*
X90634000Y-86185250D02*
X90676857Y-86142392D01*
X90676857Y-86142392D02*
X90719714Y-86056678D01*
X90719714Y-86056678D02*
X90762571Y-85885250D01*
X90762571Y-85885250D02*
X90762571Y-85670964D01*
X90762571Y-85670964D02*
X90719714Y-85499535D01*
X90719714Y-85499535D02*
X90676857Y-85413821D01*
X90676857Y-85413821D02*
X90634000Y-85370964D01*
X90634000Y-85370964D02*
X90548285Y-85328107D01*
X93548285Y-86828964D02*
X93634000Y-86786107D01*
X93634000Y-86786107D02*
X93762571Y-86786107D01*
X93762571Y-86786107D02*
X93891142Y-86828964D01*
X93891142Y-86828964D02*
X93976857Y-86914678D01*
X93976857Y-86914678D02*
X94019714Y-87000392D01*
X94019714Y-87000392D02*
X94062571Y-87171821D01*
X94062571Y-87171821D02*
X94062571Y-87300392D01*
X94062571Y-87300392D02*
X94019714Y-87471821D01*
X94019714Y-87471821D02*
X93976857Y-87557535D01*
X93976857Y-87557535D02*
X93891142Y-87643250D01*
X93891142Y-87643250D02*
X93762571Y-87686107D01*
X93762571Y-87686107D02*
X93676857Y-87686107D01*
X93676857Y-87686107D02*
X93548285Y-87643250D01*
X93548285Y-87643250D02*
X93505428Y-87600392D01*
X93505428Y-87600392D02*
X93505428Y-87300392D01*
X93505428Y-87300392D02*
X93676857Y-87300392D01*
X93119714Y-87686107D02*
X93119714Y-86786107D01*
X93119714Y-86786107D02*
X92776857Y-86786107D01*
X92776857Y-86786107D02*
X92691142Y-86828964D01*
X92691142Y-86828964D02*
X92648285Y-86871821D01*
X92648285Y-86871821D02*
X92605428Y-86957535D01*
X92605428Y-86957535D02*
X92605428Y-87086107D01*
X92605428Y-87086107D02*
X92648285Y-87171821D01*
X92648285Y-87171821D02*
X92691142Y-87214678D01*
X92691142Y-87214678D02*
X92776857Y-87257535D01*
X92776857Y-87257535D02*
X93119714Y-87257535D01*
X92219714Y-87686107D02*
X92219714Y-86786107D01*
X91619714Y-86786107D02*
X91448286Y-86786107D01*
X91448286Y-86786107D02*
X91362571Y-86828964D01*
X91362571Y-86828964D02*
X91276857Y-86914678D01*
X91276857Y-86914678D02*
X91234000Y-87086107D01*
X91234000Y-87086107D02*
X91234000Y-87386107D01*
X91234000Y-87386107D02*
X91276857Y-87557535D01*
X91276857Y-87557535D02*
X91362571Y-87643250D01*
X91362571Y-87643250D02*
X91448286Y-87686107D01*
X91448286Y-87686107D02*
X91619714Y-87686107D01*
X91619714Y-87686107D02*
X91705429Y-87643250D01*
X91705429Y-87643250D02*
X91791143Y-87557535D01*
X91791143Y-87557535D02*
X91834000Y-87386107D01*
X91834000Y-87386107D02*
X91834000Y-87086107D01*
X91834000Y-87086107D02*
X91791143Y-86914678D01*
X91791143Y-86914678D02*
X91705429Y-86828964D01*
X91705429Y-86828964D02*
X91619714Y-86786107D01*
X91062572Y-87771821D02*
X90376857Y-87771821D01*
X89691143Y-87686107D02*
X90205429Y-87686107D01*
X89948286Y-87686107D02*
X89948286Y-86786107D01*
X89948286Y-86786107D02*
X90034000Y-86914678D01*
X90034000Y-86914678D02*
X90119715Y-87000392D01*
X90119715Y-87000392D02*
X90205429Y-87043250D01*
X89391143Y-86786107D02*
X88791143Y-86786107D01*
X88791143Y-86786107D02*
X89176857Y-87686107D01*
X87591143Y-86786107D02*
X87419715Y-86786107D01*
X87419715Y-86786107D02*
X87334000Y-86828964D01*
X87334000Y-86828964D02*
X87248286Y-86914678D01*
X87248286Y-86914678D02*
X87205429Y-87086107D01*
X87205429Y-87086107D02*
X87205429Y-87386107D01*
X87205429Y-87386107D02*
X87248286Y-87557535D01*
X87248286Y-87557535D02*
X87334000Y-87643250D01*
X87334000Y-87643250D02*
X87419715Y-87686107D01*
X87419715Y-87686107D02*
X87591143Y-87686107D01*
X87591143Y-87686107D02*
X87676858Y-87643250D01*
X87676858Y-87643250D02*
X87762572Y-87557535D01*
X87762572Y-87557535D02*
X87805429Y-87386107D01*
X87805429Y-87386107D02*
X87805429Y-87086107D01*
X87805429Y-87086107D02*
X87762572Y-86914678D01*
X87762572Y-86914678D02*
X87676858Y-86828964D01*
X87676858Y-86828964D02*
X87591143Y-86786107D01*
X86819715Y-86786107D02*
X86819715Y-87514678D01*
X86819715Y-87514678D02*
X86776858Y-87600392D01*
X86776858Y-87600392D02*
X86734001Y-87643250D01*
X86734001Y-87643250D02*
X86648286Y-87686107D01*
X86648286Y-87686107D02*
X86476858Y-87686107D01*
X86476858Y-87686107D02*
X86391143Y-87643250D01*
X86391143Y-87643250D02*
X86348286Y-87600392D01*
X86348286Y-87600392D02*
X86305429Y-87514678D01*
X86305429Y-87514678D02*
X86305429Y-86786107D01*
X86005429Y-86786107D02*
X85491144Y-86786107D01*
X85748286Y-87686107D02*
X85748286Y-86786107D01*
X93548285Y-88286964D02*
X93634000Y-88244107D01*
X93634000Y-88244107D02*
X93762571Y-88244107D01*
X93762571Y-88244107D02*
X93891142Y-88286964D01*
X93891142Y-88286964D02*
X93976857Y-88372678D01*
X93976857Y-88372678D02*
X94019714Y-88458392D01*
X94019714Y-88458392D02*
X94062571Y-88629821D01*
X94062571Y-88629821D02*
X94062571Y-88758392D01*
X94062571Y-88758392D02*
X94019714Y-88929821D01*
X94019714Y-88929821D02*
X93976857Y-89015535D01*
X93976857Y-89015535D02*
X93891142Y-89101250D01*
X93891142Y-89101250D02*
X93762571Y-89144107D01*
X93762571Y-89144107D02*
X93676857Y-89144107D01*
X93676857Y-89144107D02*
X93548285Y-89101250D01*
X93548285Y-89101250D02*
X93505428Y-89058392D01*
X93505428Y-89058392D02*
X93505428Y-88758392D01*
X93505428Y-88758392D02*
X93676857Y-88758392D01*
X93119714Y-89144107D02*
X93119714Y-88244107D01*
X93119714Y-88244107D02*
X92776857Y-88244107D01*
X92776857Y-88244107D02*
X92691142Y-88286964D01*
X92691142Y-88286964D02*
X92648285Y-88329821D01*
X92648285Y-88329821D02*
X92605428Y-88415535D01*
X92605428Y-88415535D02*
X92605428Y-88544107D01*
X92605428Y-88544107D02*
X92648285Y-88629821D01*
X92648285Y-88629821D02*
X92691142Y-88672678D01*
X92691142Y-88672678D02*
X92776857Y-88715535D01*
X92776857Y-88715535D02*
X93119714Y-88715535D01*
X92219714Y-89144107D02*
X92219714Y-88244107D01*
X91619714Y-88244107D02*
X91448286Y-88244107D01*
X91448286Y-88244107D02*
X91362571Y-88286964D01*
X91362571Y-88286964D02*
X91276857Y-88372678D01*
X91276857Y-88372678D02*
X91234000Y-88544107D01*
X91234000Y-88544107D02*
X91234000Y-88844107D01*
X91234000Y-88844107D02*
X91276857Y-89015535D01*
X91276857Y-89015535D02*
X91362571Y-89101250D01*
X91362571Y-89101250D02*
X91448286Y-89144107D01*
X91448286Y-89144107D02*
X91619714Y-89144107D01*
X91619714Y-89144107D02*
X91705429Y-89101250D01*
X91705429Y-89101250D02*
X91791143Y-89015535D01*
X91791143Y-89015535D02*
X91834000Y-88844107D01*
X91834000Y-88844107D02*
X91834000Y-88544107D01*
X91834000Y-88544107D02*
X91791143Y-88372678D01*
X91791143Y-88372678D02*
X91705429Y-88286964D01*
X91705429Y-88286964D02*
X91619714Y-88244107D01*
X91062572Y-89229821D02*
X90376857Y-89229821D01*
X89691143Y-89144107D02*
X90205429Y-89144107D01*
X89948286Y-89144107D02*
X89948286Y-88244107D01*
X89948286Y-88244107D02*
X90034000Y-88372678D01*
X90034000Y-88372678D02*
X90119715Y-88458392D01*
X90119715Y-88458392D02*
X90205429Y-88501250D01*
X89348286Y-88329821D02*
X89305429Y-88286964D01*
X89305429Y-88286964D02*
X89219715Y-88244107D01*
X89219715Y-88244107D02*
X89005429Y-88244107D01*
X89005429Y-88244107D02*
X88919715Y-88286964D01*
X88919715Y-88286964D02*
X88876857Y-88329821D01*
X88876857Y-88329821D02*
X88834000Y-88415535D01*
X88834000Y-88415535D02*
X88834000Y-88501250D01*
X88834000Y-88501250D02*
X88876857Y-88629821D01*
X88876857Y-88629821D02*
X89391143Y-89144107D01*
X89391143Y-89144107D02*
X88834000Y-89144107D01*
X93548285Y-89744964D02*
X93634000Y-89702107D01*
X93634000Y-89702107D02*
X93762571Y-89702107D01*
X93762571Y-89702107D02*
X93891142Y-89744964D01*
X93891142Y-89744964D02*
X93976857Y-89830678D01*
X93976857Y-89830678D02*
X94019714Y-89916392D01*
X94019714Y-89916392D02*
X94062571Y-90087821D01*
X94062571Y-90087821D02*
X94062571Y-90216392D01*
X94062571Y-90216392D02*
X94019714Y-90387821D01*
X94019714Y-90387821D02*
X93976857Y-90473535D01*
X93976857Y-90473535D02*
X93891142Y-90559250D01*
X93891142Y-90559250D02*
X93762571Y-90602107D01*
X93762571Y-90602107D02*
X93676857Y-90602107D01*
X93676857Y-90602107D02*
X93548285Y-90559250D01*
X93548285Y-90559250D02*
X93505428Y-90516392D01*
X93505428Y-90516392D02*
X93505428Y-90216392D01*
X93505428Y-90216392D02*
X93676857Y-90216392D01*
X93119714Y-90602107D02*
X93119714Y-89702107D01*
X93119714Y-89702107D02*
X92776857Y-89702107D01*
X92776857Y-89702107D02*
X92691142Y-89744964D01*
X92691142Y-89744964D02*
X92648285Y-89787821D01*
X92648285Y-89787821D02*
X92605428Y-89873535D01*
X92605428Y-89873535D02*
X92605428Y-90002107D01*
X92605428Y-90002107D02*
X92648285Y-90087821D01*
X92648285Y-90087821D02*
X92691142Y-90130678D01*
X92691142Y-90130678D02*
X92776857Y-90173535D01*
X92776857Y-90173535D02*
X93119714Y-90173535D01*
X92219714Y-90602107D02*
X92219714Y-89702107D01*
X91619714Y-89702107D02*
X91448286Y-89702107D01*
X91448286Y-89702107D02*
X91362571Y-89744964D01*
X91362571Y-89744964D02*
X91276857Y-89830678D01*
X91276857Y-89830678D02*
X91234000Y-90002107D01*
X91234000Y-90002107D02*
X91234000Y-90302107D01*
X91234000Y-90302107D02*
X91276857Y-90473535D01*
X91276857Y-90473535D02*
X91362571Y-90559250D01*
X91362571Y-90559250D02*
X91448286Y-90602107D01*
X91448286Y-90602107D02*
X91619714Y-90602107D01*
X91619714Y-90602107D02*
X91705429Y-90559250D01*
X91705429Y-90559250D02*
X91791143Y-90473535D01*
X91791143Y-90473535D02*
X91834000Y-90302107D01*
X91834000Y-90302107D02*
X91834000Y-90002107D01*
X91834000Y-90002107D02*
X91791143Y-89830678D01*
X91791143Y-89830678D02*
X91705429Y-89744964D01*
X91705429Y-89744964D02*
X91619714Y-89702107D01*
X91062572Y-90687821D02*
X90376857Y-90687821D01*
X90205429Y-89787821D02*
X90162572Y-89744964D01*
X90162572Y-89744964D02*
X90076858Y-89702107D01*
X90076858Y-89702107D02*
X89862572Y-89702107D01*
X89862572Y-89702107D02*
X89776858Y-89744964D01*
X89776858Y-89744964D02*
X89734000Y-89787821D01*
X89734000Y-89787821D02*
X89691143Y-89873535D01*
X89691143Y-89873535D02*
X89691143Y-89959250D01*
X89691143Y-89959250D02*
X89734000Y-90087821D01*
X89734000Y-90087821D02*
X90248286Y-90602107D01*
X90248286Y-90602107D02*
X89691143Y-90602107D01*
X89391143Y-89702107D02*
X88834000Y-89702107D01*
X88834000Y-89702107D02*
X89134000Y-90044964D01*
X89134000Y-90044964D02*
X89005429Y-90044964D01*
X89005429Y-90044964D02*
X88919715Y-90087821D01*
X88919715Y-90087821D02*
X88876857Y-90130678D01*
X88876857Y-90130678D02*
X88834000Y-90216392D01*
X88834000Y-90216392D02*
X88834000Y-90430678D01*
X88834000Y-90430678D02*
X88876857Y-90516392D01*
X88876857Y-90516392D02*
X88919715Y-90559250D01*
X88919715Y-90559250D02*
X89005429Y-90602107D01*
X89005429Y-90602107D02*
X89262572Y-90602107D01*
X89262572Y-90602107D02*
X89348286Y-90559250D01*
X89348286Y-90559250D02*
X89391143Y-90516392D01*
X93548285Y-91202964D02*
X93634000Y-91160107D01*
X93634000Y-91160107D02*
X93762571Y-91160107D01*
X93762571Y-91160107D02*
X93891142Y-91202964D01*
X93891142Y-91202964D02*
X93976857Y-91288678D01*
X93976857Y-91288678D02*
X94019714Y-91374392D01*
X94019714Y-91374392D02*
X94062571Y-91545821D01*
X94062571Y-91545821D02*
X94062571Y-91674392D01*
X94062571Y-91674392D02*
X94019714Y-91845821D01*
X94019714Y-91845821D02*
X93976857Y-91931535D01*
X93976857Y-91931535D02*
X93891142Y-92017250D01*
X93891142Y-92017250D02*
X93762571Y-92060107D01*
X93762571Y-92060107D02*
X93676857Y-92060107D01*
X93676857Y-92060107D02*
X93548285Y-92017250D01*
X93548285Y-92017250D02*
X93505428Y-91974392D01*
X93505428Y-91974392D02*
X93505428Y-91674392D01*
X93505428Y-91674392D02*
X93676857Y-91674392D01*
X93119714Y-92060107D02*
X93119714Y-91160107D01*
X93119714Y-91160107D02*
X92776857Y-91160107D01*
X92776857Y-91160107D02*
X92691142Y-91202964D01*
X92691142Y-91202964D02*
X92648285Y-91245821D01*
X92648285Y-91245821D02*
X92605428Y-91331535D01*
X92605428Y-91331535D02*
X92605428Y-91460107D01*
X92605428Y-91460107D02*
X92648285Y-91545821D01*
X92648285Y-91545821D02*
X92691142Y-91588678D01*
X92691142Y-91588678D02*
X92776857Y-91631535D01*
X92776857Y-91631535D02*
X93119714Y-91631535D01*
X92219714Y-92060107D02*
X92219714Y-91160107D01*
X91619714Y-91160107D02*
X91448286Y-91160107D01*
X91448286Y-91160107D02*
X91362571Y-91202964D01*
X91362571Y-91202964D02*
X91276857Y-91288678D01*
X91276857Y-91288678D02*
X91234000Y-91460107D01*
X91234000Y-91460107D02*
X91234000Y-91760107D01*
X91234000Y-91760107D02*
X91276857Y-91931535D01*
X91276857Y-91931535D02*
X91362571Y-92017250D01*
X91362571Y-92017250D02*
X91448286Y-92060107D01*
X91448286Y-92060107D02*
X91619714Y-92060107D01*
X91619714Y-92060107D02*
X91705429Y-92017250D01*
X91705429Y-92017250D02*
X91791143Y-91931535D01*
X91791143Y-91931535D02*
X91834000Y-91760107D01*
X91834000Y-91760107D02*
X91834000Y-91460107D01*
X91834000Y-91460107D02*
X91791143Y-91288678D01*
X91791143Y-91288678D02*
X91705429Y-91202964D01*
X91705429Y-91202964D02*
X91619714Y-91160107D01*
X91062572Y-92145821D02*
X90376857Y-92145821D01*
X89691143Y-92060107D02*
X90205429Y-92060107D01*
X89948286Y-92060107D02*
X89948286Y-91160107D01*
X89948286Y-91160107D02*
X90034000Y-91288678D01*
X90034000Y-91288678D02*
X90119715Y-91374392D01*
X90119715Y-91374392D02*
X90205429Y-91417250D01*
X89176857Y-91545821D02*
X89262572Y-91502964D01*
X89262572Y-91502964D02*
X89305429Y-91460107D01*
X89305429Y-91460107D02*
X89348286Y-91374392D01*
X89348286Y-91374392D02*
X89348286Y-91331535D01*
X89348286Y-91331535D02*
X89305429Y-91245821D01*
X89305429Y-91245821D02*
X89262572Y-91202964D01*
X89262572Y-91202964D02*
X89176857Y-91160107D01*
X89176857Y-91160107D02*
X89005429Y-91160107D01*
X89005429Y-91160107D02*
X88919715Y-91202964D01*
X88919715Y-91202964D02*
X88876857Y-91245821D01*
X88876857Y-91245821D02*
X88834000Y-91331535D01*
X88834000Y-91331535D02*
X88834000Y-91374392D01*
X88834000Y-91374392D02*
X88876857Y-91460107D01*
X88876857Y-91460107D02*
X88919715Y-91502964D01*
X88919715Y-91502964D02*
X89005429Y-91545821D01*
X89005429Y-91545821D02*
X89176857Y-91545821D01*
X89176857Y-91545821D02*
X89262572Y-91588678D01*
X89262572Y-91588678D02*
X89305429Y-91631535D01*
X89305429Y-91631535D02*
X89348286Y-91717250D01*
X89348286Y-91717250D02*
X89348286Y-91888678D01*
X89348286Y-91888678D02*
X89305429Y-91974392D01*
X89305429Y-91974392D02*
X89262572Y-92017250D01*
X89262572Y-92017250D02*
X89176857Y-92060107D01*
X89176857Y-92060107D02*
X89005429Y-92060107D01*
X89005429Y-92060107D02*
X88919715Y-92017250D01*
X88919715Y-92017250D02*
X88876857Y-91974392D01*
X88876857Y-91974392D02*
X88834000Y-91888678D01*
X88834000Y-91888678D02*
X88834000Y-91717250D01*
X88834000Y-91717250D02*
X88876857Y-91631535D01*
X88876857Y-91631535D02*
X88919715Y-91588678D01*
X88919715Y-91588678D02*
X89005429Y-91545821D01*
X117149714Y-82398178D02*
X117649714Y-81683892D01*
X118006857Y-82398178D02*
X118006857Y-80898178D01*
X118006857Y-80898178D02*
X117435428Y-80898178D01*
X117435428Y-80898178D02*
X117292571Y-80969607D01*
X117292571Y-80969607D02*
X117221142Y-81041035D01*
X117221142Y-81041035D02*
X117149714Y-81183892D01*
X117149714Y-81183892D02*
X117149714Y-81398178D01*
X117149714Y-81398178D02*
X117221142Y-81541035D01*
X117221142Y-81541035D02*
X117292571Y-81612464D01*
X117292571Y-81612464D02*
X117435428Y-81683892D01*
X117435428Y-81683892D02*
X118006857Y-81683892D01*
X115864000Y-82398178D02*
X115864000Y-81612464D01*
X115864000Y-81612464D02*
X115935428Y-81469607D01*
X115935428Y-81469607D02*
X116078285Y-81398178D01*
X116078285Y-81398178D02*
X116364000Y-81398178D01*
X116364000Y-81398178D02*
X116506857Y-81469607D01*
X115864000Y-82326750D02*
X116006857Y-82398178D01*
X116006857Y-82398178D02*
X116364000Y-82398178D01*
X116364000Y-82398178D02*
X116506857Y-82326750D01*
X116506857Y-82326750D02*
X116578285Y-82183892D01*
X116578285Y-82183892D02*
X116578285Y-82041035D01*
X116578285Y-82041035D02*
X116506857Y-81898178D01*
X116506857Y-81898178D02*
X116364000Y-81826750D01*
X116364000Y-81826750D02*
X116006857Y-81826750D01*
X116006857Y-81826750D02*
X115864000Y-81755321D01*
X114506857Y-82398178D02*
X114506857Y-80898178D01*
X114506857Y-82326750D02*
X114649714Y-82398178D01*
X114649714Y-82398178D02*
X114935428Y-82398178D01*
X114935428Y-82398178D02*
X115078285Y-82326750D01*
X115078285Y-82326750D02*
X115149714Y-82255321D01*
X115149714Y-82255321D02*
X115221142Y-82112464D01*
X115221142Y-82112464D02*
X115221142Y-81683892D01*
X115221142Y-81683892D02*
X115149714Y-81541035D01*
X115149714Y-81541035D02*
X115078285Y-81469607D01*
X115078285Y-81469607D02*
X114935428Y-81398178D01*
X114935428Y-81398178D02*
X114649714Y-81398178D01*
X114649714Y-81398178D02*
X114506857Y-81469607D01*
X113792571Y-82398178D02*
X113792571Y-81398178D01*
X113792571Y-80898178D02*
X113863999Y-80969607D01*
X113863999Y-80969607D02*
X113792571Y-81041035D01*
X113792571Y-81041035D02*
X113721142Y-80969607D01*
X113721142Y-80969607D02*
X113792571Y-80898178D01*
X113792571Y-80898178D02*
X113792571Y-81041035D01*
X112863999Y-82398178D02*
X113006856Y-82326750D01*
X113006856Y-82326750D02*
X113078285Y-82255321D01*
X113078285Y-82255321D02*
X113149713Y-82112464D01*
X113149713Y-82112464D02*
X113149713Y-81683892D01*
X113149713Y-81683892D02*
X113078285Y-81541035D01*
X113078285Y-81541035D02*
X113006856Y-81469607D01*
X113006856Y-81469607D02*
X112863999Y-81398178D01*
X112863999Y-81398178D02*
X112649713Y-81398178D01*
X112649713Y-81398178D02*
X112506856Y-81469607D01*
X112506856Y-81469607D02*
X112435428Y-81541035D01*
X112435428Y-81541035D02*
X112363999Y-81683892D01*
X112363999Y-81683892D02*
X112363999Y-82112464D01*
X112363999Y-82112464D02*
X112435428Y-82255321D01*
X112435428Y-82255321D02*
X112506856Y-82326750D01*
X112506856Y-82326750D02*
X112649713Y-82398178D01*
X112649713Y-82398178D02*
X112863999Y-82398178D01*
X112979285Y-83785964D02*
X113065000Y-83743107D01*
X113065000Y-83743107D02*
X113193571Y-83743107D01*
X113193571Y-83743107D02*
X113322142Y-83785964D01*
X113322142Y-83785964D02*
X113407857Y-83871678D01*
X113407857Y-83871678D02*
X113450714Y-83957392D01*
X113450714Y-83957392D02*
X113493571Y-84128821D01*
X113493571Y-84128821D02*
X113493571Y-84257392D01*
X113493571Y-84257392D02*
X113450714Y-84428821D01*
X113450714Y-84428821D02*
X113407857Y-84514535D01*
X113407857Y-84514535D02*
X113322142Y-84600250D01*
X113322142Y-84600250D02*
X113193571Y-84643107D01*
X113193571Y-84643107D02*
X113107857Y-84643107D01*
X113107857Y-84643107D02*
X112979285Y-84600250D01*
X112979285Y-84600250D02*
X112936428Y-84557392D01*
X112936428Y-84557392D02*
X112936428Y-84257392D01*
X112936428Y-84257392D02*
X113107857Y-84257392D01*
X112550714Y-84643107D02*
X112550714Y-83743107D01*
X112550714Y-83743107D02*
X112207857Y-83743107D01*
X112207857Y-83743107D02*
X112122142Y-83785964D01*
X112122142Y-83785964D02*
X112079285Y-83828821D01*
X112079285Y-83828821D02*
X112036428Y-83914535D01*
X112036428Y-83914535D02*
X112036428Y-84043107D01*
X112036428Y-84043107D02*
X112079285Y-84128821D01*
X112079285Y-84128821D02*
X112122142Y-84171678D01*
X112122142Y-84171678D02*
X112207857Y-84214535D01*
X112207857Y-84214535D02*
X112550714Y-84214535D01*
X111650714Y-84643107D02*
X111650714Y-83743107D01*
X111050714Y-83743107D02*
X110879286Y-83743107D01*
X110879286Y-83743107D02*
X110793571Y-83785964D01*
X110793571Y-83785964D02*
X110707857Y-83871678D01*
X110707857Y-83871678D02*
X110665000Y-84043107D01*
X110665000Y-84043107D02*
X110665000Y-84343107D01*
X110665000Y-84343107D02*
X110707857Y-84514535D01*
X110707857Y-84514535D02*
X110793571Y-84600250D01*
X110793571Y-84600250D02*
X110879286Y-84643107D01*
X110879286Y-84643107D02*
X111050714Y-84643107D01*
X111050714Y-84643107D02*
X111136429Y-84600250D01*
X111136429Y-84600250D02*
X111222143Y-84514535D01*
X111222143Y-84514535D02*
X111265000Y-84343107D01*
X111265000Y-84343107D02*
X111265000Y-84043107D01*
X111265000Y-84043107D02*
X111222143Y-83871678D01*
X111222143Y-83871678D02*
X111136429Y-83785964D01*
X111136429Y-83785964D02*
X111050714Y-83743107D01*
X110493572Y-84728821D02*
X109807857Y-84728821D01*
X109122143Y-84643107D02*
X109636429Y-84643107D01*
X109379286Y-84643107D02*
X109379286Y-83743107D01*
X109379286Y-83743107D02*
X109465000Y-83871678D01*
X109465000Y-83871678D02*
X109550715Y-83957392D01*
X109550715Y-83957392D02*
X109636429Y-84000250D01*
X108350715Y-84043107D02*
X108350715Y-84643107D01*
X108565000Y-83700250D02*
X108779286Y-84343107D01*
X108779286Y-84343107D02*
X108222143Y-84343107D01*
X112979285Y-85243964D02*
X113065000Y-85201107D01*
X113065000Y-85201107D02*
X113193571Y-85201107D01*
X113193571Y-85201107D02*
X113322142Y-85243964D01*
X113322142Y-85243964D02*
X113407857Y-85329678D01*
X113407857Y-85329678D02*
X113450714Y-85415392D01*
X113450714Y-85415392D02*
X113493571Y-85586821D01*
X113493571Y-85586821D02*
X113493571Y-85715392D01*
X113493571Y-85715392D02*
X113450714Y-85886821D01*
X113450714Y-85886821D02*
X113407857Y-85972535D01*
X113407857Y-85972535D02*
X113322142Y-86058250D01*
X113322142Y-86058250D02*
X113193571Y-86101107D01*
X113193571Y-86101107D02*
X113107857Y-86101107D01*
X113107857Y-86101107D02*
X112979285Y-86058250D01*
X112979285Y-86058250D02*
X112936428Y-86015392D01*
X112936428Y-86015392D02*
X112936428Y-85715392D01*
X112936428Y-85715392D02*
X113107857Y-85715392D01*
X112550714Y-86101107D02*
X112550714Y-85201107D01*
X112550714Y-85201107D02*
X112207857Y-85201107D01*
X112207857Y-85201107D02*
X112122142Y-85243964D01*
X112122142Y-85243964D02*
X112079285Y-85286821D01*
X112079285Y-85286821D02*
X112036428Y-85372535D01*
X112036428Y-85372535D02*
X112036428Y-85501107D01*
X112036428Y-85501107D02*
X112079285Y-85586821D01*
X112079285Y-85586821D02*
X112122142Y-85629678D01*
X112122142Y-85629678D02*
X112207857Y-85672535D01*
X112207857Y-85672535D02*
X112550714Y-85672535D01*
X111650714Y-86101107D02*
X111650714Y-85201107D01*
X111050714Y-85201107D02*
X110879286Y-85201107D01*
X110879286Y-85201107D02*
X110793571Y-85243964D01*
X110793571Y-85243964D02*
X110707857Y-85329678D01*
X110707857Y-85329678D02*
X110665000Y-85501107D01*
X110665000Y-85501107D02*
X110665000Y-85801107D01*
X110665000Y-85801107D02*
X110707857Y-85972535D01*
X110707857Y-85972535D02*
X110793571Y-86058250D01*
X110793571Y-86058250D02*
X110879286Y-86101107D01*
X110879286Y-86101107D02*
X111050714Y-86101107D01*
X111050714Y-86101107D02*
X111136429Y-86058250D01*
X111136429Y-86058250D02*
X111222143Y-85972535D01*
X111222143Y-85972535D02*
X111265000Y-85801107D01*
X111265000Y-85801107D02*
X111265000Y-85501107D01*
X111265000Y-85501107D02*
X111222143Y-85329678D01*
X111222143Y-85329678D02*
X111136429Y-85243964D01*
X111136429Y-85243964D02*
X111050714Y-85201107D01*
X110493572Y-86186821D02*
X109807857Y-86186821D01*
X109122143Y-86101107D02*
X109636429Y-86101107D01*
X109379286Y-86101107D02*
X109379286Y-85201107D01*
X109379286Y-85201107D02*
X109465000Y-85329678D01*
X109465000Y-85329678D02*
X109550715Y-85415392D01*
X109550715Y-85415392D02*
X109636429Y-85458250D01*
X108822143Y-85201107D02*
X108265000Y-85201107D01*
X108265000Y-85201107D02*
X108565000Y-85543964D01*
X108565000Y-85543964D02*
X108436429Y-85543964D01*
X108436429Y-85543964D02*
X108350715Y-85586821D01*
X108350715Y-85586821D02*
X108307857Y-85629678D01*
X108307857Y-85629678D02*
X108265000Y-85715392D01*
X108265000Y-85715392D02*
X108265000Y-85929678D01*
X108265000Y-85929678D02*
X108307857Y-86015392D01*
X108307857Y-86015392D02*
X108350715Y-86058250D01*
X108350715Y-86058250D02*
X108436429Y-86101107D01*
X108436429Y-86101107D02*
X108693572Y-86101107D01*
X108693572Y-86101107D02*
X108779286Y-86058250D01*
X108779286Y-86058250D02*
X108822143Y-86015392D01*
X112979285Y-86701964D02*
X113065000Y-86659107D01*
X113065000Y-86659107D02*
X113193571Y-86659107D01*
X113193571Y-86659107D02*
X113322142Y-86701964D01*
X113322142Y-86701964D02*
X113407857Y-86787678D01*
X113407857Y-86787678D02*
X113450714Y-86873392D01*
X113450714Y-86873392D02*
X113493571Y-87044821D01*
X113493571Y-87044821D02*
X113493571Y-87173392D01*
X113493571Y-87173392D02*
X113450714Y-87344821D01*
X113450714Y-87344821D02*
X113407857Y-87430535D01*
X113407857Y-87430535D02*
X113322142Y-87516250D01*
X113322142Y-87516250D02*
X113193571Y-87559107D01*
X113193571Y-87559107D02*
X113107857Y-87559107D01*
X113107857Y-87559107D02*
X112979285Y-87516250D01*
X112979285Y-87516250D02*
X112936428Y-87473392D01*
X112936428Y-87473392D02*
X112936428Y-87173392D01*
X112936428Y-87173392D02*
X113107857Y-87173392D01*
X112550714Y-87559107D02*
X112550714Y-86659107D01*
X112550714Y-86659107D02*
X112207857Y-86659107D01*
X112207857Y-86659107D02*
X112122142Y-86701964D01*
X112122142Y-86701964D02*
X112079285Y-86744821D01*
X112079285Y-86744821D02*
X112036428Y-86830535D01*
X112036428Y-86830535D02*
X112036428Y-86959107D01*
X112036428Y-86959107D02*
X112079285Y-87044821D01*
X112079285Y-87044821D02*
X112122142Y-87087678D01*
X112122142Y-87087678D02*
X112207857Y-87130535D01*
X112207857Y-87130535D02*
X112550714Y-87130535D01*
X111650714Y-87559107D02*
X111650714Y-86659107D01*
X111050714Y-86659107D02*
X110879286Y-86659107D01*
X110879286Y-86659107D02*
X110793571Y-86701964D01*
X110793571Y-86701964D02*
X110707857Y-86787678D01*
X110707857Y-86787678D02*
X110665000Y-86959107D01*
X110665000Y-86959107D02*
X110665000Y-87259107D01*
X110665000Y-87259107D02*
X110707857Y-87430535D01*
X110707857Y-87430535D02*
X110793571Y-87516250D01*
X110793571Y-87516250D02*
X110879286Y-87559107D01*
X110879286Y-87559107D02*
X111050714Y-87559107D01*
X111050714Y-87559107D02*
X111136429Y-87516250D01*
X111136429Y-87516250D02*
X111222143Y-87430535D01*
X111222143Y-87430535D02*
X111265000Y-87259107D01*
X111265000Y-87259107D02*
X111265000Y-86959107D01*
X111265000Y-86959107D02*
X111222143Y-86787678D01*
X111222143Y-86787678D02*
X111136429Y-86701964D01*
X111136429Y-86701964D02*
X111050714Y-86659107D01*
X110493572Y-87644821D02*
X109807857Y-87644821D01*
X109122143Y-87559107D02*
X109636429Y-87559107D01*
X109379286Y-87559107D02*
X109379286Y-86659107D01*
X109379286Y-86659107D02*
X109465000Y-86787678D01*
X109465000Y-86787678D02*
X109550715Y-86873392D01*
X109550715Y-86873392D02*
X109636429Y-86916250D01*
X108307857Y-86659107D02*
X108736429Y-86659107D01*
X108736429Y-86659107D02*
X108779286Y-87087678D01*
X108779286Y-87087678D02*
X108736429Y-87044821D01*
X108736429Y-87044821D02*
X108650715Y-87001964D01*
X108650715Y-87001964D02*
X108436429Y-87001964D01*
X108436429Y-87001964D02*
X108350715Y-87044821D01*
X108350715Y-87044821D02*
X108307857Y-87087678D01*
X108307857Y-87087678D02*
X108265000Y-87173392D01*
X108265000Y-87173392D02*
X108265000Y-87387678D01*
X108265000Y-87387678D02*
X108307857Y-87473392D01*
X108307857Y-87473392D02*
X108350715Y-87516250D01*
X108350715Y-87516250D02*
X108436429Y-87559107D01*
X108436429Y-87559107D02*
X108650715Y-87559107D01*
X108650715Y-87559107D02*
X108736429Y-87516250D01*
X108736429Y-87516250D02*
X108779286Y-87473392D01*
X112979285Y-88159964D02*
X113065000Y-88117107D01*
X113065000Y-88117107D02*
X113193571Y-88117107D01*
X113193571Y-88117107D02*
X113322142Y-88159964D01*
X113322142Y-88159964D02*
X113407857Y-88245678D01*
X113407857Y-88245678D02*
X113450714Y-88331392D01*
X113450714Y-88331392D02*
X113493571Y-88502821D01*
X113493571Y-88502821D02*
X113493571Y-88631392D01*
X113493571Y-88631392D02*
X113450714Y-88802821D01*
X113450714Y-88802821D02*
X113407857Y-88888535D01*
X113407857Y-88888535D02*
X113322142Y-88974250D01*
X113322142Y-88974250D02*
X113193571Y-89017107D01*
X113193571Y-89017107D02*
X113107857Y-89017107D01*
X113107857Y-89017107D02*
X112979285Y-88974250D01*
X112979285Y-88974250D02*
X112936428Y-88931392D01*
X112936428Y-88931392D02*
X112936428Y-88631392D01*
X112936428Y-88631392D02*
X113107857Y-88631392D01*
X112550714Y-89017107D02*
X112550714Y-88117107D01*
X112550714Y-88117107D02*
X112207857Y-88117107D01*
X112207857Y-88117107D02*
X112122142Y-88159964D01*
X112122142Y-88159964D02*
X112079285Y-88202821D01*
X112079285Y-88202821D02*
X112036428Y-88288535D01*
X112036428Y-88288535D02*
X112036428Y-88417107D01*
X112036428Y-88417107D02*
X112079285Y-88502821D01*
X112079285Y-88502821D02*
X112122142Y-88545678D01*
X112122142Y-88545678D02*
X112207857Y-88588535D01*
X112207857Y-88588535D02*
X112550714Y-88588535D01*
X111650714Y-89017107D02*
X111650714Y-88117107D01*
X111050714Y-88117107D02*
X110879286Y-88117107D01*
X110879286Y-88117107D02*
X110793571Y-88159964D01*
X110793571Y-88159964D02*
X110707857Y-88245678D01*
X110707857Y-88245678D02*
X110665000Y-88417107D01*
X110665000Y-88417107D02*
X110665000Y-88717107D01*
X110665000Y-88717107D02*
X110707857Y-88888535D01*
X110707857Y-88888535D02*
X110793571Y-88974250D01*
X110793571Y-88974250D02*
X110879286Y-89017107D01*
X110879286Y-89017107D02*
X111050714Y-89017107D01*
X111050714Y-89017107D02*
X111136429Y-88974250D01*
X111136429Y-88974250D02*
X111222143Y-88888535D01*
X111222143Y-88888535D02*
X111265000Y-88717107D01*
X111265000Y-88717107D02*
X111265000Y-88417107D01*
X111265000Y-88417107D02*
X111222143Y-88245678D01*
X111222143Y-88245678D02*
X111136429Y-88159964D01*
X111136429Y-88159964D02*
X111050714Y-88117107D01*
X110493572Y-89102821D02*
X109807857Y-89102821D01*
X109122143Y-89017107D02*
X109636429Y-89017107D01*
X109379286Y-89017107D02*
X109379286Y-88117107D01*
X109379286Y-88117107D02*
X109465000Y-88245678D01*
X109465000Y-88245678D02*
X109550715Y-88331392D01*
X109550715Y-88331392D02*
X109636429Y-88374250D01*
X108350715Y-88117107D02*
X108522143Y-88117107D01*
X108522143Y-88117107D02*
X108607857Y-88159964D01*
X108607857Y-88159964D02*
X108650715Y-88202821D01*
X108650715Y-88202821D02*
X108736429Y-88331392D01*
X108736429Y-88331392D02*
X108779286Y-88502821D01*
X108779286Y-88502821D02*
X108779286Y-88845678D01*
X108779286Y-88845678D02*
X108736429Y-88931392D01*
X108736429Y-88931392D02*
X108693572Y-88974250D01*
X108693572Y-88974250D02*
X108607857Y-89017107D01*
X108607857Y-89017107D02*
X108436429Y-89017107D01*
X108436429Y-89017107D02*
X108350715Y-88974250D01*
X108350715Y-88974250D02*
X108307857Y-88931392D01*
X108307857Y-88931392D02*
X108265000Y-88845678D01*
X108265000Y-88845678D02*
X108265000Y-88631392D01*
X108265000Y-88631392D02*
X108307857Y-88545678D01*
X108307857Y-88545678D02*
X108350715Y-88502821D01*
X108350715Y-88502821D02*
X108436429Y-88459964D01*
X108436429Y-88459964D02*
X108607857Y-88459964D01*
X108607857Y-88459964D02*
X108693572Y-88502821D01*
X108693572Y-88502821D02*
X108736429Y-88545678D01*
X108736429Y-88545678D02*
X108779286Y-88631392D01*
X112979285Y-89617964D02*
X113065000Y-89575107D01*
X113065000Y-89575107D02*
X113193571Y-89575107D01*
X113193571Y-89575107D02*
X113322142Y-89617964D01*
X113322142Y-89617964D02*
X113407857Y-89703678D01*
X113407857Y-89703678D02*
X113450714Y-89789392D01*
X113450714Y-89789392D02*
X113493571Y-89960821D01*
X113493571Y-89960821D02*
X113493571Y-90089392D01*
X113493571Y-90089392D02*
X113450714Y-90260821D01*
X113450714Y-90260821D02*
X113407857Y-90346535D01*
X113407857Y-90346535D02*
X113322142Y-90432250D01*
X113322142Y-90432250D02*
X113193571Y-90475107D01*
X113193571Y-90475107D02*
X113107857Y-90475107D01*
X113107857Y-90475107D02*
X112979285Y-90432250D01*
X112979285Y-90432250D02*
X112936428Y-90389392D01*
X112936428Y-90389392D02*
X112936428Y-90089392D01*
X112936428Y-90089392D02*
X113107857Y-90089392D01*
X112550714Y-90475107D02*
X112550714Y-89575107D01*
X112550714Y-89575107D02*
X112207857Y-89575107D01*
X112207857Y-89575107D02*
X112122142Y-89617964D01*
X112122142Y-89617964D02*
X112079285Y-89660821D01*
X112079285Y-89660821D02*
X112036428Y-89746535D01*
X112036428Y-89746535D02*
X112036428Y-89875107D01*
X112036428Y-89875107D02*
X112079285Y-89960821D01*
X112079285Y-89960821D02*
X112122142Y-90003678D01*
X112122142Y-90003678D02*
X112207857Y-90046535D01*
X112207857Y-90046535D02*
X112550714Y-90046535D01*
X111650714Y-90475107D02*
X111650714Y-89575107D01*
X111050714Y-89575107D02*
X110879286Y-89575107D01*
X110879286Y-89575107D02*
X110793571Y-89617964D01*
X110793571Y-89617964D02*
X110707857Y-89703678D01*
X110707857Y-89703678D02*
X110665000Y-89875107D01*
X110665000Y-89875107D02*
X110665000Y-90175107D01*
X110665000Y-90175107D02*
X110707857Y-90346535D01*
X110707857Y-90346535D02*
X110793571Y-90432250D01*
X110793571Y-90432250D02*
X110879286Y-90475107D01*
X110879286Y-90475107D02*
X111050714Y-90475107D01*
X111050714Y-90475107D02*
X111136429Y-90432250D01*
X111136429Y-90432250D02*
X111222143Y-90346535D01*
X111222143Y-90346535D02*
X111265000Y-90175107D01*
X111265000Y-90175107D02*
X111265000Y-89875107D01*
X111265000Y-89875107D02*
X111222143Y-89703678D01*
X111222143Y-89703678D02*
X111136429Y-89617964D01*
X111136429Y-89617964D02*
X111050714Y-89575107D01*
X110493572Y-90560821D02*
X109807857Y-90560821D01*
X109422143Y-89575107D02*
X109336429Y-89575107D01*
X109336429Y-89575107D02*
X109250715Y-89617964D01*
X109250715Y-89617964D02*
X109207858Y-89660821D01*
X109207858Y-89660821D02*
X109165000Y-89746535D01*
X109165000Y-89746535D02*
X109122143Y-89917964D01*
X109122143Y-89917964D02*
X109122143Y-90132250D01*
X109122143Y-90132250D02*
X109165000Y-90303678D01*
X109165000Y-90303678D02*
X109207858Y-90389392D01*
X109207858Y-90389392D02*
X109250715Y-90432250D01*
X109250715Y-90432250D02*
X109336429Y-90475107D01*
X109336429Y-90475107D02*
X109422143Y-90475107D01*
X109422143Y-90475107D02*
X109507858Y-90432250D01*
X109507858Y-90432250D02*
X109550715Y-90389392D01*
X109550715Y-90389392D02*
X109593572Y-90303678D01*
X109593572Y-90303678D02*
X109636429Y-90132250D01*
X109636429Y-90132250D02*
X109636429Y-89917964D01*
X109636429Y-89917964D02*
X109593572Y-89746535D01*
X109593572Y-89746535D02*
X109550715Y-89660821D01*
X109550715Y-89660821D02*
X109507858Y-89617964D01*
X109507858Y-89617964D02*
X109422143Y-89575107D01*
X108350715Y-89875107D02*
X108350715Y-90475107D01*
X108565000Y-89532250D02*
X108779286Y-90175107D01*
X108779286Y-90175107D02*
X108222143Y-90175107D01*
X112979285Y-91075964D02*
X113065000Y-91033107D01*
X113065000Y-91033107D02*
X113193571Y-91033107D01*
X113193571Y-91033107D02*
X113322142Y-91075964D01*
X113322142Y-91075964D02*
X113407857Y-91161678D01*
X113407857Y-91161678D02*
X113450714Y-91247392D01*
X113450714Y-91247392D02*
X113493571Y-91418821D01*
X113493571Y-91418821D02*
X113493571Y-91547392D01*
X113493571Y-91547392D02*
X113450714Y-91718821D01*
X113450714Y-91718821D02*
X113407857Y-91804535D01*
X113407857Y-91804535D02*
X113322142Y-91890250D01*
X113322142Y-91890250D02*
X113193571Y-91933107D01*
X113193571Y-91933107D02*
X113107857Y-91933107D01*
X113107857Y-91933107D02*
X112979285Y-91890250D01*
X112979285Y-91890250D02*
X112936428Y-91847392D01*
X112936428Y-91847392D02*
X112936428Y-91547392D01*
X112936428Y-91547392D02*
X113107857Y-91547392D01*
X112550714Y-91933107D02*
X112550714Y-91033107D01*
X112550714Y-91033107D02*
X112207857Y-91033107D01*
X112207857Y-91033107D02*
X112122142Y-91075964D01*
X112122142Y-91075964D02*
X112079285Y-91118821D01*
X112079285Y-91118821D02*
X112036428Y-91204535D01*
X112036428Y-91204535D02*
X112036428Y-91333107D01*
X112036428Y-91333107D02*
X112079285Y-91418821D01*
X112079285Y-91418821D02*
X112122142Y-91461678D01*
X112122142Y-91461678D02*
X112207857Y-91504535D01*
X112207857Y-91504535D02*
X112550714Y-91504535D01*
X111650714Y-91933107D02*
X111650714Y-91033107D01*
X111050714Y-91033107D02*
X110879286Y-91033107D01*
X110879286Y-91033107D02*
X110793571Y-91075964D01*
X110793571Y-91075964D02*
X110707857Y-91161678D01*
X110707857Y-91161678D02*
X110665000Y-91333107D01*
X110665000Y-91333107D02*
X110665000Y-91633107D01*
X110665000Y-91633107D02*
X110707857Y-91804535D01*
X110707857Y-91804535D02*
X110793571Y-91890250D01*
X110793571Y-91890250D02*
X110879286Y-91933107D01*
X110879286Y-91933107D02*
X111050714Y-91933107D01*
X111050714Y-91933107D02*
X111136429Y-91890250D01*
X111136429Y-91890250D02*
X111222143Y-91804535D01*
X111222143Y-91804535D02*
X111265000Y-91633107D01*
X111265000Y-91633107D02*
X111265000Y-91333107D01*
X111265000Y-91333107D02*
X111222143Y-91161678D01*
X111222143Y-91161678D02*
X111136429Y-91075964D01*
X111136429Y-91075964D02*
X111050714Y-91033107D01*
X110493572Y-92018821D02*
X109807857Y-92018821D01*
X109679286Y-91033107D02*
X109122143Y-91033107D01*
X109122143Y-91033107D02*
X109422143Y-91375964D01*
X109422143Y-91375964D02*
X109293572Y-91375964D01*
X109293572Y-91375964D02*
X109207858Y-91418821D01*
X109207858Y-91418821D02*
X109165000Y-91461678D01*
X109165000Y-91461678D02*
X109122143Y-91547392D01*
X109122143Y-91547392D02*
X109122143Y-91761678D01*
X109122143Y-91761678D02*
X109165000Y-91847392D01*
X109165000Y-91847392D02*
X109207858Y-91890250D01*
X109207858Y-91890250D02*
X109293572Y-91933107D01*
X109293572Y-91933107D02*
X109550715Y-91933107D01*
X109550715Y-91933107D02*
X109636429Y-91890250D01*
X109636429Y-91890250D02*
X109679286Y-91847392D01*
X108350715Y-91033107D02*
X108522143Y-91033107D01*
X108522143Y-91033107D02*
X108607857Y-91075964D01*
X108607857Y-91075964D02*
X108650715Y-91118821D01*
X108650715Y-91118821D02*
X108736429Y-91247392D01*
X108736429Y-91247392D02*
X108779286Y-91418821D01*
X108779286Y-91418821D02*
X108779286Y-91761678D01*
X108779286Y-91761678D02*
X108736429Y-91847392D01*
X108736429Y-91847392D02*
X108693572Y-91890250D01*
X108693572Y-91890250D02*
X108607857Y-91933107D01*
X108607857Y-91933107D02*
X108436429Y-91933107D01*
X108436429Y-91933107D02*
X108350715Y-91890250D01*
X108350715Y-91890250D02*
X108307857Y-91847392D01*
X108307857Y-91847392D02*
X108265000Y-91761678D01*
X108265000Y-91761678D02*
X108265000Y-91547392D01*
X108265000Y-91547392D02*
X108307857Y-91461678D01*
X108307857Y-91461678D02*
X108350715Y-91418821D01*
X108350715Y-91418821D02*
X108436429Y-91375964D01*
X108436429Y-91375964D02*
X108607857Y-91375964D01*
X108607857Y-91375964D02*
X108693572Y-91418821D01*
X108693572Y-91418821D02*
X108736429Y-91461678D01*
X108736429Y-91461678D02*
X108779286Y-91547392D01*
D12*
X119237190Y-94000619D02*
X119237190Y-94714904D01*
X119237190Y-94714904D02*
X119284809Y-94857761D01*
X119284809Y-94857761D02*
X119380047Y-94953000D01*
X119380047Y-94953000D02*
X119522904Y-95000619D01*
X119522904Y-95000619D02*
X119618142Y-95000619D01*
X118284809Y-95000619D02*
X118760999Y-95000619D01*
X118760999Y-95000619D02*
X118760999Y-94000619D01*
X117380047Y-94905380D02*
X117427666Y-94953000D01*
X117427666Y-94953000D02*
X117570523Y-95000619D01*
X117570523Y-95000619D02*
X117665761Y-95000619D01*
X117665761Y-95000619D02*
X117808618Y-94953000D01*
X117808618Y-94953000D02*
X117903856Y-94857761D01*
X117903856Y-94857761D02*
X117951475Y-94762523D01*
X117951475Y-94762523D02*
X117999094Y-94572047D01*
X117999094Y-94572047D02*
X117999094Y-94429190D01*
X117999094Y-94429190D02*
X117951475Y-94238714D01*
X117951475Y-94238714D02*
X117903856Y-94143476D01*
X117903856Y-94143476D02*
X117808618Y-94048238D01*
X117808618Y-94048238D02*
X117665761Y-94000619D01*
X117665761Y-94000619D02*
X117570523Y-94000619D01*
X117570523Y-94000619D02*
X117427666Y-94048238D01*
X117427666Y-94048238D02*
X117380047Y-94095857D01*
X116665761Y-94000619D02*
X116665761Y-94714904D01*
X116665761Y-94714904D02*
X116713380Y-94857761D01*
X116713380Y-94857761D02*
X116808618Y-94953000D01*
X116808618Y-94953000D02*
X116951475Y-95000619D01*
X116951475Y-95000619D02*
X117046713Y-95000619D01*
X115713380Y-95000619D02*
X116189570Y-95000619D01*
X116189570Y-95000619D02*
X116189570Y-94000619D01*
X114808618Y-94905380D02*
X114856237Y-94953000D01*
X114856237Y-94953000D02*
X114999094Y-95000619D01*
X114999094Y-95000619D02*
X115094332Y-95000619D01*
X115094332Y-95000619D02*
X115237189Y-94953000D01*
X115237189Y-94953000D02*
X115332427Y-94857761D01*
X115332427Y-94857761D02*
X115380046Y-94762523D01*
X115380046Y-94762523D02*
X115427665Y-94572047D01*
X115427665Y-94572047D02*
X115427665Y-94429190D01*
X115427665Y-94429190D02*
X115380046Y-94238714D01*
X115380046Y-94238714D02*
X115332427Y-94143476D01*
X115332427Y-94143476D02*
X115237189Y-94048238D01*
X115237189Y-94048238D02*
X115094332Y-94000619D01*
X115094332Y-94000619D02*
X114999094Y-94000619D01*
X114999094Y-94000619D02*
X114856237Y-94048238D01*
X114856237Y-94048238D02*
X114808618Y-94095857D01*
X114094332Y-94000619D02*
X114094332Y-94714904D01*
X114094332Y-94714904D02*
X114141951Y-94857761D01*
X114141951Y-94857761D02*
X114237189Y-94953000D01*
X114237189Y-94953000D02*
X114380046Y-95000619D01*
X114380046Y-95000619D02*
X114475284Y-95000619D01*
X113141951Y-95000619D02*
X113618141Y-95000619D01*
X113618141Y-95000619D02*
X113618141Y-94000619D01*
X112237189Y-94905380D02*
X112284808Y-94953000D01*
X112284808Y-94953000D02*
X112427665Y-95000619D01*
X112427665Y-95000619D02*
X112522903Y-95000619D01*
X112522903Y-95000619D02*
X112665760Y-94953000D01*
X112665760Y-94953000D02*
X112760998Y-94857761D01*
X112760998Y-94857761D02*
X112808617Y-94762523D01*
X112808617Y-94762523D02*
X112856236Y-94572047D01*
X112856236Y-94572047D02*
X112856236Y-94429190D01*
X112856236Y-94429190D02*
X112808617Y-94238714D01*
X112808617Y-94238714D02*
X112760998Y-94143476D01*
X112760998Y-94143476D02*
X112665760Y-94048238D01*
X112665760Y-94048238D02*
X112522903Y-94000619D01*
X112522903Y-94000619D02*
X112427665Y-94000619D01*
X112427665Y-94000619D02*
X112284808Y-94048238D01*
X112284808Y-94048238D02*
X112237189Y-94095857D01*
X111522903Y-94000619D02*
X111522903Y-94714904D01*
X111522903Y-94714904D02*
X111570522Y-94857761D01*
X111570522Y-94857761D02*
X111665760Y-94953000D01*
X111665760Y-94953000D02*
X111808617Y-95000619D01*
X111808617Y-95000619D02*
X111903855Y-95000619D01*
X110570522Y-95000619D02*
X111046712Y-95000619D01*
X111046712Y-95000619D02*
X111046712Y-94000619D01*
X109665760Y-94905380D02*
X109713379Y-94953000D01*
X109713379Y-94953000D02*
X109856236Y-95000619D01*
X109856236Y-95000619D02*
X109951474Y-95000619D01*
X109951474Y-95000619D02*
X110094331Y-94953000D01*
X110094331Y-94953000D02*
X110189569Y-94857761D01*
X110189569Y-94857761D02*
X110237188Y-94762523D01*
X110237188Y-94762523D02*
X110284807Y-94572047D01*
X110284807Y-94572047D02*
X110284807Y-94429190D01*
X110284807Y-94429190D02*
X110237188Y-94238714D01*
X110237188Y-94238714D02*
X110189569Y-94143476D01*
X110189569Y-94143476D02*
X110094331Y-94048238D01*
X110094331Y-94048238D02*
X109951474Y-94000619D01*
X109951474Y-94000619D02*
X109856236Y-94000619D01*
X109856236Y-94000619D02*
X109713379Y-94048238D01*
X109713379Y-94048238D02*
X109665760Y-94095857D01*
D11*
X103544714Y-84706607D02*
X103544714Y-83806607D01*
X103544714Y-83806607D02*
X103201857Y-83806607D01*
X103201857Y-83806607D02*
X103116142Y-83849464D01*
X103116142Y-83849464D02*
X103073285Y-83892321D01*
X103073285Y-83892321D02*
X103030428Y-83978035D01*
X103030428Y-83978035D02*
X103030428Y-84106607D01*
X103030428Y-84106607D02*
X103073285Y-84192321D01*
X103073285Y-84192321D02*
X103116142Y-84235178D01*
X103116142Y-84235178D02*
X103201857Y-84278035D01*
X103201857Y-84278035D02*
X103544714Y-84278035D01*
X102644714Y-84706607D02*
X102644714Y-83806607D01*
X102644714Y-84235178D02*
X102130428Y-84235178D01*
X102130428Y-84706607D02*
X102130428Y-83806607D01*
X101530428Y-84278035D02*
X101530428Y-84706607D01*
X101830428Y-83806607D02*
X101530428Y-84278035D01*
X101530428Y-84278035D02*
X101230428Y-83806607D01*
X99730428Y-84620892D02*
X99773285Y-84663750D01*
X99773285Y-84663750D02*
X99901857Y-84706607D01*
X99901857Y-84706607D02*
X99987571Y-84706607D01*
X99987571Y-84706607D02*
X100116142Y-84663750D01*
X100116142Y-84663750D02*
X100201857Y-84578035D01*
X100201857Y-84578035D02*
X100244714Y-84492321D01*
X100244714Y-84492321D02*
X100287571Y-84320892D01*
X100287571Y-84320892D02*
X100287571Y-84192321D01*
X100287571Y-84192321D02*
X100244714Y-84020892D01*
X100244714Y-84020892D02*
X100201857Y-83935178D01*
X100201857Y-83935178D02*
X100116142Y-83849464D01*
X100116142Y-83849464D02*
X99987571Y-83806607D01*
X99987571Y-83806607D02*
X99901857Y-83806607D01*
X99901857Y-83806607D02*
X99773285Y-83849464D01*
X99773285Y-83849464D02*
X99730428Y-83892321D01*
X99344714Y-84706607D02*
X99344714Y-83806607D01*
X98959000Y-84706607D02*
X98959000Y-84235178D01*
X98959000Y-84235178D02*
X99001857Y-84149464D01*
X99001857Y-84149464D02*
X99087571Y-84106607D01*
X99087571Y-84106607D02*
X99216142Y-84106607D01*
X99216142Y-84106607D02*
X99301857Y-84149464D01*
X99301857Y-84149464D02*
X99344714Y-84192321D01*
X98530428Y-84706607D02*
X98530428Y-84106607D01*
X98530428Y-83806607D02*
X98573285Y-83849464D01*
X98573285Y-83849464D02*
X98530428Y-83892321D01*
X98530428Y-83892321D02*
X98487571Y-83849464D01*
X98487571Y-83849464D02*
X98530428Y-83806607D01*
X98530428Y-83806607D02*
X98530428Y-83892321D01*
X98101857Y-84106607D02*
X98101857Y-85006607D01*
X98101857Y-84149464D02*
X98016143Y-84106607D01*
X98016143Y-84106607D02*
X97844714Y-84106607D01*
X97844714Y-84106607D02*
X97759000Y-84149464D01*
X97759000Y-84149464D02*
X97716143Y-84192321D01*
X97716143Y-84192321D02*
X97673285Y-84278035D01*
X97673285Y-84278035D02*
X97673285Y-84535178D01*
X97673285Y-84535178D02*
X97716143Y-84620892D01*
X97716143Y-84620892D02*
X97759000Y-84663750D01*
X97759000Y-84663750D02*
X97844714Y-84706607D01*
X97844714Y-84706607D02*
X98016143Y-84706607D01*
X98016143Y-84706607D02*
X98101857Y-84663750D01*
X97287571Y-84620892D02*
X97244714Y-84663750D01*
X97244714Y-84663750D02*
X97287571Y-84706607D01*
X97287571Y-84706607D02*
X97330428Y-84663750D01*
X97330428Y-84663750D02*
X97287571Y-84620892D01*
X97287571Y-84620892D02*
X97287571Y-84706607D01*
X97287571Y-84149464D02*
X97244714Y-84192321D01*
X97244714Y-84192321D02*
X97287571Y-84235178D01*
X97287571Y-84235178D02*
X97330428Y-84192321D01*
X97330428Y-84192321D02*
X97287571Y-84149464D01*
X97287571Y-84149464D02*
X97287571Y-84235178D01*
X103587571Y-85907464D02*
X103159000Y-85907464D01*
X103673285Y-86164607D02*
X103373285Y-85264607D01*
X103373285Y-85264607D02*
X103073285Y-86164607D01*
X102387571Y-86164607D02*
X102387571Y-85264607D01*
X102387571Y-86121750D02*
X102473285Y-86164607D01*
X102473285Y-86164607D02*
X102644713Y-86164607D01*
X102644713Y-86164607D02*
X102730428Y-86121750D01*
X102730428Y-86121750D02*
X102773285Y-86078892D01*
X102773285Y-86078892D02*
X102816142Y-85993178D01*
X102816142Y-85993178D02*
X102816142Y-85736035D01*
X102816142Y-85736035D02*
X102773285Y-85650321D01*
X102773285Y-85650321D02*
X102730428Y-85607464D01*
X102730428Y-85607464D02*
X102644713Y-85564607D01*
X102644713Y-85564607D02*
X102473285Y-85564607D01*
X102473285Y-85564607D02*
X102387571Y-85607464D01*
X101573285Y-86164607D02*
X101573285Y-85264607D01*
X101573285Y-86121750D02*
X101658999Y-86164607D01*
X101658999Y-86164607D02*
X101830427Y-86164607D01*
X101830427Y-86164607D02*
X101916142Y-86121750D01*
X101916142Y-86121750D02*
X101958999Y-86078892D01*
X101958999Y-86078892D02*
X102001856Y-85993178D01*
X102001856Y-85993178D02*
X102001856Y-85736035D01*
X102001856Y-85736035D02*
X101958999Y-85650321D01*
X101958999Y-85650321D02*
X101916142Y-85607464D01*
X101916142Y-85607464D02*
X101830427Y-85564607D01*
X101830427Y-85564607D02*
X101658999Y-85564607D01*
X101658999Y-85564607D02*
X101573285Y-85607464D01*
X101144713Y-86164607D02*
X101144713Y-85564607D01*
X101144713Y-85736035D02*
X101101856Y-85650321D01*
X101101856Y-85650321D02*
X101058999Y-85607464D01*
X101058999Y-85607464D02*
X100973284Y-85564607D01*
X100973284Y-85564607D02*
X100887570Y-85564607D01*
X100244713Y-86121750D02*
X100330427Y-86164607D01*
X100330427Y-86164607D02*
X100501856Y-86164607D01*
X100501856Y-86164607D02*
X100587570Y-86121750D01*
X100587570Y-86121750D02*
X100630427Y-86036035D01*
X100630427Y-86036035D02*
X100630427Y-85693178D01*
X100630427Y-85693178D02*
X100587570Y-85607464D01*
X100587570Y-85607464D02*
X100501856Y-85564607D01*
X100501856Y-85564607D02*
X100330427Y-85564607D01*
X100330427Y-85564607D02*
X100244713Y-85607464D01*
X100244713Y-85607464D02*
X100201856Y-85693178D01*
X100201856Y-85693178D02*
X100201856Y-85778892D01*
X100201856Y-85778892D02*
X100630427Y-85864607D01*
X99858998Y-86121750D02*
X99773284Y-86164607D01*
X99773284Y-86164607D02*
X99601855Y-86164607D01*
X99601855Y-86164607D02*
X99516141Y-86121750D01*
X99516141Y-86121750D02*
X99473284Y-86036035D01*
X99473284Y-86036035D02*
X99473284Y-85993178D01*
X99473284Y-85993178D02*
X99516141Y-85907464D01*
X99516141Y-85907464D02*
X99601855Y-85864607D01*
X99601855Y-85864607D02*
X99730427Y-85864607D01*
X99730427Y-85864607D02*
X99816141Y-85821750D01*
X99816141Y-85821750D02*
X99858998Y-85736035D01*
X99858998Y-85736035D02*
X99858998Y-85693178D01*
X99858998Y-85693178D02*
X99816141Y-85607464D01*
X99816141Y-85607464D02*
X99730427Y-85564607D01*
X99730427Y-85564607D02*
X99601855Y-85564607D01*
X99601855Y-85564607D02*
X99516141Y-85607464D01*
X99130427Y-86121750D02*
X99044713Y-86164607D01*
X99044713Y-86164607D02*
X98873284Y-86164607D01*
X98873284Y-86164607D02*
X98787570Y-86121750D01*
X98787570Y-86121750D02*
X98744713Y-86036035D01*
X98744713Y-86036035D02*
X98744713Y-85993178D01*
X98744713Y-85993178D02*
X98787570Y-85907464D01*
X98787570Y-85907464D02*
X98873284Y-85864607D01*
X98873284Y-85864607D02*
X99001856Y-85864607D01*
X99001856Y-85864607D02*
X99087570Y-85821750D01*
X99087570Y-85821750D02*
X99130427Y-85736035D01*
X99130427Y-85736035D02*
X99130427Y-85693178D01*
X99130427Y-85693178D02*
X99087570Y-85607464D01*
X99087570Y-85607464D02*
X99001856Y-85564607D01*
X99001856Y-85564607D02*
X98873284Y-85564607D01*
X98873284Y-85564607D02*
X98787570Y-85607464D01*
X98358999Y-86078892D02*
X98316142Y-86121750D01*
X98316142Y-86121750D02*
X98358999Y-86164607D01*
X98358999Y-86164607D02*
X98401856Y-86121750D01*
X98401856Y-86121750D02*
X98358999Y-86078892D01*
X98358999Y-86078892D02*
X98358999Y-86164607D01*
X98358999Y-85607464D02*
X98316142Y-85650321D01*
X98316142Y-85650321D02*
X98358999Y-85693178D01*
X98358999Y-85693178D02*
X98401856Y-85650321D01*
X98401856Y-85650321D02*
X98358999Y-85607464D01*
X98358999Y-85607464D02*
X98358999Y-85693178D01*
X103030428Y-87536892D02*
X103073285Y-87579750D01*
X103073285Y-87579750D02*
X103201857Y-87622607D01*
X103201857Y-87622607D02*
X103287571Y-87622607D01*
X103287571Y-87622607D02*
X103416142Y-87579750D01*
X103416142Y-87579750D02*
X103501857Y-87494035D01*
X103501857Y-87494035D02*
X103544714Y-87408321D01*
X103544714Y-87408321D02*
X103587571Y-87236892D01*
X103587571Y-87236892D02*
X103587571Y-87108321D01*
X103587571Y-87108321D02*
X103544714Y-86936892D01*
X103544714Y-86936892D02*
X103501857Y-86851178D01*
X103501857Y-86851178D02*
X103416142Y-86765464D01*
X103416142Y-86765464D02*
X103287571Y-86722607D01*
X103287571Y-86722607D02*
X103201857Y-86722607D01*
X103201857Y-86722607D02*
X103073285Y-86765464D01*
X103073285Y-86765464D02*
X103030428Y-86808321D01*
X102516142Y-87622607D02*
X102601857Y-87579750D01*
X102601857Y-87579750D02*
X102644714Y-87494035D01*
X102644714Y-87494035D02*
X102644714Y-86722607D01*
X102044713Y-87622607D02*
X102130428Y-87579750D01*
X102130428Y-87579750D02*
X102173285Y-87536892D01*
X102173285Y-87536892D02*
X102216142Y-87451178D01*
X102216142Y-87451178D02*
X102216142Y-87194035D01*
X102216142Y-87194035D02*
X102173285Y-87108321D01*
X102173285Y-87108321D02*
X102130428Y-87065464D01*
X102130428Y-87065464D02*
X102044713Y-87022607D01*
X102044713Y-87022607D02*
X101916142Y-87022607D01*
X101916142Y-87022607D02*
X101830428Y-87065464D01*
X101830428Y-87065464D02*
X101787571Y-87108321D01*
X101787571Y-87108321D02*
X101744713Y-87194035D01*
X101744713Y-87194035D02*
X101744713Y-87451178D01*
X101744713Y-87451178D02*
X101787571Y-87536892D01*
X101787571Y-87536892D02*
X101830428Y-87579750D01*
X101830428Y-87579750D02*
X101916142Y-87622607D01*
X101916142Y-87622607D02*
X102044713Y-87622607D01*
X100973285Y-87579750D02*
X101058999Y-87622607D01*
X101058999Y-87622607D02*
X101230427Y-87622607D01*
X101230427Y-87622607D02*
X101316142Y-87579750D01*
X101316142Y-87579750D02*
X101358999Y-87536892D01*
X101358999Y-87536892D02*
X101401856Y-87451178D01*
X101401856Y-87451178D02*
X101401856Y-87194035D01*
X101401856Y-87194035D02*
X101358999Y-87108321D01*
X101358999Y-87108321D02*
X101316142Y-87065464D01*
X101316142Y-87065464D02*
X101230427Y-87022607D01*
X101230427Y-87022607D02*
X101058999Y-87022607D01*
X101058999Y-87022607D02*
X100973285Y-87065464D01*
X100587570Y-87622607D02*
X100587570Y-86722607D01*
X100501856Y-87279750D02*
X100244713Y-87622607D01*
X100244713Y-87022607D02*
X100587570Y-87365464D01*
X99173285Y-87622607D02*
X99173285Y-86722607D01*
X99173285Y-86722607D02*
X98873285Y-87365464D01*
X98873285Y-87365464D02*
X98573285Y-86722607D01*
X98573285Y-86722607D02*
X98573285Y-87622607D01*
X98016142Y-87622607D02*
X98101857Y-87579750D01*
X98101857Y-87579750D02*
X98144714Y-87536892D01*
X98144714Y-87536892D02*
X98187571Y-87451178D01*
X98187571Y-87451178D02*
X98187571Y-87194035D01*
X98187571Y-87194035D02*
X98144714Y-87108321D01*
X98144714Y-87108321D02*
X98101857Y-87065464D01*
X98101857Y-87065464D02*
X98016142Y-87022607D01*
X98016142Y-87022607D02*
X97887571Y-87022607D01*
X97887571Y-87022607D02*
X97801857Y-87065464D01*
X97801857Y-87065464D02*
X97759000Y-87108321D01*
X97759000Y-87108321D02*
X97716142Y-87194035D01*
X97716142Y-87194035D02*
X97716142Y-87451178D01*
X97716142Y-87451178D02*
X97759000Y-87536892D01*
X97759000Y-87536892D02*
X97801857Y-87579750D01*
X97801857Y-87579750D02*
X97887571Y-87622607D01*
X97887571Y-87622607D02*
X98016142Y-87622607D01*
X96944714Y-87622607D02*
X96944714Y-86722607D01*
X96944714Y-87579750D02*
X97030428Y-87622607D01*
X97030428Y-87622607D02*
X97201856Y-87622607D01*
X97201856Y-87622607D02*
X97287571Y-87579750D01*
X97287571Y-87579750D02*
X97330428Y-87536892D01*
X97330428Y-87536892D02*
X97373285Y-87451178D01*
X97373285Y-87451178D02*
X97373285Y-87194035D01*
X97373285Y-87194035D02*
X97330428Y-87108321D01*
X97330428Y-87108321D02*
X97287571Y-87065464D01*
X97287571Y-87065464D02*
X97201856Y-87022607D01*
X97201856Y-87022607D02*
X97030428Y-87022607D01*
X97030428Y-87022607D02*
X96944714Y-87065464D01*
X96173285Y-87579750D02*
X96258999Y-87622607D01*
X96258999Y-87622607D02*
X96430428Y-87622607D01*
X96430428Y-87622607D02*
X96516142Y-87579750D01*
X96516142Y-87579750D02*
X96558999Y-87494035D01*
X96558999Y-87494035D02*
X96558999Y-87151178D01*
X96558999Y-87151178D02*
X96516142Y-87065464D01*
X96516142Y-87065464D02*
X96430428Y-87022607D01*
X96430428Y-87022607D02*
X96258999Y-87022607D01*
X96258999Y-87022607D02*
X96173285Y-87065464D01*
X96173285Y-87065464D02*
X96130428Y-87151178D01*
X96130428Y-87151178D02*
X96130428Y-87236892D01*
X96130428Y-87236892D02*
X96558999Y-87322607D01*
X95744713Y-87536892D02*
X95701856Y-87579750D01*
X95701856Y-87579750D02*
X95744713Y-87622607D01*
X95744713Y-87622607D02*
X95787570Y-87579750D01*
X95787570Y-87579750D02*
X95744713Y-87536892D01*
X95744713Y-87536892D02*
X95744713Y-87622607D01*
X95744713Y-87065464D02*
X95701856Y-87108321D01*
X95701856Y-87108321D02*
X95744713Y-87151178D01*
X95744713Y-87151178D02*
X95787570Y-87108321D01*
X95787570Y-87108321D02*
X95744713Y-87065464D01*
X95744713Y-87065464D02*
X95744713Y-87151178D01*
X103544714Y-89080607D02*
X103544714Y-88180607D01*
X103544714Y-88180607D02*
X103201857Y-88180607D01*
X103201857Y-88180607D02*
X103116142Y-88223464D01*
X103116142Y-88223464D02*
X103073285Y-88266321D01*
X103073285Y-88266321D02*
X103030428Y-88352035D01*
X103030428Y-88352035D02*
X103030428Y-88480607D01*
X103030428Y-88480607D02*
X103073285Y-88566321D01*
X103073285Y-88566321D02*
X103116142Y-88609178D01*
X103116142Y-88609178D02*
X103201857Y-88652035D01*
X103201857Y-88652035D02*
X103544714Y-88652035D01*
X102516142Y-89080607D02*
X102601857Y-89037750D01*
X102601857Y-89037750D02*
X102644714Y-88994892D01*
X102644714Y-88994892D02*
X102687571Y-88909178D01*
X102687571Y-88909178D02*
X102687571Y-88652035D01*
X102687571Y-88652035D02*
X102644714Y-88566321D01*
X102644714Y-88566321D02*
X102601857Y-88523464D01*
X102601857Y-88523464D02*
X102516142Y-88480607D01*
X102516142Y-88480607D02*
X102387571Y-88480607D01*
X102387571Y-88480607D02*
X102301857Y-88523464D01*
X102301857Y-88523464D02*
X102259000Y-88566321D01*
X102259000Y-88566321D02*
X102216142Y-88652035D01*
X102216142Y-88652035D02*
X102216142Y-88909178D01*
X102216142Y-88909178D02*
X102259000Y-88994892D01*
X102259000Y-88994892D02*
X102301857Y-89037750D01*
X102301857Y-89037750D02*
X102387571Y-89080607D01*
X102387571Y-89080607D02*
X102516142Y-89080607D01*
X101916142Y-88480607D02*
X101744714Y-89080607D01*
X101744714Y-89080607D02*
X101573285Y-88652035D01*
X101573285Y-88652035D02*
X101401856Y-89080607D01*
X101401856Y-89080607D02*
X101230428Y-88480607D01*
X100544714Y-89037750D02*
X100630428Y-89080607D01*
X100630428Y-89080607D02*
X100801857Y-89080607D01*
X100801857Y-89080607D02*
X100887571Y-89037750D01*
X100887571Y-89037750D02*
X100930428Y-88952035D01*
X100930428Y-88952035D02*
X100930428Y-88609178D01*
X100930428Y-88609178D02*
X100887571Y-88523464D01*
X100887571Y-88523464D02*
X100801857Y-88480607D01*
X100801857Y-88480607D02*
X100630428Y-88480607D01*
X100630428Y-88480607D02*
X100544714Y-88523464D01*
X100544714Y-88523464D02*
X100501857Y-88609178D01*
X100501857Y-88609178D02*
X100501857Y-88694892D01*
X100501857Y-88694892D02*
X100930428Y-88780607D01*
X100116142Y-89080607D02*
X100116142Y-88480607D01*
X100116142Y-88652035D02*
X100073285Y-88566321D01*
X100073285Y-88566321D02*
X100030428Y-88523464D01*
X100030428Y-88523464D02*
X99944713Y-88480607D01*
X99944713Y-88480607D02*
X99858999Y-88480607D01*
X98873285Y-89080607D02*
X98873285Y-88180607D01*
X98873285Y-88180607D02*
X98530428Y-88180607D01*
X98530428Y-88180607D02*
X98444713Y-88223464D01*
X98444713Y-88223464D02*
X98401856Y-88266321D01*
X98401856Y-88266321D02*
X98358999Y-88352035D01*
X98358999Y-88352035D02*
X98358999Y-88480607D01*
X98358999Y-88480607D02*
X98401856Y-88566321D01*
X98401856Y-88566321D02*
X98444713Y-88609178D01*
X98444713Y-88609178D02*
X98530428Y-88652035D01*
X98530428Y-88652035D02*
X98873285Y-88652035D01*
X97973285Y-89080607D02*
X97973285Y-88480607D01*
X97973285Y-88180607D02*
X98016142Y-88223464D01*
X98016142Y-88223464D02*
X97973285Y-88266321D01*
X97973285Y-88266321D02*
X97930428Y-88223464D01*
X97930428Y-88223464D02*
X97973285Y-88180607D01*
X97973285Y-88180607D02*
X97973285Y-88266321D01*
X97544714Y-88480607D02*
X97544714Y-89080607D01*
X97544714Y-88566321D02*
X97501857Y-88523464D01*
X97501857Y-88523464D02*
X97416142Y-88480607D01*
X97416142Y-88480607D02*
X97287571Y-88480607D01*
X97287571Y-88480607D02*
X97201857Y-88523464D01*
X97201857Y-88523464D02*
X97159000Y-88609178D01*
X97159000Y-88609178D02*
X97159000Y-89080607D01*
X96730428Y-88994892D02*
X96687571Y-89037750D01*
X96687571Y-89037750D02*
X96730428Y-89080607D01*
X96730428Y-89080607D02*
X96773285Y-89037750D01*
X96773285Y-89037750D02*
X96730428Y-88994892D01*
X96730428Y-88994892D02*
X96730428Y-89080607D01*
X96730428Y-88523464D02*
X96687571Y-88566321D01*
X96687571Y-88566321D02*
X96730428Y-88609178D01*
X96730428Y-88609178D02*
X96773285Y-88566321D01*
X96773285Y-88566321D02*
X96730428Y-88523464D01*
X96730428Y-88523464D02*
X96730428Y-88609178D01*
X103544714Y-90538607D02*
X103544714Y-89638607D01*
X103544714Y-89638607D02*
X103244714Y-90281464D01*
X103244714Y-90281464D02*
X102944714Y-89638607D01*
X102944714Y-89638607D02*
X102944714Y-90538607D01*
X102516143Y-90538607D02*
X102516143Y-89638607D01*
X102516143Y-89638607D02*
X102301857Y-89638607D01*
X102301857Y-89638607D02*
X102173286Y-89681464D01*
X102173286Y-89681464D02*
X102087571Y-89767178D01*
X102087571Y-89767178D02*
X102044714Y-89852892D01*
X102044714Y-89852892D02*
X102001857Y-90024321D01*
X102001857Y-90024321D02*
X102001857Y-90152892D01*
X102001857Y-90152892D02*
X102044714Y-90324321D01*
X102044714Y-90324321D02*
X102087571Y-90410035D01*
X102087571Y-90410035D02*
X102173286Y-90495750D01*
X102173286Y-90495750D02*
X102301857Y-90538607D01*
X102301857Y-90538607D02*
X102516143Y-90538607D01*
X101101857Y-90452892D02*
X101144714Y-90495750D01*
X101144714Y-90495750D02*
X101273286Y-90538607D01*
X101273286Y-90538607D02*
X101359000Y-90538607D01*
X101359000Y-90538607D02*
X101487571Y-90495750D01*
X101487571Y-90495750D02*
X101573286Y-90410035D01*
X101573286Y-90410035D02*
X101616143Y-90324321D01*
X101616143Y-90324321D02*
X101659000Y-90152892D01*
X101659000Y-90152892D02*
X101659000Y-90024321D01*
X101659000Y-90024321D02*
X101616143Y-89852892D01*
X101616143Y-89852892D02*
X101573286Y-89767178D01*
X101573286Y-89767178D02*
X101487571Y-89681464D01*
X101487571Y-89681464D02*
X101359000Y-89638607D01*
X101359000Y-89638607D02*
X101273286Y-89638607D01*
X101273286Y-89638607D02*
X101144714Y-89681464D01*
X101144714Y-89681464D02*
X101101857Y-89724321D01*
X100030429Y-90538607D02*
X100030429Y-89638607D01*
X100030429Y-89638607D02*
X99687572Y-89638607D01*
X99687572Y-89638607D02*
X99601857Y-89681464D01*
X99601857Y-89681464D02*
X99559000Y-89724321D01*
X99559000Y-89724321D02*
X99516143Y-89810035D01*
X99516143Y-89810035D02*
X99516143Y-89938607D01*
X99516143Y-89938607D02*
X99559000Y-90024321D01*
X99559000Y-90024321D02*
X99601857Y-90067178D01*
X99601857Y-90067178D02*
X99687572Y-90110035D01*
X99687572Y-90110035D02*
X100030429Y-90110035D01*
X99130429Y-90538607D02*
X99130429Y-89938607D01*
X99130429Y-89638607D02*
X99173286Y-89681464D01*
X99173286Y-89681464D02*
X99130429Y-89724321D01*
X99130429Y-89724321D02*
X99087572Y-89681464D01*
X99087572Y-89681464D02*
X99130429Y-89638607D01*
X99130429Y-89638607D02*
X99130429Y-89724321D01*
X98701858Y-89938607D02*
X98701858Y-90538607D01*
X98701858Y-90024321D02*
X98659001Y-89981464D01*
X98659001Y-89981464D02*
X98573286Y-89938607D01*
X98573286Y-89938607D02*
X98444715Y-89938607D01*
X98444715Y-89938607D02*
X98359001Y-89981464D01*
X98359001Y-89981464D02*
X98316144Y-90067178D01*
X98316144Y-90067178D02*
X98316144Y-90538607D01*
X97887572Y-90452892D02*
X97844715Y-90495750D01*
X97844715Y-90495750D02*
X97887572Y-90538607D01*
X97887572Y-90538607D02*
X97930429Y-90495750D01*
X97930429Y-90495750D02*
X97887572Y-90452892D01*
X97887572Y-90452892D02*
X97887572Y-90538607D01*
X97887572Y-89981464D02*
X97844715Y-90024321D01*
X97844715Y-90024321D02*
X97887572Y-90067178D01*
X97887572Y-90067178D02*
X97930429Y-90024321D01*
X97930429Y-90024321D02*
X97887572Y-89981464D01*
X97887572Y-89981464D02*
X97887572Y-90067178D01*
X103544714Y-91996607D02*
X103544714Y-91096607D01*
X103544714Y-91096607D02*
X103244714Y-91739464D01*
X103244714Y-91739464D02*
X102944714Y-91096607D01*
X102944714Y-91096607D02*
X102944714Y-91996607D01*
X102516143Y-91996607D02*
X102516143Y-91096607D01*
X102516143Y-91096607D02*
X102301857Y-91096607D01*
X102301857Y-91096607D02*
X102173286Y-91139464D01*
X102173286Y-91139464D02*
X102087571Y-91225178D01*
X102087571Y-91225178D02*
X102044714Y-91310892D01*
X102044714Y-91310892D02*
X102001857Y-91482321D01*
X102001857Y-91482321D02*
X102001857Y-91610892D01*
X102001857Y-91610892D02*
X102044714Y-91782321D01*
X102044714Y-91782321D02*
X102087571Y-91868035D01*
X102087571Y-91868035D02*
X102173286Y-91953750D01*
X102173286Y-91953750D02*
X102301857Y-91996607D01*
X102301857Y-91996607D02*
X102516143Y-91996607D01*
X101616143Y-91996607D02*
X101616143Y-91096607D01*
X101016143Y-91096607D02*
X100844715Y-91096607D01*
X100844715Y-91096607D02*
X100759000Y-91139464D01*
X100759000Y-91139464D02*
X100673286Y-91225178D01*
X100673286Y-91225178D02*
X100630429Y-91396607D01*
X100630429Y-91396607D02*
X100630429Y-91696607D01*
X100630429Y-91696607D02*
X100673286Y-91868035D01*
X100673286Y-91868035D02*
X100759000Y-91953750D01*
X100759000Y-91953750D02*
X100844715Y-91996607D01*
X100844715Y-91996607D02*
X101016143Y-91996607D01*
X101016143Y-91996607D02*
X101101858Y-91953750D01*
X101101858Y-91953750D02*
X101187572Y-91868035D01*
X101187572Y-91868035D02*
X101230429Y-91696607D01*
X101230429Y-91696607D02*
X101230429Y-91396607D01*
X101230429Y-91396607D02*
X101187572Y-91225178D01*
X101187572Y-91225178D02*
X101101858Y-91139464D01*
X101101858Y-91139464D02*
X101016143Y-91096607D01*
X99559001Y-91996607D02*
X99559001Y-91096607D01*
X99559001Y-91096607D02*
X99216144Y-91096607D01*
X99216144Y-91096607D02*
X99130429Y-91139464D01*
X99130429Y-91139464D02*
X99087572Y-91182321D01*
X99087572Y-91182321D02*
X99044715Y-91268035D01*
X99044715Y-91268035D02*
X99044715Y-91396607D01*
X99044715Y-91396607D02*
X99087572Y-91482321D01*
X99087572Y-91482321D02*
X99130429Y-91525178D01*
X99130429Y-91525178D02*
X99216144Y-91568035D01*
X99216144Y-91568035D02*
X99559001Y-91568035D01*
X98659001Y-91996607D02*
X98659001Y-91396607D01*
X98659001Y-91096607D02*
X98701858Y-91139464D01*
X98701858Y-91139464D02*
X98659001Y-91182321D01*
X98659001Y-91182321D02*
X98616144Y-91139464D01*
X98616144Y-91139464D02*
X98659001Y-91096607D01*
X98659001Y-91096607D02*
X98659001Y-91182321D01*
X98230430Y-91396607D02*
X98230430Y-91996607D01*
X98230430Y-91482321D02*
X98187573Y-91439464D01*
X98187573Y-91439464D02*
X98101858Y-91396607D01*
X98101858Y-91396607D02*
X97973287Y-91396607D01*
X97973287Y-91396607D02*
X97887573Y-91439464D01*
X97887573Y-91439464D02*
X97844716Y-91525178D01*
X97844716Y-91525178D02*
X97844716Y-91996607D01*
X97416144Y-91910892D02*
X97373287Y-91953750D01*
X97373287Y-91953750D02*
X97416144Y-91996607D01*
X97416144Y-91996607D02*
X97459001Y-91953750D01*
X97459001Y-91953750D02*
X97416144Y-91910892D01*
X97416144Y-91910892D02*
X97416144Y-91996607D01*
X97416144Y-91439464D02*
X97373287Y-91482321D01*
X97373287Y-91482321D02*
X97416144Y-91525178D01*
X97416144Y-91525178D02*
X97459001Y-91482321D01*
X97459001Y-91482321D02*
X97416144Y-91439464D01*
X97416144Y-91439464D02*
X97416144Y-91525178D01*
X118192571Y-84536750D02*
X118064000Y-84579607D01*
X118064000Y-84579607D02*
X117849714Y-84579607D01*
X117849714Y-84579607D02*
X117764000Y-84536750D01*
X117764000Y-84536750D02*
X117721142Y-84493892D01*
X117721142Y-84493892D02*
X117678285Y-84408178D01*
X117678285Y-84408178D02*
X117678285Y-84322464D01*
X117678285Y-84322464D02*
X117721142Y-84236750D01*
X117721142Y-84236750D02*
X117764000Y-84193892D01*
X117764000Y-84193892D02*
X117849714Y-84151035D01*
X117849714Y-84151035D02*
X118021142Y-84108178D01*
X118021142Y-84108178D02*
X118106857Y-84065321D01*
X118106857Y-84065321D02*
X118149714Y-84022464D01*
X118149714Y-84022464D02*
X118192571Y-83936750D01*
X118192571Y-83936750D02*
X118192571Y-83851035D01*
X118192571Y-83851035D02*
X118149714Y-83765321D01*
X118149714Y-83765321D02*
X118106857Y-83722464D01*
X118106857Y-83722464D02*
X118021142Y-83679607D01*
X118021142Y-83679607D02*
X117806857Y-83679607D01*
X117806857Y-83679607D02*
X117678285Y-83722464D01*
X116778285Y-84493892D02*
X116821142Y-84536750D01*
X116821142Y-84536750D02*
X116949714Y-84579607D01*
X116949714Y-84579607D02*
X117035428Y-84579607D01*
X117035428Y-84579607D02*
X117163999Y-84536750D01*
X117163999Y-84536750D02*
X117249714Y-84451035D01*
X117249714Y-84451035D02*
X117292571Y-84365321D01*
X117292571Y-84365321D02*
X117335428Y-84193892D01*
X117335428Y-84193892D02*
X117335428Y-84065321D01*
X117335428Y-84065321D02*
X117292571Y-83893892D01*
X117292571Y-83893892D02*
X117249714Y-83808178D01*
X117249714Y-83808178D02*
X117163999Y-83722464D01*
X117163999Y-83722464D02*
X117035428Y-83679607D01*
X117035428Y-83679607D02*
X116949714Y-83679607D01*
X116949714Y-83679607D02*
X116821142Y-83722464D01*
X116821142Y-83722464D02*
X116778285Y-83765321D01*
X115963999Y-84579607D02*
X116392571Y-84579607D01*
X116392571Y-84579607D02*
X116392571Y-83679607D01*
X115664000Y-84579607D02*
X115664000Y-83679607D01*
X115149714Y-84579607D02*
X115535428Y-84065321D01*
X115149714Y-83679607D02*
X115664000Y-84193892D01*
X114764000Y-84493892D02*
X114721143Y-84536750D01*
X114721143Y-84536750D02*
X114764000Y-84579607D01*
X114764000Y-84579607D02*
X114806857Y-84536750D01*
X114806857Y-84536750D02*
X114764000Y-84493892D01*
X114764000Y-84493892D02*
X114764000Y-84579607D01*
X114764000Y-84022464D02*
X114721143Y-84065321D01*
X114721143Y-84065321D02*
X114764000Y-84108178D01*
X114764000Y-84108178D02*
X114806857Y-84065321D01*
X114806857Y-84065321D02*
X114764000Y-84022464D01*
X114764000Y-84022464D02*
X114764000Y-84108178D01*
X117635428Y-85951892D02*
X117678285Y-85994750D01*
X117678285Y-85994750D02*
X117806857Y-86037607D01*
X117806857Y-86037607D02*
X117892571Y-86037607D01*
X117892571Y-86037607D02*
X118021142Y-85994750D01*
X118021142Y-85994750D02*
X118106857Y-85909035D01*
X118106857Y-85909035D02*
X118149714Y-85823321D01*
X118149714Y-85823321D02*
X118192571Y-85651892D01*
X118192571Y-85651892D02*
X118192571Y-85523321D01*
X118192571Y-85523321D02*
X118149714Y-85351892D01*
X118149714Y-85351892D02*
X118106857Y-85266178D01*
X118106857Y-85266178D02*
X118021142Y-85180464D01*
X118021142Y-85180464D02*
X117892571Y-85137607D01*
X117892571Y-85137607D02*
X117806857Y-85137607D01*
X117806857Y-85137607D02*
X117678285Y-85180464D01*
X117678285Y-85180464D02*
X117635428Y-85223321D01*
X117292571Y-85994750D02*
X117164000Y-86037607D01*
X117164000Y-86037607D02*
X116949714Y-86037607D01*
X116949714Y-86037607D02*
X116864000Y-85994750D01*
X116864000Y-85994750D02*
X116821142Y-85951892D01*
X116821142Y-85951892D02*
X116778285Y-85866178D01*
X116778285Y-85866178D02*
X116778285Y-85780464D01*
X116778285Y-85780464D02*
X116821142Y-85694750D01*
X116821142Y-85694750D02*
X116864000Y-85651892D01*
X116864000Y-85651892D02*
X116949714Y-85609035D01*
X116949714Y-85609035D02*
X117121142Y-85566178D01*
X117121142Y-85566178D02*
X117206857Y-85523321D01*
X117206857Y-85523321D02*
X117249714Y-85480464D01*
X117249714Y-85480464D02*
X117292571Y-85394750D01*
X117292571Y-85394750D02*
X117292571Y-85309035D01*
X117292571Y-85309035D02*
X117249714Y-85223321D01*
X117249714Y-85223321D02*
X117206857Y-85180464D01*
X117206857Y-85180464D02*
X117121142Y-85137607D01*
X117121142Y-85137607D02*
X116906857Y-85137607D01*
X116906857Y-85137607D02*
X116778285Y-85180464D01*
X116392571Y-86037607D02*
X116392571Y-85137607D01*
X116392571Y-85137607D02*
X115878285Y-86037607D01*
X115878285Y-86037607D02*
X115878285Y-85137607D01*
X115449714Y-85951892D02*
X115406857Y-85994750D01*
X115406857Y-85994750D02*
X115449714Y-86037607D01*
X115449714Y-86037607D02*
X115492571Y-85994750D01*
X115492571Y-85994750D02*
X115449714Y-85951892D01*
X115449714Y-85951892D02*
X115449714Y-86037607D01*
X115449714Y-85480464D02*
X115406857Y-85523321D01*
X115406857Y-85523321D02*
X115449714Y-85566178D01*
X115449714Y-85566178D02*
X115492571Y-85523321D01*
X115492571Y-85523321D02*
X115449714Y-85480464D01*
X115449714Y-85480464D02*
X115449714Y-85566178D01*
X118149714Y-87495607D02*
X118149714Y-86595607D01*
X118149714Y-86595607D02*
X117849714Y-87238464D01*
X117849714Y-87238464D02*
X117549714Y-86595607D01*
X117549714Y-86595607D02*
X117549714Y-87495607D01*
X116949714Y-86595607D02*
X116778286Y-86595607D01*
X116778286Y-86595607D02*
X116692571Y-86638464D01*
X116692571Y-86638464D02*
X116606857Y-86724178D01*
X116606857Y-86724178D02*
X116564000Y-86895607D01*
X116564000Y-86895607D02*
X116564000Y-87195607D01*
X116564000Y-87195607D02*
X116606857Y-87367035D01*
X116606857Y-87367035D02*
X116692571Y-87452750D01*
X116692571Y-87452750D02*
X116778286Y-87495607D01*
X116778286Y-87495607D02*
X116949714Y-87495607D01*
X116949714Y-87495607D02*
X117035429Y-87452750D01*
X117035429Y-87452750D02*
X117121143Y-87367035D01*
X117121143Y-87367035D02*
X117164000Y-87195607D01*
X117164000Y-87195607D02*
X117164000Y-86895607D01*
X117164000Y-86895607D02*
X117121143Y-86724178D01*
X117121143Y-86724178D02*
X117035429Y-86638464D01*
X117035429Y-86638464D02*
X116949714Y-86595607D01*
X116221143Y-87452750D02*
X116092572Y-87495607D01*
X116092572Y-87495607D02*
X115878286Y-87495607D01*
X115878286Y-87495607D02*
X115792572Y-87452750D01*
X115792572Y-87452750D02*
X115749714Y-87409892D01*
X115749714Y-87409892D02*
X115706857Y-87324178D01*
X115706857Y-87324178D02*
X115706857Y-87238464D01*
X115706857Y-87238464D02*
X115749714Y-87152750D01*
X115749714Y-87152750D02*
X115792572Y-87109892D01*
X115792572Y-87109892D02*
X115878286Y-87067035D01*
X115878286Y-87067035D02*
X116049714Y-87024178D01*
X116049714Y-87024178D02*
X116135429Y-86981321D01*
X116135429Y-86981321D02*
X116178286Y-86938464D01*
X116178286Y-86938464D02*
X116221143Y-86852750D01*
X116221143Y-86852750D02*
X116221143Y-86767035D01*
X116221143Y-86767035D02*
X116178286Y-86681321D01*
X116178286Y-86681321D02*
X116135429Y-86638464D01*
X116135429Y-86638464D02*
X116049714Y-86595607D01*
X116049714Y-86595607D02*
X115835429Y-86595607D01*
X115835429Y-86595607D02*
X115706857Y-86638464D01*
X115321143Y-87495607D02*
X115321143Y-86595607D01*
X114892572Y-87409892D02*
X114849715Y-87452750D01*
X114849715Y-87452750D02*
X114892572Y-87495607D01*
X114892572Y-87495607D02*
X114935429Y-87452750D01*
X114935429Y-87452750D02*
X114892572Y-87409892D01*
X114892572Y-87409892D02*
X114892572Y-87495607D01*
X114892572Y-86938464D02*
X114849715Y-86981321D01*
X114849715Y-86981321D02*
X114892572Y-87024178D01*
X114892572Y-87024178D02*
X114935429Y-86981321D01*
X114935429Y-86981321D02*
X114892572Y-86938464D01*
X114892572Y-86938464D02*
X114892572Y-87024178D01*
X118149714Y-88953607D02*
X118149714Y-88053607D01*
X118149714Y-88053607D02*
X117849714Y-88696464D01*
X117849714Y-88696464D02*
X117549714Y-88053607D01*
X117549714Y-88053607D02*
X117549714Y-88953607D01*
X117121143Y-88953607D02*
X117121143Y-88053607D01*
X116735429Y-88910750D02*
X116606858Y-88953607D01*
X116606858Y-88953607D02*
X116392572Y-88953607D01*
X116392572Y-88953607D02*
X116306858Y-88910750D01*
X116306858Y-88910750D02*
X116264000Y-88867892D01*
X116264000Y-88867892D02*
X116221143Y-88782178D01*
X116221143Y-88782178D02*
X116221143Y-88696464D01*
X116221143Y-88696464D02*
X116264000Y-88610750D01*
X116264000Y-88610750D02*
X116306858Y-88567892D01*
X116306858Y-88567892D02*
X116392572Y-88525035D01*
X116392572Y-88525035D02*
X116564000Y-88482178D01*
X116564000Y-88482178D02*
X116649715Y-88439321D01*
X116649715Y-88439321D02*
X116692572Y-88396464D01*
X116692572Y-88396464D02*
X116735429Y-88310750D01*
X116735429Y-88310750D02*
X116735429Y-88225035D01*
X116735429Y-88225035D02*
X116692572Y-88139321D01*
X116692572Y-88139321D02*
X116649715Y-88096464D01*
X116649715Y-88096464D02*
X116564000Y-88053607D01*
X116564000Y-88053607D02*
X116349715Y-88053607D01*
X116349715Y-88053607D02*
X116221143Y-88096464D01*
X115664000Y-88053607D02*
X115492572Y-88053607D01*
X115492572Y-88053607D02*
X115406857Y-88096464D01*
X115406857Y-88096464D02*
X115321143Y-88182178D01*
X115321143Y-88182178D02*
X115278286Y-88353607D01*
X115278286Y-88353607D02*
X115278286Y-88653607D01*
X115278286Y-88653607D02*
X115321143Y-88825035D01*
X115321143Y-88825035D02*
X115406857Y-88910750D01*
X115406857Y-88910750D02*
X115492572Y-88953607D01*
X115492572Y-88953607D02*
X115664000Y-88953607D01*
X115664000Y-88953607D02*
X115749715Y-88910750D01*
X115749715Y-88910750D02*
X115835429Y-88825035D01*
X115835429Y-88825035D02*
X115878286Y-88653607D01*
X115878286Y-88653607D02*
X115878286Y-88353607D01*
X115878286Y-88353607D02*
X115835429Y-88182178D01*
X115835429Y-88182178D02*
X115749715Y-88096464D01*
X115749715Y-88096464D02*
X115664000Y-88053607D01*
X114892572Y-88867892D02*
X114849715Y-88910750D01*
X114849715Y-88910750D02*
X114892572Y-88953607D01*
X114892572Y-88953607D02*
X114935429Y-88910750D01*
X114935429Y-88910750D02*
X114892572Y-88867892D01*
X114892572Y-88867892D02*
X114892572Y-88953607D01*
X114892572Y-88396464D02*
X114849715Y-88439321D01*
X114849715Y-88439321D02*
X114892572Y-88482178D01*
X114892572Y-88482178D02*
X114935429Y-88439321D01*
X114935429Y-88439321D02*
X114892572Y-88396464D01*
X114892572Y-88396464D02*
X114892572Y-88482178D01*
X118278285Y-89511607D02*
X117764000Y-89511607D01*
X118021142Y-90411607D02*
X118021142Y-89511607D01*
X117549714Y-89511607D02*
X116949714Y-90411607D01*
X116949714Y-89511607D02*
X117549714Y-90411607D01*
X116606857Y-90325892D02*
X116564000Y-90368750D01*
X116564000Y-90368750D02*
X116606857Y-90411607D01*
X116606857Y-90411607D02*
X116649714Y-90368750D01*
X116649714Y-90368750D02*
X116606857Y-90325892D01*
X116606857Y-90325892D02*
X116606857Y-90411607D01*
X116606857Y-89854464D02*
X116564000Y-89897321D01*
X116564000Y-89897321D02*
X116606857Y-89940178D01*
X116606857Y-89940178D02*
X116649714Y-89897321D01*
X116649714Y-89897321D02*
X116606857Y-89854464D01*
X116606857Y-89854464D02*
X116606857Y-89940178D01*
X117635428Y-91869607D02*
X117935428Y-91441035D01*
X118149714Y-91869607D02*
X118149714Y-90969607D01*
X118149714Y-90969607D02*
X117806857Y-90969607D01*
X117806857Y-90969607D02*
X117721142Y-91012464D01*
X117721142Y-91012464D02*
X117678285Y-91055321D01*
X117678285Y-91055321D02*
X117635428Y-91141035D01*
X117635428Y-91141035D02*
X117635428Y-91269607D01*
X117635428Y-91269607D02*
X117678285Y-91355321D01*
X117678285Y-91355321D02*
X117721142Y-91398178D01*
X117721142Y-91398178D02*
X117806857Y-91441035D01*
X117806857Y-91441035D02*
X118149714Y-91441035D01*
X117335428Y-90969607D02*
X116735428Y-91869607D01*
X116735428Y-90969607D02*
X117335428Y-91869607D01*
X116392571Y-91783892D02*
X116349714Y-91826750D01*
X116349714Y-91826750D02*
X116392571Y-91869607D01*
X116392571Y-91869607D02*
X116435428Y-91826750D01*
X116435428Y-91826750D02*
X116392571Y-91783892D01*
X116392571Y-91783892D02*
X116392571Y-91869607D01*
X116392571Y-91312464D02*
X116349714Y-91355321D01*
X116349714Y-91355321D02*
X116392571Y-91398178D01*
X116392571Y-91398178D02*
X116435428Y-91355321D01*
X116435428Y-91355321D02*
X116392571Y-91312464D01*
X116392571Y-91312464D02*
X116392571Y-91398178D01*
D12*
%TO.C,UEXT*%
X107662619Y-66854762D02*
X108472142Y-66854762D01*
X108472142Y-66854762D02*
X108567380Y-66902381D01*
X108567380Y-66902381D02*
X108615000Y-66950000D01*
X108615000Y-66950000D02*
X108662619Y-67045238D01*
X108662619Y-67045238D02*
X108662619Y-67235714D01*
X108662619Y-67235714D02*
X108615000Y-67330952D01*
X108615000Y-67330952D02*
X108567380Y-67378571D01*
X108567380Y-67378571D02*
X108472142Y-67426190D01*
X108472142Y-67426190D02*
X107662619Y-67426190D01*
X108138809Y-67902381D02*
X108138809Y-68235714D01*
X108662619Y-68378571D02*
X108662619Y-67902381D01*
X108662619Y-67902381D02*
X107662619Y-67902381D01*
X107662619Y-67902381D02*
X107662619Y-68378571D01*
X107662619Y-68711905D02*
X108662619Y-69378571D01*
X107662619Y-69378571D02*
X108662619Y-68711905D01*
X107662619Y-69616667D02*
X107662619Y-70188095D01*
X108662619Y-69902381D02*
X107662619Y-69902381D01*
D13*
X91940000Y-62376000D02*
X91440000Y-63376000D01*
X90940000Y-62376000D02*
X91940000Y-62376000D01*
X91440000Y-63376000D02*
X90940000Y-62376000D01*
X106810000Y-63766000D02*
X86230000Y-63766000D01*
X94470000Y-63766000D02*
X94470000Y-65076000D01*
X86230000Y-63766000D02*
X86230000Y-72886000D01*
X105510000Y-65076000D02*
X98570000Y-65076000D01*
X98570000Y-65076000D02*
X98570000Y-63766000D01*
X98570000Y-65076000D02*
X98570000Y-65076000D01*
X94470000Y-65076000D02*
X87530000Y-65076000D01*
X87530000Y-65076000D02*
X87530000Y-71576000D01*
X105510000Y-71576000D02*
X105510000Y-65076000D01*
X87530000Y-71576000D02*
X105510000Y-71576000D01*
X106810000Y-72886000D02*
X106810000Y-63766000D01*
X86230000Y-72886000D02*
X106810000Y-72886000D01*
%TD*%
M02*
